<?xml version="1.0" encoding="UTF-8" standalone="no"?>
<!-- Created with Inkscape (http://www.inkscape.org/) -->

<svg
   xmlns:dc="http://purl.org/dc/elements/1.1/"
   xmlns:cc="http://creativecommons.org/ns#"
   xmlns:rdf="http://www.w3.org/1999/02/22-rdf-syntax-ns#"
   xmlns:svg="http://www.w3.org/2000/svg"
   xmlns="http://www.w3.org/2000/svg"
   xmlns:sodipodi="http://sodipodi.sourceforge.net/DTD/sodipodi-0.dtd"
   xmlns:inkscape="http://www.inkscape.org/namespaces/inkscape"
   width="282.63242mm"
   height="357.04965mm"
   viewBox="0 0 282.63242 357.04965"
   version="1.1"
   id="svg1449"
   inkscape:version="0.92.2 2405546, 2018-03-11"
   sodipodi:docname="logo-new-tag.svg"
   inkscape:export-filename="/home/fred/bitmap.png"
   inkscape:export-xdpi="224.67"
   inkscape:export-ydpi="224.67">
  <defs
     id="defs1443" />
  <sodipodi:namedview
     id="base"
     pagecolor="#ffffff"
     bordercolor="#666666"
     borderopacity="1.0"
     inkscape:pageopacity="0.0"
     inkscape:pageshadow="2"
     inkscape:zoom="0.35"
     inkscape:cx="882.6799"
     inkscape:cy="311.93907"
     inkscape:document-units="mm"
     inkscape:current-layer="layer1"
     showgrid="false"
     fit-margin-top="0"
     fit-margin-left="0"
     fit-margin-right="0"
     fit-margin-bottom="0"
     inkscape:window-width="1920"
     inkscape:window-height="1150"
     inkscape:window-x="0"
     inkscape:window-y="23"
     inkscape:window-maximized="1" />
  <metadata
     id="metadata1446">
    <rdf:RDF>
      <cc:Work
         rdf:about="">
        <dc:format>image/svg+xml</dc:format>
        <dc:type
           rdf:resource="http://purl.org/dc/dcmitype/StillImage" />
        <dc:title />
      </cc:Work>
    </rdf:RDF>
  </metadata>
  <g
     inkscape:label="Layer 1"
     inkscape:groupmode="layer"
     id="layer1"
     transform="translate(421.01858,125.68243)">
    <g
       id="g2094">
      <g
         id="XMLID_8_"
         transform="matrix(0.26458333,0,0,0.26458333,-685.14286,-814.44331)">
        <g
           id="g418">
          <path
             id="path370"
             d="m 1718.588,2906.113 c 1.594,0.938 2.657,3.595 3.313,7.033 -5.501,-4.345 -11.472,-8.783 -17.879,-13.253 5.689,1.876 10.69,3.939 14.566,6.22 z"
             inkscape:connector-curvature="0"
             style="fill:#af7b4b" />
          <path
             id="path372"
             d="m 1308.774,3219.437 c -24.193,-17.191 -74.455,-204.892 -74.455,-204.892 -0.125,-1.719 -0.188,-3.501 -0.188,-5.407 0.844,-24.662 70.516,-160.6 70.516,-160.6 180.761,-34.165 344.768,40.071 344.768,40.071 -16.003,-2.188 -28.1,-3.188 -28.1,-3.188 0,0 -9.377,0.594 -9.784,15.035 -0.375,14.472 0,29.882 0,29.882 0,0 1,8.408 8.814,8.408 7.814,0 69.923,1.97 86.521,7.627 16.628,5.657 15.628,-6.846 15.628,-6.846 0,0 1.313,-16.41 -0.594,-26.381 17.785,14.065 30.944,27.256 40.259,37.79 12.69,14.472 18.098,24.006 18.098,24.006 0.313,7.282 4.283,193.701 -12.502,210.486 0,0 -3.626,8.471 -18.098,-0.531 -12.222,-7.596 -119.278,-54.044 -312.229,-3.313 -35.164,9.221 -73.204,21.692 -114.026,38.228 -12.44,5.001 -14.847,0 -14.847,0 z m 420.41,-173.979 c 5.001,-4.626 -1.219,-9.814 -1.219,-9.814 -57.232,-49.043 -103.712,-1.156 -103.712,-1.156 0,0 -5.532,6.032 -2.125,9.908 3.438,3.845 9.721,1.406 9.721,1.406 0,0 37.728,-42.01 87.739,0 0,0 4.626,4.314 9.596,-0.344 z m -101.43,59.358 c 0.781,-9.784 -28.507,-49.043 -22.849,-38.291 5.658,10.722 5.064,37.29 5.064,37.29 l -72.08,19.942 c 31.07,10.158 84.582,-8.002 84.801,-9.002 0.188,-0.968 4.283,-0.187 5.064,-9.939 z m -152.254,-54.7 c 3.5,-4.314 0,-9.003 0,-9.003 -73.705,-42.979 -123.185,24.475 -123.185,24.475 0,0 -2.25,6.971 2.438,9.408 4.688,2.47 4.688,1.688 7.721,-0.781 3.032,-2.438 37.884,-55.95 101.773,-24.318 10e-4,-10e-4 7.784,4.501 11.253,0.219 z m -27.35,-122.31 c 3.407,-24.224 -12.753,-35.164 -12.753,-35.164 -75.549,-2.595 -135.438,39.071 -135.438,39.071 0,0 -14.847,33.852 19.254,33.852 0,0 69.829,-18.973 116.184,-19.785 13.316,-0.251 12.753,-17.974 12.753,-17.974 z"
             inkscape:connector-curvature="0"
             style="fill:#fdc88a" />
          <path
             id="path374"
             d="m 1812.485,2911.615 c 0,0 0,0 7.376,-16.379 7.377,-16.348 10.409,-35.946 12.503,-69.798 2.032,-33.227 -35.07,-64.671 -36.446,-65.797 0.75,2.408 30.632,98.305 16.567,151.974 z m -8.877,103.93 7.658,137.845 h -0.031 l 2.125,68.672 c 0,0 -1.25,48.355 -2.594,93.335 v 0.031 c -1.813,1.156 -59.764,38.634 -99.773,63.265 -40.635,25.006 -66.422,28.913 -89.958,32.038 -23.537,3.126 -76.487,4.688 -117.121,-7.814 -40.634,-12.502 -50.012,-21.88 -62.515,-28.912 -12.503,-7.033 -50.793,-41.416 -60.952,-54.263 -10.158,-12.815 -20.317,-33.258 -21.099,-38.729 -0.781,-5.47 2.344,-19.535 10.94,-32.038 8.596,-12.503 67.14,-67.391 67.14,-67.391 192.951,-50.73 300.007,-4.282 312.229,3.313 14.472,9.002 18.098,0.531 18.098,0.531 16.785,-16.785 12.815,-203.204 12.502,-210.486 0,0 -5.407,-9.534 -18.098,-24.006 23.537,-23.568 27.756,-159.475 26.569,-161.443 -1.157,-1.938 -14.253,-29.914 -14.253,-29.914 2.407,1.876 -4.095,-14.378 -4.095,-14.378 l 10.502,-3.626 c 0,0 13.44,-2.625 20.223,3.626 6.783,6.252 55.232,41.166 55.732,72.423 0.531,31.008 -50.48,171.259 -51.293,184.137 z m -191.701,306.165 c 118.778,-26.225 105.494,-123.122 105.494,-123.122 -110.963,-29.694 -275.846,36.728 -275.846,36.728 0,0 51.574,112.65 170.352,86.394 z"
             inkscape:connector-curvature="0"
             style="fill:#b7906b" />
          <path
             id="path376"
             d="m 1203.843,3126.29 c 11.972,2.094 31.757,39.603 31.757,39.603 0,0 -30.194,-6.533 -35.664,-9.127 -5.47,-2.595 -8.096,-7.283 -13.566,-11.034 -5.47,-3.782 -0.781,-11.628 2.094,-15.284 2.876,-3.627 3.377,-6.253 15.379,-4.158 z"
             inkscape:connector-curvature="0"
             style="fill:#fcb86d" />
          <path
             id="path378"
             d="m 1727.965,3035.644 c 0,0 6.22,5.188 1.219,9.814 -4.97,4.658 -9.596,0.344 -9.596,0.344 -50.012,-42.01 -87.739,0 -87.739,0 0,0 -6.283,2.438 -9.721,-1.406 -3.407,-3.876 2.125,-9.908 2.125,-9.908 0,0 46.48,-47.887 103.712,1.156 z"
             inkscape:connector-curvature="0"
             style="fill:#af7b4b" />
          <path
             id="path380"
             d="m 1234.132,3088.406 21.286,108.618 c 0,0 -1.969,3.501 -11.722,8.972 -9.783,5.47 -18.754,16.816 -57.451,0 -38.665,-16.785 -54.294,-98.461 -54.7,-100.398 -0.375,-1.97 -19.129,-55.889 15.253,-64.484 16.254,-4.063 36.696,6.283 53.669,18.349 18.943,13.408 33.665,28.943 33.665,28.943 z m 1.469,77.487 c 0,0 -19.786,-37.509 -31.757,-39.603 -12.002,-2.095 -12.503,0.531 -15.378,4.157 -2.875,3.656 -7.564,11.502 -2.094,15.284 5.47,3.751 8.096,8.439 13.566,11.034 5.468,2.594 35.663,9.128 35.663,9.128 z"
             inkscape:connector-curvature="0"
             style="fill:#fdc88a" />
          <path
             id="path382"
             d="m 1345.251,2808.466 c 182.104,-1.813 294.099,46.417 358.771,91.428 -16.035,-5.251 -37.54,-8.939 -54.606,-11.284 0,0 -164.007,-74.236 -344.768,-40.071 0,0 -69.672,135.938 -70.516,160.6 0.031,-50.762 43.291,-163.132 54.731,-191.951 1.75,-4.407 2.75,-6.845 2.75,-6.845 18.536,-1.096 36.415,-1.721 53.638,-1.877 z"
             inkscape:connector-curvature="0"
             style="fill:#fcb86d" />
          <path
             id="path384"
             d="m 1388.98,3483.592 c -8.314,-1.157 -15.628,-2.938 -20.254,-5.658 -5.939,-3.407 -9.346,-6.595 -12.753,-10.971 -5.158,-6.658 -10.315,-16.129 -23.975,-33.57 -22.661,-28.913 -76.58,-236.368 -76.58,-236.368 l -21.286,-108.618 c 0,0 -14.722,-15.535 -33.664,-28.944 l 0.25,-0.375 -50.793,-142.471 c 0,0 0.031,-10.972 0.5,-27.507 0,0 14.347,28.538 47.542,13.315 33.226,-15.253 39.853,-34.383 41.041,-38.29 1.157,-3.907 -27.35,-83.237 -23.443,-89.083 3.907,-5.876 30.57,38.165 73.298,42.135 -11.44,28.819 -54.7,141.189 -54.731,191.951 0,1.906 0.063,3.688 0.188,5.407 0,0 50.262,187.7 74.455,204.892 l -0.219,0.375 c 0,0 2.407,5.001 14.847,0 40.822,-16.535 78.862,-29.007 114.026,-38.228 0,0 -58.544,54.888 -67.14,67.391 -8.596,12.503 -11.722,26.568 -10.94,32.038 0.782,5.471 10.94,25.913 21.099,38.729 10.159,12.847 48.449,47.229 60.952,54.263 12.503,7.032 21.88,16.409 62.515,28.912 40.635,12.503 93.584,10.94 117.121,7.814 23.537,-3.125 49.324,-7.032 89.958,-32.038 40.009,-24.631 97.96,-62.108 99.773,-63.265 -1.031,35.789 -2.219,69.453 -2.875,74.985 -1.563,12.503 9.377,8.596 -35.946,42.979 -11.659,8.846 -30.226,16.535 -51.731,23.099 h -0.031 c -23.068,7.064 -49.418,12.847 -74.111,17.348 -41.791,7.596 -78.581,11.565 -85.895,11.94 -2.313,0.125 -6.095,0.188 -10.94,0.25 -16.879,0.219 -46.667,0.063 -71.048,-0.094 -16.816,-0.094 -31.07,-0.188 -36.79,-0.188 -11.252,0 -34.102,0.375 -52.23,-2.125 -0.065,0 -0.128,-0.03 -0.19,-0.03 z"
             inkscape:connector-curvature="0"
             style="fill:#a87b4f" />
          <path
             id="path386"
             d="m 1478.188,3485.936 0.344,0.188 34.758,10.972 -17.161,90.802 c -43.76,-5.688 -121.715,-67.484 -124.841,-72.704 -2.688,-4.501 12.472,-24.818 16.66,-30.257 l 1.219,-1.313 c 18.129,2.5 40.978,2.125 52.23,2.125 5.722,-10e-4 19.975,0.093 36.791,0.187 z"
             inkscape:connector-curvature="0"
             style="fill:#3474ab" />
          <path
             id="path388"
             d="m 1646.071,3473.839 16.848,26.757 c -6.626,24.63 -116.434,85.051 -116.434,85.051 l -24.599,-88.958 27.35,-10.659 c 4.845,-0.063 8.627,-0.125 10.94,-0.25 7.314,-0.376 44.104,-4.345 85.895,-11.941 z"
             inkscape:connector-curvature="0"
             style="fill:#4089c6" />
          <path
             id="path390"
             d="m 1475.5,3050.116 c -3.47,4.282 -11.253,-0.22 -11.253,-0.22 -63.89,-31.632 -98.742,21.881 -101.773,24.318 -3.032,2.47 -3.032,3.251 -7.721,0.781 -4.688,-2.438 -2.438,-9.408 -2.438,-9.408 0,0 49.48,-67.453 123.185,-24.475 0,10e-4 3.501,4.69 0,9.004 z"
             inkscape:connector-curvature="0"
             style="fill:#af7b4b" />
          <path
             id="path392"
             d="m 1435.397,2892.642 c 0,0 16.16,10.94 12.753,35.164 0,0 0.563,17.724 -12.753,17.974 -46.355,0.813 -116.184,19.785 -116.184,19.785 -34.102,0 -19.254,-33.852 -19.254,-33.852 0,0 59.89,-41.666 135.438,-39.071 z"
             inkscape:connector-curvature="0"
             style="fill:#af7b4b" />
          <path
             id="path394"
             d="m 1859.464,3065.869 c 3.376,6.502 1.282,14.566 -1.563,19.255 -2.875,4.688 -34.133,28.913 -34.133,28.913 0,0 8.346,-39.854 11.722,-42.197 3.375,-2.345 6.001,-10.659 9.627,-9.878 3.657,0.782 10.941,-2.625 14.347,3.907 z"
             inkscape:connector-curvature="0"
             style="fill:#fcb86d" />
          <path
             id="path396"
             d="m 1604.905,3066.525 c -5.658,-10.752 23.63,28.507 22.849,38.291 -0.781,9.752 -4.876,8.971 -5.063,9.939 -0.219,1 -53.731,19.16 -84.801,9.002 l 72.08,-19.942 c -10e-4,0 0.593,-26.568 -5.065,-37.29 z"
             inkscape:connector-curvature="0"
             style="fill:#fcb86d" />
          <path
             id="path398"
             d="m 1211.908,2837.691 c 1.563,7.033 3.657,20.817 1.813,21.88 -1.813,1.031 -2.063,1.813 -9.752,0 -7.689,-1.844 -24.63,-3.907 -25.975,-3.907 -1.313,0 -6.47,-10.439 -8.814,-19.035 -2.344,-8.596 -2.844,-11.44 -2.063,-44.011 0.781,-32.569 22.13,-42.197 22.13,-42.197 14.065,4.688 21.098,80.237 22.661,87.27 z"
             inkscape:connector-curvature="0"
             style="fill:#d5bfa9" />
          <path
             id="path400"
             d="m 1819.861,2895.236 c -7.376,16.379 -7.376,16.379 -7.376,16.379 14.065,-53.669 -15.816,-149.566 -16.566,-151.974 1.375,1.126 38.478,32.57 36.446,65.797 -2.095,33.852 -5.127,53.451 -12.504,69.798 z"
             inkscape:connector-curvature="0"
             style="fill:#a97c50" />
          <path
             id="path402"
             d="m 1504.694,2627.986 c 135.375,11.815 167.039,64.14 167.977,65.766 -125.779,-52.731 -219.176,-49.605 -219.176,-49.605 153.629,32.414 198.953,113.683 200.015,115.62 -3.813,-2.125 -247.901,-138.688 -326.201,-141.001 10e-4,0 39.854,-2.751 177.385,9.22 z"
             inkscape:connector-curvature="0"
             style="fill:#d5bfa9" />
          <path
             id="path404"
             d="m 1721.901,2913.146 c 1.907,9.971 0.594,26.381 0.594,26.381 0,0 1,12.503 -15.628,6.846 -16.598,-5.657 -78.706,-7.627 -86.521,-7.627 -7.814,0 -8.814,-8.408 -8.814,-8.408 0,0 -0.375,-15.41 0,-29.882 0.406,-14.441 9.784,-15.035 9.784,-15.035 0,0 12.097,1.001 28.1,3.188 17.066,2.345 38.572,6.033 54.606,11.284 6.408,4.47 12.378,8.909 17.879,13.253 z"
             inkscape:connector-curvature="0"
             style="fill:#af7b4b" />
          <path
             id="path406"
             d="m 1385.917,2731.667 c 4.876,14.659 -5.501,7.908 -5.501,7.908 -32.757,-55.138 -135.25,-106.525 -138.469,-108.119 -0.032,-0.031 -0.063,-0.031 -0.063,-0.031 -7.501,-5.063 -14.878,-8.471 -21.63,-9.158 -33.883,-3.501 259.185,-51.012 456.387,18.566 60.983,55.544 79.675,151.254 77.581,167.57 -2.094,16.285 -2.594,29.538 -31.289,38.384 -28.663,8.877 -68.734,-18.754 -68.734,-18.754 -109.025,-82.738 -269.688,-150.91 -320.95,-172.259 -3.626,-2.188 -7.439,-4.032 -11.409,-5.377 -9.846,-3.313 -4.47,-1.219 11.409,5.377 34.351,20.943 52.668,75.893 52.668,75.893 z m 267.593,28.1 c -1.063,-1.938 -46.386,-83.206 -200.015,-115.62 0,0 93.397,-3.126 219.176,49.605 -0.938,-1.626 -32.601,-53.95 -167.977,-65.766 -137.532,-11.972 -177.385,-9.221 -177.385,-9.221 78.3,2.314 322.388,138.877 326.201,141.002 z"
             inkscape:connector-curvature="0"
             style="fill:#b7906b" />
          <path
             id="path408"
             d="m 1717.4,3198.588 c 0,0 13.284,96.897 -105.494,123.122 -118.777,26.256 -170.352,-86.395 -170.352,-86.395 0,0 164.883,-66.421 275.846,-36.727 z"
             inkscape:connector-curvature="0"
             style="fill:#e6e7e8" />
          <path
             id="path410"
             d="m 1345.251,2808.435 v 0.031 c -17.223,0.156 -35.102,0.781 -53.638,1.876 0,0 -1,2.438 -2.75,6.845 -42.729,-3.97 -69.391,-48.011 -73.298,-42.135 -3.907,5.846 24.6,85.176 23.443,89.083 -1.188,3.907 -7.814,23.037 -41.041,38.29 -33.195,15.223 -47.542,-13.315 -47.542,-13.315 1.344,-50.137 6.376,-151.379 24.881,-151.973 24.631,-0.781 44.948,0 44.948,0 0,0 14.847,3.907 9.627,-8.064 -4.345,-10.002 -17.879,-31.882 -25.913,-39.978 97.804,-1.439 141.283,119.34 141.283,119.34 z m -131.53,51.136 c 1.844,-1.063 -0.25,-14.847 -1.813,-21.88 -1.563,-7.033 -8.596,-82.582 -22.662,-87.271 0,0 -21.349,9.628 -22.13,42.197 -0.781,32.57 -0.281,35.415 2.063,44.011 2.344,8.596 7.501,19.035 8.814,19.035 1.344,0 18.286,2.063 25.975,3.907 7.69,1.815 7.94,1.033 9.753,10e-4 z"
             inkscape:connector-curvature="0"
             style="fill:#b7906b" />
          <path
             id="path412"
             d="m 1881.845,2992.134 c 3.657,9.908 21.38,101.742 -23.943,155.661 0,0 -14.597,16.535 -29.194,12.878 -14.566,-3.657 -17.442,-7.283 -17.442,-7.283 l -7.658,-137.845 1.938,-13.784 c 0,0.094 0,0.188 0,0.281 0,0 7.033,-21.63 19.536,-27.35 12.503,-5.721 22.38,-8.064 31.757,-5.721 9.377,2.345 21.38,13.285 25.006,23.163 z m -23.944,92.99 c 2.845,-4.688 4.939,-12.753 1.563,-19.255 -3.407,-6.532 -10.69,-3.125 -14.347,-3.907 -3.625,-0.781 -6.251,7.533 -9.627,9.878 -3.376,2.344 -11.722,42.197 -11.722,42.197 0,0 31.258,-24.224 34.133,-28.913 z"
             inkscape:connector-curvature="0"
             style="fill:#fdc88a" />
          <path
             id="path414"
             d="m 1380.416,2739.575 c 0,0 10.377,6.751 5.501,-7.908 0,0 -18.317,-54.95 -52.668,-75.893 51.262,21.349 211.924,89.521 320.95,172.259 0,0 40.072,27.631 68.734,18.754 28.694,-8.846 29.194,-22.099 31.289,-38.384 2.094,-16.316 -16.598,-112.026 -77.581,-167.57 9.065,3.188 17.911,6.658 26.538,10.347 0,0 56.763,84.645 67.203,102.367 2.188,3.72 3.438,5.532 4.095,6.032 0,0 13.097,27.976 14.253,29.914 1.188,1.969 -3.032,137.875 -26.569,161.443 -9.315,-10.534 -22.474,-23.725 -40.259,-37.79 -0.657,-3.438 -1.719,-6.096 -3.313,-7.033 -3.876,-2.281 -8.877,-4.345 -14.566,-6.22 -64.671,-45.011 -176.666,-93.24 -358.771,-91.428 v -0.031 c 0,0 -43.479,-120.778 -141.283,-119.34 -1.594,-1.626 -3,-2.688 -4.032,-3.001 -6.251,-1.844 49.23,-7.033 93.771,20.036 0,0 8.783,6.188 10.346,7.564 1.563,1.375 7.627,0.406 5.47,-5.064 -1.75,-4.407 -35.852,-55.731 -67.578,-77.174 3.22,1.595 105.712,52.983 138.47,108.12 z"
             inkscape:connector-curvature="0"
             style="fill:#a87b4f" />
          <path
             id="path416"
             d="m 1371.289,3515.192 c 3.126,5.22 81.082,67.016 124.841,72.704 l 17.161,-90.802 -34.758,-10.972 -0.344,-0.188 c 24.38,0.156 54.169,0.313 71.048,0.094 l -27.35,10.659 24.599,88.958 c 0,0 109.807,-60.421 116.434,-85.051 l -16.848,-26.757 c 24.693,-4.501 51.043,-10.283 74.111,-17.348 h 0.031 c 0,0 222.583,34.227 230.929,39.416 8.096,5.063 109.213,123.716 115.339,130.937 H 1385.668 998.265 c 49.292,-44.229 93.334,-79.394 111.025,-91.334 44.761,-30.226 246.683,-68.547 246.683,-68.547 3.407,4.376 6.814,7.563 12.753,10.971 4.626,2.72 11.94,4.501 20.254,5.658 0,0 -0.375,0.5 -1.031,1.344 -4.189,5.44 -19.348,25.757 -16.66,30.258 z"
             inkscape:connector-curvature="0"
             style="fill:#3d4251" />
        </g>
        <g
           id="g420" />
      </g>
      <g
         id="XMLID_2_"
         transform="matrix(0.26458333,0,0,0.26458333,-685.14286,-814.44331)">
        <g
           id="g425">
          <path
             id="path423"
             d="m 1747.993,2977.784 7.965,91.397 c 0.851,9.726 -5.608,18.242 -14.407,19.013 l -144.606,12.651 c -0.275,0.023 -0.55,0.048 -0.828,0.039 -8.503,0.282 -15.898,-6.825 -16.692,-16.259 l -5.163,-59.009 c -7.3,-2.858 -15.321,-4.104 -23.509,-3.388 l -21.387,1.871 c -10.357,0.906 -19.746,4.797 -27.561,10.825 l 4.961,56.354 c 0,0.396 0.035,0.756 0.039,1.152 0.01,0.461 -0.01,0.957 -0.029,1.421 -0.052,0.467 -0.073,0.931 -0.127,1.364 -0.186,1.402 -0.501,2.717 -0.976,3.979 -0.149,0.409 -0.359,0.823 -0.508,1.232 -0.331,0.788 -0.757,1.552 -1.247,2.287 -0.216,0.349 -0.462,0.7 -0.739,1.055 -0.277,0.355 -0.526,0.673 -0.806,0.994 -0.311,0.324 -0.593,0.613 -0.873,0.935 -0.313,0.291 -0.626,0.583 -0.942,0.841 -0.976,0.812 -2.055,1.5 -3.176,2.06 -1.565,0.765 -3.308,1.247 -5.141,1.407 l -144.606,12.651 c -8.769,0.768 -16.669,-6.494 -17.49,-16.222 l -7.996,-91.396 c -0.881,-9.723 5.608,-18.242 14.407,-19.013 l 144.606,-12.651 c 8.86,-0.774 16.7,6.491 17.607,16.509 l 1.375,15.719 c 7.785,-6.026 17.201,-9.952 27.497,-10.854 l 21.417,-1.873 c 8.219,-0.72 16.209,0.528 23.512,3.42 l -1.143,-13.065 c -0.851,-9.726 5.608,-18.243 14.407,-19.013 l 144.606,-12.651 c 8.862,-0.774 16.671,6.496 17.553,16.218 z m -8.608,83.542 -6.38,-72.926 c -0.709,-7.758 -7.125,-13.532 -14.397,-12.896 l -118.697,10.385 c -7.241,0.634 -12.557,7.435 -11.909,15.198 l 6.411,72.923 c 0.517,6.257 4.797,11.195 10.243,12.566 1.262,0.352 2.688,0.458 4.093,0.335 l 118.697,-10.385 c 7.271,-0.636 12.588,-7.436 11.939,-15.2 z m -249.28,21.809 -6.38,-72.925 c -0.679,-7.762 -7.095,-13.535 -14.336,-12.902 l -118.758,10.391 c -7.21,0.631 -12.557,7.434 -11.878,15.194 l 6.38,72.926 c 0.679,7.761 7.125,13.532 14.367,12.899 l 118.728,-10.388 c 1.039,-0.091 2.036,-0.311 2.96,-0.655 1.885,-0.627 3.546,-1.695 4.901,-3.102 2.77,-2.815 4.376,-6.981 4.016,-11.438 z"
             inkscape:connector-curvature="0"
             style="fill:#024f83" />
        </g>
        <g
           id="g427" />
      </g>
      <circle
         id="circle430"
         r="3.9018104"
         cy="19.892706"
         cx="-197.6494"
         style="fill:#024f83;stroke-width:0.26458332" />
    </g>
    <text
       xml:space="preserve"
       style="font-style:normal;font-weight:normal;font-size:10.58333302px;line-height:1.25;font-family:sans-serif;letter-spacing:0px;word-spacing:0px;fill:#ffffff;fill-opacity:1;stroke:none;stroke-width:0.26458332;"
       x="-395.45273"
       y="205.57211"
       id="text860"><tspan
         sodipodi:role="line"
         id="tspan858"
         x="-395.45273"
         y="205.57211"
         style="font-style:normal;font-variant:normal;font-weight:normal;font-stretch:normal;font-size:56.44444275px;font-family:Pacifico;-inkscape-font-specification:Pacifico;stroke-width:0.26458332;fill:#ffffff;">JHipster</tspan></text>
  </g>
</svg>
