<svg id="Logo_JHipster" data-name="Logo JHipster" xmlns="http://www.w3.org/2000/svg"
    xmlns:xlink="http://www.w3.org/1999/xlink" viewBox="0 0 416 96">
    <defs>
        <style type="text/css">
            <![CDATA[
            @font-face {
                font-family: Pacifico;
                @import url('https://fonts.googleapis.com/css2?family=Pacifico&display=swap');
            }
            ]]>
        </style>
        <style>
            .cls-1 {
                fill: #369;
            }

            .cls-2 {
                fill: #69c;
            }

            .cls-3,
            .cls-4 {
                font-size: 60px;
                font-family: 'Pacifico', cursive;
                font-weight: normal;
                letter-spacing: 0em;
            }

            .cls-4 {
                fill: #343333;
            }

            .cls-5 {
                fill: #fff;
            }
        </style>
    </defs>
    <g id="Logo">
        <path id="original-bowtie-left" class="cls-1"
            d="M84.67,44.05S25.13,9.71,20,31.06s-10.93,37.6,4.93,40.6S84.67,44.05,84.67,44.05" />
        <path id="original-bowtie-right" class="cls-2"
            d="M74.38,38.89c17.09-8.78,50.84-23.82,54.7-7.9,5.2,21.43,11,37.73-4.8,40.8-11.12,2.15-36.11-12.34-50-21.14,0-10.41.11-1.5.09-11.76" />
    </g>
    <g id="Jhipster-Title"><text class="cls-3" transform="translate(145.72 63.51)">JHipster</text><text class="cls-4"
            transform="translate(145.72 63.51)">JHipster</text>
        <path class="cls-5"
            d="M162.5,71c.15-12.38,9.61-23.65,21.16-27.48l-.24,1.23C177.78,40.21,171.66,34.3,171,26.61c-.37-9.64,5.5-20.47,15.7-22.18,10-1.33,14.76,9.32,15.64,17.63a67.14,67.14,0,0,1,.22,12.6,116.7,116.7,0,0,1-1.21,12.5l-.31-.69c2.74,1.7,5.58,3.31,8.37,5A11.91,11.91,0,0,1,211.51,53a1.43,1.43,0,0,1,.42,1.29,3,3,0,0,1-1.39,1.5,5.3,5.3,0,0,1-1.67.77c-3.41.28-6.65-1.17-9.72-2.39l.74-.37a75.33,75.33,0,0,1-2.32,7.77c-2.83,7.57-6.93,15-13.34,20.08-11,8.77-21.95,3.54-21.73-10.61Zm.2,0C162.44,79.55,167.4,88,177,85.08c7.72-2.49,13-9.51,16.55-16.49a68.05,68.05,0,0,0,5.3-15.08.55.55,0,0,1,.74-.37,34.5,34.5,0,0,0,6.07,2,9.22,9.22,0,0,0,3,.23A4.88,4.88,0,0,0,210.74,54s0,0,0,0l-.13-.17c-3.19-2.4-6.94-4-10.31-6.19a.64.64,0,0,1-.31-.68,113.48,113.48,0,0,0,1.06-12.34c.35-8,.23-16.76-4.3-23.61-5.15-7.65-14.56-5.06-19.37,1.6a22,22,0,0,0-4.27,11c-1.18,8.36,5.4,15,11.2,20.11a.7.7,0,0,1-.23,1.22,29,29,0,0,0-8.08,3.7c-7.46,5-13.11,13.31-13.3,22.43Z" />
        <path class="cls-5"
            d="M170.2,72.89c-.1,4,2.44,7.18,6.47,4.85,3.08-1.76,5.16-4.79,7-7.74a67.62,67.62,0,0,0,7.7-20.23l.33.77-1.08-.69.51.09c-5.39,1-10.11,4.31-13.8,8.29s-7,9.05-7.15,14.66Zm-.2,0c.66-8.27,6.24-16.31,13-20.93a22.33,22.33,0,0,1,7.87-3.41.7.7,0,0,1,.51.09c.55.4,1.61.67,1.43,1.43-1.81,9-4.43,18.58-10.88,25.49-4.56,4.87-12.16,6.09-11.94-2.67Z" />
        <path class="cls-5"
            d="M179.57,24.14c.21,6.07,5.43,10.22,9.76,13.78q2.26,1.83,4.66,3.5l-1.63.73c.37-4.13,1-8.25,1.13-12.41.18-5,.91-10.43-1.18-15.15-1.39-3.22-4.7-3.05-7.14-1.06a14.13,14.13,0,0,0-5.6,10.61Zm-.2,0c.27-5,3.34-10.89,8.21-12.77a4.74,4.74,0,0,1,5.72,2.71c2.39,4.9,1.82,10.46,1.82,15.73.06,4.21-.39,8.39-.7,12.59a1,1,0,0,1-1.63.72c-6.22-4.48-13.2-10.73-13.42-19Z" />
        <path class="cls-5"
            d="M255.65,41.62c-.79,3.74-2,7.86-2,11.7-.18,5.6,4.58,4.84,7.72,2l2.29-1.87c.53-.46,3-2.94,3.58-3.45a.54.54,0,0,1,.78,0c.54,1,.85,2,1.28,3l1.1,2.79a.62.62,0,0,1-.13.65c-5.07,5.26-13.71,12.66-21.41,8.56-5.93-3.59-5.25-11.33-3.73-17.13.4-2,.94-3.86,1.41-5.79l1,1.21c-3.66.41-11,1.15-14.71,1.47l.85-.68c-1.77,5.35-3.68,10.69-5.63,16-1.3,2.6-2.83,6-6.18,6.33-2.82.13-5.5-2.67-4.54-5.56,1-3.07,1.87-6.17,2.89-9.2L223,44l.88,1.27c-4.38.17-9.1-1.72-10.53-6.18-.46-1.61-.72-4.54,1.84-4.21,1.74.56,2.23,1.69,3.26,2.82l-.7-.32c2.45-.1,6.06-.09,8.56-.08l-.77.53c1.9-5.56,5-11.09,4.83-17-.22-5-5.2-3.49-8.27-1.83a52.25,52.25,0,0,0-6.17,4.23c-.77.52-2.54,1.39-3,.12a10.2,10.2,0,0,1-.28-2.5c-.14-4.5,4.08-7.66,7.73-9.4,12.47-5.61,21.68,1.25,17.9,14.83-.82,4-2,7.87-3.16,11.75l-.51-.65q7.2-.42,14.39-.76l-.39.31c1.24-3.71,3-9.26,4.38-12.86l2.4-6.36a10.72,10.72,0,0,1,1.53-3.11c1.65-2.68,6.77-2.65,7,1,.22,2.8-1.29,5.69-2.19,8.25q-2.37,6.34-4.47,12.8l-.2-.26,5.65-.38a4.69,4.69,0,0,1,2.86.45,2.6,2.6,0,0,1,.81,2.73,2.51,2.51,0,0,1-2.3,1.64c-2.76.35-5.67.58-8.41.79Zm-.13-.16c2.43-.27,4.73-.44,7.1-.72,1.27-.14,3-.18,3.45-1.62.42-2.45-1.25-3-3.36-2.76l-5.64.43a.21.21,0,0,1-.21-.26q2-6.48,4.37-12.86c.55-1.8,1.91-4.52,2-6.38.05-1,.24-2.2-.46-3-1.42-1.62-4.23-1-5.37.73a10.4,10.4,0,0,0-1.42,3l-2.33,6.36c-.69,1.81-1.61,4.53-2.19,6.41l-2.07,6.46a.44.44,0,0,1-.39.3q-7.2.42-14.37.89a.5.5,0,0,1-.54-.47c1.07-3.94,2.32-7.85,3.08-11.85.83-3.76,1.47-8-.63-11.38-3.29-5.25-10.78-4.53-15.66-2.07-3.23,1.58-7.05,4.31-6.93,8.22l.1,1.43a1.72,1.72,0,0,0,.1.57s0,0,0,0a.58.58,0,0,0-.37-.16h0c1-.06,1.58-.73,2.55-1.42,3.34-2.5,6.77-5.18,11.23-5.27,5.45.28,4.73,7.34,3.59,11-1.14,4-2.65,7.7-4.06,11.5a.8.8,0,0,1-.77.52l-4.25,0c-1.42,0-2.83.07-4.24.12a.9.9,0,0,1-.71-.32c-.63-.68-1.52-2.06-2.32-2.18,0,0,.06,0,.07-.05a3.12,3.12,0,0,0,0,1.14l.18.88,0-.12c1.22,3.78,5.23,5.09,8.87,4.94a1,1,0,0,1,.89,1.25l-2.72,7.6c-1,3-1.87,6.05-2.82,9.08a2.46,2.46,0,0,0,2.63,3.06c2.22-.53,3.35-3.17,4.34-5.11,1.8-4.88,3.85-10.61,5.58-15.84a1,1,0,0,1,.86-.68l14.69-1.4a1,1,0,0,1,1,1.21c-.49,1.9-1.05,3.8-1.46,5.71-.84,3.62-1.82,7.58-.47,11.15,2.16,6.24,8.78,6.1,13.74,3.24a37.38,37.38,0,0,0,9.17-7.09l-.13.65c-.67-1.65-1.42-4-2.12-5.57l.89.14L265,53.52c-.8.79-2.26,1.85-3.15,2.56-3.73,3.18-9.18,3.42-8.84-2.78.12-3.92,1.52-8,2.47-11.84Z" />
        <path class="cls-5"
            d="M286.41,57.31c-4,3.77-9.17,7.47-15,6.93a5.35,5.35,0,0,1-4.55-4.12c-.86-3.78.26-7.58,1-11.25s1.86-7.1,2.79-10.62c.47-2.18,2.93-3.27,4.92-3.5a5,5,0,0,1,3.19.33c1.15.81,1,2.2.76,3.28-1.32,5.38-3.34,10.42-4,15.86a8,8,0,0,0,.13,2.56c.11.4.25.58.56.66,2.13.17,4-1.6,5.69-2.81,1.41-1.13,2.82-2.29,4.23-3.46a.2.2,0,0,1,.33.16l-.11,6Zm-.18-.08-.11-5.9.33.15c-2,1.52-9.74,10-11.57,5.55-.74-2.82.12-5.62.62-8.36.81-3.57,1.89-7.11,2.67-10.57.2-1.13.31-2-1.13-2-1.75.13-4.27.55-4.72,2.53-1,4.43-2.16,8.86-3,13.29-.53,2.49-1,5.31-.58,7.72,1.81,7,14,.29,17.47-2.45Z" />
        <path class="cls-5"
            d="M273.12,27.16c-.12-5.06,5.81-7.57,9.86-4.8,2.67,2,2.18,6.39-.23,8.37-3.33,2.74-9.8,1.38-9.63-3.57Zm.2,0c-.14,3.15,2.53,4.31,5.29,3.94a4.49,4.49,0,0,0,4.53-4.46c.15-2.58-2.26-3.41-4.52-3.37-2.43-.17-5.15,1.16-5.3,3.89Z" />
        <path class="cls-5"
            d="M296.25,58.22a21.16,21.16,0,0,0,12.56-4.49,23.31,23.31,0,0,0,3.16-3.2.64.64,0,0,1,1.12.38l.46,6.71a.72.72,0,0,1-.17.53,17.35,17.35,0,0,1-12.59,6.32c-.73,0-1.76-.28-2.48-.39-1.74-.31-3.5-.55-5.25-.82l1.16-1c.19,7.64-1.92,23.46-11.24,24.92-5.25.51-7-5.3-7-9.46-.3-2.8.63-5.53,1.61-8.09,1.67-4.4,5.23-10.11,7.67-14.17l-.1.24c.37-2.39.67-4.77,1.17-7.17.85-4.71,2.24-10.26,6.9-12.63,4.47-2.13,11.11-.66,12.65,4.49,2.42,7.8-2.73,14.59-9.81,17.4l.06-.13c.05.19.09.37.13.57Zm-.12.16c0-.22-.32-.63-.16-.79a20.72,20.72,0,0,0,6-4c5-4.34,6.09-15.45-1.54-17.51-12.22-2.79-12.76,11.59-14.12,20-2.33,4-5.77,9.72-7.35,14-.86,2.43-1.71,4.85-1.39,7.46.14,3.27,1.15,8.22,5.29,7.78,7.82-1.61,9.43-16.46,9.36-23.17a1,1,0,0,1,1.16-1c2.49.32,5.37,1,7.76,1.31a15.78,15.78,0,0,0,11.06-5.4l-.17.53L311.82,51l1.12.39a20.3,20.3,0,0,1-16.81,7Z" />
        <path class="cls-5"
            d="M282.41,76.43c.16,1,.65,2.75,1.85,2.69.22-.06.25-.19.39-.57a12.19,12.19,0,0,0,.25-2.42c.1-1.44.16-3.72.27-5.22.21-2.6.46-5.41.65-8l1.26.38a43.09,43.09,0,0,0-2.81,6.36,26.61,26.61,0,0,0-1.86,6.8Zm-.2,0A58.61,58.61,0,0,1,284.52,66a29.54,29.54,0,0,1,1.39-3.37.65.65,0,0,1,.86-.35.67.67,0,0,1,.4.72c0,1.87-.07,6.19,0,8,0,2.15.11,9.14-2.92,9.13-1.18-.19-1.6-1.33-1.81-2.29a5.44,5.44,0,0,1-.21-1.35Z" />
        <path class="cls-5"
            d="M292.55,55.25a1.17,1.17,0,0,1,.35-.35,19,19,0,0,0,2.78-2.6,15.84,15.84,0,0,0,3.61-7.38c.5-2-.22-3.86-2.24-3.22-3.73,1.43-4.11,10-4.5,13.55Zm-.1.17c0-.79-.1-2.68-.1-3.44s.16-2.6.2-3.39c.46-3,.82-6.8,4-8.26,4.69-1.56,5.48,4,4.16,7.24a12.15,12.15,0,0,1-8.28,7.85Z" />
        <path class="cls-5"
            d="M308.26,52.19a34.25,34.25,0,0,0,6.21-6.64c1.29-1.88,3.92-5.66,5.26-7.51,1.29-2.18,3.78-4,6.39-3.57,1.49,0,3.58.93,3.79,2.72l0,.34a4.19,4.19,0,0,1-1.05,3.3c-.75,1.12-1.93,2.37-2.67,3.27l0-.27a12.86,12.86,0,0,0,.4,2.76,29.72,29.72,0,0,1,1.25,6.25L328,56l-1.37-.73c2.58-1.5,5.35-2.57,8-4A22.82,22.82,0,0,0,337,49.79a.73.73,0,0,1,1.16.59l0,6.57a.67.67,0,0,1-.26.53,32.93,32.93,0,0,1-7.26,4c-5.09,2-10.7,3.49-16.16,2.28A6.35,6.35,0,0,1,309.17,58l.18.13c-1.14.08-3,.51-3.66-.62a2.8,2.8,0,0,1-.28-1.27c-.11-1.82,1.6-3,2.85-4Zm.13.15c-1.23,1-2.88,2.09-2.78,3.86,0,.78.29,1.73,1.2,1.76a10.25,10.25,0,0,0,2.48-.16.14.14,0,0,1,.17.13,5.81,5.81,0,0,0,5.11,5.19c7.56,1.14,16.42-2.26,22.47-6.7l-.26.53-.1-6.56,1.18.59c-3.11,2.43-6.95,3.7-10.27,5.77a.91.91,0,0,1-1.37-.74,31.68,31.68,0,0,0-.66-5.93c-.34-1.43-.94-3.1-1.21-4.55a12.14,12.14,0,0,1-.11-2,3.53,3.53,0,0,1,.86-1.35,29.65,29.65,0,0,0,2.12-2.56,2.15,2.15,0,0,0,.71-1.94.93.93,0,0,0-.35-.78,4.57,4.57,0,0,0-5.21.46c-1.06.92-3.46,3.95-4.44,5L315,46a45.88,45.88,0,0,1-6.62,6.38Z" />
        <path class="cls-5"
            d="M312.16,56c-.08-.12,0,0,.09-.07A5.75,5.75,0,0,1,314.2,57a3.73,3.73,0,0,0,3.57.7c3.13-1.28,1.87-6.33,1.22-9l1.06.27c-2.57,2.37-5.27,4.53-7.89,7Zm-.18.08c2.39-2.54,4.7-5.38,7.17-8a.63.63,0,0,1,1,.2c1.24,3.5,3.1,10.08-1.94,11.38-2.68.62-4.5-1.14-5.79-3.23a1,1,0,0,0-.28-.25s0,0-.2-.11Z" />
        <path class="cls-5"
            d="M359.06,57a105.19,105.19,0,0,1-10.32,6c-14.74,6.25-14.8-17.8-13.64-26.77l.86,1.13c-2-.33-3.86-.7-5.88-.88a4.77,4.77,0,0,1-1.46-.34A3.07,3.07,0,0,1,327.33,32c1.17-1.48,3.17-1.27,4.8-1.44l2.43,0c.54,0,1.62,0,2.15,0l-.78.79a59.58,59.58,0,0,1,3.82-12.23c1.37-2.95,3-6,5.74-8,3.46-2.45,7.39-.23,8.67,3.42,2.19,5.33-.12,11-2.86,15.59L349.66,33l-.48-1c1.79.1,7.17.31,8.89.43,1.2.14,1.53,1.67,1.49,2.58a2.72,2.72,0,0,1-2.38,2.86l-11.33-.07.4-.2c-1.1,1.46-2.21,2.91-3.37,4.33l.1-.25c-.19,2.7-.34,5.42-.43,8.13-.56,8.41,4,8,9.91,4.52a31.34,31.34,0,0,0,6.4-4.94.16.16,0,0,1,.23,0,.18.18,0,0,1,.05.12L359.06,57Zm-.17-.1-.08-7.45.29.11a31.58,31.58,0,0,1-6.4,5.12A20.48,20.48,0,0,1,347,57.19c-4.7.6-5.46-3.82-5.23-7.45.11-2.79,0-5.66.38-8.41,1.12-1.43,2.2-2.88,3.27-4.35a.47.47,0,0,1,.39-.2l6.46-.05,3.23,0h1.6a1.34,1.34,0,0,0,.92-.57,2.57,2.57,0,0,0,.07-2.41.3.3,0,0,0-.24-.16l-.74,0L349,33.26a.64.64,0,0,1-.48-1c3-5,6.65-11.1,4.17-17-.66-1.64-2-3.31-3.84-3.38-3.81.08-6,5-7.44,8.12a61.16,61.16,0,0,0-3.56,12,.83.83,0,0,1-.76.67,22.94,22.94,0,0,1-2.62,0c-1.61,0-3.89-.17-5.38.47-.09,0-.08.06-.07,0s0-.1,0,0c0,.28,0,.74.19.93.43.38,1.34.3,2.26.47,1.52.15,3.23.55,4.71.77a1,1,0,0,1,.86,1.13c-.21,1.93-.51,3.85-.55,5.79-.44,9.57.86,26.5,14.52,18.67,1.7-.77,6.13-3.12,7.83-4Z" />
        <path class="cls-5"
            d="M349.5,19.86c-.06-.68-.14-1.59-.82-1.88s-1.08.19-1.38.81c-1.15,2.8-1.75,5.85-2.81,8.71L343.23,32l-.62-.89,1.77.27-.66.33c1.25-1.95,2.65-4.49,3.81-6.46.79-1.68,2-3.51,2-5.42Zm.2,0a22.49,22.49,0,0,1-1.3,4.89,50.51,50.51,0,0,1-3.52,7.67.62.62,0,0,1-.66.32l-1.81-.14a.7.7,0,0,1-.63-.83c1-4.57,1.38-9.95,4.55-13.67a1.94,1.94,0,0,1,2.62-.59,2.62,2.62,0,0,1,.75,2.35Z" />
        <path class="cls-5"
            d="M368,63.61c-19,.17-13-34.61,4.7-28.45,4.9,1.94,6.15,8.35,3.3,12.47a18.47,18.47,0,0,1-11,7.66l.41-1a7.32,7.32,0,0,0,1.38,1.83,3.1,3.1,0,0,0,2,.53c5-.35,9.43-3.67,13.16-6.81a.44.44,0,0,1,.63,0l3.72,4a.33.33,0,0,1,0,.47,40.32,40.32,0,0,1-4,3.44c-4.17,3.05-9,5.8-14.31,5.82Zm0-.2c7-.09,13.12-4.64,17.77-9.55v.49l-3.85-3.86h.63c-3.87,3.5-8.33,6.92-13.73,7.42a4.37,4.37,0,0,1-2.87-.74A8.65,8.65,0,0,1,364.15,55a.64.64,0,0,1,.15-.88c4.09-1.24,8.08-3.55,10.26-7.3,2.18-3.35,1.27-8.35-2.67-9.8-14.54-4.92-21.18,26.33-3.92,26.42Z" />
        <path class="cls-5"
            d="M364.14,49.67a12.5,12.5,0,0,0,4.74-3.36A5,5,0,0,0,370.26,44c.05-.73,0-1.81-.64-2.22-4.14-.38-5.15,4.7-5.48,7.89Zm-.14.14c-.2-3.14.05-7.21,3.18-8.94,1.14-.57,2.86-1,3.83,0a4.92,4.92,0,0,1,1.17,3.64c-.51,3.26-5,6-8.18,5.29Z" />
        <path class="cls-5"
            d="M381,57.39A100.24,100.24,0,0,1,382,46.74a68.37,68.37,0,0,1,1.89-9.51,4,4,0,0,1,1.35-2.17,2.76,2.76,0,0,1,1.33-.41,8.4,8.4,0,0,1,2.45,0c2,.58,1.32,3.26,1.48,4.76s.1,2.82.12,4.23l-1-1h.32l-.9.56c1.37-2.68,2.66-6,5.68-7.95,2.47-1.74,6.84-1.05,7.11,2.43.25,2.3-2.55,9.22.29,9.92,2.89.06,5.5-1.88,7.74-3.56a.75.75,0,0,1,1.22.62l-.5,6.85a.66.66,0,0,1-.31.53c-.84.52-1.63,1.07-2.53,1.54-4.64,3-11,3.17-13.07-2.8A29.52,29.52,0,0,1,393.42,45l.45.39h-.47l.42-.29C393.45,46,388.2,60,388,60.45c-.68,1.81-1.71,3.64-4,3.09-2.8-.56-2.87-3.89-3-6.15Zm.21,0a14.73,14.73,0,0,0,.41,3.58,3.15,3.15,0,0,0,4.12,2.26c1.56-.93,1.88-3,2.54-4.61L393,44.79a.44.44,0,0,1,.42-.29c.32,0,.84-.09.91.35a32.65,32.65,0,0,0,1.28,5.61c1.93,5.28,7.47,4.66,11.43,2,.82-.44,1.63-1,2.44-1.54l-.31.53.38-6.86,1.22.62c-2.64,2-5.27,4.14-8.91,4.07-4.95-1.21-1.93-8.06-2-11.4-.26-1.88-2.65-1.82-4-.89-2.44,1.65-3.66,4.49-5,7.13a1,1,0,0,1-.91.56c-.66.07-1.3-.24-1.32-1-.11-2.43.12-5.09,0-7.42,0,0,0,0,0,0s-.66-.06-.85-.09a4.51,4.51,0,0,0-1.66.11c-.42.22-.65.91-.88,1.36a71.5,71.5,0,0,0-3.87,19.69Z" />
        <text class="cls-4" transform="translate(145.72 63.51)">JHipster</text>
    </g>
</svg>