<svg id="Logo_JHipster" data-name="Logo JHipster" xmlns="http://www.w3.org/2000/svg"
    xmlns:xlink="http://www.w3.org/1999/xlink" viewBox="0 0 408 96">
    <defs>
        <style>
            .cls-1 {
                fill: #369;
            }

            .cls-2 {
                fill: #69c;
            }

            .cls-3 {
                fill: #343333;
            }

            .cls-4 {
                fill: #fff;
            }
        </style>
    </defs>
    <g id="Bowtie">
        <path id="original-bowtie-left" class="cls-1"
            d="M77.67,44.05S18.13,9.71,13,31.06s-10.93,37.6,4.93,40.6S77.67,44.05,77.67,44.05" />
        <path id="original-bowtie-right" class="cls-2"
            d="M67.38,38.89c17.09-8.78,50.84-23.82,54.7-7.9,5.2,21.43,11,37.73-4.8,40.8-11.12,2.15-36.11-12.34-50-21.14,0-10.41.11-1.5.09-11.76" />
    </g>
    <g id="Jhipster_title" data-name="Jhipster title">
        <path id="J"
            d="M144.16,73.37a23.23,23.23,0,0,1,1.51-8.07A30.26,30.26,0,0,1,150,57.51a32.71,32.71,0,0,1,6.71-6.57,29.5,29.5,0,0,1,8.76-4.38,54.07,54.07,0,0,1-4.66-4.24A37.11,37.11,0,0,1,157,37.76a23.13,23.13,0,0,1-2.53-4.69,12.71,12.71,0,0,1-.92-4.7A23.87,23.87,0,0,1,156,17.69a21.1,21.1,0,0,1,2.74-4.16,19.31,19.31,0,0,1,3.4-3.16,15.4,15.4,0,0,1,3.79-2,11.79,11.79,0,0,1,4-.7A10.4,10.4,0,0,1,175,9a12.43,12.43,0,0,1,4.35,4.27,24.85,24.85,0,0,1,3,7.59,47.44,47.44,0,0,1,1.15,11.25c0,3.18-.12,6.21-.34,9.07s-.55,5.6-1,8.22c1.19.74,2.4,1.46,3.62,2.16s2.45,1.41,3.7,2.11c.26.16.57.35,1,.56s.75.44,1.11.69a6.72,6.72,0,0,1,.92.73,1,1,0,0,1,.38.66.82.82,0,0,1-.25.57,3.73,3.73,0,0,1-.58.53,4.18,4.18,0,0,1-.68.42l-.51.27a2.82,2.82,0,0,1-1.29.26,15.7,15.7,0,0,1-3.85-.64A39.18,39.18,0,0,1,180.93,56a71.12,71.12,0,0,1-3.09,9.92A58.33,58.33,0,0,1,173.9,74a40.44,40.44,0,0,1-4.53,6.22,30.37,30.37,0,0,1-4.83,4.41,20.45,20.45,0,0,1-4.86,2.64,13.76,13.76,0,0,1-4.65.88,10,10,0,0,1-4.29-.94,9.58,9.58,0,0,1-3.44-2.8,13.74,13.74,0,0,1-2.3-4.61A22.11,22.11,0,0,1,144.16,73.37Zm7.5,1.88a7.44,7.44,0,0,0,1.16,4.52,3.63,3.63,0,0,0,3.06,1.54,8,8,0,0,0,4.38-1.7,20.38,20.38,0,0,0,4.91-5.26,47.36,47.36,0,0,0,4.7-9,73.79,73.79,0,0,0,3.79-13l-1.08-.68a20.25,20.25,0,0,0-5.7,2,28.77,28.77,0,0,0-5,3.44,31,31,0,0,0-4.2,4.38,35.39,35.39,0,0,0-3.21,4.82A25.7,25.7,0,0,0,152.38,71,14.41,14.41,0,0,0,151.66,75.25ZM161,26.5a11.42,11.42,0,0,0,1,4.65,20.46,20.46,0,0,0,2.87,4.59,37.73,37.73,0,0,0,4.4,4.5A68.64,68.64,0,0,0,175,44.63q.51-4.07.79-8.57c.2-3,.3-6.18.3-9.56a33.23,33.23,0,0,0-.44-5.85,15,15,0,0,0-1.19-3.88,5.26,5.26,0,0,0-1.76-2.15,3.81,3.81,0,0,0-2.12-.66,5.13,5.13,0,0,0-2.2.52,10.14,10.14,0,0,0-2.17,1.45,15.4,15.4,0,0,0-2,2.16,15.66,15.66,0,0,0-1.62,2.62,16.16,16.16,0,0,0-1.1,2.87A10.66,10.66,0,0,0,161,26.5Z" />
        <path id="H"
            d="M237.15,43.9q-1,3.6-1.64,6.72a28.55,28.55,0,0,0-.62,5.41,5.12,5.12,0,0,0,.84,3.12,3.23,3.23,0,0,0,2.77,1.13,4.86,4.86,0,0,0,1.76-.43,13.38,13.38,0,0,0,2.34-1.33,31.64,31.64,0,0,0,2.94-2.35c1.09-1,2.29-2.1,3.62-3.42.06.11.18.39.35.82s.38.93.66,1.68.68,1.78,1.19,3.09A43.09,43.09,0,0,1,247,62.41a32.21,32.21,0,0,1-4.31,3,20.67,20.67,0,0,1-4,1.79,11.93,11.93,0,0,1-3.53.6,8.51,8.51,0,0,1-3.43-.69,7.73,7.73,0,0,1-2.74-2,9.78,9.78,0,0,1-1.83-3.24,13.17,13.17,0,0,1-.67-4.38,17.4,17.4,0,0,1,.17-2.13c.12-.86.29-1.84.52-2.93s.49-2.29.82-3.59.67-2.67,1.07-4.12c-2.62.27-5.13.53-7.53.76s-4.8.46-7.18.68c-.55,1.64-1.09,3.24-1.63,4.82s-1,3-1.55,4.42-1,2.64-1.38,3.78S209,61.23,208.67,62a14.72,14.72,0,0,1-2.79,4.4,3.84,3.84,0,0,1-2.45,1.29,4.09,4.09,0,0,1-1.38-.24,3.71,3.71,0,0,1-1.2-.67,3.18,3.18,0,0,1-.83-1.06,2.94,2.94,0,0,1-.31-1.37,3.44,3.44,0,0,1,.12-.91q1.23-4.48,2.68-8.66c1-2.78,2-5.49,2.94-8.13a18.24,18.24,0,0,1-3.09-.25,9.75,9.75,0,0,1-2.74-.86,7.35,7.35,0,0,1-2.24-1.7,8.83,8.83,0,0,1-1.63-2.75c-.07-.36-.14-.67-.19-.94a4.62,4.62,0,0,1-.07-.82c0-.86.3-1.29.91-1.29a2,2,0,0,1,1.23.6,17,17,0,0,1,1.73,1.92c.92,0,1.83-.07,2.75-.09s1.91,0,3,0h2.81q1.06-2.73,2-5.26c.63-1.69,1.23-3.34,1.77-5a25.32,25.32,0,0,0,.79-3.11,15.56,15.56,0,0,0,.3-3,10,10,0,0,0-.21-2.11,4.6,4.6,0,0,0-.67-1.64,3.36,3.36,0,0,0-1.2-1.05,3.86,3.86,0,0,0-1.82-.38,8.24,8.24,0,0,0-2,.29,14.15,14.15,0,0,0-2.56.95A26.29,26.29,0,0,0,201.19,22a41.18,41.18,0,0,0-3.59,2.65,4.73,4.73,0,0,1-1.25.79,2.68,2.68,0,0,1-1,.24c-.15,0-.27-.26-.35-.78a14.64,14.64,0,0,1-.11-1.92,6.18,6.18,0,0,1,.71-2.9,9.79,9.79,0,0,1,1.92-2.53,15.78,15.78,0,0,1,2.77-2.11,21.5,21.5,0,0,1,3.22-1.61,20.39,20.39,0,0,1,3.3-1,14.14,14.14,0,0,1,3-.36,13.76,13.76,0,0,1,3.92.56,8.82,8.82,0,0,1,3.3,1.79A8.44,8.44,0,0,1,219.26,18a12.14,12.14,0,0,1,.84,4.78,20.17,20.17,0,0,1-.31,3.22c-.2,1.27-.48,2.66-.83,4.17s-.77,3.13-1.25,4.84-1,3.45-1.54,5.23c2-.14,4.28-.28,6.8-.41l7.59-.41q1.49-4.89,3.29-10.13T237.68,19a7.09,7.09,0,0,1,1.77-2.67,3.76,3.76,0,0,1,2.59-1,3.94,3.94,0,0,1,1.19.18,3,3,0,0,1,1,.54,2.64,2.64,0,0,1,.69.94,3.39,3.39,0,0,1,.25,1.33c0,.45,0,1-.09,1.57a7.88,7.88,0,0,1-.47,1.92c-.45,1.21-.93,2.5-1.43,3.88s-1,2.79-1.54,4.25-1,2.94-1.56,4.47-1,3-1.47,4.54l3.22-.22,2.08-.16.6,0H245a5,5,0,0,1,1.42.17,2.06,2.06,0,0,1,.85.5,1.75,1.75,0,0,1,.43.76,4.37,4.37,0,0,1,.11,1,1.8,1.8,0,0,1-.26,1,2.08,2.08,0,0,1-.66.66,2.65,2.65,0,0,1-.83.36,7.24,7.24,0,0,1-.82.13l-1.18.13-.49.06-.19,0-.22,0-.62,0-1.35.12c-.7.08-1.39.14-2.06.2Z" />
        <path id="i"
            d="M267.88,59.63a25.28,25.28,0,0,1-2.62,2.07,28.48,28.48,0,0,1-3.38,2,26.42,26.42,0,0,1-3.71,1.54,11.61,11.61,0,0,1-3.59.61,6.86,6.86,0,0,1-2.56-.42,4.38,4.38,0,0,1-1.69-1.19,4.64,4.64,0,0,1-.92-1.86,10.11,10.11,0,0,1-.28-2.42,24.83,24.83,0,0,1,.43-4.29q.42-2.44,1-5.07t1.3-5.23q.69-2.61,1.22-4.8a2.61,2.61,0,0,1,.82-1.31,5.1,5.1,0,0,1,1.39-.87,7,7,0,0,1,1.61-.5,7.85,7.85,0,0,1,1.51-.16,2.34,2.34,0,0,1,1.67.45,1.69,1.69,0,0,1,.44,1.22,8.93,8.93,0,0,1-.29,1.86c-.2.81-.44,1.72-.74,2.75l-.93,3.31c-.34,1.18-.65,2.36-.94,3.55s-.54,2.33-.73,3.45a17.6,17.6,0,0,0-.3,3,6,6,0,0,0,.3,2.09,1.15,1.15,0,0,0,1.2.78,4.83,4.83,0,0,0,2.34-.74,20.4,20.4,0,0,0,2.61-1.77c.88-.69,1.74-1.41,2.58-2.15s1.58-1.38,2.22-1.91ZM254.79,29.51a4.87,4.87,0,0,1,.29-1.52,4.81,4.81,0,0,1,.95-1.6,5.56,5.56,0,0,1,1.76-1.26,6.51,6.51,0,0,1,2.74-.51,7.5,7.5,0,0,1,1.93.24,4.62,4.62,0,0,1,1.59.71,3.51,3.51,0,0,1,1.06,1.28,4.06,4.06,0,0,1,.4,1.87,6.07,6.07,0,0,1-.32,1.94,4.62,4.62,0,0,1-1,1.67,5.38,5.38,0,0,1-1.77,1.18,6.4,6.4,0,0,1-2.56.46A5.24,5.24,0,0,1,256,32.75,4.35,4.35,0,0,1,254.79,29.51Z" />
        <path id="p"
            d="M277.76,60.66a23.06,23.06,0,0,0,5.39-.59,20.63,20.63,0,0,0,4.41-1.58,18.94,18.94,0,0,0,3.57-2.33A23.68,23.68,0,0,0,294,53.3l.32,6.71a15.43,15.43,0,0,1-2.27,2.21,16.56,16.56,0,0,1-2.92,1.88,17.31,17.31,0,0,1-3.32,1.29,12.91,12.91,0,0,1-3.44.48,2.85,2.85,0,0,1-.52-.06l-1.07-.2-2.18-.4c-.95-.16-2.23-.36-3.85-.6v.53a47.93,47.93,0,0,1-.9,9.68,31.67,31.67,0,0,1-2.38,7.43A14.58,14.58,0,0,1,268.06,87a6.07,6.07,0,0,1-4,1.67,4.55,4.55,0,0,1-2.79-.82,5.68,5.68,0,0,1-1.77-2.21,11.72,11.72,0,0,1-.94-3.25,27.36,27.36,0,0,1-.28-3.94,11.42,11.42,0,0,1,.38-2.71,27.53,27.53,0,0,1,1-3.16c.43-1.11.91-2.23,1.45-3.37s1.09-2.26,1.66-3.33q2-3.75,4.54-7.73c.21-1.53.43-3.09.66-4.69s.5-3.15.85-4.66a32.35,32.35,0,0,1,1.28-4.28,12.86,12.86,0,0,1,2-3.51A9,9,0,0,1,275,38.63a8.77,8.77,0,0,1,4.1-.88,11.24,11.24,0,0,1,3.34.48,6.91,6.91,0,0,1,2.73,1.57A7.43,7.43,0,0,1,287,42.59a11.57,11.57,0,0,1,.68,4.21,12.74,12.74,0,0,1-.59,3.85,12.17,12.17,0,0,1-1.83,3.56,16.37,16.37,0,0,1-3.16,3.18A22,22,0,0,1,277.58,60ZM263.87,78.79a4.24,4.24,0,0,0,.1.76,4.83,4.83,0,0,0,.34,1.06,3.71,3.71,0,0,0,.61.94,1.26,1.26,0,0,0,.94.41,1,1,0,0,0,.82-.55,4.92,4.92,0,0,0,.53-1.45,14,14,0,0,0,.29-2q.09-1.14.15-2.34c0-.8.06-1.58.07-2.35s0-1.44.08-2c.05-1,.1-1.94.13-2.68s.05-1.34.07-1.83,0-1,.06-1.37A20.46,20.46,0,0,0,267,67.53c-.35.85-.68,1.73-1,2.65s-.6,1.83-.85,2.75-.47,1.77-.66,2.57-.33,1.47-.44,2A7.36,7.36,0,0,0,263.87,78.79ZM274.06,57.7a14.76,14.76,0,0,0,3-2,13.94,13.94,0,0,0,2.19-2.31,12.85,12.85,0,0,0,1.51-2.55,16.85,16.85,0,0,0,.94-2.69,8.86,8.86,0,0,0,.19-1.51,5.11,5.11,0,0,0-.17-1.63,3,3,0,0,0-.77-1.3,2,2,0,0,0-1.51-.54,3.14,3.14,0,0,0-1.9.6,5.25,5.25,0,0,0-1.42,1.62,10.89,10.89,0,0,0-1,2.43,25.46,25.46,0,0,0-.64,3c-.17,1.08-.28,2.19-.35,3.36S274.06,56.55,274.06,57.7Z" />
        <path id="s"
            d="M289.89,54.62c1.09-.94,2-1.72,2.66-2.34s1.27-1.2,1.76-1.72A18.69,18.69,0,0,0,295.64,49l1.42-1.88c.55-.72,1.21-1.61,2-2.65s1.8-2.35,3.05-3.91a13.24,13.24,0,0,1,.85-1,6.35,6.35,0,0,1,1-.89,5.33,5.33,0,0,1,1.26-.64,4.4,4.4,0,0,1,1.54-.25,6.16,6.16,0,0,1,2.17.3,2.7,2.7,0,0,1,1.11.75,1.85,1.85,0,0,1,.41.92,7,7,0,0,1,.06.84,2.89,2.89,0,0,1-.56,1.55,15.93,15.93,0,0,1-1.23,1.64c-.45.53-.87,1-1.27,1.45a3.13,3.13,0,0,0-.69,1,9.4,9.4,0,0,0,.13,1.66,13.52,13.52,0,0,0,.35,1.46c.15.48.3,1,.46,1.53s.3,1.15.45,1.86a22.07,22.07,0,0,1,.35,2.43c.09.92.13,2,.13,3.25a17.73,17.73,0,0,1,2.27-1.27l2.54-1.19c.88-.41,1.78-.86,2.71-1.36a22.7,22.7,0,0,0,2.8-1.8l0,6.56A27.62,27.62,0,0,1,314.8,62a40.21,40.21,0,0,1-5,2.16,37.32,37.32,0,0,1-5.3,1.48,25.78,25.78,0,0,1-5.08.54,15,15,0,0,1-3.23-.32,8.27,8.27,0,0,1-2.62-1,5.62,5.62,0,0,1-1.83-1.8,6,6,0,0,1-.85-2.7,5.74,5.74,0,0,1-.8.12l-.78,0c-.31,0-.61,0-.88,0a1.41,1.41,0,0,1-.7-.22,1.25,1.25,0,0,1-.47-.61,3.27,3.27,0,0,1-.18-1.22,2.56,2.56,0,0,1,.35-1.3,5.51,5.51,0,0,1,.82-1.07,9.65,9.65,0,0,1,.94-.82C289.49,54.94,289.73,54.76,289.89,54.62Zm3.75,3.75a1.17,1.17,0,0,1,.77.44c.28.29.61.62,1,1a7.21,7.21,0,0,0,1.29,1,3.14,3.14,0,0,0,1.67.44,4.08,4.08,0,0,0,1.89-.38,3.11,3.11,0,0,0,1.19-1,3.9,3.9,0,0,0,.61-1.46,8.31,8.31,0,0,0,.18-1.75,15,15,0,0,0-.1-1.61c-.07-.54-.16-1.07-.27-1.56s-.22-1-.35-1.41-.24-.82-.34-1.13Z" />
        <path id="t"
            d="M340.54,59.31q-2.82,1.63-5,2.87c-1.47.82-2.77,1.5-3.91,2.05a21.6,21.6,0,0,1-3.05,1.23,8.4,8.4,0,0,1-2.42.41,6.12,6.12,0,0,1-3.92-1.35,10.1,10.1,0,0,1-2.84-3.88,24.18,24.18,0,0,1-1.72-6.14,52.16,52.16,0,0,1-.57-8.11q0-1.76.15-3.75c.1-1.33.23-2.65.41-4-.59-.07-1-.15-1.36-.22l-1-.2c-.36-.07-.82-.14-1.38-.22s-1.36-.18-2.41-.29a2.59,2.59,0,0,1-1.09-.34,1.54,1.54,0,0,1-.55-.59,1.77,1.77,0,0,1-.21-.7q0-.36,0-.63a1,1,0,0,1,.57-.89,4.63,4.63,0,0,1,1.47-.46,14.39,14.39,0,0,1,2-.16c.71,0,1.4,0,2,0l1.76,0a5.88,5.88,0,0,0,1.07,0,66.64,66.64,0,0,1,2-7.66,43,43,0,0,1,2.72-6.6,18.29,18.29,0,0,1,3.3-4.63,5.35,5.35,0,0,1,3.75-1.74,4.1,4.1,0,0,1,2.3.7A6.27,6.27,0,0,1,334.33,16a9.6,9.6,0,0,1,1.13,2.74,13.44,13.44,0,0,1,.39,3.27,12,12,0,0,1-.41,3,22.32,22.32,0,0,1-1.11,3.25,33.53,33.53,0,0,1-1.66,3.35c-.63,1.14-1.3,2.26-2,3.37.17,0,.47,0,.88,0l1.42,0,1.74.07,1.82.08,1.64.06,1.26.05a1,1,0,0,1,.85.59,3.38,3.38,0,0,1,.26,1.41A2.4,2.4,0,0,1,340,39a1.72,1.72,0,0,1-1.29.64H327.41c-.56.78-1.13,1.55-1.71,2.3s-1.11,1.43-1.6,2c-.07,1.21-.14,2.4-.2,3.57,0,.51,0,1-.06,1.57l-.06,1.6c0,.52,0,1,0,1.52s0,.94,0,1.35a10.1,10.1,0,0,0,.3,2.66,4.43,4.43,0,0,0,.85,1.77,3.12,3.12,0,0,0,1.36,1,4.89,4.89,0,0,0,1.8.31,5.49,5.49,0,0,0,1.54-.29,18.47,18.47,0,0,0,2-.81c.73-.34,1.5-.75,2.31-1.22s1.61-1,2.41-1.53,1.54-1.15,2.27-1.76a23.63,23.63,0,0,0,2-1.89Zm-9.38-37.09a6.24,6.24,0,0,0,0-.72,2.76,2.76,0,0,0-.19-.75,1.43,1.43,0,0,0-.45-.58,1.41,1.41,0,0,0-.87-.24c-.51,0-1,.45-1.54,1.35a21,21,0,0,0-1.49,3.44q-.72,2.1-1.35,4.62c-.42,1.68-.8,3.31-1.16,4.89l.88.1.91.11q.88-1.5,1.83-3.24c.64-1.16,1.21-2.31,1.72-3.43s.92-2.17,1.26-3.15A7.88,7.88,0,0,0,331.16,22.22Z" />
        <path id="e"
            d="M349.53,65.87a11.06,11.06,0,0,1-4.82-1,10.06,10.06,0,0,1-3.44-2.69,11.26,11.26,0,0,1-2.06-3.89,15.53,15.53,0,0,1-.69-4.65,19.56,19.56,0,0,1,.32-3.47,19.9,19.9,0,0,1,1-3.59,18.33,18.33,0,0,1,1.66-3.35,13,13,0,0,1,2.33-2.81,10.7,10.7,0,0,1,3-1.94,9.15,9.15,0,0,1,3.68-.71,8.68,8.68,0,0,1,3,.52A7.42,7.42,0,0,1,356,39.78a6.64,6.64,0,0,1,1.63,2.3,7.53,7.53,0,0,1,.59,3,8.11,8.11,0,0,1-.9,3.63,13.16,13.16,0,0,1-2.47,3.43A17.66,17.66,0,0,1,351,55a19.64,19.64,0,0,1-4.73,2,8.39,8.39,0,0,0,.87,1.32,3.84,3.84,0,0,0,.86.82,2.61,2.61,0,0,0,.92.41,4.3,4.3,0,0,0,1,.12,10.92,10.92,0,0,0,3.71-.7,24.49,24.49,0,0,0,3.79-1.76A32.37,32.37,0,0,0,361,54.9a30.48,30.48,0,0,0,2.78-2.36l3.78,3.93a38.39,38.39,0,0,1-5.48,4.71c-.84.59-1.74,1.17-2.71,1.73a23.9,23.9,0,0,1-3,1.51A22,22,0,0,1,353,65.48,15.67,15.67,0,0,1,349.53,65.87ZM345.64,52.1a5.84,5.84,0,0,0,2.3-.54,10.43,10.43,0,0,0,2.31-1.39,9.8,9.8,0,0,0,1.8-1.85,3.28,3.28,0,0,0,.74-1.93,4.38,4.38,0,0,0-.49-2.17,1.38,1.38,0,0,0-1.18-.85,4.42,4.42,0,0,0-3.65,1.69,6.37,6.37,0,0,0-1,1.69,12.64,12.64,0,0,0-.56,1.92,14.23,14.23,0,0,0-.24,1.88C345.66,51.15,345.64,51.67,345.64,52.1Z" />
        <path id="r"
            d="M362.69,59.75c0-.86.05-1.86.14-3s.23-2.35.4-3.62.36-2.57.59-3.88.46-2.58.71-3.77.51-2.28.76-3.28a20.41,20.41,0,0,1,.77-2.46,5.32,5.32,0,0,1,.47-1,2,2,0,0,1,.54-.6,1.86,1.86,0,0,1,.76-.29,7.16,7.16,0,0,1,1.13-.07,7.27,7.27,0,0,1,1.18.07.94.94,0,0,1,.63.35A1.58,1.58,0,0,1,371,39c0,.35.05.83.05,1.43V43c0,1,0,2,.05,3h.33l1.32-2.63a17.1,17.1,0,0,1,1.69-2.71,10.5,10.5,0,0,1,2.2-2.12,4.79,4.79,0,0,1,2.84-.86,3.13,3.13,0,0,1,1.09.19,2.57,2.57,0,0,1,.92.54,2.63,2.63,0,0,1,.63.86,2.7,2.7,0,0,1,.23,1.16,8.69,8.69,0,0,1-.14,1.39c-.1.6-.21,1.22-.32,1.88s-.23,1.29-.33,1.9a11.18,11.18,0,0,0-.14,1.54,6.72,6.72,0,0,0,.2,1.76,3.34,3.34,0,0,0,.54,1.12,1.91,1.91,0,0,0,.77.61,2.43,2.43,0,0,0,.89.17,7,7,0,0,0,2.72-.58A18.31,18.31,0,0,0,389.14,49a24.06,24.06,0,0,0,2.7-1.94l-.44,6.86L389.67,55a20.3,20.3,0,0,1-2.07,1.16,16.17,16.17,0,0,1-2.28.91,8.3,8.3,0,0,1-2.42.36,6.28,6.28,0,0,1-3.54-.89,6.59,6.59,0,0,1-2.14-2.34,11.66,11.66,0,0,1-1.17-3.26c-.26-1.2-.46-2.41-.62-3.64H375l-5.24,14.62a17.14,17.14,0,0,1-.78,1.89A6.52,6.52,0,0,1,368.2,65a2.28,2.28,0,0,1-.83.66,2.32,2.32,0,0,1-1,.19A3,3,0,0,1,363.35,64a6.41,6.41,0,0,1-.53-2A18.6,18.6,0,0,1,362.69,59.75Z" />
        <path id="J-2" data-name="J" class="cls-3"
            d="M144.16,73.37a23.23,23.23,0,0,1,1.51-8.07A30.26,30.26,0,0,1,150,57.51a32.71,32.71,0,0,1,6.71-6.57,29.5,29.5,0,0,1,8.76-4.38,54.07,54.07,0,0,1-4.66-4.24A37.11,37.11,0,0,1,157,37.76a23.13,23.13,0,0,1-2.53-4.69,12.71,12.71,0,0,1-.92-4.7A23.87,23.87,0,0,1,156,17.69a21.1,21.1,0,0,1,2.74-4.16,19.31,19.31,0,0,1,3.4-3.16,15.4,15.4,0,0,1,3.79-2,11.79,11.79,0,0,1,4-.7A10.4,10.4,0,0,1,175,9a12.43,12.43,0,0,1,4.35,4.27,24.85,24.85,0,0,1,3,7.59,47.44,47.44,0,0,1,1.15,11.25c0,3.18-.12,6.21-.34,9.07s-.55,5.6-1,8.22c1.19.74,2.4,1.46,3.62,2.16s2.45,1.41,3.7,2.11c.26.16.57.35,1,.56s.75.44,1.11.69a6.72,6.72,0,0,1,.92.73,1,1,0,0,1,.38.66.82.82,0,0,1-.25.57,3.73,3.73,0,0,1-.58.53,4.18,4.18,0,0,1-.68.42l-.51.27a2.82,2.82,0,0,1-1.29.26,15.7,15.7,0,0,1-3.85-.64A39.18,39.18,0,0,1,180.93,56a71.12,71.12,0,0,1-3.09,9.92A58.33,58.33,0,0,1,173.9,74a40.44,40.44,0,0,1-4.53,6.22,30.37,30.37,0,0,1-4.83,4.41,20.45,20.45,0,0,1-4.86,2.64,13.76,13.76,0,0,1-4.65.88,10,10,0,0,1-4.29-.94,9.58,9.58,0,0,1-3.44-2.8,13.74,13.74,0,0,1-2.3-4.61A22.11,22.11,0,0,1,144.16,73.37Zm7.5,1.88a7.44,7.44,0,0,0,1.16,4.52,3.63,3.63,0,0,0,3.06,1.54,8,8,0,0,0,4.38-1.7,20.38,20.38,0,0,0,4.91-5.26,47.36,47.36,0,0,0,4.7-9,73.79,73.79,0,0,0,3.79-13l-1.08-.68a20.25,20.25,0,0,0-5.7,2,28.77,28.77,0,0,0-5,3.44,31,31,0,0,0-4.2,4.38,35.39,35.39,0,0,0-3.21,4.82A25.7,25.7,0,0,0,152.38,71,14.41,14.41,0,0,0,151.66,75.25ZM161,26.5a11.42,11.42,0,0,0,1,4.65,20.46,20.46,0,0,0,2.87,4.59,37.73,37.73,0,0,0,4.4,4.5A68.64,68.64,0,0,0,175,44.63q.51-4.07.79-8.57c.2-3,.3-6.18.3-9.56a33.23,33.23,0,0,0-.44-5.85,15,15,0,0,0-1.19-3.88,5.26,5.26,0,0,0-1.76-2.15,3.81,3.81,0,0,0-2.12-.66,5.13,5.13,0,0,0-2.2.52,10.14,10.14,0,0,0-2.17,1.45,15.4,15.4,0,0,0-2,2.16,15.66,15.66,0,0,0-1.62,2.62,16.16,16.16,0,0,0-1.1,2.87A10.66,10.66,0,0,0,161,26.5Z" />
        <path id="H-2" data-name="H" class="cls-3"
            d="M237.15,43.9q-1,3.6-1.64,6.72a28.55,28.55,0,0,0-.62,5.41,5.12,5.12,0,0,0,.84,3.12,3.23,3.23,0,0,0,2.77,1.13,4.86,4.86,0,0,0,1.76-.43,13.38,13.38,0,0,0,2.34-1.33,31.64,31.64,0,0,0,2.94-2.35c1.09-1,2.29-2.1,3.62-3.42.06.11.18.39.35.82s.38.93.66,1.68.68,1.78,1.19,3.09A43.09,43.09,0,0,1,247,62.41a32.21,32.21,0,0,1-4.31,3,20.67,20.67,0,0,1-4,1.79,11.93,11.93,0,0,1-3.53.6,8.51,8.51,0,0,1-3.43-.69,7.73,7.73,0,0,1-2.74-2,9.78,9.78,0,0,1-1.83-3.24,13.17,13.17,0,0,1-.67-4.38,17.4,17.4,0,0,1,.17-2.13c.12-.86.29-1.84.52-2.93s.49-2.29.82-3.59.67-2.67,1.07-4.12c-2.62.27-5.13.53-7.53.76s-4.8.46-7.18.68c-.55,1.64-1.09,3.24-1.63,4.82s-1,3-1.55,4.42-1,2.64-1.38,3.78S209,61.23,208.67,62a14.72,14.72,0,0,1-2.79,4.4,3.84,3.84,0,0,1-2.45,1.29,4.09,4.09,0,0,1-1.38-.24,3.71,3.71,0,0,1-1.2-.67,3.18,3.18,0,0,1-.83-1.06,2.94,2.94,0,0,1-.31-1.37,3.44,3.44,0,0,1,.12-.91q1.23-4.48,2.68-8.66c1-2.78,2-5.49,2.94-8.13a18.24,18.24,0,0,1-3.09-.25,9.75,9.75,0,0,1-2.74-.86,7.35,7.35,0,0,1-2.24-1.7,8.83,8.83,0,0,1-1.63-2.75c-.07-.36-.14-.67-.19-.94a4.62,4.62,0,0,1-.07-.82c0-.86.3-1.29.91-1.29a2,2,0,0,1,1.23.6,17,17,0,0,1,1.73,1.92c.92,0,1.83-.07,2.75-.09s1.91,0,3,0h2.81q1.06-2.73,2-5.26c.63-1.69,1.23-3.34,1.77-5a25.32,25.32,0,0,0,.79-3.11,15.56,15.56,0,0,0,.3-3,10,10,0,0,0-.21-2.11,4.6,4.6,0,0,0-.67-1.64,3.36,3.36,0,0,0-1.2-1.05,3.86,3.86,0,0,0-1.82-.38,8.24,8.24,0,0,0-2,.29,14.15,14.15,0,0,0-2.56.95A26.29,26.29,0,0,0,201.19,22a41.18,41.18,0,0,0-3.59,2.65,4.73,4.73,0,0,1-1.25.79,2.68,2.68,0,0,1-1,.24c-.15,0-.27-.26-.35-.78a14.64,14.64,0,0,1-.11-1.92,6.18,6.18,0,0,1,.71-2.9,9.79,9.79,0,0,1,1.92-2.53,15.78,15.78,0,0,1,2.77-2.11,21.5,21.5,0,0,1,3.22-1.61,20.39,20.39,0,0,1,3.3-1,14.14,14.14,0,0,1,3-.36,13.76,13.76,0,0,1,3.92.56,8.82,8.82,0,0,1,3.3,1.79A8.44,8.44,0,0,1,219.26,18a12.14,12.14,0,0,1,.84,4.78,20.17,20.17,0,0,1-.31,3.22c-.2,1.27-.48,2.66-.83,4.17s-.77,3.13-1.25,4.84-1,3.45-1.54,5.23c2-.14,4.28-.28,6.8-.41l7.59-.41q1.49-4.89,3.29-10.13T237.68,19a7.09,7.09,0,0,1,1.77-2.67,3.76,3.76,0,0,1,2.59-1,3.94,3.94,0,0,1,1.19.18,3,3,0,0,1,1,.54,2.64,2.64,0,0,1,.69.94,3.39,3.39,0,0,1,.25,1.33c0,.45,0,1-.09,1.57a7.88,7.88,0,0,1-.47,1.92c-.45,1.21-.93,2.5-1.43,3.88s-1,2.79-1.54,4.25-1,2.94-1.56,4.47-1,3-1.47,4.54l3.22-.22,2.08-.16.6,0H245a5,5,0,0,1,1.42.17,2.06,2.06,0,0,1,.85.5,1.75,1.75,0,0,1,.43.76,4.37,4.37,0,0,1,.11,1,1.8,1.8,0,0,1-.26,1,2.08,2.08,0,0,1-.66.66,2.65,2.65,0,0,1-.83.36,7.24,7.24,0,0,1-.82.13l-1.18.13-.49.06-.19,0-.22,0-.62,0-1.35.12c-.7.08-1.39.14-2.06.2Z" />
        <path id="i-2" data-name="i" class="cls-3"
            d="M267.88,59.63a25.28,25.28,0,0,1-2.62,2.07,28.48,28.48,0,0,1-3.38,2,26.42,26.42,0,0,1-3.71,1.54,11.61,11.61,0,0,1-3.59.61,6.86,6.86,0,0,1-2.56-.42,4.38,4.38,0,0,1-1.69-1.19,4.64,4.64,0,0,1-.92-1.86,10.11,10.11,0,0,1-.28-2.42,24.83,24.83,0,0,1,.43-4.29q.42-2.44,1-5.07t1.3-5.23q.69-2.61,1.22-4.8a2.61,2.61,0,0,1,.82-1.31,5.1,5.1,0,0,1,1.39-.87,7,7,0,0,1,1.61-.5,7.85,7.85,0,0,1,1.51-.16,2.34,2.34,0,0,1,1.67.45,1.69,1.69,0,0,1,.44,1.22,8.93,8.93,0,0,1-.29,1.86c-.2.81-.44,1.72-.74,2.75l-.93,3.31c-.34,1.18-.65,2.36-.94,3.55s-.54,2.33-.73,3.45a17.6,17.6,0,0,0-.3,3,6,6,0,0,0,.3,2.09,1.15,1.15,0,0,0,1.2.78,4.83,4.83,0,0,0,2.34-.74,20.4,20.4,0,0,0,2.61-1.77c.88-.69,1.74-1.41,2.58-2.15s1.58-1.38,2.22-1.91ZM254.79,29.51a4.87,4.87,0,0,1,.29-1.52,4.81,4.81,0,0,1,.95-1.6,5.56,5.56,0,0,1,1.76-1.26,6.51,6.51,0,0,1,2.74-.51,7.5,7.5,0,0,1,1.93.24,4.62,4.62,0,0,1,1.59.71,3.51,3.51,0,0,1,1.06,1.28,4.06,4.06,0,0,1,.4,1.87,6.07,6.07,0,0,1-.32,1.94,4.62,4.62,0,0,1-1,1.67,5.38,5.38,0,0,1-1.77,1.18,6.4,6.4,0,0,1-2.56.46A5.24,5.24,0,0,1,256,32.75,4.35,4.35,0,0,1,254.79,29.51Z" />
        <path id="p-2" data-name="p" class="cls-3"
            d="M277.76,60.66a23.06,23.06,0,0,0,5.39-.59,20.63,20.63,0,0,0,4.41-1.58,18.94,18.94,0,0,0,3.57-2.33A23.68,23.68,0,0,0,294,53.3l.32,6.71a15.43,15.43,0,0,1-2.27,2.21,16.56,16.56,0,0,1-2.92,1.88,17.31,17.31,0,0,1-3.32,1.29,12.91,12.91,0,0,1-3.44.48,2.85,2.85,0,0,1-.52-.06l-1.07-.2-2.18-.4c-.95-.16-2.23-.36-3.85-.6v.53a47.93,47.93,0,0,1-.9,9.68,31.67,31.67,0,0,1-2.38,7.43A14.58,14.58,0,0,1,268.06,87a6.07,6.07,0,0,1-4,1.67,4.55,4.55,0,0,1-2.79-.82,5.68,5.68,0,0,1-1.77-2.21,11.72,11.72,0,0,1-.94-3.25,27.36,27.36,0,0,1-.28-3.94,11.42,11.42,0,0,1,.38-2.71,27.53,27.53,0,0,1,1-3.16c.43-1.11.91-2.23,1.45-3.37s1.09-2.26,1.66-3.33q2-3.75,4.54-7.73c.21-1.53.43-3.09.66-4.69s.5-3.15.85-4.66a32.35,32.35,0,0,1,1.28-4.28,12.86,12.86,0,0,1,2-3.51A9,9,0,0,1,275,38.63a8.77,8.77,0,0,1,4.1-.88,11.24,11.24,0,0,1,3.34.48,6.91,6.91,0,0,1,2.73,1.57A7.43,7.43,0,0,1,287,42.59a11.57,11.57,0,0,1,.68,4.21,12.74,12.74,0,0,1-.59,3.85,12.17,12.17,0,0,1-1.83,3.56,16.37,16.37,0,0,1-3.16,3.18A22,22,0,0,1,277.58,60ZM263.87,78.79a4.24,4.24,0,0,0,.1.76,4.83,4.83,0,0,0,.34,1.06,3.71,3.71,0,0,0,.61.94,1.26,1.26,0,0,0,.94.41,1,1,0,0,0,.82-.55,4.92,4.92,0,0,0,.53-1.45,14,14,0,0,0,.29-2q.09-1.14.15-2.34c0-.8.06-1.58.07-2.35s0-1.44.08-2c.05-1,.1-1.94.13-2.68s.05-1.34.07-1.83,0-1,.06-1.37A20.46,20.46,0,0,0,267,67.53c-.35.85-.68,1.73-1,2.65s-.6,1.83-.85,2.75-.47,1.77-.66,2.57-.33,1.47-.44,2A7.36,7.36,0,0,0,263.87,78.79ZM274.06,57.7a14.76,14.76,0,0,0,3-2,13.94,13.94,0,0,0,2.19-2.31,12.85,12.85,0,0,0,1.51-2.55,16.85,16.85,0,0,0,.94-2.69,8.86,8.86,0,0,0,.19-1.51,5.11,5.11,0,0,0-.17-1.63,3,3,0,0,0-.77-1.3,2,2,0,0,0-1.51-.54,3.14,3.14,0,0,0-1.9.6,5.25,5.25,0,0,0-1.42,1.62,10.89,10.89,0,0,0-1,2.43,25.46,25.46,0,0,0-.64,3c-.17,1.08-.28,2.19-.35,3.36S274.06,56.55,274.06,57.7Z" />
        <path id="s-2" data-name="s" class="cls-3"
            d="M289.89,54.62c1.09-.94,2-1.72,2.66-2.34s1.27-1.2,1.76-1.72A18.69,18.69,0,0,0,295.64,49l1.42-1.88c.55-.72,1.21-1.61,2-2.65s1.8-2.35,3.05-3.91a13.24,13.24,0,0,1,.85-1,6.35,6.35,0,0,1,1-.89,5.33,5.33,0,0,1,1.26-.64,4.4,4.4,0,0,1,1.54-.25,6.16,6.16,0,0,1,2.17.3,2.7,2.7,0,0,1,1.11.75,1.85,1.85,0,0,1,.41.92,7,7,0,0,1,.06.84,2.89,2.89,0,0,1-.56,1.55,15.93,15.93,0,0,1-1.23,1.64c-.45.53-.87,1-1.27,1.45a3.13,3.13,0,0,0-.69,1,9.4,9.4,0,0,0,.13,1.66,13.52,13.52,0,0,0,.35,1.46c.15.48.3,1,.46,1.53s.3,1.15.45,1.86a22.07,22.07,0,0,1,.35,2.43c.09.92.13,2,.13,3.25a17.73,17.73,0,0,1,2.27-1.27l2.54-1.19c.88-.41,1.78-.86,2.71-1.36a22.7,22.7,0,0,0,2.8-1.8l0,6.56A27.62,27.62,0,0,1,314.8,62a40.21,40.21,0,0,1-5,2.16,37.32,37.32,0,0,1-5.3,1.48,25.78,25.78,0,0,1-5.08.54,15,15,0,0,1-3.23-.32,8.27,8.27,0,0,1-2.62-1,5.62,5.62,0,0,1-1.83-1.8,6,6,0,0,1-.85-2.7,5.74,5.74,0,0,1-.8.12l-.78,0c-.31,0-.61,0-.88,0a1.41,1.41,0,0,1-.7-.22,1.25,1.25,0,0,1-.47-.61,3.27,3.27,0,0,1-.18-1.22,2.56,2.56,0,0,1,.35-1.3,5.51,5.51,0,0,1,.82-1.07,9.65,9.65,0,0,1,.94-.82C289.49,54.94,289.73,54.76,289.89,54.62Zm3.75,3.75a1.17,1.17,0,0,1,.77.44c.28.29.61.62,1,1a7.21,7.21,0,0,0,1.29,1,3.14,3.14,0,0,0,1.67.44,4.08,4.08,0,0,0,1.89-.38,3.11,3.11,0,0,0,1.19-1,3.9,3.9,0,0,0,.61-1.46,8.31,8.31,0,0,0,.18-1.75,15,15,0,0,0-.1-1.61c-.07-.54-.16-1.07-.27-1.56s-.22-1-.35-1.41-.24-.82-.34-1.13Z" />
        <path id="t-2" data-name="t" class="cls-3"
            d="M340.54,59.31q-2.82,1.63-5,2.87c-1.47.82-2.77,1.5-3.91,2.05a21.6,21.6,0,0,1-3.05,1.23,8.4,8.4,0,0,1-2.42.41,6.12,6.12,0,0,1-3.92-1.35,10.1,10.1,0,0,1-2.84-3.88,24.18,24.18,0,0,1-1.72-6.14,52.16,52.16,0,0,1-.57-8.11q0-1.76.15-3.75c.1-1.33.23-2.65.41-4-.59-.07-1-.15-1.36-.22l-1-.2c-.36-.07-.82-.14-1.38-.22s-1.36-.18-2.41-.29a2.59,2.59,0,0,1-1.09-.34,1.54,1.54,0,0,1-.55-.59,1.77,1.77,0,0,1-.21-.7q0-.36,0-.63a1,1,0,0,1,.57-.89,4.63,4.63,0,0,1,1.47-.46,14.39,14.39,0,0,1,2-.16c.71,0,1.4,0,2,0l1.76,0a5.88,5.88,0,0,0,1.07,0,66.64,66.64,0,0,1,2-7.66,43,43,0,0,1,2.72-6.6,18.29,18.29,0,0,1,3.3-4.63,5.35,5.35,0,0,1,3.75-1.74,4.1,4.1,0,0,1,2.3.7A6.27,6.27,0,0,1,334.33,16a9.6,9.6,0,0,1,1.13,2.74,13.44,13.44,0,0,1,.39,3.27,12,12,0,0,1-.41,3,22.32,22.32,0,0,1-1.11,3.25,33.53,33.53,0,0,1-1.66,3.35c-.63,1.14-1.3,2.26-2,3.37.17,0,.47,0,.88,0l1.42,0,1.74.07,1.82.08,1.64.06,1.26.05a1,1,0,0,1,.85.59,3.38,3.38,0,0,1,.26,1.41A2.4,2.4,0,0,1,340,39a1.72,1.72,0,0,1-1.29.64H327.41c-.56.78-1.13,1.55-1.71,2.3s-1.11,1.43-1.6,2c-.07,1.21-.14,2.4-.2,3.57,0,.51,0,1-.06,1.57l-.06,1.6c0,.52,0,1,0,1.52s0,.94,0,1.35a10.1,10.1,0,0,0,.3,2.66,4.43,4.43,0,0,0,.85,1.77,3.12,3.12,0,0,0,1.36,1,4.89,4.89,0,0,0,1.8.31,5.49,5.49,0,0,0,1.54-.29,18.47,18.47,0,0,0,2-.81c.73-.34,1.5-.75,2.31-1.22s1.61-1,2.41-1.53,1.54-1.15,2.27-1.76a23.63,23.63,0,0,0,2-1.89Zm-9.38-37.09a6.24,6.24,0,0,0,0-.72,2.76,2.76,0,0,0-.19-.75,1.43,1.43,0,0,0-.45-.58,1.41,1.41,0,0,0-.87-.24c-.51,0-1,.45-1.54,1.35a21,21,0,0,0-1.49,3.44q-.72,2.1-1.35,4.62c-.42,1.68-.8,3.31-1.16,4.89l.88.1.91.11q.88-1.5,1.83-3.24c.64-1.16,1.21-2.31,1.72-3.43s.92-2.17,1.26-3.15A7.88,7.88,0,0,0,331.16,22.22Z" />
        <path id="e-2" data-name="e" class="cls-3"
            d="M349.53,65.87a11.06,11.06,0,0,1-4.82-1,10.06,10.06,0,0,1-3.44-2.69,11.26,11.26,0,0,1-2.06-3.89,15.53,15.53,0,0,1-.69-4.65,19.56,19.56,0,0,1,.32-3.47,19.9,19.9,0,0,1,1-3.59,18.33,18.33,0,0,1,1.66-3.35,13,13,0,0,1,2.33-2.81,10.7,10.7,0,0,1,3-1.94,9.15,9.15,0,0,1,3.68-.71,8.68,8.68,0,0,1,3,.52A7.42,7.42,0,0,1,356,39.78a6.64,6.64,0,0,1,1.63,2.3,7.53,7.53,0,0,1,.59,3,8.11,8.11,0,0,1-.9,3.63,13.16,13.16,0,0,1-2.47,3.43A17.66,17.66,0,0,1,351,55a19.64,19.64,0,0,1-4.73,2,8.39,8.39,0,0,0,.87,1.32,3.84,3.84,0,0,0,.86.82,2.61,2.61,0,0,0,.92.41,4.3,4.3,0,0,0,1,.12,10.92,10.92,0,0,0,3.71-.7,24.49,24.49,0,0,0,3.79-1.76A32.37,32.37,0,0,0,361,54.9a30.48,30.48,0,0,0,2.78-2.36l3.78,3.93a38.39,38.39,0,0,1-5.48,4.71c-.84.59-1.74,1.17-2.71,1.73a23.9,23.9,0,0,1-3,1.51A22,22,0,0,1,353,65.48,15.67,15.67,0,0,1,349.53,65.87ZM345.64,52.1a5.84,5.84,0,0,0,2.3-.54,10.43,10.43,0,0,0,2.31-1.39,9.8,9.8,0,0,0,1.8-1.85,3.28,3.28,0,0,0,.74-1.93,4.38,4.38,0,0,0-.49-2.17,1.38,1.38,0,0,0-1.18-.85,4.42,4.42,0,0,0-3.65,1.69,6.37,6.37,0,0,0-1,1.69,12.64,12.64,0,0,0-.56,1.92,14.23,14.23,0,0,0-.24,1.88C345.66,51.15,345.64,51.67,345.64,52.1Z" />
        <path id="r-2" data-name="r" class="cls-3"
            d="M362.69,59.75c0-.86.05-1.86.14-3s.23-2.35.4-3.62.36-2.57.59-3.88.46-2.58.71-3.77.51-2.28.76-3.28a20.41,20.41,0,0,1,.77-2.46,5.32,5.32,0,0,1,.47-1,2,2,0,0,1,.54-.6,1.86,1.86,0,0,1,.76-.29,7.16,7.16,0,0,1,1.13-.07,7.27,7.27,0,0,1,1.18.07.94.94,0,0,1,.63.35A1.58,1.58,0,0,1,371,39c0,.35.05.83.05,1.43V43c0,1,0,2,.05,3h.33l1.32-2.63a17.1,17.1,0,0,1,1.69-2.71,10.5,10.5,0,0,1,2.2-2.12,4.79,4.79,0,0,1,2.84-.86,3.13,3.13,0,0,1,1.09.19,2.57,2.57,0,0,1,.92.54,2.63,2.63,0,0,1,.63.86,2.7,2.7,0,0,1,.23,1.16,8.69,8.69,0,0,1-.14,1.39c-.1.6-.21,1.22-.32,1.88s-.23,1.29-.33,1.9a11.18,11.18,0,0,0-.14,1.54,6.72,6.72,0,0,0,.2,1.76,3.34,3.34,0,0,0,.54,1.12,1.91,1.91,0,0,0,.77.61,2.43,2.43,0,0,0,.89.17,7,7,0,0,0,2.72-.58A18.31,18.31,0,0,0,389.14,49a24.06,24.06,0,0,0,2.7-1.94l-.44,6.86L389.67,55a20.3,20.3,0,0,1-2.07,1.16,16.17,16.17,0,0,1-2.28.91,8.3,8.3,0,0,1-2.42.36,6.28,6.28,0,0,1-3.54-.89,6.59,6.59,0,0,1-2.14-2.34,11.66,11.66,0,0,1-1.17-3.26c-.26-1.2-.46-2.41-.62-3.64H375l-5.24,14.62a17.14,17.14,0,0,1-.78,1.89A6.52,6.52,0,0,1,368.2,65a2.28,2.28,0,0,1-.83.66,2.32,2.32,0,0,1-1,.19A3,3,0,0,1,363.35,64a6.41,6.41,0,0,1-.53-2A18.6,18.6,0,0,1,362.69,59.75Z" />
        <path class="cls-4"
            d="M144.06,73.37c.27-12.3,9.78-23.4,21.29-27.09l-.1.51a43.63,43.63,0,0,1-8.74-9A17.62,17.62,0,0,1,153,29a23.67,23.67,0,0,1,4.61-15C165.79,3.33,178.5,5,182.43,18.22a45.55,45.55,0,0,1,1.89,15.66,128.48,128.48,0,0,1-1.16,15.68l-.44-1c3.24,2,6.73,3.68,9.9,5.84,2,1.29,1.59,2.89-.29,4a4.64,4.64,0,0,1-2.85.92,26.38,26.38,0,0,1-8.95-2.46l1.39-.71a63.81,63.81,0,0,1-5.65,15.32c-3.8,7.13-9.51,14.14-17.55,16.49-9.83,2.65-15-5.84-14.66-14.67Zm.2,0c-.06,13.73,10.41,18.89,21,9.93,8.06-7,12.21-17.37,14.69-27.54a1,1,0,0,1,1.39-.7c2.83,1.11,5.74,2.36,8.78,2.23a1.47,1.47,0,0,0,.49-.19,5.08,5.08,0,0,0,1.31-.9s0,0,0,0a.6.6,0,0,0,0,.26,10,10,0,0,0-1.79-1.31c-2.82-1.65-5.63-3.24-8.43-5a1,1,0,0,1-.43-1A112.55,112.55,0,0,0,182.49,37a64.89,64.89,0,0,0-.2-12.31c-.79-7.38-4.87-17.43-13.82-16.23-9.2,1.52-14.71,11.69-14.41,20.49.6,7.28,6.29,12.88,11.56,17.44a.29.29,0,0,1-.1.5,29.08,29.08,0,0,0-8.14,3.85c-7.42,5.06-13,13.52-13.12,22.68Z" />
        <path class="cls-4"
            d="M151.76,75.25c-.22,4.13,2.42,7.42,6.63,5.17,3.21-1.69,5.4-4.75,7.27-7.81a62.9,62.9,0,0,0,7.13-20.51l.4.93-1.09-.65.66.12a21.38,21.38,0,0,0-7.31,3.19c-6.13,4.13-13.18,11.85-13.69,19.56Zm-.2,0c.49-8.53,5.69-16.64,12.77-21.31a21.88,21.88,0,0,1,8.07-3.23.88.88,0,0,1,.66.12c.55.43,1.68.76,1.48,1.63-2.1,8.94-5.09,18.21-11.4,25.13-4.38,4.81-11.55,6.2-11.58-2.34Z" />
        <path class="cls-4"
            d="M161.14,26.5c-.07,4,2.39,7.49,5.06,10.25a61,61,0,0,0,9.09,7.4l-.92.41c.29-6.05,2.76-26-2.54-29.27-1.33-.83-3.25-.19-4.83.93a13.9,13.9,0,0,0-5.86,10.28Zm-.2,0A16.42,16.42,0,0,1,166.06,15c2.9-2.87,7.36-2.81,9.23,1.18,2.38,5,1.55,10.63,1.36,15.94-.08,4.21-.7,8.37-1.12,12.54a.57.57,0,0,1-.91.41,49.7,49.7,0,0,1-8.87-8c-2.5-3-4.76-6.62-4.81-10.66Z" />
        <path class="cls-4"
            d="M237.21,44c-.83,3.74-2.11,7.84-2.16,11.69-.25,5.74,4.73,5.15,8,2.22L245.38,56c.53-.46,3.05-2.93,3.61-3.44a.24.24,0,0,1,.34,0c.47.94.8,1.93,1.19,2.88l1.09,2.8a.27.27,0,0,1-.06.28c-4.93,5.06-13.51,12.36-20.92,8.41-7.66-5-3.75-15.23-2.08-22.4l.51.59q-7.35.79-14.71,1.49l.45-.36c-.89,2.68-1.78,5.35-2.72,8-1.53,3.93-2.42,8.13-4.93,11.61-1,1.17-2,2.32-3.72,2.44a4.08,4.08,0,0,1-4.05-5.57c1.42-4.89,3.61-11.49,5.43-16.32l.64.93a13.92,13.92,0,0,1-6.17-1.18,8.25,8.25,0,0,1-4.44-5.87c-.17-1-.2-2.56,1.1-2.93,1.92-.33,3,1.62,4,2.73l-.62-.29c2.44-.12,6.06-.13,8.55-.14l-.73.5c1.41-3.77,2.94-7.55,4-11.34,1.93-7,.44-11.58-7.4-7.35a35.08,35.08,0,0,0-4.86,3.32c-1.44,1.22-4.65,3.3-4.89,0-1-5.49,3.26-9.21,7.75-11.35,8.34-4.24,19.4-2,19.33,9-.25,6.25-2.31,12.09-4,18l-1-1.29q7.2-.41,14.4-.73l-.82.64,2.14-6.46c.59-1.89,1.55-4.59,2.26-6.42l2.42-6.37a11.22,11.22,0,0,1,1.6-3.21c1.88-3,7.5-2.78,7.74,1.27.2,3-1.31,5.73-2.26,8.39q-2.4,6.34-4.54,12.76l-.46-.58,5.65-.32c1.35-.14,3.58.09,3.82,1.87.57,3.21-2.2,3.27-4.52,3.46-2.11.16-4.27.35-6.33.47Zm-.12-.16c2.18-.25,4.24-.47,6.36-.7,1.38-.27,3.59-.07,4.06-1.68.37-2.3-1.18-2.78-3.22-2.54l-5.65.5a.45.45,0,0,1-.46-.59c1.33-4.34,2.77-8.63,4.29-12.9.52-1.73,1.88-4.55,2-6.29,0-1,.22-2-.41-2.77-1.22-1.36-3.69-.85-4.7.74A10,10,0,0,0,238,20.45l-2.32,6.35c-.68,1.81-1.6,4.52-2.17,6.41l-2.06,6.45a.92.92,0,0,1-.82.64q-7.2.42-14.37.9a1,1,0,0,1-1-1.29c1.6-5.72,3.6-11.45,3.88-17.39.15-9.47-9.55-10.82-16.48-7.27-3.16,1.58-6.84,4-6.81,7.9l.08,1.4a1.69,1.69,0,0,0,.08.51s0,0-.09-.12a.78.78,0,0,0-.29-.19.86.86,0,0,0-.27-.05,1.06,1.06,0,0,0,.24,0,6.08,6.08,0,0,0,2.19-1.33c3.41-2.5,6.85-5.16,11.38-5.23,5.53.31,4.83,7.45,3.63,11.16-1.16,4-2.71,7.69-4.15,11.47a.76.76,0,0,1-.73.5h-4.25c-1.42,0-2.84,0-4.25.09a.73.73,0,0,1-.61-.28c-.67-.72-1.57-2.17-2.45-2.25a2.87,2.87,0,0,0,0,1.25l.18.9a9.2,9.2,0,0,0,1.32,2.29c1.87,2.24,4.81,2.71,7.66,2.74a.71.71,0,0,1,.65.94c-1.66,4.4-3.9,10.74-5.19,15.2-.33,1.06-.92,2.39-.29,3.43a3.19,3.19,0,0,0,2.81,1.55c2.41-.4,3.76-3.46,4.7-5.28,2-5.28,3.88-10.56,5.67-15.9a.53.53,0,0,1,.45-.36c4.91-.43,9.81-.9,14.71-1.38a.47.47,0,0,1,.5.59c-.49,1.91-1,3.81-1.46,5.73-.85,3.71-1.83,7.74-.43,11.42a7.94,7.94,0,0,0,8.92,5.36c5.8-1,10.63-5,14.68-9.13l-.06.28c-.69-1.67-1.44-4-2.16-5.59l.38.07-2.92,2.74c-.79.8-2.23,1.85-3.11,2.56-3.55,3.12-8.85,3.47-8.55-2.55.08-3.91,1.42-8.06,2.34-11.85Z" />
        <path class="cls-4"
            d="M268,59.67c-4,3.52-12.45,9.14-17.58,5.26-3.34-3.47-1.17-9.46-.57-13.62.77-3.59,1.66-7.14,2.5-10.68.39-2.15,2.86-3.32,4.82-3.59a4.9,4.9,0,0,1,3.29.28c1.23.83,1.12,2.31.9,3.45-.4,1.86-.87,3.62-1.35,5.38-.93,4.17-2.8,8.59-2.24,12.84.13.36.07.26.21.34,1.9.11,3.76-1.56,5.32-2.64s2.89-2.24,4.35-3.39a.46.46,0,0,1,.73.38c-.13,2-.23,4.06-.38,6Zm-.18-.08-.37-5.91.76.36c-2.21,1.84-10,10.74-12.21,5.49-.79-3,.09-5.8.63-8.61.84-3.58,2-7.11,2.9-10.51.11-.57.29-1.27,0-1.61-1.58-.57-5.31.24-5.66,2.21-.94,3.54-1.91,7.05-2.76,10.57-.64,3.77-2.85,9.52-.07,12.72,4.65,3.63,13-1.62,16.82-4.71Z" />
        <path class="cls-4"
            d="M254.69,29.51c.18-4.71,5.84-6.79,9.66-4.52,3.51,2.39,2,8.4-1.84,9.59s-8.2-.7-7.82-5.07Zm.2,0c.08,3.06,2.62,3.81,5.26,3.45,2.28-.14,4.4-1.5,4.55-4a3.09,3.09,0,0,0-1.09-2.94c-2.93-2-8.77-.84-8.72,3.45Z" />
        <path class="cls-4"
            d="M277.82,60.58a20.42,20.42,0,0,0,16-7.45.27.27,0,0,1,.48.16l.39,6.71a.4.4,0,0,1-.08.23,17,17,0,0,1-11.89,6.1c-2.77-.25-5.28-.87-8-1.19l.61-.53c0,7.77-.91,17.15-6.8,22.93a6.61,6.61,0,0,1-6.23,1.62c-3.77-1.22-4.55-5.7-4.77-9.09-.41-5.53,2.53-10.71,4.93-15.49l4-7-.15.4c1-6,1.19-12.72,5.12-17.7,4.15-5.26,14.34-4.5,16.38,2.31,2.37,8-2.84,14.87-10.19,17.56l.07-.15q.06.27.12.57Zm-.12.16c0-.22-.37-.66-.17-.81a21.22,21.22,0,0,0,5.84-4.08c4.7-4.27,5.79-14.93-1.52-16.93-11.93-2.68-12.07,11.74-13.67,19.76-2.37,4-5.89,9.61-7.54,13.89-.9,2.41-1.78,4.8-1.51,7.41.1,3.33,1,8.29,5.28,7.94,8-1.47,9.92-16.51,9.83-23.32a.51.51,0,0,1,.6-.51c2.58.34,5.33,1,7.85,1.31a16.22,16.22,0,0,0,11.39-5.6L294,60l-.26-6.71.49.16a20.54,20.54,0,0,1-16.53,7.26Z" />
        <path class="cls-4"
            d="M264,78.79c.12,1.08.52,2.93,1.84,3,.81-.08.9-1.26,1-1.92.13-1.27.19-2.64.22-3.93,0-3.16.06-7.55,0-10.68l1.77.52c-.93,2.07-1.74,4.24-2.59,6.37A28.46,28.46,0,0,0,264,78.79Zm-.2,0c.4-4.19.62-8.52,2.59-12.33.52-.8.88-2.62,2.16-2a1,1,0,0,1,.49.91l-.45,5.32c-.22,2.58-.34,6.87-1,9.35-1.16,4-3.56,1.76-3.81-1.22Z" />
        <path class="cls-4"
            d="M274.12,57.61a1.08,1.08,0,0,1,.38-.28,13.62,13.62,0,0,0,6.69-10c.33-2-.56-3.95-2.52-3.12a5,5,0,0,0-2.15,2.85,82.36,82.36,0,0,0-2.4,10.55Zm-.11.17a24.91,24.91,0,0,1,0-9.19,9.15,9.15,0,0,1,1.87-4.47c3.15-3.63,7.72-1.37,6.63,3.39A13.83,13.83,0,0,1,274,57.78Z" />
        <path class="cls-4"
            d="M289.82,54.55c4.91-3.78,8.14-9,11.8-13.9a7.54,7.54,0,0,1,3.59-3.08c2.06-.64,5.6-.35,5.81,2.36l0,.62c-.14,1.84-1.46,2.89-2.43,4.22a12,12,0,0,0-1.26,1.57l0-.16.13,1.45a28,28,0,0,0,.8,2.91,29.94,29.94,0,0,1,1.08,7.83l-1.14-.61c1.71-1,3.5-1.92,5.29-2.79a27.27,27.27,0,0,0,4.9-2.93.87.87,0,0,1,1.22.16.85.85,0,0,1,.19.54L320,59.3a1,1,0,0,1-.38.78c-6.17,4.83-20.94,10.41-27.51,4.26a6.19,6.19,0,0,1-1.59-4l.46.34c-1.24,0-3.1.45-3.82-.79-1.05-2.3,1-4.15,2.68-5.34Zm.13.15c-1.2,1-2.82,2.1-2.68,3.85,0,.82.35,1.61,1.12,1.6a9.58,9.58,0,0,0,2.41-.22.38.38,0,0,1,.46.32,5.16,5.16,0,0,0,1.62,3.31c5.92,4.63,20.12-1,25.53-5l-.37.77.06-6.56,1.4.7a29.26,29.26,0,0,1-5.26,3C312.47,57.23,310.7,58,309,59a.75.75,0,0,1-1.09-.64l-.09-3a28.06,28.06,0,0,0-.77-4.44,15.54,15.54,0,0,1-.86-4.86,7.55,7.55,0,0,1,1.55-2c.81-1,2.13-2.22,2.25-3.46,0-.69,0-1.25-.56-1.66a5,5,0,0,0-4-.53A7,7,0,0,0,302.14,41l-2.91,3.54c-.52.67-3.05,3.93-3.53,4.52A46.11,46.11,0,0,1,290,54.7Z" />
        <path class="cls-4"
            d="M293.73,58.33c-.09-.12,0,0,.07,0,.63.16,1.26.95,1.76,1.33a3.83,3.83,0,0,0,3.89,1c3.56-1.31,1.69-6.75.76-9.41l1.66.41c-2.44,2.7-5.2,4.18-8.14,6.75Zm-.19.08c2-2.6,4.43-6.08,6.92-8.25a1,1,0,0,1,1.44,0,16.63,16.63,0,0,1,.93,7.55,4.16,4.16,0,0,1-5.64,3.65,7.87,7.87,0,0,1-2.74-2.28,1.92,1.92,0,0,0-.7-.6c-.05,0,0,0-.21-.08Z" />
        <path class="cls-4"
            d="M340.63,59.36c-1.69,1-6.06,3.57-7.76,4.41-16.29,9.95-17.16-14.84-15.71-25.15l.43.56c-.81-.12-1.62-.25-2.38-.41-1.12-.19-2.37-.33-3.51-.45a4.14,4.14,0,0,1-1.32-.3,2.2,2.2,0,0,1-1.31-1.85l0-.64a1.59,1.59,0,0,1,.9-1.45c2.21-1,5-.62,7.36-.66l1.06,0-.49.48c1.08-6.21,6.8-27,16-19.78,3.69,3.76,3.39,9.76,1.42,14.29-.67,1.4-1.38,3-2.16,4.35l-1.61,2.76-.73-1.5c1.83.07,7.17.21,8.93.32,1.42.13,1.94,2,1.88,3A3.38,3.38,0,0,1,340,40.25c-.65.54-2.12.38-2.92.4h-3.23l-6.47,0,.8-.4c-1.1,1.46-2.23,2.91-3.39,4.33L325,44c-.2,2.69-.36,5.41-.46,8.11-.34,4.29.74,7.95,5.71,5.94a30.39,30.39,0,0,0,10.06-6.52.32.32,0,0,1,.54.26l-.24,7.55Zm-.18-.1-.25-7.45.59.22a29.71,29.71,0,0,1-11.05,7.6c-5.59,1.66-7.14-3-6.82-7.54,0-2.74.13-5.45.27-8.19a.86.86,0,0,1,.2-.52c1.11-1.42,2.18-2.87,3.23-4.34a1,1,0,0,1,.79-.4l9.7,0h1.57a.54.54,0,0,0,.25-.09c.68-.32.67-1.7.4-2.19,0,0,.07,0,.06,0-1.54-.08-7.19-.32-8.83-.4a.94.94,0,0,1-.9-1,.92.92,0,0,1,.17-.51c.53-.91,1.94-3.09,2.37-4a22.86,22.86,0,0,0,2.67-7c.8-4-1.79-11.67-6.91-8.47-2.42,1.78-3.9,4.6-5.16,7.33a59.46,59.46,0,0,0-3.71,11.89.53.53,0,0,1-.49.49c-2.61.22-5.64-.48-8.13.48-.26.15-.3.19-.3.44a2.56,2.56,0,0,0,.12.95,1.07,1.07,0,0,0,.54.55c1.28.38,3.15.41,4.58.73.79.18,1.55.3,2.31.43a.52.52,0,0,1,.44.56c-1.51,9.84-1.38,34.18,14.55,24.71,1.68-.81,6.06-3.26,7.74-4.2Z" />
        <path class="cls-4"
            d="M331.06,22.22c.06-1.11-.38-2.56-1.76-2.06a2.12,2.12,0,0,0-.72.79c-1.41,2.73-2,5.89-2.74,8.86l-.91,4.61-.74-1.06,1.79.12L325,34c1-2,2.06-3.9,3.22-5.79s2.6-3.74,2.81-5.94Zm.2,0a12.63,12.63,0,0,1-.55,3.36,25.81,25.81,0,0,1-4,9.34.92.92,0,0,1-.95.47L324,35.1a.85.85,0,0,1-.74-1.06l1.26-4.57c1-3,1.7-6.21,3.7-8.81a1.71,1.71,0,0,1,2.25-.65c.75.48.78,1.43.83,2.21Z" />
        <path class="cls-4"
            d="M349.53,66C335.34,66,335.3,45,345.12,38.74c5.55-3.73,14.18-.63,13.79,6.72-.51,6.41-6.64,10.76-12.35,12.45l.58-1.38c.64.89,1.07,1.87,2.12,2a10.54,10.54,0,0,0,5.6-1.2,33.18,33.18,0,0,0,8.25-5.52l.08-.06a.92.92,0,0,1,1.26.09c1.25,1.34,2.48,2.71,3.71,4.07a.77.77,0,0,1,0,1.06,40.06,40.06,0,0,1-4.07,3.4c-4.26,3-9.19,5.58-14.52,5.55Zm0-.2c7-.19,12.91-4.92,17.45-9.85V57c-1.3-1.26-2.61-2.53-3.89-3.81l1.34,0c-3.95,3.58-8.5,7-14.07,7.44a4.79,4.79,0,0,1-3.08-.86,8.54,8.54,0,0,1-1.8-2.34.89.89,0,0,1,.23-1.24c4.09-1.17,8.17-3.33,10.45-7.06,2.32-3.38,1.44-8.54-2.57-10.13-15.29-5.38-21.81,26.86-4.06,26.74Z" />
        <path class="cls-4"
            d="M345.71,52a9.17,9.17,0,0,0,5.08-3,4.62,4.62,0,0,0,1.33-2.37c0-.88-.21-2.18-1-2.43-3.84.32-4.4,4.68-5.45,7.81Zm-.14.14c-.84-3.15-.44-7.73,3-9.25,1.25-.47,3.05-.79,4,.32a4.38,4.38,0,0,1,.06,5.26c-1.74,2.09-4.23,3.78-7.06,3.67Z" />
        <path class="cls-4"
            d="M362.59,59.75a86,86,0,0,1,1.12-10.61,73.36,73.36,0,0,1,2.05-9.41c.36-1.12,1-2.33,2.37-2.28.92,0,2.15-.3,2.91.43a2.75,2.75,0,0,1,.42,1.77c.07,2.15.09,4.26.18,6.4l-.52-.49h.33l-.46.29c1.7-3.4,3.59-8.11,7.92-8.69a3.52,3.52,0,0,1,4.11,3c.28,2.4-2.43,9.2.6,10a7.77,7.77,0,0,0,4-1.18,21.38,21.38,0,0,0,3.7-2.55.87.87,0,0,1,1.41.73L392.34,54a.9.9,0,0,1-.42.73c-.84.54-1.6,1.1-2.52,1.6a13.64,13.64,0,0,1-5.87,2.16c-6.92.47-8.43-5.44-9-11l.94.82H375l.89-.63c-1.73,4.56-3.58,9.07-5.38,13.59-.79,1.66-1.21,3.81-3,4.74a3.46,3.46,0,0,1-3.61-.87c-1.31-1.47-1.17-3.52-1.27-5.32Zm.2,0a15.12,15.12,0,0,0,.46,3.57,3,3,0,0,0,4,2.12c1.45-1,1.72-3,2.33-4.55,1.49-4.64,2.93-9.3,4.49-13.91a.9.9,0,0,1,.88-.62c.62-.07,1.26,0,1.4.75v.07l.52,2.81c.46,3.53,2.56,6.85,6.5,6.4a12,12,0,0,0,5-1.81c.81-.41,1.64-1,2.46-1.48l-.43.73L391,47l1.42.72c-2.67,2-5.37,4-9,3.91-4.85-1.25-1.67-8.07-1.71-11.36C381.5,38,378.58,38,377.11,39c-2.56,1.66-3.83,4.61-5.21,7.28-.14.3-.5.28-.78.27a.51.51,0,0,1-.51-.49c0-1.43,0-2.87,0-4.29a26.41,26.41,0,0,0,0-3.09c-.07-.29-.15-.41-.38-.48-1.1-.07-2.88-.5-3.46.78A21.65,21.65,0,0,0,365.35,43a77.67,77.67,0,0,0-2.56,16.8Z" />
        <path id="J-3" data-name="J" class="cls-3"
            d="M144.16,73.37a23.23,23.23,0,0,1,1.51-8.07A30.26,30.26,0,0,1,150,57.51a32.71,32.71,0,0,1,6.71-6.57,29.5,29.5,0,0,1,8.76-4.38,54.07,54.07,0,0,1-4.66-4.24A37.11,37.11,0,0,1,157,37.76a23.13,23.13,0,0,1-2.53-4.69,12.71,12.71,0,0,1-.92-4.7A23.87,23.87,0,0,1,156,17.69a21.1,21.1,0,0,1,2.74-4.16,19.31,19.31,0,0,1,3.4-3.16,15.4,15.4,0,0,1,3.79-2,11.79,11.79,0,0,1,4-.7A10.4,10.4,0,0,1,175,9a12.43,12.43,0,0,1,4.35,4.27,24.85,24.85,0,0,1,3,7.59,47.44,47.44,0,0,1,1.15,11.25c0,3.18-.12,6.21-.34,9.07s-.55,5.6-1,8.22c1.19.74,2.4,1.46,3.62,2.16s2.45,1.41,3.7,2.11c.26.16.57.35,1,.56s.75.44,1.11.69a6.72,6.72,0,0,1,.92.73,1,1,0,0,1,.38.66.82.82,0,0,1-.25.57,3.73,3.73,0,0,1-.58.53,4.18,4.18,0,0,1-.68.42l-.51.27a2.82,2.82,0,0,1-1.29.26,15.7,15.7,0,0,1-3.85-.64A39.18,39.18,0,0,1,180.93,56a71.12,71.12,0,0,1-3.09,9.92A58.33,58.33,0,0,1,173.9,74a40.44,40.44,0,0,1-4.53,6.22,30.37,30.37,0,0,1-4.83,4.41,20.45,20.45,0,0,1-4.86,2.64,13.76,13.76,0,0,1-4.65.88,10,10,0,0,1-4.29-.94,9.58,9.58,0,0,1-3.44-2.8,13.74,13.74,0,0,1-2.3-4.61A22.11,22.11,0,0,1,144.16,73.37Zm7.5,1.88a7.44,7.44,0,0,0,1.16,4.52,3.63,3.63,0,0,0,3.06,1.54,8,8,0,0,0,4.38-1.7,20.38,20.38,0,0,0,4.91-5.26,47.36,47.36,0,0,0,4.7-9,73.79,73.79,0,0,0,3.79-13l-1.08-.68a20.25,20.25,0,0,0-5.7,2,28.77,28.77,0,0,0-5,3.44,31,31,0,0,0-4.2,4.38,35.39,35.39,0,0,0-3.21,4.82A25.7,25.7,0,0,0,152.38,71,14.41,14.41,0,0,0,151.66,75.25ZM161,26.5a11.42,11.42,0,0,0,1,4.65,20.46,20.46,0,0,0,2.87,4.59,37.73,37.73,0,0,0,4.4,4.5A68.64,68.64,0,0,0,175,44.63q.51-4.07.79-8.57c.2-3,.3-6.18.3-9.56a33.23,33.23,0,0,0-.44-5.85,15,15,0,0,0-1.19-3.88,5.26,5.26,0,0,0-1.76-2.15,3.81,3.81,0,0,0-2.12-.66,5.13,5.13,0,0,0-2.2.52,10.14,10.14,0,0,0-2.17,1.45,15.4,15.4,0,0,0-2,2.16,15.66,15.66,0,0,0-1.62,2.62,16.16,16.16,0,0,0-1.1,2.87A10.66,10.66,0,0,0,161,26.5Z" />
        <path id="H-3" data-name="H" class="cls-3"
            d="M237.15,43.9q-1,3.6-1.64,6.72a28.55,28.55,0,0,0-.62,5.41,5.12,5.12,0,0,0,.84,3.12,3.23,3.23,0,0,0,2.77,1.13,4.86,4.86,0,0,0,1.76-.43,13.38,13.38,0,0,0,2.34-1.33,31.64,31.64,0,0,0,2.94-2.35c1.09-1,2.29-2.1,3.62-3.42.06.11.18.39.35.82s.38.93.66,1.68.68,1.78,1.19,3.09A43.09,43.09,0,0,1,247,62.41a32.21,32.21,0,0,1-4.31,3,20.67,20.67,0,0,1-4,1.79,11.93,11.93,0,0,1-3.53.6,8.51,8.51,0,0,1-3.43-.69,7.73,7.73,0,0,1-2.74-2,9.78,9.78,0,0,1-1.83-3.24,13.17,13.17,0,0,1-.67-4.38,17.4,17.4,0,0,1,.17-2.13c.12-.86.29-1.84.52-2.93s.49-2.29.82-3.59.67-2.67,1.07-4.12c-2.62.27-5.13.53-7.53.76s-4.8.46-7.18.68c-.55,1.64-1.09,3.24-1.63,4.82s-1,3-1.55,4.42-1,2.64-1.38,3.78S209,61.23,208.67,62a14.72,14.72,0,0,1-2.79,4.4,3.84,3.84,0,0,1-2.45,1.29,4.09,4.09,0,0,1-1.38-.24,3.71,3.71,0,0,1-1.2-.67,3.18,3.18,0,0,1-.83-1.06,2.94,2.94,0,0,1-.31-1.37,3.44,3.44,0,0,1,.12-.91q1.23-4.48,2.68-8.66c1-2.78,2-5.49,2.94-8.13a18.24,18.24,0,0,1-3.09-.25,9.75,9.75,0,0,1-2.74-.86,7.35,7.35,0,0,1-2.24-1.7,8.83,8.83,0,0,1-1.63-2.75c-.07-.36-.14-.67-.19-.94a4.62,4.62,0,0,1-.07-.82c0-.86.3-1.29.91-1.29a2,2,0,0,1,1.23.6,17,17,0,0,1,1.73,1.92c.92,0,1.83-.07,2.75-.09s1.91,0,3,0h2.81q1.06-2.73,2-5.26c.63-1.69,1.23-3.34,1.77-5a25.32,25.32,0,0,0,.79-3.11,15.56,15.56,0,0,0,.3-3,10,10,0,0,0-.21-2.11,4.6,4.6,0,0,0-.67-1.64,3.36,3.36,0,0,0-1.2-1.05,3.86,3.86,0,0,0-1.82-.38,8.24,8.24,0,0,0-2,.29,14.15,14.15,0,0,0-2.56.95A26.29,26.29,0,0,0,201.19,22a41.18,41.18,0,0,0-3.59,2.65,4.73,4.73,0,0,1-1.25.79,2.68,2.68,0,0,1-1,.24c-.15,0-.27-.26-.35-.78a14.64,14.64,0,0,1-.11-1.92,6.18,6.18,0,0,1,.71-2.9,9.79,9.79,0,0,1,1.92-2.53,15.78,15.78,0,0,1,2.77-2.11,21.5,21.5,0,0,1,3.22-1.61,20.39,20.39,0,0,1,3.3-1,14.14,14.14,0,0,1,3-.36,13.76,13.76,0,0,1,3.92.56,8.82,8.82,0,0,1,3.3,1.79A8.44,8.44,0,0,1,219.26,18a12.14,12.14,0,0,1,.84,4.78,20.17,20.17,0,0,1-.31,3.22c-.2,1.27-.48,2.66-.83,4.17s-.77,3.13-1.25,4.84-1,3.45-1.54,5.23c2-.14,4.28-.28,6.8-.41l7.59-.41q1.49-4.89,3.29-10.13T237.68,19a7.09,7.09,0,0,1,1.77-2.67,3.76,3.76,0,0,1,2.59-1,3.94,3.94,0,0,1,1.19.18,3,3,0,0,1,1,.54,2.64,2.64,0,0,1,.69.94,3.39,3.39,0,0,1,.25,1.33c0,.45,0,1-.09,1.57a7.88,7.88,0,0,1-.47,1.92c-.45,1.21-.93,2.5-1.43,3.88s-1,2.79-1.54,4.25-1,2.94-1.56,4.47-1,3-1.47,4.54l3.22-.22,2.08-.16.6,0H245a5,5,0,0,1,1.42.17,2.06,2.06,0,0,1,.85.5,1.75,1.75,0,0,1,.43.76,4.37,4.37,0,0,1,.11,1,1.8,1.8,0,0,1-.26,1,2.08,2.08,0,0,1-.66.66,2.65,2.65,0,0,1-.83.36,7.24,7.24,0,0,1-.82.13l-1.18.13-.49.06-.19,0-.22,0-.62,0-1.35.12c-.7.08-1.39.14-2.06.2Z" />
        <path id="i-3" data-name="i" class="cls-3"
            d="M267.88,59.63a25.28,25.28,0,0,1-2.62,2.07,28.48,28.48,0,0,1-3.38,2,26.42,26.42,0,0,1-3.71,1.54,11.61,11.61,0,0,1-3.59.61,6.86,6.86,0,0,1-2.56-.42,4.38,4.38,0,0,1-1.69-1.19,4.64,4.64,0,0,1-.92-1.86,10.11,10.11,0,0,1-.28-2.42,24.83,24.83,0,0,1,.43-4.29q.42-2.44,1-5.07t1.3-5.23q.69-2.61,1.22-4.8a2.61,2.61,0,0,1,.82-1.31,5.1,5.1,0,0,1,1.39-.87,7,7,0,0,1,1.61-.5,7.85,7.85,0,0,1,1.51-.16,2.34,2.34,0,0,1,1.67.45,1.69,1.69,0,0,1,.44,1.22,8.93,8.93,0,0,1-.29,1.86c-.2.81-.44,1.72-.74,2.75l-.93,3.31c-.34,1.18-.65,2.36-.94,3.55s-.54,2.33-.73,3.45a17.6,17.6,0,0,0-.3,3,6,6,0,0,0,.3,2.09,1.15,1.15,0,0,0,1.2.78,4.83,4.83,0,0,0,2.34-.74,20.4,20.4,0,0,0,2.61-1.77c.88-.69,1.74-1.41,2.58-2.15s1.58-1.38,2.22-1.91ZM254.79,29.51a4.87,4.87,0,0,1,.29-1.52,4.81,4.81,0,0,1,.95-1.6,5.56,5.56,0,0,1,1.76-1.26,6.51,6.51,0,0,1,2.74-.51,7.5,7.5,0,0,1,1.93.24,4.62,4.62,0,0,1,1.59.71,3.51,3.51,0,0,1,1.06,1.28,4.06,4.06,0,0,1,.4,1.87,6.07,6.07,0,0,1-.32,1.94,4.62,4.62,0,0,1-1,1.67,5.38,5.38,0,0,1-1.77,1.18,6.4,6.4,0,0,1-2.56.46A5.24,5.24,0,0,1,256,32.75,4.35,4.35,0,0,1,254.79,29.51Z" />
        <path id="p-3" data-name="p" class="cls-3"
            d="M277.76,60.66a23.06,23.06,0,0,0,5.39-.59,20.63,20.63,0,0,0,4.41-1.58,18.94,18.94,0,0,0,3.57-2.33A23.68,23.68,0,0,0,294,53.3l.32,6.71a15.43,15.43,0,0,1-2.27,2.21,16.56,16.56,0,0,1-2.92,1.88,17.31,17.31,0,0,1-3.32,1.29,12.91,12.91,0,0,1-3.44.48,2.85,2.85,0,0,1-.52-.06l-1.07-.2-2.18-.4c-.95-.16-2.23-.36-3.85-.6v.53a47.93,47.93,0,0,1-.9,9.68,31.67,31.67,0,0,1-2.38,7.43A14.58,14.58,0,0,1,268.06,87a6.07,6.07,0,0,1-4,1.67,4.55,4.55,0,0,1-2.79-.82,5.68,5.68,0,0,1-1.77-2.21,11.72,11.72,0,0,1-.94-3.25,27.36,27.36,0,0,1-.28-3.94,11.42,11.42,0,0,1,.38-2.71,27.53,27.53,0,0,1,1-3.16c.43-1.11.91-2.23,1.45-3.37s1.09-2.26,1.66-3.33q2-3.75,4.54-7.73c.21-1.53.43-3.09.66-4.69s.5-3.15.85-4.66a32.35,32.35,0,0,1,1.28-4.28,12.86,12.86,0,0,1,2-3.51A9,9,0,0,1,275,38.63a8.77,8.77,0,0,1,4.1-.88,11.24,11.24,0,0,1,3.34.48,6.91,6.91,0,0,1,2.73,1.57A7.43,7.43,0,0,1,287,42.59a11.57,11.57,0,0,1,.68,4.21,12.74,12.74,0,0,1-.59,3.85,12.17,12.17,0,0,1-1.83,3.56,16.37,16.37,0,0,1-3.16,3.18A22,22,0,0,1,277.58,60ZM263.87,78.79a4.24,4.24,0,0,0,.1.76,4.83,4.83,0,0,0,.34,1.06,3.71,3.71,0,0,0,.61.94,1.26,1.26,0,0,0,.94.41,1,1,0,0,0,.82-.55,4.92,4.92,0,0,0,.53-1.45,14,14,0,0,0,.29-2q.09-1.14.15-2.34c0-.8.06-1.58.07-2.35s0-1.44.08-2c.05-1,.1-1.94.13-2.68s.05-1.34.07-1.83,0-1,.06-1.37A20.46,20.46,0,0,0,267,67.53c-.35.85-.68,1.73-1,2.65s-.6,1.83-.85,2.75-.47,1.77-.66,2.57-.33,1.47-.44,2A7.36,7.36,0,0,0,263.87,78.79ZM274.06,57.7a14.76,14.76,0,0,0,3-2,13.94,13.94,0,0,0,2.19-2.31,12.85,12.85,0,0,0,1.51-2.55,16.85,16.85,0,0,0,.94-2.69,8.86,8.86,0,0,0,.19-1.51,5.11,5.11,0,0,0-.17-1.63,3,3,0,0,0-.77-1.3,2,2,0,0,0-1.51-.54,3.14,3.14,0,0,0-1.9.6,5.25,5.25,0,0,0-1.42,1.62,10.89,10.89,0,0,0-1,2.43,25.46,25.46,0,0,0-.64,3c-.17,1.08-.28,2.19-.35,3.36S274.06,56.55,274.06,57.7Z" />
        <path id="s-3" data-name="s" class="cls-3"
            d="M289.89,54.62c1.09-.94,2-1.72,2.66-2.34s1.27-1.2,1.76-1.72A18.69,18.69,0,0,0,295.64,49l1.42-1.88c.55-.72,1.21-1.61,2-2.65s1.8-2.35,3.05-3.91a13.24,13.24,0,0,1,.85-1,6.35,6.35,0,0,1,1-.89,5.33,5.33,0,0,1,1.26-.64,4.4,4.4,0,0,1,1.54-.25,6.16,6.16,0,0,1,2.17.3,2.7,2.7,0,0,1,1.11.75,1.85,1.85,0,0,1,.41.92,7,7,0,0,1,.06.84,2.89,2.89,0,0,1-.56,1.55,15.93,15.93,0,0,1-1.23,1.64c-.45.53-.87,1-1.27,1.45a3.13,3.13,0,0,0-.69,1,9.4,9.4,0,0,0,.13,1.66,13.52,13.52,0,0,0,.35,1.46c.15.48.3,1,.46,1.53s.3,1.15.45,1.86a22.07,22.07,0,0,1,.35,2.43c.09.92.13,2,.13,3.25a17.73,17.73,0,0,1,2.27-1.27l2.54-1.19c.88-.41,1.78-.86,2.71-1.36a22.7,22.7,0,0,0,2.8-1.8l0,6.56A27.62,27.62,0,0,1,314.8,62a40.21,40.21,0,0,1-5,2.16,37.32,37.32,0,0,1-5.3,1.48,25.78,25.78,0,0,1-5.08.54,15,15,0,0,1-3.23-.32,8.27,8.27,0,0,1-2.62-1,5.62,5.62,0,0,1-1.83-1.8,6,6,0,0,1-.85-2.7,5.74,5.74,0,0,1-.8.12l-.78,0c-.31,0-.61,0-.88,0a1.41,1.41,0,0,1-.7-.22,1.25,1.25,0,0,1-.47-.61,3.27,3.27,0,0,1-.18-1.22,2.56,2.56,0,0,1,.35-1.3,5.51,5.51,0,0,1,.82-1.07,9.65,9.65,0,0,1,.94-.82C289.49,54.94,289.73,54.76,289.89,54.62Zm3.75,3.75a1.17,1.17,0,0,1,.77.44c.28.29.61.62,1,1a7.21,7.21,0,0,0,1.29,1,3.14,3.14,0,0,0,1.67.44,4.08,4.08,0,0,0,1.89-.38,3.11,3.11,0,0,0,1.19-1,3.9,3.9,0,0,0,.61-1.46,8.31,8.31,0,0,0,.18-1.75,15,15,0,0,0-.1-1.61c-.07-.54-.16-1.07-.27-1.56s-.22-1-.35-1.41-.24-.82-.34-1.13Z" />
        <path id="t-3" data-name="t" class="cls-3"
            d="M340.54,59.31q-2.82,1.63-5,2.87c-1.47.82-2.77,1.5-3.91,2.05a21.6,21.6,0,0,1-3.05,1.23,8.4,8.4,0,0,1-2.42.41,6.12,6.12,0,0,1-3.92-1.35,10.1,10.1,0,0,1-2.84-3.88,24.18,24.18,0,0,1-1.72-6.14,52.16,52.16,0,0,1-.57-8.11q0-1.76.15-3.75c.1-1.33.23-2.65.41-4-.59-.07-1-.15-1.36-.22l-1-.2c-.36-.07-.82-.14-1.38-.22s-1.36-.18-2.41-.29a2.59,2.59,0,0,1-1.09-.34,1.54,1.54,0,0,1-.55-.59,1.77,1.77,0,0,1-.21-.7q0-.36,0-.63a1,1,0,0,1,.57-.89,4.63,4.63,0,0,1,1.47-.46,14.39,14.39,0,0,1,2-.16c.71,0,1.4,0,2,0l1.76,0a5.88,5.88,0,0,0,1.07,0,66.64,66.64,0,0,1,2-7.66,43,43,0,0,1,2.72-6.6,18.29,18.29,0,0,1,3.3-4.63,5.35,5.35,0,0,1,3.75-1.74,4.1,4.1,0,0,1,2.3.7A6.27,6.27,0,0,1,334.33,16a9.6,9.6,0,0,1,1.13,2.74,13.44,13.44,0,0,1,.39,3.27,12,12,0,0,1-.41,3,22.32,22.32,0,0,1-1.11,3.25,33.53,33.53,0,0,1-1.66,3.35c-.63,1.14-1.3,2.26-2,3.37.17,0,.47,0,.88,0l1.42,0,1.74.07,1.82.08,1.64.06,1.26.05a1,1,0,0,1,.85.59,3.38,3.38,0,0,1,.26,1.41A2.4,2.4,0,0,1,340,39a1.72,1.72,0,0,1-1.29.64H327.41c-.56.78-1.13,1.55-1.71,2.3s-1.11,1.43-1.6,2c-.07,1.21-.14,2.4-.2,3.57,0,.51,0,1-.06,1.57l-.06,1.6c0,.52,0,1,0,1.52s0,.94,0,1.35a10.1,10.1,0,0,0,.3,2.66,4.43,4.43,0,0,0,.85,1.77,3.12,3.12,0,0,0,1.36,1,4.89,4.89,0,0,0,1.8.31,5.49,5.49,0,0,0,1.54-.29,18.47,18.47,0,0,0,2-.81c.73-.34,1.5-.75,2.31-1.22s1.61-1,2.41-1.53,1.54-1.15,2.27-1.76a23.63,23.63,0,0,0,2-1.89Zm-9.38-37.09a6.24,6.24,0,0,0,0-.72,2.76,2.76,0,0,0-.19-.75,1.43,1.43,0,0,0-.45-.58,1.41,1.41,0,0,0-.87-.24c-.51,0-1,.45-1.54,1.35a21,21,0,0,0-1.49,3.44q-.72,2.1-1.35,4.62c-.42,1.68-.8,3.31-1.16,4.89l.88.1.91.11q.88-1.5,1.83-3.24c.64-1.16,1.21-2.31,1.72-3.43s.92-2.17,1.26-3.15A7.88,7.88,0,0,0,331.16,22.22Z" />
        <path id="e-3" data-name="e" class="cls-3"
            d="M349.53,65.87a11.06,11.06,0,0,1-4.82-1,10.06,10.06,0,0,1-3.44-2.69,11.26,11.26,0,0,1-2.06-3.89,15.53,15.53,0,0,1-.69-4.65,19.56,19.56,0,0,1,.32-3.47,19.9,19.9,0,0,1,1-3.59,18.33,18.33,0,0,1,1.66-3.35,13,13,0,0,1,2.33-2.81,10.7,10.7,0,0,1,3-1.94,9.15,9.15,0,0,1,3.68-.71,8.68,8.68,0,0,1,3,.52A7.42,7.42,0,0,1,356,39.78a6.64,6.64,0,0,1,1.63,2.3,7.53,7.53,0,0,1,.59,3,8.11,8.11,0,0,1-.9,3.63,13.16,13.16,0,0,1-2.47,3.43A17.66,17.66,0,0,1,351,55a19.64,19.64,0,0,1-4.73,2,8.39,8.39,0,0,0,.87,1.32,3.84,3.84,0,0,0,.86.82,2.61,2.61,0,0,0,.92.41,4.3,4.3,0,0,0,1,.12,10.92,10.92,0,0,0,3.71-.7,24.49,24.49,0,0,0,3.79-1.76A32.37,32.37,0,0,0,361,54.9a30.48,30.48,0,0,0,2.78-2.36l3.78,3.93a38.39,38.39,0,0,1-5.48,4.71c-.84.59-1.74,1.17-2.71,1.73a23.9,23.9,0,0,1-3,1.51A22,22,0,0,1,353,65.48,15.67,15.67,0,0,1,349.53,65.87ZM345.64,52.1a5.84,5.84,0,0,0,2.3-.54,10.43,10.43,0,0,0,2.31-1.39,9.8,9.8,0,0,0,1.8-1.85,3.28,3.28,0,0,0,.74-1.93,4.38,4.38,0,0,0-.49-2.17,1.38,1.38,0,0,0-1.18-.85,4.42,4.42,0,0,0-3.65,1.69,6.37,6.37,0,0,0-1,1.69,12.64,12.64,0,0,0-.56,1.92,14.23,14.23,0,0,0-.24,1.88C345.66,51.15,345.64,51.67,345.64,52.1Z" />
        <path id="r-3" data-name="r" class="cls-3"
            d="M362.69,59.75c0-.86.05-1.86.14-3s.23-2.35.4-3.62.36-2.57.59-3.88.46-2.58.71-3.77.51-2.28.76-3.28a20.41,20.41,0,0,1,.77-2.46,5.32,5.32,0,0,1,.47-1,2,2,0,0,1,.54-.6,1.86,1.86,0,0,1,.76-.29,7.16,7.16,0,0,1,1.13-.07,7.27,7.27,0,0,1,1.18.07.94.94,0,0,1,.63.35A1.58,1.58,0,0,1,371,39c0,.35.05.83.05,1.43V43c0,1,0,2,.05,3h.33l1.32-2.63a17.1,17.1,0,0,1,1.69-2.71,10.5,10.5,0,0,1,2.2-2.12,4.79,4.79,0,0,1,2.84-.86,3.13,3.13,0,0,1,1.09.19,2.57,2.57,0,0,1,.92.54,2.63,2.63,0,0,1,.63.86,2.7,2.7,0,0,1,.23,1.16,8.69,8.69,0,0,1-.14,1.39c-.1.6-.21,1.22-.32,1.88s-.23,1.29-.33,1.9a11.18,11.18,0,0,0-.14,1.54,6.72,6.72,0,0,0,.2,1.76,3.34,3.34,0,0,0,.54,1.12,1.91,1.91,0,0,0,.77.61,2.43,2.43,0,0,0,.89.17,7,7,0,0,0,2.72-.58A18.31,18.31,0,0,0,389.14,49a24.06,24.06,0,0,0,2.7-1.94l-.44,6.86L389.67,55a20.3,20.3,0,0,1-2.07,1.16,16.17,16.17,0,0,1-2.28.91,8.3,8.3,0,0,1-2.42.36,6.28,6.28,0,0,1-3.54-.89,6.59,6.59,0,0,1-2.14-2.34,11.66,11.66,0,0,1-1.17-3.26c-.26-1.2-.46-2.41-.62-3.64H375l-5.24,14.62a17.14,17.14,0,0,1-.78,1.89A6.52,6.52,0,0,1,368.2,65a2.28,2.28,0,0,1-.83.66,2.32,2.32,0,0,1-1,.19A3,3,0,0,1,363.35,64a6.41,6.41,0,0,1-.53-2A18.6,18.6,0,0,1,362.69,59.75Z" />
    </g>
</svg>