<svg id="Logo_JHipster" data-name="Logo JHipster" xmlns="http://www.w3.org/2000/svg"
    xmlns:xlink="http://www.w3.org/1999/xlink" viewBox="0 0 416 96">
    <defs>
        <style>
            .cls-1 {
                fill: #3474ab;
            }

            .cls-2 {
                fill: #4289c7;
            }

            .cls-3 {
                fill: #343333;
            }

            .cls-4 {
                fill: #fff;
            }
        </style>
    </defs>
    <g id="Logo">
        <path id="original-bowtie-left" class="cls-1"
            d="M78.11,44.05s-59.55-34.34-64.69-13-10.93,37.6,4.92,40.6S78.11,44.05,78.11,44.05" />
        <path id="original-bowtie-right" class="cls-2"
            d="M67.82,38.89c17.09-8.78,50.83-23.82,54.69-7.9,5.2,21.43,11,37.73-4.8,40.8-11.11,2.15-36.11-12.34-50-21.14,0-10.41.1-1.5.09-11.76" />
    </g>
    <path id="J"
        d="M143.67,73.17a23.31,23.31,0,0,1,1.51-8.07,30.26,30.26,0,0,1,4.29-7.79,32.41,32.41,0,0,1,6.71-6.56,29,29,0,0,1,8.76-4.38,55.86,55.86,0,0,1-4.66-4.25,35.67,35.67,0,0,1-3.78-4.56A22.84,22.84,0,0,1,154,32.88a12.76,12.76,0,0,1-.92-4.71,23.82,23.82,0,0,1,.66-5.68,23.41,23.41,0,0,1,1.81-5,20.81,20.81,0,0,1,2.74-4.16,19.38,19.38,0,0,1,3.4-3.17,15.4,15.4,0,0,1,3.79-2,12,12,0,0,1,4-.7,10.4,10.4,0,0,1,5.09,1.35,12.46,12.46,0,0,1,4.35,4.28,24.68,24.68,0,0,1,3,7.58,47.44,47.44,0,0,1,1.15,11.25c0,3.19-.12,6.21-.34,9.07s-.55,5.6-1,8.22c1.19.74,2.4,1.46,3.62,2.17l3.7,2.11L190,54c.39.22.76.45,1.12.69a7.58,7.58,0,0,1,.92.73,1,1,0,0,1,.38.66.82.82,0,0,1-.25.57,3.3,3.3,0,0,1-.58.53,5.11,5.11,0,0,1-.68.43l-.51.26a2.69,2.69,0,0,1-1.29.26,15.23,15.23,0,0,1-3.85-.64,39.18,39.18,0,0,1-4.82-1.73,71.12,71.12,0,0,1-3.09,9.92,57.24,57.24,0,0,1-3.94,8.07A40,40,0,0,1,168.88,80a30.37,30.37,0,0,1-4.83,4.41,20,20,0,0,1-4.87,2.64,13.47,13.47,0,0,1-4.64.88,9.83,9.83,0,0,1-4.29-.94,9.47,9.47,0,0,1-3.44-2.8,13.65,13.65,0,0,1-2.3-4.61A22.06,22.06,0,0,1,143.67,73.17Zm7.5,1.88a7.49,7.49,0,0,0,1.16,4.53,3.65,3.65,0,0,0,3.06,1.53,7.9,7.9,0,0,0,4.38-1.7,20.49,20.49,0,0,0,4.91-5.25,48,48,0,0,0,4.7-9,73.92,73.92,0,0,0,3.79-13l-1.08-.67a20.54,20.54,0,0,0-5.7,2,28.09,28.09,0,0,0-5,3.45,30.43,30.43,0,0,0-4.2,4.37,36,36,0,0,0-3.21,4.82,25.78,25.78,0,0,0-2.05,4.77A14.35,14.35,0,0,0,151.17,75.05Zm9.38-48.75a11.5,11.5,0,0,0,1,4.66,20.63,20.63,0,0,0,2.87,4.58,36.29,36.29,0,0,0,4.4,4.5,68.64,68.64,0,0,0,5.62,4.39c.33-2.71.6-5.57.79-8.57s.3-6.18.3-9.56a33.31,33.31,0,0,0-.44-5.85,15,15,0,0,0-1.19-3.88,5.33,5.33,0,0,0-1.76-2.15,3.81,3.81,0,0,0-2.12-.66,5.14,5.14,0,0,0-2.2.53,9.45,9.45,0,0,0-2.17,1.45,14.77,14.77,0,0,0-2,2.15A16.41,16.41,0,0,0,161,23.38,10.66,10.66,0,0,0,160.55,26.3Z" />
    <path id="H"
        d="M236.66,43.7c-.68,2.4-1.23,4.65-1.64,6.73a28.54,28.54,0,0,0-.62,5.4,5.12,5.12,0,0,0,.84,3.12A3.23,3.23,0,0,0,238,60.08a4.66,4.66,0,0,0,1.76-.43,12.76,12.76,0,0,0,2.34-1.33A31.38,31.38,0,0,0,245.05,56c1.09-1,2.29-2.1,3.62-3.43.06.12.18.39.35.82s.38.93.66,1.68.68,1.79,1.19,3.09a43.14,43.14,0,0,1-4.41,4.08,33.75,33.75,0,0,1-4.31,2.94,20.67,20.67,0,0,1-4,1.79,11.93,11.93,0,0,1-3.53.6,8.51,8.51,0,0,1-3.43-.69,7.73,7.73,0,0,1-2.74-2,9.73,9.73,0,0,1-1.83-3.23,13.17,13.17,0,0,1-.67-4.38,17.55,17.55,0,0,1,.17-2.14c.12-.86.29-1.84.52-2.93s.49-2.29.82-3.59.67-2.67,1.07-4.12q-3.93.42-7.53.76c-2.41.24-4.8.46-7.18.68q-.83,2.46-1.63,4.82c-.54,1.57-1.05,3-1.55,4.42s-1,2.64-1.38,3.78-.77,2.12-1.07,2.92a14.64,14.64,0,0,1-2.79,4.39,3.84,3.84,0,0,1-2.45,1.29,4.34,4.34,0,0,1-1.38-.23,3.93,3.93,0,0,1-1.2-.68,3.14,3.14,0,0,1-.83-1,3,3,0,0,1-.31-1.38,3.44,3.44,0,0,1,.12-.91c.82-3,1.71-5.87,2.68-8.66S204,49.12,205,46.48a19.35,19.35,0,0,1-3.09-.24,10.1,10.1,0,0,1-2.74-.87,7.35,7.35,0,0,1-2.24-1.7,8.64,8.64,0,0,1-1.63-2.75c-.07-.35-.14-.67-.19-.94a4.54,4.54,0,0,1-.07-.82c0-.86.3-1.29.91-1.29a2,2,0,0,1,1.23.6,17,17,0,0,1,1.73,1.92c.91,0,1.83-.07,2.75-.09s1.9,0,3,0h2.81c.71-1.81,1.37-3.57,2-5.26s1.22-3.34,1.77-5a25.32,25.32,0,0,0,.79-3.11,15.56,15.56,0,0,0,.3-3,9.83,9.83,0,0,0-.21-2.1,4.57,4.57,0,0,0-.67-1.65,3.46,3.46,0,0,0-1.2-1.05,4,4,0,0,0-1.82-.38,8.68,8.68,0,0,0-2,.29,15,15,0,0,0-2.56.95,26.29,26.29,0,0,0-3.06,1.73,41.74,41.74,0,0,0-3.59,2.65,5,5,0,0,1-1.25.8,2.85,2.85,0,0,1-1,.23c-.15,0-.27-.26-.35-.78a12.73,12.73,0,0,1-.12-1.92,6.2,6.2,0,0,1,.72-2.9A10,10,0,0,1,197,17.32a16.28,16.28,0,0,1,2.77-2.11A22,22,0,0,1,203,13.6a20.1,20.1,0,0,1,3.3-1,14.09,14.09,0,0,1,3-.35,13.75,13.75,0,0,1,3.92.55,8.82,8.82,0,0,1,3.3,1.79,8.52,8.52,0,0,1,2.25,3.19,12.14,12.14,0,0,1,.84,4.78,20.17,20.17,0,0,1-.31,3.22c-.2,1.27-.48,2.66-.83,4.18s-.77,3.12-1.25,4.83-1,3.45-1.54,5.23c2-.14,4.28-.27,6.8-.41l7.59-.41q1.49-4.89,3.29-10.12t3.83-10.27A7.25,7.25,0,0,1,239,16.13a3.75,3.75,0,0,1,2.59-1,4.28,4.28,0,0,1,1.19.17,3,3,0,0,1,1,.54,2.64,2.64,0,0,1,.69.94,3.44,3.44,0,0,1,.25,1.34q0,.68-.09,1.56a7.88,7.88,0,0,1-.47,1.92l-1.44,3.88c-.5,1.38-1,2.8-1.53,4.25s-1,2.95-1.56,4.47-1,3-1.48,4.54l3.23-.22,2.08-.16.6,0,.51,0a4.59,4.59,0,0,1,1.42.18,2,2,0,0,1,.85.49,1.73,1.73,0,0,1,.43.77,4.22,4.22,0,0,1,.11,1,1.86,1.86,0,0,1-.26,1,2.31,2.31,0,0,1-.66.66,2.88,2.88,0,0,1-.83.35,5.44,5.44,0,0,1-.83.13L243.6,43l-.5.06-.19,0-.22,0-.61,0-1.35.12-2.06.21Z" />
    <path id="i"
        d="M267.39,59.43a25,25,0,0,1-2.62,2.07,27.2,27.2,0,0,1-3.38,2,25.74,25.74,0,0,1-3.71,1.54,11.61,11.61,0,0,1-3.59.61,6.86,6.86,0,0,1-2.56-.42,4.21,4.21,0,0,1-1.69-1.19,4.58,4.58,0,0,1-.92-1.86,9.6,9.6,0,0,1-.28-2.41,24.93,24.93,0,0,1,.43-4.3q.42-2.45,1-5.06c.41-1.75.84-3.5,1.3-5.23s.86-3.34,1.22-4.81a2.54,2.54,0,0,1,.82-1.3,5.13,5.13,0,0,1,1.39-.88,7.51,7.51,0,0,1,1.61-.5,7.85,7.85,0,0,1,1.51-.16,2.34,2.34,0,0,1,1.67.45,1.71,1.71,0,0,1,.44,1.22,8.44,8.44,0,0,1-.3,1.86c-.19.81-.43,1.73-.73,2.75s-.6,2.13-.94,3.31-.64,2.37-.93,3.55-.54,2.33-.73,3.46a17.4,17.4,0,0,0-.3,3,5.89,5.89,0,0,0,.3,2.09,1.15,1.15,0,0,0,1.2.78,4.81,4.81,0,0,0,2.34-.73,20.52,20.52,0,0,0,2.61-1.78c.88-.69,1.74-1.41,2.58-2.15s1.58-1.38,2.22-1.9ZM254.3,29.32a4.88,4.88,0,0,1,1.24-3.12,5.27,5.27,0,0,1,1.76-1.26,6.47,6.47,0,0,1,2.74-.52,7.5,7.5,0,0,1,1.93.24,4.58,4.58,0,0,1,1.58.72,3.33,3.33,0,0,1,1.07,1.27,4.07,4.07,0,0,1,.4,1.88,6.06,6.06,0,0,1-.32,1.93,4.62,4.62,0,0,1-1,1.67,5.4,5.4,0,0,1-1.77,1.19,6.59,6.59,0,0,1-2.56.45,5.24,5.24,0,0,1-3.81-1.22A4.34,4.34,0,0,1,254.3,29.32Z" />
    <path id="p"
        d="M277.27,60.46a23.12,23.12,0,0,0,5.39-.59,19.83,19.83,0,0,0,4.4-1.58A18.54,18.54,0,0,0,290.64,56a23.53,23.53,0,0,0,2.88-2.85l.33,6.7A15.47,15.47,0,0,1,291.58,62a17.11,17.11,0,0,1-2.92,1.87,17.31,17.31,0,0,1-3.32,1.29,13,13,0,0,1-3.45.48,2.7,2.7,0,0,1-.51,0l-1.07-.21-2.18-.4c-.95-.16-2.23-.36-3.85-.6v.53a47.86,47.86,0,0,1-.9,9.68A31.67,31.67,0,0,1,271,82.05a14.74,14.74,0,0,1-3.43,4.75,6.12,6.12,0,0,1-4,1.67,4.6,4.6,0,0,1-2.78-.82A5.78,5.78,0,0,1,259,85.43a11.62,11.62,0,0,1-.94-3.25,27.36,27.36,0,0,1-.28-3.94,11.42,11.42,0,0,1,.38-2.71,28.18,28.18,0,0,1,1-3.16c.43-1.11.91-2.23,1.45-3.37s1.09-2.25,1.65-3.33q2-3.75,4.55-7.73c.21-1.52.43-3.09.65-4.69s.51-3.15.85-4.66a33.28,33.28,0,0,1,1.29-4.27,12.67,12.67,0,0,1,2-3.52,9.13,9.13,0,0,1,2.91-2.37,8.77,8.77,0,0,1,4.1-.88A11.24,11.24,0,0,1,282,38a7,7,0,0,1,2.73,1.57,7.47,7.47,0,0,1,1.84,2.8,11.47,11.47,0,0,1,.68,4.2,12.74,12.74,0,0,1-.59,3.85A12,12,0,0,1,284.81,54a15.83,15.83,0,0,1-3.16,3.18,22,22,0,0,1-4.56,2.65ZM263.38,78.59a4.43,4.43,0,0,0,.1.77,4.76,4.76,0,0,0,.34,1,3.45,3.45,0,0,0,.61.94,1.26,1.26,0,0,0,.94.41.94.94,0,0,0,.82-.54,5.14,5.14,0,0,0,.53-1.45,15.8,15.8,0,0,0,.29-2c.06-.77.11-1.55.15-2.35s.06-1.58.07-2.34,0-1.45.07-2c.06-1.06.11-2,.14-2.68s.05-1.35.07-1.83,0-1,.06-1.38a20.46,20.46,0,0,0-1.09,2.24c-.35.85-.68,1.73-1,2.65s-.6,1.84-.85,2.75-.48,1.78-.66,2.57-.33,1.47-.44,2A7.36,7.36,0,0,0,263.38,78.59ZM273.57,57.5a15.16,15.16,0,0,0,3-2,14,14,0,0,0,2.19-2.32,12.85,12.85,0,0,0,1.51-2.55,16.19,16.19,0,0,0,.94-2.69,8.73,8.73,0,0,0,.19-1.51,4.84,4.84,0,0,0-.18-1.63,3,3,0,0,0-.76-1.3A2,2,0,0,0,279,43a3.14,3.14,0,0,0-1.9.6,5.25,5.25,0,0,0-1.42,1.62,10.79,10.79,0,0,0-1,2.44,24.87,24.87,0,0,0-.64,3,32.34,32.34,0,0,0-.35,3.36C273.61,55.19,273.57,56.35,273.57,57.5Z" />
    <path id="s"
        d="M289.39,54.42Q291,53,292.06,52.08c.68-.62,1.27-1.2,1.76-1.71a18.79,18.79,0,0,0,1.33-1.57l1.42-1.88c.55-.72,1.21-1.6,2-2.65s1.8-2.35,3.05-3.91a10,10,0,0,1,.85-1,6.4,6.4,0,0,1,1-.9,5.33,5.33,0,0,1,1.26-.64,4.4,4.4,0,0,1,1.54-.25,5.9,5.9,0,0,1,2.17.31,2.66,2.66,0,0,1,1.11.74,1.88,1.88,0,0,1,.41.93,6.87,6.87,0,0,1,.06.83,2.89,2.89,0,0,1-.56,1.55,16.05,16.05,0,0,1-1.23,1.65c-.45.52-.87,1-1.27,1.45a2.92,2.92,0,0,0-.69,1,9.36,9.36,0,0,0,.13,1.65,14.3,14.3,0,0,0,.35,1.47c.15.48.3,1,.46,1.52s.3,1.16.45,1.86a22.07,22.07,0,0,1,.35,2.43c.09.92.13,2,.13,3.25a19,19,0,0,1,2.27-1.27L313,55.71c.88-.41,1.78-.86,2.71-1.36a22.7,22.7,0,0,0,2.8-1.8l0,6.56a27.62,27.62,0,0,1-4.21,2.64,41.8,41.8,0,0,1-5,2.17A40.17,40.17,0,0,1,304,65.4a25.78,25.78,0,0,1-5.08.54,15.65,15.65,0,0,1-3.23-.32,8.53,8.53,0,0,1-2.62-1,5.43,5.43,0,0,1-1.83-1.8,6,6,0,0,1-.85-2.69,4.5,4.5,0,0,1-.81.11l-.77,0c-.31,0-.61,0-.88,0a1.41,1.41,0,0,1-.7-.21,1.27,1.27,0,0,1-.47-.62,3.23,3.23,0,0,1-.18-1.22,2.59,2.59,0,0,1,.35-1.3,5.51,5.51,0,0,1,.82-1.07,11.23,11.23,0,0,1,.94-.82A8.83,8.83,0,0,0,289.39,54.42Zm3.75,3.75a1.17,1.17,0,0,1,.78.44c.28.3.61.62,1,1a7.76,7.76,0,0,0,1.29,1,3.23,3.23,0,0,0,1.67.44,4.21,4.21,0,0,0,1.89-.38,3.28,3.28,0,0,0,1.19-1,3.88,3.88,0,0,0,.61-1.47,8.28,8.28,0,0,0,.18-1.74,14.65,14.65,0,0,0-.1-1.61c-.07-.55-.16-1.07-.27-1.57s-.22-1-.35-1.41-.24-.81-.34-1.13Z" />
    <path id="t"
        d="M340.05,59.11c-1.88,1.1-3.55,2-5,2.87s-2.77,1.51-3.91,2.05a22.09,22.09,0,0,1-3.05,1.23,8.07,8.07,0,0,1-2.42.41,6.17,6.17,0,0,1-3.92-1.34,10.11,10.11,0,0,1-2.84-3.89,23.7,23.7,0,0,1-1.72-6.13,52.39,52.39,0,0,1-.57-8.12q0-1.75.15-3.75c.09-1.33.23-2.64.41-3.95-.59-.08-1-.15-1.36-.22l-1-.21c-.36-.07-.82-.14-1.38-.22s-1.36-.17-2.41-.29a2.59,2.59,0,0,1-1.09-.34,1.51,1.51,0,0,1-.55-.58,1.82,1.82,0,0,1-.21-.71q0-.36,0-.63a1,1,0,0,1,.57-.89,4.4,4.4,0,0,1,1.47-.45,12.89,12.89,0,0,1,2-.17c.71,0,1.4,0,2.05,0l1.76,0a5.88,5.88,0,0,0,1.07,0,66.62,66.62,0,0,1,2-7.66,42.89,42.89,0,0,1,2.73-6.59,17.94,17.94,0,0,1,3.3-4.63,5.36,5.36,0,0,1,3.75-1.75,4,4,0,0,1,2.29.71,6.14,6.14,0,0,1,1.78,1.87A9.72,9.72,0,0,1,335,18.49a13.56,13.56,0,0,1,.39,3.27,12.3,12.3,0,0,1-.41,3A21.92,21.92,0,0,1,333.84,28a33.66,33.66,0,0,1-1.66,3.36c-.63,1.13-1.3,2.25-2,3.37.17,0,.46,0,.87,0l1.43,0,1.74.08L336,35l1.65.06,1.26.06a.92.92,0,0,1,.84.58,3.22,3.22,0,0,1,.27,1.41,2.4,2.4,0,0,1-.59,1.67,1.72,1.72,0,0,1-1.29.64H326.92c-.56.79-1.13,1.55-1.71,2.3s-1.11,1.44-1.6,2c-.08,1.21-.14,2.4-.2,3.57,0,.51,0,1-.06,1.57l-.06,1.6c0,.53,0,1,0,1.52s0,.94,0,1.35a10.73,10.73,0,0,0,.29,2.67,4.87,4.87,0,0,0,.85,1.77,3.18,3.18,0,0,0,1.37,1,4.85,4.85,0,0,0,1.8.31,5.49,5.49,0,0,0,1.54-.29,18.47,18.47,0,0,0,2-.81c.73-.34,1.5-.74,2.31-1.21s1.61-1,2.4-1.54,1.55-1.14,2.28-1.76a20.78,20.78,0,0,0,2-1.89ZM330.67,22a6.49,6.49,0,0,0,0-.72,2.6,2.6,0,0,0-.19-.74A1.4,1.4,0,0,0,330,20a1.35,1.35,0,0,0-.86-.23c-.51,0-1,.45-1.54,1.34a19.92,19.92,0,0,0-1.49,3.45c-.48,1.39-.93,2.93-1.35,4.61s-.8,3.31-1.16,4.89l.88.11.91.1q.88-1.5,1.83-3.24c.64-1.16,1.21-2.3,1.72-3.43s.92-2.17,1.26-3.15A7.77,7.77,0,0,0,330.67,22Z" />
    <path id="e"
        d="M349,65.67a11.06,11.06,0,0,1-4.82-1A10.15,10.15,0,0,1,340.78,62a11.3,11.3,0,0,1-2.06-3.9,15.46,15.46,0,0,1-.69-4.64,19.48,19.48,0,0,1,.32-3.47,19.68,19.68,0,0,1,1-3.59A18.41,18.41,0,0,1,341,43a13.52,13.52,0,0,1,2.32-2.81,10.87,10.87,0,0,1,3-1.93,9.15,9.15,0,0,1,3.68-.72,8.47,8.47,0,0,1,3,.53,7.36,7.36,0,0,1,2.44,1.48,6.55,6.55,0,0,1,1.63,2.3,7.45,7.45,0,0,1,.59,3,8.18,8.18,0,0,1-.9,3.64A13.12,13.12,0,0,1,354.32,52a17.34,17.34,0,0,1-3.77,2.87,20.07,20.07,0,0,1-4.73,2,10.45,10.45,0,0,0,.86,1.32,4.37,4.37,0,0,0,.87.82,3,3,0,0,0,.92.41,4.88,4.88,0,0,0,1,.11,10.92,10.92,0,0,0,3.71-.7A23.6,23.6,0,0,0,357,57a32.37,32.37,0,0,0,3.49-2.3,29,29,0,0,0,2.78-2.36l3.78,3.93A39,39,0,0,1,361.58,61c-.84.58-1.74,1.16-2.71,1.73a25.39,25.39,0,0,1-3.05,1.5,21.3,21.3,0,0,1-3.31,1.06A15.58,15.58,0,0,1,349,65.67ZM345.15,51.9a5.84,5.84,0,0,0,2.3-.54,10.37,10.37,0,0,0,4.11-3.23,3.29,3.29,0,0,0,.73-1.94,4.38,4.38,0,0,0-.48-2.17,1.4,1.4,0,0,0-1.19-.85,4.61,4.61,0,0,0-2.15.47A4.81,4.81,0,0,0,347,44.86a6.17,6.17,0,0,0-1,1.7,12,12,0,0,0-.56,1.92,16,16,0,0,0-.25,1.87C345.17,51,345.15,51.48,345.15,51.9Z" />
    <path id="r"
        d="M362.2,59.55c0-.86.05-1.86.14-3s.23-2.35.4-3.62.36-2.56.58-3.88.47-2.58.72-3.77.51-2.28.76-3.28a21.63,21.63,0,0,1,.77-2.46,5.59,5.59,0,0,1,.46-1,1.89,1.89,0,0,1,.55-.6,1.74,1.74,0,0,1,.76-.3,7.16,7.16,0,0,1,1.13-.07,7.27,7.27,0,0,1,1.18.07.94.94,0,0,1,.63.35,1.58,1.58,0,0,1,.25.81c0,.35.05.83.05,1.44v2.62c0,1,0,2,.05,3H371l1.31-2.62a17.43,17.43,0,0,1,1.7-2.71,10.3,10.3,0,0,1,2.2-2.13,4.86,4.86,0,0,1,2.84-.86,3.13,3.13,0,0,1,1.09.19,2.9,2.9,0,0,1,.92.54,2.64,2.64,0,0,1,.86,2,9.91,9.91,0,0,1-.14,1.39c-.1.6-.21,1.23-.32,1.88s-.23,1.29-.33,1.9A11.18,11.18,0,0,0,381,47a6.27,6.27,0,0,0,.2,1.76,3.4,3.4,0,0,0,.54,1.13,2,2,0,0,0,.77.6,2.24,2.24,0,0,0,.89.17,7,7,0,0,0,2.72-.58,17.31,17.31,0,0,0,2.58-1.32,25.29,25.29,0,0,0,2.7-1.93l-.44,6.85-1.73,1.12A21.39,21.39,0,0,1,387.11,56a15.05,15.05,0,0,1-2.28.91,8,8,0,0,1-2.42.37,6.25,6.25,0,0,1-3.54-.9A6.34,6.34,0,0,1,376.73,54a11.71,11.71,0,0,1-1.17-3.25c-.26-1.2-.46-2.42-.62-3.65h-.47l-5.24,14.62a19.35,19.35,0,0,1-.78,1.89,5.75,5.75,0,0,1-.75,1.21,2,2,0,0,1-.82.66,2.32,2.32,0,0,1-1,.19,3,3,0,0,1-3.06-1.89,6.41,6.41,0,0,1-.53-2A18.6,18.6,0,0,1,362.2,59.55Z" />
    <path id="J-2" data-name="J" class="cls-3"
        d="M143.67,73.17a23.31,23.31,0,0,1,1.51-8.07,30.26,30.26,0,0,1,4.29-7.79,32.41,32.41,0,0,1,6.71-6.56,29,29,0,0,1,8.76-4.38,55.86,55.86,0,0,1-4.66-4.25,35.67,35.67,0,0,1-3.78-4.56A22.84,22.84,0,0,1,154,32.88a12.76,12.76,0,0,1-.92-4.71,23.82,23.82,0,0,1,.66-5.68,23.41,23.41,0,0,1,1.81-5,20.81,20.81,0,0,1,2.74-4.16,19.38,19.38,0,0,1,3.4-3.17,15.4,15.4,0,0,1,3.79-2,12,12,0,0,1,4-.7,10.4,10.4,0,0,1,5.09,1.35,12.46,12.46,0,0,1,4.35,4.28,24.68,24.68,0,0,1,3,7.58,47.44,47.44,0,0,1,1.15,11.25c0,3.19-.12,6.21-.34,9.07s-.55,5.6-1,8.22c1.19.74,2.4,1.46,3.62,2.17l3.7,2.11L190,54c.39.22.76.45,1.12.69a7.58,7.58,0,0,1,.92.73,1,1,0,0,1,.38.66.82.82,0,0,1-.25.57,3.3,3.3,0,0,1-.58.53,5.11,5.11,0,0,1-.68.43l-.51.26a2.69,2.69,0,0,1-1.29.26,15.23,15.23,0,0,1-3.85-.64,39.18,39.18,0,0,1-4.82-1.73,71.12,71.12,0,0,1-3.09,9.92,57.24,57.24,0,0,1-3.94,8.07A40,40,0,0,1,168.88,80a30.37,30.37,0,0,1-4.83,4.41,20,20,0,0,1-4.87,2.64,13.47,13.47,0,0,1-4.64.88,9.83,9.83,0,0,1-4.29-.94,9.47,9.47,0,0,1-3.44-2.8,13.65,13.65,0,0,1-2.3-4.61A22.06,22.06,0,0,1,143.67,73.17Zm7.5,1.88a7.49,7.49,0,0,0,1.16,4.53,3.65,3.65,0,0,0,3.06,1.53,7.9,7.9,0,0,0,4.38-1.7,20.49,20.49,0,0,0,4.91-5.25,48,48,0,0,0,4.7-9,73.92,73.92,0,0,0,3.79-13l-1.08-.67a20.54,20.54,0,0,0-5.7,2,28.09,28.09,0,0,0-5,3.45,30.43,30.43,0,0,0-4.2,4.37,36,36,0,0,0-3.21,4.82,25.78,25.78,0,0,0-2.05,4.77A14.35,14.35,0,0,0,151.17,75.05Zm9.38-48.75a11.5,11.5,0,0,0,1,4.66,20.63,20.63,0,0,0,2.87,4.58,36.29,36.29,0,0,0,4.4,4.5,68.64,68.64,0,0,0,5.62,4.39c.33-2.71.6-5.57.79-8.57s.3-6.18.3-9.56a33.31,33.31,0,0,0-.44-5.85,15,15,0,0,0-1.19-3.88,5.33,5.33,0,0,0-1.76-2.15,3.81,3.81,0,0,0-2.12-.66,5.14,5.14,0,0,0-2.2.53,9.45,9.45,0,0,0-2.17,1.45,14.77,14.77,0,0,0-2,2.15A16.41,16.41,0,0,0,161,23.38,10.66,10.66,0,0,0,160.55,26.3Z" />
    <path id="H-2" data-name="H" class="cls-3"
        d="M236.66,43.7c-.68,2.4-1.23,4.65-1.64,6.73a28.54,28.54,0,0,0-.62,5.4,5.12,5.12,0,0,0,.84,3.12A3.23,3.23,0,0,0,238,60.08a4.66,4.66,0,0,0,1.76-.43,12.76,12.76,0,0,0,2.34-1.33A31.38,31.38,0,0,0,245.05,56c1.09-1,2.29-2.1,3.62-3.43.06.12.18.39.35.82s.38.93.66,1.68.68,1.79,1.19,3.09a43.14,43.14,0,0,1-4.41,4.08,33.75,33.75,0,0,1-4.31,2.94,20.67,20.67,0,0,1-4,1.79,11.93,11.93,0,0,1-3.53.6,8.51,8.51,0,0,1-3.43-.69,7.73,7.73,0,0,1-2.74-2,9.73,9.73,0,0,1-1.83-3.23,13.17,13.17,0,0,1-.67-4.38,17.55,17.55,0,0,1,.17-2.14c.12-.86.29-1.84.52-2.93s.49-2.29.82-3.59.67-2.67,1.07-4.12q-3.93.42-7.53.76c-2.41.24-4.8.46-7.18.68q-.83,2.46-1.63,4.82c-.54,1.57-1.05,3-1.55,4.42s-1,2.64-1.38,3.78-.77,2.12-1.07,2.92a14.64,14.64,0,0,1-2.79,4.39,3.84,3.84,0,0,1-2.45,1.29,4.34,4.34,0,0,1-1.38-.23,3.93,3.93,0,0,1-1.2-.68,3.14,3.14,0,0,1-.83-1,3,3,0,0,1-.31-1.38,3.44,3.44,0,0,1,.12-.91c.82-3,1.71-5.87,2.68-8.66S204,49.12,205,46.48a19.35,19.35,0,0,1-3.09-.24,10.1,10.1,0,0,1-2.74-.87,7.35,7.35,0,0,1-2.24-1.7,8.64,8.64,0,0,1-1.63-2.75c-.07-.35-.14-.67-.19-.94a4.54,4.54,0,0,1-.07-.82c0-.86.3-1.29.91-1.29a2,2,0,0,1,1.23.6,17,17,0,0,1,1.73,1.92c.91,0,1.83-.07,2.75-.09s1.9,0,3,0h2.81c.71-1.81,1.37-3.57,2-5.26s1.22-3.34,1.77-5a25.32,25.32,0,0,0,.79-3.11,15.56,15.56,0,0,0,.3-3,9.83,9.83,0,0,0-.21-2.1,4.57,4.57,0,0,0-.67-1.65,3.46,3.46,0,0,0-1.2-1.05,4,4,0,0,0-1.82-.38,8.68,8.68,0,0,0-2,.29,15,15,0,0,0-2.56.95,26.29,26.29,0,0,0-3.06,1.73,41.74,41.74,0,0,0-3.59,2.65,5,5,0,0,1-1.25.8,2.85,2.85,0,0,1-1,.23c-.15,0-.27-.26-.35-.78a12.73,12.73,0,0,1-.12-1.92,6.2,6.2,0,0,1,.72-2.9A10,10,0,0,1,197,17.32a16.28,16.28,0,0,1,2.77-2.11A22,22,0,0,1,203,13.6a20.1,20.1,0,0,1,3.3-1,14.09,14.09,0,0,1,3-.35,13.75,13.75,0,0,1,3.92.55,8.82,8.82,0,0,1,3.3,1.79,8.52,8.52,0,0,1,2.25,3.19,12.14,12.14,0,0,1,.84,4.78,20.17,20.17,0,0,1-.31,3.22c-.2,1.27-.48,2.66-.83,4.18s-.77,3.12-1.25,4.83-1,3.45-1.54,5.23c2-.14,4.28-.27,6.8-.41l7.59-.41q1.49-4.89,3.29-10.12t3.83-10.27A7.25,7.25,0,0,1,239,16.13a3.75,3.75,0,0,1,2.59-1,4.28,4.28,0,0,1,1.19.17,3,3,0,0,1,1,.54,2.64,2.64,0,0,1,.69.94,3.44,3.44,0,0,1,.25,1.34q0,.68-.09,1.56a7.88,7.88,0,0,1-.47,1.92l-1.44,3.88c-.5,1.38-1,2.8-1.53,4.25s-1,2.95-1.56,4.47-1,3-1.48,4.54l3.23-.22,2.08-.16.6,0,.51,0a4.59,4.59,0,0,1,1.42.18,2,2,0,0,1,.85.49,1.73,1.73,0,0,1,.43.77,4.22,4.22,0,0,1,.11,1,1.86,1.86,0,0,1-.26,1,2.31,2.31,0,0,1-.66.66,2.88,2.88,0,0,1-.83.35,5.44,5.44,0,0,1-.83.13L243.6,43l-.5.06-.19,0-.22,0-.61,0-1.35.12-2.06.21Z" />
    <path id="i-2" data-name="i" class="cls-3"
        d="M267.39,59.43a25,25,0,0,1-2.62,2.07,27.2,27.2,0,0,1-3.38,2,25.74,25.74,0,0,1-3.71,1.54,11.61,11.61,0,0,1-3.59.61,6.86,6.86,0,0,1-2.56-.42,4.21,4.21,0,0,1-1.69-1.19,4.58,4.58,0,0,1-.92-1.86,9.6,9.6,0,0,1-.28-2.41,24.93,24.93,0,0,1,.43-4.3q.42-2.45,1-5.06c.41-1.75.84-3.5,1.3-5.23s.86-3.34,1.22-4.81a2.54,2.54,0,0,1,.82-1.3,5.13,5.13,0,0,1,1.39-.88,7.51,7.51,0,0,1,1.61-.5,7.85,7.85,0,0,1,1.51-.16,2.34,2.34,0,0,1,1.67.45,1.71,1.71,0,0,1,.44,1.22,8.44,8.44,0,0,1-.3,1.86c-.19.81-.43,1.73-.73,2.75s-.6,2.13-.94,3.31-.64,2.37-.93,3.55-.54,2.33-.73,3.46a17.4,17.4,0,0,0-.3,3,5.89,5.89,0,0,0,.3,2.09,1.15,1.15,0,0,0,1.2.78,4.81,4.81,0,0,0,2.34-.73,20.52,20.52,0,0,0,2.61-1.78c.88-.69,1.74-1.41,2.58-2.15s1.58-1.38,2.22-1.9ZM254.3,29.32a4.88,4.88,0,0,1,1.24-3.12,5.27,5.27,0,0,1,1.76-1.26,6.47,6.47,0,0,1,2.74-.52,7.5,7.5,0,0,1,1.93.24,4.58,4.58,0,0,1,1.58.72,3.33,3.33,0,0,1,1.07,1.27,4.07,4.07,0,0,1,.4,1.88,6.06,6.06,0,0,1-.32,1.93,4.62,4.62,0,0,1-1,1.67,5.4,5.4,0,0,1-1.77,1.19,6.59,6.59,0,0,1-2.56.45,5.24,5.24,0,0,1-3.81-1.22A4.34,4.34,0,0,1,254.3,29.32Z" />
    <path id="p-2" data-name="p" class="cls-3"
        d="M277.27,60.46a23.12,23.12,0,0,0,5.39-.59,19.83,19.83,0,0,0,4.4-1.58A18.54,18.54,0,0,0,290.64,56a23.53,23.53,0,0,0,2.88-2.85l.33,6.7A15.47,15.47,0,0,1,291.58,62a17.11,17.11,0,0,1-2.92,1.87,17.31,17.31,0,0,1-3.32,1.29,13,13,0,0,1-3.45.48,2.7,2.7,0,0,1-.51,0l-1.07-.21-2.18-.4c-.95-.16-2.23-.36-3.85-.6v.53a47.86,47.86,0,0,1-.9,9.68A31.67,31.67,0,0,1,271,82.05a14.74,14.74,0,0,1-3.43,4.75,6.12,6.12,0,0,1-4,1.67,4.6,4.6,0,0,1-2.78-.82A5.78,5.78,0,0,1,259,85.43a11.62,11.62,0,0,1-.94-3.25,27.36,27.36,0,0,1-.28-3.94,11.42,11.42,0,0,1,.38-2.71,28.18,28.18,0,0,1,1-3.16c.43-1.11.91-2.23,1.45-3.37s1.09-2.25,1.65-3.33q2-3.75,4.55-7.73c.21-1.52.43-3.09.65-4.69s.51-3.15.85-4.66a33.28,33.28,0,0,1,1.29-4.27,12.67,12.67,0,0,1,2-3.52,9.13,9.13,0,0,1,2.91-2.37,8.77,8.77,0,0,1,4.1-.88A11.24,11.24,0,0,1,282,38a7,7,0,0,1,2.73,1.57,7.47,7.47,0,0,1,1.84,2.8,11.47,11.47,0,0,1,.68,4.2,12.74,12.74,0,0,1-.59,3.85A12,12,0,0,1,284.81,54a15.83,15.83,0,0,1-3.16,3.18,22,22,0,0,1-4.56,2.65ZM263.38,78.59a4.43,4.43,0,0,0,.1.77,4.76,4.76,0,0,0,.34,1,3.45,3.45,0,0,0,.61.94,1.26,1.26,0,0,0,.94.41.94.94,0,0,0,.82-.54,5.14,5.14,0,0,0,.53-1.45,15.8,15.8,0,0,0,.29-2c.06-.77.11-1.55.15-2.35s.06-1.58.07-2.34,0-1.45.07-2c.06-1.06.11-2,.14-2.68s.05-1.35.07-1.83,0-1,.06-1.38a20.46,20.46,0,0,0-1.09,2.24c-.35.85-.68,1.73-1,2.65s-.6,1.84-.85,2.75-.48,1.78-.66,2.57-.33,1.47-.44,2A7.36,7.36,0,0,0,263.38,78.59ZM273.57,57.5a15.16,15.16,0,0,0,3-2,14,14,0,0,0,2.19-2.32,12.85,12.85,0,0,0,1.51-2.55,16.19,16.19,0,0,0,.94-2.69,8.73,8.73,0,0,0,.19-1.51,4.84,4.84,0,0,0-.18-1.63,3,3,0,0,0-.76-1.3A2,2,0,0,0,279,43a3.14,3.14,0,0,0-1.9.6,5.25,5.25,0,0,0-1.42,1.62,10.79,10.79,0,0,0-1,2.44,24.87,24.87,0,0,0-.64,3,32.34,32.34,0,0,0-.35,3.36C273.61,55.19,273.57,56.35,273.57,57.5Z" />
    <path id="s-2" data-name="s" class="cls-3"
        d="M289.39,54.42Q291,53,292.06,52.08c.68-.62,1.27-1.2,1.76-1.71a18.79,18.79,0,0,0,1.33-1.57l1.42-1.88c.55-.72,1.21-1.6,2-2.65s1.8-2.35,3.05-3.91a10,10,0,0,1,.85-1,6.4,6.4,0,0,1,1-.9,5.33,5.33,0,0,1,1.26-.64,4.4,4.4,0,0,1,1.54-.25,5.9,5.9,0,0,1,2.17.31,2.66,2.66,0,0,1,1.11.74,1.88,1.88,0,0,1,.41.93,6.87,6.87,0,0,1,.06.83,2.89,2.89,0,0,1-.56,1.55,16.05,16.05,0,0,1-1.23,1.65c-.45.52-.87,1-1.27,1.45a2.92,2.92,0,0,0-.69,1,9.36,9.36,0,0,0,.13,1.65,14.3,14.3,0,0,0,.35,1.47c.15.48.3,1,.46,1.52s.3,1.16.45,1.86a22.07,22.07,0,0,1,.35,2.43c.09.92.13,2,.13,3.25a19,19,0,0,1,2.27-1.27L313,55.71c.88-.41,1.78-.86,2.71-1.36a22.7,22.7,0,0,0,2.8-1.8l0,6.56a27.62,27.62,0,0,1-4.21,2.64,41.8,41.8,0,0,1-5,2.17A40.17,40.17,0,0,1,304,65.4a25.78,25.78,0,0,1-5.08.54,15.65,15.65,0,0,1-3.23-.32,8.53,8.53,0,0,1-2.62-1,5.43,5.43,0,0,1-1.83-1.8,6,6,0,0,1-.85-2.69,4.5,4.5,0,0,1-.81.11l-.77,0c-.31,0-.61,0-.88,0a1.41,1.41,0,0,1-.7-.21,1.27,1.27,0,0,1-.47-.62,3.23,3.23,0,0,1-.18-1.22,2.59,2.59,0,0,1,.35-1.3,5.51,5.51,0,0,1,.82-1.07,11.23,11.23,0,0,1,.94-.82A8.83,8.83,0,0,0,289.39,54.42Zm3.75,3.75a1.17,1.17,0,0,1,.78.44c.28.3.61.62,1,1a7.76,7.76,0,0,0,1.29,1,3.23,3.23,0,0,0,1.67.44,4.21,4.21,0,0,0,1.89-.38,3.28,3.28,0,0,0,1.19-1,3.88,3.88,0,0,0,.61-1.47,8.28,8.28,0,0,0,.18-1.74,14.65,14.65,0,0,0-.1-1.61c-.07-.55-.16-1.07-.27-1.57s-.22-1-.35-1.41-.24-.81-.34-1.13Z" />
    <path id="t-2" data-name="t" class="cls-3"
        d="M340.05,59.11c-1.88,1.1-3.55,2-5,2.87s-2.77,1.51-3.91,2.05a22.09,22.09,0,0,1-3.05,1.23,8.07,8.07,0,0,1-2.42.41,6.17,6.17,0,0,1-3.92-1.34,10.11,10.11,0,0,1-2.84-3.89,23.7,23.7,0,0,1-1.72-6.13,52.39,52.39,0,0,1-.57-8.12q0-1.75.15-3.75c.09-1.33.23-2.64.41-3.95-.59-.08-1-.15-1.36-.22l-1-.21c-.36-.07-.82-.14-1.38-.22s-1.36-.17-2.41-.29a2.59,2.59,0,0,1-1.09-.34,1.51,1.51,0,0,1-.55-.58,1.82,1.82,0,0,1-.21-.71q0-.36,0-.63a1,1,0,0,1,.57-.89,4.4,4.4,0,0,1,1.47-.45,12.89,12.89,0,0,1,2-.17c.71,0,1.4,0,2.05,0l1.76,0a5.88,5.88,0,0,0,1.07,0,66.62,66.62,0,0,1,2-7.66,42.89,42.89,0,0,1,2.73-6.59,17.94,17.94,0,0,1,3.3-4.63,5.36,5.36,0,0,1,3.75-1.75,4,4,0,0,1,2.29.71,6.14,6.14,0,0,1,1.78,1.87A9.72,9.72,0,0,1,335,18.49a13.56,13.56,0,0,1,.39,3.27,12.3,12.3,0,0,1-.41,3A21.92,21.92,0,0,1,333.84,28a33.66,33.66,0,0,1-1.66,3.36c-.63,1.13-1.3,2.25-2,3.37.17,0,.46,0,.87,0l1.43,0,1.74.08L336,35l1.65.06,1.26.06a.92.92,0,0,1,.84.58,3.22,3.22,0,0,1,.27,1.41,2.4,2.4,0,0,1-.59,1.67,1.72,1.72,0,0,1-1.29.64H326.92c-.56.79-1.13,1.55-1.71,2.3s-1.11,1.44-1.6,2c-.08,1.21-.14,2.4-.2,3.57,0,.51,0,1-.06,1.57l-.06,1.6c0,.53,0,1,0,1.52s0,.94,0,1.35a10.73,10.73,0,0,0,.29,2.67,4.87,4.87,0,0,0,.85,1.77,3.18,3.18,0,0,0,1.37,1,4.85,4.85,0,0,0,1.8.31,5.49,5.49,0,0,0,1.54-.29,18.47,18.47,0,0,0,2-.81c.73-.34,1.5-.74,2.31-1.21s1.61-1,2.4-1.54,1.55-1.14,2.28-1.76a20.78,20.78,0,0,0,2-1.89ZM330.67,22a6.49,6.49,0,0,0,0-.72,2.6,2.6,0,0,0-.19-.74A1.4,1.4,0,0,0,330,20a1.35,1.35,0,0,0-.86-.23c-.51,0-1,.45-1.54,1.34a19.92,19.92,0,0,0-1.49,3.45c-.48,1.39-.93,2.93-1.35,4.61s-.8,3.31-1.16,4.89l.88.11.91.1q.88-1.5,1.83-3.24c.64-1.16,1.21-2.3,1.72-3.43s.92-2.17,1.26-3.15A7.77,7.77,0,0,0,330.67,22Z" />
    <path id="e-2" data-name="e" class="cls-3"
        d="M349,65.67a11.06,11.06,0,0,1-4.82-1A10.15,10.15,0,0,1,340.78,62a11.3,11.3,0,0,1-2.06-3.9,15.46,15.46,0,0,1-.69-4.64,19.48,19.48,0,0,1,.32-3.47,19.68,19.68,0,0,1,1-3.59A18.41,18.41,0,0,1,341,43a13.52,13.52,0,0,1,2.32-2.81,10.87,10.87,0,0,1,3-1.93,9.15,9.15,0,0,1,3.68-.72,8.47,8.47,0,0,1,3,.53,7.36,7.36,0,0,1,2.44,1.48,6.55,6.55,0,0,1,1.63,2.3,7.45,7.45,0,0,1,.59,3,8.18,8.18,0,0,1-.9,3.64A13.12,13.12,0,0,1,354.32,52a17.34,17.34,0,0,1-3.77,2.87,20.07,20.07,0,0,1-4.73,2,10.45,10.45,0,0,0,.86,1.32,4.37,4.37,0,0,0,.87.82,3,3,0,0,0,.92.41,4.88,4.88,0,0,0,1,.11,10.92,10.92,0,0,0,3.71-.7A23.6,23.6,0,0,0,357,57a32.37,32.37,0,0,0,3.49-2.3,29,29,0,0,0,2.78-2.36l3.78,3.93A39,39,0,0,1,361.58,61c-.84.58-1.74,1.16-2.71,1.73a25.39,25.39,0,0,1-3.05,1.5,21.3,21.3,0,0,1-3.31,1.06A15.58,15.58,0,0,1,349,65.67ZM345.15,51.9a5.84,5.84,0,0,0,2.3-.54,10.37,10.37,0,0,0,4.11-3.23,3.29,3.29,0,0,0,.73-1.94,4.38,4.38,0,0,0-.48-2.17,1.4,1.4,0,0,0-1.19-.85,4.61,4.61,0,0,0-2.15.47A4.81,4.81,0,0,0,347,44.86a6.17,6.17,0,0,0-1,1.7,12,12,0,0,0-.56,1.92,16,16,0,0,0-.25,1.87C345.17,51,345.15,51.48,345.15,51.9Z" />
    <path id="r-2" data-name="r" class="cls-3"
        d="M362.2,59.55c0-.86.05-1.86.14-3s.23-2.35.4-3.62.36-2.56.58-3.88.47-2.58.72-3.77.51-2.28.76-3.28a21.63,21.63,0,0,1,.77-2.46,5.59,5.59,0,0,1,.46-1,1.89,1.89,0,0,1,.55-.6,1.74,1.74,0,0,1,.76-.3,7.16,7.16,0,0,1,1.13-.07,7.27,7.27,0,0,1,1.18.07.94.94,0,0,1,.63.35,1.58,1.58,0,0,1,.25.81c0,.35.05.83.05,1.44v2.62c0,1,0,2,.05,3H371l1.31-2.62a17.43,17.43,0,0,1,1.7-2.71,10.3,10.3,0,0,1,2.2-2.13,4.86,4.86,0,0,1,2.84-.86,3.13,3.13,0,0,1,1.09.19,2.9,2.9,0,0,1,.92.54,2.64,2.64,0,0,1,.86,2,9.91,9.91,0,0,1-.14,1.39c-.1.6-.21,1.23-.32,1.88s-.23,1.29-.33,1.9A11.18,11.18,0,0,0,381,47a6.27,6.27,0,0,0,.2,1.76,3.4,3.4,0,0,0,.54,1.13,2,2,0,0,0,.77.6,2.24,2.24,0,0,0,.89.17,7,7,0,0,0,2.72-.58,17.31,17.31,0,0,0,2.58-1.32,25.29,25.29,0,0,0,2.7-1.93l-.44,6.85-1.73,1.12A21.39,21.39,0,0,1,387.11,56a15.05,15.05,0,0,1-2.28.91,8,8,0,0,1-2.42.37,6.25,6.25,0,0,1-3.54-.9A6.34,6.34,0,0,1,376.73,54a11.71,11.71,0,0,1-1.17-3.25c-.26-1.2-.46-2.42-.62-3.65h-.47l-5.24,14.62a19.35,19.35,0,0,1-.78,1.89,5.75,5.75,0,0,1-.75,1.21,2,2,0,0,1-.82.66,2.32,2.32,0,0,1-1,.19,3,3,0,0,1-3.06-1.89,6.41,6.41,0,0,1-.53-2A18.6,18.6,0,0,1,362.2,59.55Z" />
    <path class="cls-4"
        d="M143.57,73.17c.27-12.3,9.77-23.4,21.28-27.08l-.09.5a43.57,43.57,0,0,1-8.74-9,17.69,17.69,0,0,1-3.47-8.85,23.67,23.67,0,0,1,4.61-15C165.3,3.13,178,4.84,181.94,18a45.61,45.61,0,0,1,1.89,15.67,128.32,128.32,0,0,1-1.16,15.67l-.44-1c3.23,2,6.73,3.68,9.9,5.84,2,1.29,1.59,2.9-.3,4a4.67,4.67,0,0,1-2.84.93,26.62,26.62,0,0,1-9-2.47l1.39-.7a63.89,63.89,0,0,1-5.65,15.31c-3.8,7.14-9.51,14.14-17.55,16.49-9.83,2.65-15-5.83-14.66-14.67Zm.2,0c-.06,13.73,10.41,18.89,21,9.93,8.06-7,12.21-17.37,14.69-27.54a1,1,0,0,1,1.39-.7c2.83,1.11,5.74,2.36,8.78,2.24a1.74,1.74,0,0,0,.49-.2,4.77,4.77,0,0,0,1.31-.9s0,0,0,0a.47.47,0,0,0,0,.26,9.93,9.93,0,0,0-1.79-1.3c-2.83-1.66-5.63-3.25-8.43-5a.94.94,0,0,1-.43-1A112.31,112.31,0,0,0,182,36.75a64.89,64.89,0,0,0-.2-12.31C181,17.06,176.93,7,168,8.22c-9.19,1.51-14.71,11.69-14.4,20.49.59,7.27,6.29,12.87,11.56,17.43a.3.3,0,0,1-.1.51,29,29,0,0,0-8.14,3.84c-7.42,5.06-13,13.52-13.12,22.68Z" />
    <path class="cls-4"
        d="M151.27,75.05c-.23,4.14,2.42,7.42,6.63,5.18,3.21-1.69,5.4-4.76,7.27-7.82A62.82,62.82,0,0,0,172.3,51.9l.4.94-1.09-.66.66.12A21.38,21.38,0,0,0,165,55.49c-6.13,4.13-13.18,11.85-13.69,19.56Zm-.2,0A28.07,28.07,0,0,1,167.7,51.72,21.05,21.05,0,0,1,172,50.5a.89.89,0,0,1,.62.13c.55.43,1.68.76,1.47,1.63-2.09,9-5.08,18.22-11.39,25.14-4.38,4.8-11.55,6.19-11.58-2.35Z" />
    <path class="cls-4"
        d="M160.65,26.3c-.07,4,2.39,7.5,5.06,10.26A61,61,0,0,0,174.8,44l-.92.4c.29-6,2.76-26-2.54-29.26-1.34-.84-3.25-.2-4.83.92a13.92,13.92,0,0,0-5.86,10.28Zm-.2,0a16.4,16.4,0,0,1,5.12-11.45C168.47,12,172.93,12,174.8,16c2.38,5,1.55,10.62,1.36,15.94-.08,4.2-.71,8.36-1.12,12.53a.57.57,0,0,1-.91.41A49.31,49.31,0,0,1,165.26,37c-2.5-3-4.76-6.62-4.81-10.66Z" />
    <path class="cls-4"
        d="M236.72,43.78c-.83,3.75-2.11,7.84-2.16,11.69-.26,5.75,4.73,5.15,8,2.22l2.32-1.86c.53-.46,3.05-2.94,3.61-3.45a.23.23,0,0,1,.34,0c.47.93.8,1.92,1.19,2.87l1.09,2.8a.26.26,0,0,1-.06.28c-4.94,5.06-13.52,12.37-20.92,8.41-7.66-5-3.76-15.22-2.08-22.4l.5.59c-4.89.53-9.8,1-14.7,1.5l.45-.36c-.89,2.67-1.78,5.35-2.72,8-1.54,3.93-2.42,8.14-4.93,11.61-1,1.18-2,2.32-3.72,2.44a4.08,4.08,0,0,1-4.05-5.57c1.42-4.89,3.61-11.49,5.43-16.32l.64.93A13.79,13.79,0,0,1,198.79,46a8.23,8.23,0,0,1-4.44-5.87c-.17-1-.2-2.56,1.1-2.93,1.92-.33,3,1.63,4,2.73l-.63-.28c2.45-.12,6.07-.14,8.56-.15l-.73.5c1.41-3.77,2.94-7.55,4-11.34,1.93-7,.44-11.58-7.4-7.35a35.08,35.08,0,0,0-4.86,3.32c-1.44,1.22-4.65,3.3-4.89,0-1-5.49,3.25-9.21,7.75-11.34,8.34-4.25,19.39-2,19.33,9-.26,6.25-2.31,12.08-4,18l-1-1.29q7.2-.4,14.4-.73l-.83.64,2.15-6.46c.59-1.89,1.55-4.59,2.26-6.42L236,19.67a11.22,11.22,0,0,1,1.6-3.21c1.88-3,7.5-2.78,7.74,1.27.2,3-1.31,5.73-2.26,8.39q-2.4,6.35-4.54,12.76l-.46-.58,5.65-.32c1.35-.14,3.58.1,3.82,1.87.57,3.22-2.2,3.27-4.52,3.46-2.11.16-4.27.35-6.33.47Zm-.12-.16c2.18-.25,4.23-.47,6.36-.7,1.38-.27,3.59-.06,4.06-1.67.37-2.31-1.18-2.78-3.22-2.54l-5.65.49a.45.45,0,0,1-.46-.58C239,34.28,240.46,30,242,25.71c.52-1.73,1.88-4.54,2-6.29,0-1,.23-2-.4-2.77-1.22-1.36-3.69-.85-4.7.75a9.84,9.84,0,0,0-1.35,2.86l-2.32,6.35c-.68,1.8-1.6,4.52-2.17,6.4,0,0-2.06,6.45-2.06,6.45a.92.92,0,0,1-.82.64q-7.2.42-14.37.91a1,1,0,0,1-1-1.29c1.6-5.73,3.6-11.46,3.88-17.4.15-9.47-9.55-10.82-16.49-7.26-3.15,1.57-6.83,4-6.8,7.9l.08,1.4a1.6,1.6,0,0,0,.08.5l-.09-.11a.67.67,0,0,0-.29-.2.84.84,0,0,0-.27,0l.23,0a6.12,6.12,0,0,0,2.2-1.32c3.4-2.5,6.85-5.17,11.38-5.23,5.53.31,4.83,7.44,3.63,11.16-1.17,4-2.71,7.68-4.15,11.47a.78.78,0,0,1-.73.5h-4.25c-1.42,0-2.84,0-4.25.08a.73.73,0,0,1-.61-.28c-.67-.72-1.57-2.17-2.45-2.24a2.83,2.83,0,0,0,0,1.24l.18.9a9.2,9.2,0,0,0,1.32,2.29c1.87,2.24,4.81,2.72,7.66,2.74a.71.71,0,0,1,.65.94c-1.66,4.4-3.9,10.74-5.19,15.21-.33,1.05-.92,2.38-.29,3.42a3.19,3.19,0,0,0,2.81,1.55c2.41-.39,3.76-3.45,4.69-5.27,2-5.28,3.89-10.56,5.68-15.91a.53.53,0,0,1,.45-.36c4.9-.43,9.81-.9,14.71-1.38a.48.48,0,0,1,.5.6c-.49,1.9-1,3.8-1.46,5.72-.85,3.72-1.83,7.74-.43,11.43A7.94,7.94,0,0,0,236,67.1c5.8-1,10.63-5,14.68-9.14l-.06.28c-.69-1.66-1.44-4-2.16-5.58l.38.06-2.93,2.75c-.78.79-2.22,1.85-3.1,2.56-3.55,3.11-8.85,3.46-8.55-2.56.08-3.91,1.42-8,2.34-11.85Z" />
    <path class="cls-4"
        d="M267.48,59.47c-4,3.53-12.45,9.14-17.58,5.27-3.34-3.48-1.17-9.47-.57-13.63.77-3.58,1.66-7.13,2.5-10.67.39-2.16,2.86-3.32,4.82-3.6,1-.07,1.91-.43,3.28.28s1.12,2.31.91,3.45c-.4,1.86-.87,3.62-1.35,5.38-.93,4.17-2.8,8.59-2.24,12.85.13.36.07.25.21.33,1.9.11,3.76-1.55,5.32-2.64s2.89-2.23,4.35-3.38a.45.45,0,0,1,.72.38c-.12,2-.22,4-.37,6Zm-.18-.08-.37-5.9.75.35c-2.2,1.84-10,10.74-12.2,5.49-.79-3,.09-5.79.63-8.61.84-3.58,2-7.1,2.9-10.51.11-.57.29-1.27,0-1.61-1.58-.57-5.31.24-5.66,2.21-.94,3.54-1.91,7-2.77,10.58-.63,3.76-2.84,9.52-.06,12.71,4.65,3.63,13-1.62,16.82-4.71Z" />
    <path class="cls-4"
        d="M254.2,29.32c.18-4.72,5.84-6.8,9.66-4.52,3.51,2.38,2,8.39-1.84,9.58s-8.21-.69-7.82-5.06Zm.2,0c.08,3,2.62,3.8,5.26,3.44,2.28-.14,4.4-1.49,4.55-3.95a3.08,3.08,0,0,0-1.09-2.94c-2.93-2-8.77-.85-8.72,3.45Z" />
    <path class="cls-4"
        d="M277.33,60.38a20.36,20.36,0,0,0,16-7.45.27.27,0,0,1,.48.16l.38,6.71a.32.32,0,0,1-.07.23,17,17,0,0,1-11.89,6.1c-2.77-.25-5.28-.87-8-1.19l.61-.53c0,7.78-.91,17.15-6.8,22.93A6.61,6.61,0,0,1,261.78,89c-3.78-1.21-4.55-5.7-4.77-9.09-.41-5.53,2.53-10.71,4.93-15.49l4-7-.15.41c1-6,1.19-12.73,5.12-17.71,4.14-5.26,14.34-4.49,16.38,2.32,2.37,8-2.84,14.86-10.19,17.55l.07-.15q.06.27.12.57Zm-.13.16c0-.22-.36-.66-.16-.81a21.22,21.22,0,0,0,5.84-4.08c4.7-4.27,5.79-14.93-1.52-16.93C269.43,36,269.29,50.47,267.69,58.49c-2.37,4-5.89,9.61-7.54,13.89-.9,2.4-1.78,4.8-1.51,7.4.1,3.33,1,8.3,5.27,7.94,8-1.47,9.93-16.5,9.84-23.32a.51.51,0,0,1,.6-.51c2.58.34,5.33,1,7.85,1.32a16.27,16.27,0,0,0,11.39-5.61l-.08.23-.26-6.71.48.16a20.45,20.45,0,0,1-16.53,7.26Z" />
    <path class="cls-4"
        d="M263.48,78.59c.12,1.09.52,2.93,1.84,3,.81-.08.9-1.27,1-1.93.13-1.27.19-2.64.21-3.93,0-3.16.07-7.55.05-10.68l1.77.52c-.93,2.07-1.74,4.24-2.59,6.37a28,28,0,0,0-2.32,6.66Zm-.2,0c.4-4.18.61-8.51,2.59-12.33.52-.8.88-2.62,2.16-2a1,1,0,0,1,.49.9l-.45,5.32c-.22,2.58-.34,6.88-1,9.35-1.16,4-3.56,1.76-3.81-1.22Z" />
    <path class="cls-4"
        d="M273.63,57.42c.06-.13.26-.21.38-.29a13.62,13.62,0,0,0,6.69-10c.33-2-.56-3.94-2.52-3.11A5,5,0,0,0,276,46.86a82.13,82.13,0,0,0-2.4,10.56Zm-.11.17a25,25,0,0,1,0-9.2,9.15,9.15,0,0,1,1.87-4.47c3.15-3.63,7.72-1.37,6.63,3.39a13.86,13.86,0,0,1-8.47,10.28Z" />
    <path class="cls-4"
        d="M289.33,54.35c4.91-3.77,8.13-9,11.8-13.9a7.59,7.59,0,0,1,3.59-3.08c2.06-.63,5.6-.35,5.8,2.36l.05.62c-.14,1.85-1.46,2.9-2.44,4.22a11.94,11.94,0,0,0-1.25,1.57l0-.15.13,1.44a28,28,0,0,0,.8,2.91,30,30,0,0,1,1.08,7.83l-1.14-.61c1.71-1.05,3.5-1.91,5.29-2.78a28.48,28.48,0,0,0,4.9-2.93.88.88,0,0,1,1.41.7l.12,6.56a1,1,0,0,1-.38.77c-6.18,4.83-20.94,10.41-27.51,4.27a6.24,6.24,0,0,1-1.59-4l.46.34c-1.24.05-3.1.45-3.82-.78-1.06-2.31,1-4.15,2.68-5.35Zm.13.15c-1.2,1-2.82,2.1-2.68,3.86,0,.82.35,1.61,1.12,1.59a10.11,10.11,0,0,0,2.41-.21.36.36,0,0,1,.45.31,5.24,5.24,0,0,0,1.63,3.32c5.92,4.63,20.12-1,25.53-5l-.38.78.07-6.57,1.4.7a29.26,29.26,0,0,1-5.26,3c-1.77.81-3.54,1.62-5.22,2.59a.75.75,0,0,1-1.09-.64l-.09-3a28.26,28.26,0,0,0-.77-4.44,15.54,15.54,0,0,1-.86-4.86,7.55,7.55,0,0,1,1.55-2c.81-1,2.13-2.22,2.25-3.46,0-.68,0-1.24-.56-1.66a5.07,5.07,0,0,0-4-.53,7.1,7.1,0,0,0-3.34,2.68l-2.9,3.55c-.52.66-3.06,3.92-3.53,4.51a46.11,46.11,0,0,1-5.75,5.6Z" />
    <path class="cls-4"
        d="M293.24,58.14c-.09-.12,0,0,.07,0,.63.16,1.25.94,1.76,1.32a3.82,3.82,0,0,0,3.89,1c3.56-1.3,1.69-6.74.76-9.41l1.66.41c-2.44,2.71-5.2,4.19-8.14,6.76Zm-.19.07c2-2.6,4.43-6.08,6.92-8.24a1,1,0,0,1,1.44,0,16.57,16.57,0,0,1,.93,7.54,4.16,4.16,0,0,1-5.64,3.65A7.84,7.84,0,0,1,294,58.9a1.75,1.75,0,0,0-.7-.6c-.05,0,0,0-.21-.09Z" />
    <path class="cls-4"
        d="M340.14,59.16c-1.7,1-6.06,3.57-7.76,4.42-16.29,9.94-17.16-14.84-15.71-25.16l.43.56c-.81-.12-1.62-.24-2.38-.4-1.12-.19-2.37-.33-3.51-.46a4.14,4.14,0,0,1-1.32-.3A2.2,2.2,0,0,1,308.58,36l0-.64a1.6,1.6,0,0,1,.9-1.45c2.21-1,5-.61,7.36-.66l1.05,0-.48.49c1.08-6.21,6.8-27,16-19.79,3.69,3.77,3.39,9.76,1.42,14.29-.67,1.4-1.38,3-2.16,4.35L331,35.29l-.73-1.5c1.83.08,7.17.21,8.93.32,1.42.13,1.94,2,1.88,3a3.42,3.42,0,0,1-1.55,2.94c-.65.53-2.12.38-2.92.39h-3.23l-6.47,0,.8-.41c-1.11,1.47-2.23,2.92-3.39,4.34l.2-.52c-.2,2.69-.36,5.41-.46,8.11-.34,4.3.74,8,5.71,5.94a30.39,30.39,0,0,0,10.06-6.52.33.33,0,0,1,.54.26l-.24,7.55Zm-.18-.1-.25-7.45.59.23a29.83,29.83,0,0,1-11.05,7.6c-5.59,1.66-7.14-3-6.82-7.55,0-2.73.13-5.45.27-8.19a.88.88,0,0,1,.2-.52c1.11-1.42,2.18-2.87,3.23-4.33a1,1,0,0,1,.79-.41l9.7,0h1.57a.45.45,0,0,0,.25-.09c.68-.32.67-1.69.4-2.18,0,0,.07,0,.06,0l-8.83-.41a.93.93,0,0,1-.9-1,.92.92,0,0,1,.17-.52c.53-.91,1.94-3.08,2.37-4a23,23,0,0,0,2.67-7c.8-4-1.79-11.68-6.92-8.47-2.41,1.77-3.89,4.59-5.15,7.32a59,59,0,0,0-3.71,11.89.54.54,0,0,1-.49.49c-2.61.23-5.64-.47-8.13.48-.26.15-.3.19-.31.44a3,3,0,0,0,.12,1,1.13,1.13,0,0,0,.55.55c1.28.38,3.15.41,4.57.73.8.18,1.56.31,2.32.43a.51.51,0,0,1,.43.56c-1.5,9.84-1.37,34.18,14.56,24.71,1.68-.8,6.06-3.25,7.74-4.2Z" />
    <path class="cls-4"
        d="M330.57,22c.06-1.11-.38-2.55-1.76-2.05a2,2,0,0,0-.72.78c-1.41,2.73-2,5.89-2.74,8.86l-.91,4.61-.74-1,1.79.12-.95.46c1-2,2.06-3.9,3.22-5.79s2.6-3.74,2.81-5.94Zm.2,0a12.77,12.77,0,0,1-.55,3.37,25.71,25.71,0,0,1-4.06,9.39.89.89,0,0,1-.91.41l-1.78-.29a.84.84,0,0,1-.74-1.06L324,29.27c1-3,1.7-6.21,3.7-8.81a1.7,1.7,0,0,1,2.25-.64c.75.48.78,1.42.83,2.2Z" />
    <path class="cls-4"
        d="M349,65.77c-14.19,0-14.23-20.92-4.41-27.23,5.55-3.73,14.18-.63,13.79,6.72-.51,6.42-6.64,10.77-12.35,12.45l.58-1.37c.64.88,1.06,1.86,2.12,2a10.45,10.45,0,0,0,5.6-1.2,33.41,33.41,0,0,0,8.25-5.51l.08-.07a.93.93,0,0,1,1.26.09c1.25,1.34,2.48,2.71,3.71,4.08a.76.76,0,0,1,0,1,40.06,40.06,0,0,1-4.07,3.4c-4.26,3-9.19,5.59-14.52,5.55Zm0-.2c7-.19,12.91-4.92,17.45-9.85v1.1c-1.3-1.27-2.61-2.53-3.89-3.82l1.34,0c-4,3.58-8.5,7-14.07,7.44a4.77,4.77,0,0,1-3.08-.85,8.73,8.73,0,0,1-1.8-2.35.87.87,0,0,1,.23-1.23c4.09-1.17,8.17-3.34,10.44-7.06,2.33-3.38,1.44-8.55-2.56-10.14-15.3-5.38-21.81,26.86-4.06,26.74Z" />
    <path class="cls-4"
        d="M345.22,51.83a9.06,9.06,0,0,0,5.08-3,4.54,4.54,0,0,0,1.33-2.37c0-.87-.21-2.17-1-2.43-3.85.32-4.4,4.68-5.45,7.81Zm-.14.15c-.84-3.15-.44-7.74,3-9.26,1.25-.47,3-.79,4,.32a4.38,4.38,0,0,1,.06,5.26c-1.74,2.1-4.23,3.79-7.06,3.68Z" />
    <path class="cls-4"
        d="M362.1,59.55a86,86,0,0,1,1.12-10.61,73.36,73.36,0,0,1,2-9.41c.36-1.11,1-2.33,2.37-2.28.92,0,2.15-.3,2.91.43a2.79,2.79,0,0,1,.42,1.78c.07,2.14.09,4.26.17,6.39l-.51-.49H371l-.46.28c1.69-3.4,3.59-8.1,7.92-8.68a3.5,3.5,0,0,1,4.11,3c.28,2.4-2.43,9.2.6,10a7.86,7.86,0,0,0,4-1.17,22.55,22.55,0,0,0,3.7-2.55.86.86,0,0,1,1.41.72l-.36,6.86a.9.9,0,0,1-.42.73c-.84.54-1.61,1.11-2.52,1.6A13.56,13.56,0,0,1,383,58.24c-6.92.47-8.43-5.44-9-11l.94.83h-.47l.89-.62C373.63,52,371.78,56.48,370,61c-.79,1.66-1.21,3.81-3,4.74a3.42,3.42,0,0,1-3.61-.87c-1.31-1.47-1.17-3.52-1.27-5.32Zm.2,0a15.12,15.12,0,0,0,.46,3.57,3,3,0,0,0,4,2.12c1.46-.94,1.73-3,2.34-4.55,1.49-4.64,2.93-9.3,4.49-13.91a.9.9,0,0,1,.88-.62c.62-.06,1.26.05,1.4.75V47l.52,2.82c.46,3.52,2.56,6.85,6.5,6.39a11.94,11.94,0,0,0,5-1.81c.82-.41,1.65-1,2.47-1.48l-.43.73.52-6.85,1.42.73c-2.67,2-5.37,4-9,3.9-4.85-1.24-1.67-8.07-1.71-11.35-.2-2.23-3.12-2.25-4.59-1.23-2.56,1.67-3.83,4.61-5.21,7.29-.15.29-.5.27-.78.26a.5.5,0,0,1-.51-.49c0-1.43,0-2.87,0-4.28a29,29,0,0,0,0-3.1c-.07-.29-.15-.4-.38-.48-1.1-.07-2.88-.5-3.46.78a21.91,21.91,0,0,0-1.38,3.94,77.67,77.67,0,0,0-2.56,16.8Z" />
    <path id="J-3" data-name="J" class="cls-3"
        d="M143.67,73.17a23.31,23.31,0,0,1,1.51-8.07,30.26,30.26,0,0,1,4.29-7.79,32.41,32.41,0,0,1,6.71-6.56,29,29,0,0,1,8.76-4.38,55.86,55.86,0,0,1-4.66-4.25,35.67,35.67,0,0,1-3.78-4.56A22.84,22.84,0,0,1,154,32.88a12.76,12.76,0,0,1-.92-4.71,23.82,23.82,0,0,1,.66-5.68,23.41,23.41,0,0,1,1.81-5,20.81,20.81,0,0,1,2.74-4.16,19.38,19.38,0,0,1,3.4-3.17,15.4,15.4,0,0,1,3.79-2,12,12,0,0,1,4-.7,10.4,10.4,0,0,1,5.09,1.35,12.46,12.46,0,0,1,4.35,4.28,24.68,24.68,0,0,1,3,7.58,47.44,47.44,0,0,1,1.15,11.25c0,3.19-.12,6.21-.34,9.07s-.55,5.6-1,8.22c1.19.74,2.4,1.46,3.62,2.17l3.7,2.11L190,54c.39.22.76.45,1.12.69a7.58,7.58,0,0,1,.92.73,1,1,0,0,1,.38.66.82.82,0,0,1-.25.57,3.3,3.3,0,0,1-.58.53,5.11,5.11,0,0,1-.68.43l-.51.26a2.69,2.69,0,0,1-1.29.26,15.23,15.23,0,0,1-3.85-.64,39.18,39.18,0,0,1-4.82-1.73,71.12,71.12,0,0,1-3.09,9.92,57.24,57.24,0,0,1-3.94,8.07A40,40,0,0,1,168.88,80a30.37,30.37,0,0,1-4.83,4.41,20,20,0,0,1-4.87,2.64,13.47,13.47,0,0,1-4.64.88,9.83,9.83,0,0,1-4.29-.94,9.47,9.47,0,0,1-3.44-2.8,13.65,13.65,0,0,1-2.3-4.61A22.06,22.06,0,0,1,143.67,73.17Zm7.5,1.88a7.49,7.49,0,0,0,1.16,4.53,3.65,3.65,0,0,0,3.06,1.53,7.9,7.9,0,0,0,4.38-1.7,20.49,20.49,0,0,0,4.91-5.25,48,48,0,0,0,4.7-9,73.92,73.92,0,0,0,3.79-13l-1.08-.67a20.54,20.54,0,0,0-5.7,2,28.09,28.09,0,0,0-5,3.45,30.43,30.43,0,0,0-4.2,4.37,36,36,0,0,0-3.21,4.82,25.78,25.78,0,0,0-2.05,4.77A14.35,14.35,0,0,0,151.17,75.05Zm9.38-48.75a11.5,11.5,0,0,0,1,4.66,20.63,20.63,0,0,0,2.87,4.58,36.29,36.29,0,0,0,4.4,4.5,68.64,68.64,0,0,0,5.62,4.39c.33-2.71.6-5.57.79-8.57s.3-6.18.3-9.56a33.31,33.31,0,0,0-.44-5.85,15,15,0,0,0-1.19-3.88,5.33,5.33,0,0,0-1.76-2.15,3.81,3.81,0,0,0-2.12-.66,5.14,5.14,0,0,0-2.2.53,9.45,9.45,0,0,0-2.17,1.45,14.77,14.77,0,0,0-2,2.15A16.41,16.41,0,0,0,161,23.38,10.66,10.66,0,0,0,160.55,26.3Z" />
    <path id="H-3" data-name="H" class="cls-3"
        d="M236.66,43.7c-.68,2.4-1.23,4.65-1.64,6.73a28.54,28.54,0,0,0-.62,5.4,5.12,5.12,0,0,0,.84,3.12A3.23,3.23,0,0,0,238,60.08a4.66,4.66,0,0,0,1.76-.43,12.76,12.76,0,0,0,2.34-1.33A31.38,31.38,0,0,0,245.05,56c1.09-1,2.29-2.1,3.62-3.43.06.12.18.39.35.82s.38.93.66,1.68.68,1.79,1.19,3.09a43.14,43.14,0,0,1-4.41,4.08,33.75,33.75,0,0,1-4.31,2.94,20.67,20.67,0,0,1-4,1.79,11.93,11.93,0,0,1-3.53.6,8.51,8.51,0,0,1-3.43-.69,7.73,7.73,0,0,1-2.74-2,9.73,9.73,0,0,1-1.83-3.23,13.17,13.17,0,0,1-.67-4.38,17.55,17.55,0,0,1,.17-2.14c.12-.86.29-1.84.52-2.93s.49-2.29.82-3.59.67-2.67,1.07-4.12q-3.93.42-7.53.76c-2.41.24-4.8.46-7.18.68q-.83,2.46-1.63,4.82c-.54,1.57-1.05,3-1.55,4.42s-1,2.64-1.38,3.78-.77,2.12-1.07,2.92a14.64,14.64,0,0,1-2.79,4.39,3.84,3.84,0,0,1-2.45,1.29,4.34,4.34,0,0,1-1.38-.23,3.93,3.93,0,0,1-1.2-.68,3.14,3.14,0,0,1-.83-1,3,3,0,0,1-.31-1.38,3.44,3.44,0,0,1,.12-.91c.82-3,1.71-5.87,2.68-8.66S204,49.12,205,46.48a19.35,19.35,0,0,1-3.09-.24,10.1,10.1,0,0,1-2.74-.87,7.35,7.35,0,0,1-2.24-1.7,8.64,8.64,0,0,1-1.63-2.75c-.07-.35-.14-.67-.19-.94a4.54,4.54,0,0,1-.07-.82c0-.86.3-1.29.91-1.29a2,2,0,0,1,1.23.6,17,17,0,0,1,1.73,1.92c.91,0,1.83-.07,2.75-.09s1.9,0,3,0h2.81c.71-1.81,1.37-3.57,2-5.26s1.22-3.34,1.77-5a25.32,25.32,0,0,0,.79-3.11,15.56,15.56,0,0,0,.3-3,9.83,9.83,0,0,0-.21-2.1,4.57,4.57,0,0,0-.67-1.65,3.46,3.46,0,0,0-1.2-1.05,4,4,0,0,0-1.82-.38,8.68,8.68,0,0,0-2,.29,15,15,0,0,0-2.56.95,26.29,26.29,0,0,0-3.06,1.73,41.74,41.74,0,0,0-3.59,2.65,5,5,0,0,1-1.25.8,2.85,2.85,0,0,1-1,.23c-.15,0-.27-.26-.35-.78a12.73,12.73,0,0,1-.12-1.92,6.2,6.2,0,0,1,.72-2.9A10,10,0,0,1,197,17.32a16.28,16.28,0,0,1,2.77-2.11A22,22,0,0,1,203,13.6a20.1,20.1,0,0,1,3.3-1,14.09,14.09,0,0,1,3-.35,13.75,13.75,0,0,1,3.92.55,8.82,8.82,0,0,1,3.3,1.79,8.52,8.52,0,0,1,2.25,3.19,12.14,12.14,0,0,1,.84,4.78,20.17,20.17,0,0,1-.31,3.22c-.2,1.27-.48,2.66-.83,4.18s-.77,3.12-1.25,4.83-1,3.45-1.54,5.23c2-.14,4.28-.27,6.8-.41l7.59-.41q1.49-4.89,3.29-10.12t3.83-10.27A7.25,7.25,0,0,1,239,16.13a3.75,3.75,0,0,1,2.59-1,4.28,4.28,0,0,1,1.19.17,3,3,0,0,1,1,.54,2.64,2.64,0,0,1,.69.94,3.44,3.44,0,0,1,.25,1.34q0,.68-.09,1.56a7.88,7.88,0,0,1-.47,1.92l-1.44,3.88c-.5,1.38-1,2.8-1.53,4.25s-1,2.95-1.56,4.47-1,3-1.48,4.54l3.23-.22,2.08-.16.6,0,.51,0a4.59,4.59,0,0,1,1.42.18,2,2,0,0,1,.85.49,1.73,1.73,0,0,1,.43.77,4.22,4.22,0,0,1,.11,1,1.86,1.86,0,0,1-.26,1,2.31,2.31,0,0,1-.66.66,2.88,2.88,0,0,1-.83.35,5.44,5.44,0,0,1-.83.13L243.6,43l-.5.06-.19,0-.22,0-.61,0-1.35.12-2.06.21Z" />
    <path id="i-3" data-name="i" class="cls-3"
        d="M267.39,59.43a25,25,0,0,1-2.62,2.07,27.2,27.2,0,0,1-3.38,2,25.74,25.74,0,0,1-3.71,1.54,11.61,11.61,0,0,1-3.59.61,6.86,6.86,0,0,1-2.56-.42,4.21,4.21,0,0,1-1.69-1.19,4.58,4.58,0,0,1-.92-1.86,9.6,9.6,0,0,1-.28-2.41,24.93,24.93,0,0,1,.43-4.3q.42-2.45,1-5.06c.41-1.75.84-3.5,1.3-5.23s.86-3.34,1.22-4.81a2.54,2.54,0,0,1,.82-1.3,5.13,5.13,0,0,1,1.39-.88,7.51,7.51,0,0,1,1.61-.5,7.85,7.85,0,0,1,1.51-.16,2.34,2.34,0,0,1,1.67.45,1.71,1.71,0,0,1,.44,1.22,8.44,8.44,0,0,1-.3,1.86c-.19.81-.43,1.73-.73,2.75s-.6,2.13-.94,3.31-.64,2.37-.93,3.55-.54,2.33-.73,3.46a17.4,17.4,0,0,0-.3,3,5.89,5.89,0,0,0,.3,2.09,1.15,1.15,0,0,0,1.2.78,4.81,4.81,0,0,0,2.34-.73,20.52,20.52,0,0,0,2.61-1.78c.88-.69,1.74-1.41,2.58-2.15s1.58-1.38,2.22-1.9ZM254.3,29.32a4.88,4.88,0,0,1,1.24-3.12,5.27,5.27,0,0,1,1.76-1.26,6.47,6.47,0,0,1,2.74-.52,7.5,7.5,0,0,1,1.93.24,4.58,4.58,0,0,1,1.58.72,3.33,3.33,0,0,1,1.07,1.27,4.07,4.07,0,0,1,.4,1.88,6.06,6.06,0,0,1-.32,1.93,4.62,4.62,0,0,1-1,1.67,5.4,5.4,0,0,1-1.77,1.19,6.59,6.59,0,0,1-2.56.45,5.24,5.24,0,0,1-3.81-1.22A4.34,4.34,0,0,1,254.3,29.32Z" />
    <path id="p-3" data-name="p" class="cls-3"
        d="M277.27,60.46a23.12,23.12,0,0,0,5.39-.59,19.83,19.83,0,0,0,4.4-1.58A18.54,18.54,0,0,0,290.64,56a23.53,23.53,0,0,0,2.88-2.85l.33,6.7A15.47,15.47,0,0,1,291.58,62a17.11,17.11,0,0,1-2.92,1.87,17.31,17.31,0,0,1-3.32,1.29,13,13,0,0,1-3.45.48,2.7,2.7,0,0,1-.51,0l-1.07-.21-2.18-.4c-.95-.16-2.23-.36-3.85-.6v.53a47.86,47.86,0,0,1-.9,9.68A31.67,31.67,0,0,1,271,82.05a14.74,14.74,0,0,1-3.43,4.75,6.12,6.12,0,0,1-4,1.67,4.6,4.6,0,0,1-2.78-.82A5.78,5.78,0,0,1,259,85.43a11.62,11.62,0,0,1-.94-3.25,27.36,27.36,0,0,1-.28-3.94,11.42,11.42,0,0,1,.38-2.71,28.18,28.18,0,0,1,1-3.16c.43-1.11.91-2.23,1.45-3.37s1.09-2.25,1.65-3.33q2-3.75,4.55-7.73c.21-1.52.43-3.09.65-4.69s.51-3.15.85-4.66a33.28,33.28,0,0,1,1.29-4.27,12.67,12.67,0,0,1,2-3.52,9.13,9.13,0,0,1,2.91-2.37,8.77,8.77,0,0,1,4.1-.88A11.24,11.24,0,0,1,282,38a7,7,0,0,1,2.73,1.57,7.47,7.47,0,0,1,1.84,2.8,11.47,11.47,0,0,1,.68,4.2,12.74,12.74,0,0,1-.59,3.85A12,12,0,0,1,284.81,54a15.83,15.83,0,0,1-3.16,3.18,22,22,0,0,1-4.56,2.65ZM263.38,78.59a4.43,4.43,0,0,0,.1.77,4.76,4.76,0,0,0,.34,1,3.45,3.45,0,0,0,.61.94,1.26,1.26,0,0,0,.94.41.94.94,0,0,0,.82-.54,5.14,5.14,0,0,0,.53-1.45,15.8,15.8,0,0,0,.29-2c.06-.77.11-1.55.15-2.35s.06-1.58.07-2.34,0-1.45.07-2c.06-1.06.11-2,.14-2.68s.05-1.35.07-1.83,0-1,.06-1.38a20.46,20.46,0,0,0-1.09,2.24c-.35.85-.68,1.73-1,2.65s-.6,1.84-.85,2.75-.48,1.78-.66,2.57-.33,1.47-.44,2A7.36,7.36,0,0,0,263.38,78.59ZM273.57,57.5a15.16,15.16,0,0,0,3-2,14,14,0,0,0,2.19-2.32,12.85,12.85,0,0,0,1.51-2.55,16.19,16.19,0,0,0,.94-2.69,8.73,8.73,0,0,0,.19-1.51,4.84,4.84,0,0,0-.18-1.63,3,3,0,0,0-.76-1.3A2,2,0,0,0,279,43a3.14,3.14,0,0,0-1.9.6,5.25,5.25,0,0,0-1.42,1.62,10.79,10.79,0,0,0-1,2.44,24.87,24.87,0,0,0-.64,3,32.34,32.34,0,0,0-.35,3.36C273.61,55.19,273.57,56.35,273.57,57.5Z" />
    <path id="s-3" data-name="s" class="cls-3"
        d="M289.39,54.42Q291,53,292.06,52.08c.68-.62,1.27-1.2,1.76-1.71a18.79,18.79,0,0,0,1.33-1.57l1.42-1.88c.55-.72,1.21-1.6,2-2.65s1.8-2.35,3.05-3.91a10,10,0,0,1,.85-1,6.4,6.4,0,0,1,1-.9,5.33,5.33,0,0,1,1.26-.64,4.4,4.4,0,0,1,1.54-.25,5.9,5.9,0,0,1,2.17.31,2.66,2.66,0,0,1,1.11.74,1.88,1.88,0,0,1,.41.93,6.87,6.87,0,0,1,.06.83,2.89,2.89,0,0,1-.56,1.55,16.05,16.05,0,0,1-1.23,1.65c-.45.52-.87,1-1.27,1.45a2.92,2.92,0,0,0-.69,1,9.36,9.36,0,0,0,.13,1.65,14.3,14.3,0,0,0,.35,1.47c.15.48.3,1,.46,1.52s.3,1.16.45,1.86a22.07,22.07,0,0,1,.35,2.43c.09.92.13,2,.13,3.25a19,19,0,0,1,2.27-1.27L313,55.71c.88-.41,1.78-.86,2.71-1.36a22.7,22.7,0,0,0,2.8-1.8l0,6.56a27.62,27.62,0,0,1-4.21,2.64,41.8,41.8,0,0,1-5,2.17A40.17,40.17,0,0,1,304,65.4a25.78,25.78,0,0,1-5.08.54,15.65,15.65,0,0,1-3.23-.32,8.53,8.53,0,0,1-2.62-1,5.43,5.43,0,0,1-1.83-1.8,6,6,0,0,1-.85-2.69,4.5,4.5,0,0,1-.81.11l-.77,0c-.31,0-.61,0-.88,0a1.41,1.41,0,0,1-.7-.21,1.27,1.27,0,0,1-.47-.62,3.23,3.23,0,0,1-.18-1.22,2.59,2.59,0,0,1,.35-1.3,5.51,5.51,0,0,1,.82-1.07,11.23,11.23,0,0,1,.94-.82A8.83,8.83,0,0,0,289.39,54.42Zm3.75,3.75a1.17,1.17,0,0,1,.78.44c.28.3.61.62,1,1a7.76,7.76,0,0,0,1.29,1,3.23,3.23,0,0,0,1.67.44,4.21,4.21,0,0,0,1.89-.38,3.28,3.28,0,0,0,1.19-1,3.88,3.88,0,0,0,.61-1.47,8.28,8.28,0,0,0,.18-1.74,14.65,14.65,0,0,0-.1-1.61c-.07-.55-.16-1.07-.27-1.57s-.22-1-.35-1.41-.24-.81-.34-1.13Z" />
    <path id="t-3" data-name="t" class="cls-3"
        d="M340.05,59.11c-1.88,1.1-3.55,2-5,2.87s-2.77,1.51-3.91,2.05a22.09,22.09,0,0,1-3.05,1.23,8.07,8.07,0,0,1-2.42.41,6.17,6.17,0,0,1-3.92-1.34,10.11,10.11,0,0,1-2.84-3.89,23.7,23.7,0,0,1-1.72-6.13,52.39,52.39,0,0,1-.57-8.12q0-1.75.15-3.75c.09-1.33.23-2.64.41-3.95-.59-.08-1-.15-1.36-.22l-1-.21c-.36-.07-.82-.14-1.38-.22s-1.36-.17-2.41-.29a2.59,2.59,0,0,1-1.09-.34,1.51,1.51,0,0,1-.55-.58,1.82,1.82,0,0,1-.21-.71q0-.36,0-.63a1,1,0,0,1,.57-.89,4.4,4.4,0,0,1,1.47-.45,12.89,12.89,0,0,1,2-.17c.71,0,1.4,0,2.05,0l1.76,0a5.88,5.88,0,0,0,1.07,0,66.62,66.62,0,0,1,2-7.66,42.89,42.89,0,0,1,2.73-6.59,17.94,17.94,0,0,1,3.3-4.63,5.36,5.36,0,0,1,3.75-1.75,4,4,0,0,1,2.29.71,6.14,6.14,0,0,1,1.78,1.87A9.72,9.72,0,0,1,335,18.49a13.56,13.56,0,0,1,.39,3.27,12.3,12.3,0,0,1-.41,3A21.92,21.92,0,0,1,333.84,28a33.66,33.66,0,0,1-1.66,3.36c-.63,1.13-1.3,2.25-2,3.37.17,0,.46,0,.87,0l1.43,0,1.74.08L336,35l1.65.06,1.26.06a.92.92,0,0,1,.84.58,3.22,3.22,0,0,1,.27,1.41,2.4,2.4,0,0,1-.59,1.67,1.72,1.72,0,0,1-1.29.64H326.92c-.56.79-1.13,1.55-1.71,2.3s-1.11,1.44-1.6,2c-.08,1.21-.14,2.4-.2,3.57,0,.51,0,1-.06,1.57l-.06,1.6c0,.53,0,1,0,1.52s0,.94,0,1.35a10.73,10.73,0,0,0,.29,2.67,4.87,4.87,0,0,0,.85,1.77,3.18,3.18,0,0,0,1.37,1,4.85,4.85,0,0,0,1.8.31,5.49,5.49,0,0,0,1.54-.29,18.47,18.47,0,0,0,2-.81c.73-.34,1.5-.74,2.31-1.21s1.61-1,2.4-1.54,1.55-1.14,2.28-1.76a20.78,20.78,0,0,0,2-1.89ZM330.67,22a6.49,6.49,0,0,0,0-.72,2.6,2.6,0,0,0-.19-.74A1.4,1.4,0,0,0,330,20a1.35,1.35,0,0,0-.86-.23c-.51,0-1,.45-1.54,1.34a19.92,19.92,0,0,0-1.49,3.45c-.48,1.39-.93,2.93-1.35,4.61s-.8,3.31-1.16,4.89l.88.11.91.1q.88-1.5,1.83-3.24c.64-1.16,1.21-2.3,1.72-3.43s.92-2.17,1.26-3.15A7.77,7.77,0,0,0,330.67,22Z" />
    <path id="e-3" data-name="e" class="cls-3"
        d="M349,65.67a11.06,11.06,0,0,1-4.82-1A10.15,10.15,0,0,1,340.78,62a11.3,11.3,0,0,1-2.06-3.9,15.46,15.46,0,0,1-.69-4.64,19.48,19.48,0,0,1,.32-3.47,19.68,19.68,0,0,1,1-3.59A18.41,18.41,0,0,1,341,43a13.52,13.52,0,0,1,2.32-2.81,10.87,10.87,0,0,1,3-1.93,9.15,9.15,0,0,1,3.68-.72,8.47,8.47,0,0,1,3,.53,7.36,7.36,0,0,1,2.44,1.48,6.55,6.55,0,0,1,1.63,2.3,7.45,7.45,0,0,1,.59,3,8.18,8.18,0,0,1-.9,3.64A13.12,13.12,0,0,1,354.32,52a17.34,17.34,0,0,1-3.77,2.87,20.07,20.07,0,0,1-4.73,2,10.45,10.45,0,0,0,.86,1.32,4.37,4.37,0,0,0,.87.82,3,3,0,0,0,.92.41,4.88,4.88,0,0,0,1,.11,10.92,10.92,0,0,0,3.71-.7A23.6,23.6,0,0,0,357,57a32.37,32.37,0,0,0,3.49-2.3,29,29,0,0,0,2.78-2.36l3.78,3.93A39,39,0,0,1,361.58,61c-.84.58-1.74,1.16-2.71,1.73a25.39,25.39,0,0,1-3.05,1.5,21.3,21.3,0,0,1-3.31,1.06A15.58,15.58,0,0,1,349,65.67ZM345.15,51.9a5.84,5.84,0,0,0,2.3-.54,10.37,10.37,0,0,0,4.11-3.23,3.29,3.29,0,0,0,.73-1.94,4.38,4.38,0,0,0-.48-2.17,1.4,1.4,0,0,0-1.19-.85,4.61,4.61,0,0,0-2.15.47A4.81,4.81,0,0,0,347,44.86a6.17,6.17,0,0,0-1,1.7,12,12,0,0,0-.56,1.92,16,16,0,0,0-.25,1.87C345.17,51,345.15,51.48,345.15,51.9Z" />
    <path id="r-3" data-name="r" class="cls-3"
        d="M362.2,59.55c0-.86.05-1.86.14-3s.23-2.35.4-3.62.36-2.56.58-3.88.47-2.58.72-3.77.51-2.28.76-3.28a21.63,21.63,0,0,1,.77-2.46,5.59,5.59,0,0,1,.46-1,1.89,1.89,0,0,1,.55-.6,1.74,1.74,0,0,1,.76-.3,7.16,7.16,0,0,1,1.13-.07,7.27,7.27,0,0,1,1.18.07.94.94,0,0,1,.63.35,1.58,1.58,0,0,1,.25.81c0,.35.05.83.05,1.44v2.62c0,1,0,2,.05,3H371l1.31-2.62a17.43,17.43,0,0,1,1.7-2.71,10.3,10.3,0,0,1,2.2-2.13,4.86,4.86,0,0,1,2.84-.86,3.13,3.13,0,0,1,1.09.19,2.9,2.9,0,0,1,.92.54,2.64,2.64,0,0,1,.86,2,9.91,9.91,0,0,1-.14,1.39c-.1.6-.21,1.23-.32,1.88s-.23,1.29-.33,1.9A11.18,11.18,0,0,0,381,47a6.27,6.27,0,0,0,.2,1.76,3.4,3.4,0,0,0,.54,1.13,2,2,0,0,0,.77.6,2.24,2.24,0,0,0,.89.17,7,7,0,0,0,2.72-.58,17.31,17.31,0,0,0,2.58-1.32,25.29,25.29,0,0,0,2.7-1.93l-.44,6.85-1.73,1.12A21.39,21.39,0,0,1,387.11,56a15.05,15.05,0,0,1-2.28.91,8,8,0,0,1-2.42.37,6.25,6.25,0,0,1-3.54-.9A6.34,6.34,0,0,1,376.73,54a11.71,11.71,0,0,1-1.17-3.25c-.26-1.2-.46-2.42-.62-3.65h-.47l-5.24,14.62a19.35,19.35,0,0,1-.78,1.89,5.75,5.75,0,0,1-.75,1.21,2,2,0,0,1-.82.66,2.32,2.32,0,0,1-1,.19,3,3,0,0,1-3.06-1.89,6.41,6.41,0,0,1-.53-2A18.6,18.6,0,0,1,362.2,59.55Z" />
</svg>