<svg id="Logo_JHipster" data-name="Logo JHipster" xmlns="http://www.w3.org/2000/svg"
    xmlns:xlink="http://www.w3.org/1999/xlink" viewBox="0 0 408 96">
    <defs>
        <style>
            .cls-1 {
                fill: #3474ab;
            }

            .cls-2 {
                fill: #4289c7;
            }

            .cls-3 {
                fill: #343333;
            }

            .cls-4 {
                fill: none;
                stroke: #fff;
                stroke-linecap: round;
                stroke-linejoin: round;
                stroke-width: 2px;
            }
        </style>
    </defs>
    <g id="Logo">
        <path id="original-bowtie-left" class="cls-1"
            d="M78.11,44.05s-59.55-34.34-64.69-13-10.93,37.6,4.92,40.6S78.11,44.05,78.11,44.05" />
        <path id="original-bowtie-right" class="cls-2"
            d="M67.82,38.89c17.09-8.78,50.83-23.82,54.69-7.9,5.2,21.43,11,37.73-4.8,40.8-11.11,2.15-36.11-12.34-50-21.14,0-10.41.1-1.5.09-11.76" />
    </g>
    <g id="JHipster_Title" data-name="JHipster Title">
        <path id="J"
            d="M143.67,72.73a23.23,23.23,0,0,1,1.51-8.07,30.32,30.32,0,0,1,4.29-7.8,32.66,32.66,0,0,1,6.71-6.56,29.5,29.5,0,0,1,8.76-4.38,54.17,54.17,0,0,1-4.66-4.25,36.31,36.31,0,0,1-3.78-4.55A22.9,22.9,0,0,1,154,32.43a12.71,12.71,0,0,1-.92-4.7,23.91,23.91,0,0,1,.66-5.69,23.61,23.61,0,0,1,1.81-5,21.1,21.1,0,0,1,2.74-4.16,18.94,18.94,0,0,1,3.4-3.16,15.4,15.4,0,0,1,3.79-2,11.74,11.74,0,0,1,4-.7,10.39,10.39,0,0,1,5.09,1.34,12.55,12.55,0,0,1,4.35,4.28,24.64,24.64,0,0,1,3,7.59,47.32,47.32,0,0,1,1.15,11.25c0,3.18-.12,6.2-.34,9.07s-.55,5.6-1,8.21c1.19.75,2.4,1.47,3.62,2.17s2.45,1.41,3.7,2.11l.95.56a11.59,11.59,0,0,1,1.12.69A6,6,0,0,1,192,55a1,1,0,0,1,.38.66.85.85,0,0,1-.25.57,4.3,4.3,0,0,1-.58.53,6.26,6.26,0,0,1-.68.42c-.22.12-.39.21-.51.26a2.69,2.69,0,0,1-1.29.27,15.76,15.76,0,0,1-3.85-.65,39,39,0,0,1-4.82-1.72,71,71,0,0,1-3.09,9.91,57.24,57.24,0,0,1-3.94,8.07,40.06,40.06,0,0,1-4.53,6.23A30.37,30.37,0,0,1,164.05,84a19.92,19.92,0,0,1-4.87,2.63,13.47,13.47,0,0,1-4.64.88,10,10,0,0,1-4.29-.93,9.58,9.58,0,0,1-3.44-2.8,13.7,13.7,0,0,1-2.3-4.62A22,22,0,0,1,143.67,72.73Zm7.5,1.87a7.47,7.47,0,0,0,1.16,4.53,3.66,3.66,0,0,0,3.06,1.54,8,8,0,0,0,4.38-1.7,20.55,20.55,0,0,0,4.91-5.26,47.67,47.67,0,0,0,4.7-9,73.92,73.92,0,0,0,3.79-13L172.09,51a20.25,20.25,0,0,0-5.7,2,27.53,27.53,0,0,0-5,3.44,31,31,0,0,0-4.2,4.38,35.39,35.39,0,0,0-3.21,4.82,25.7,25.7,0,0,0-2.05,4.76A14.35,14.35,0,0,0,151.17,74.6Zm9.38-48.75a11.43,11.43,0,0,0,1,4.66,20.91,20.91,0,0,0,2.87,4.59,37,37,0,0,0,4.4,4.49,68.68,68.68,0,0,0,5.62,4.4c.33-2.72.6-5.57.79-8.57s.3-6.19.3-9.57a33.19,33.19,0,0,0-.44-5.84,14.89,14.89,0,0,0-1.19-3.88A5.3,5.3,0,0,0,172.16,14a3.81,3.81,0,0,0-2.12-.66,5.14,5.14,0,0,0-2.2.53,9.78,9.78,0,0,0-2.17,1.45,15.31,15.31,0,0,0-2,2.15,16.17,16.17,0,0,0-1.62,2.63,15.59,15.59,0,0,0-1.1,2.87A10.59,10.59,0,0,0,160.55,25.85Z" />
        <path id="H"
            d="M236.66,43.26q-1,3.6-1.64,6.72a28.54,28.54,0,0,0-.62,5.4,5.12,5.12,0,0,0,.84,3.12A3.2,3.2,0,0,0,238,59.63a4.82,4.82,0,0,0,1.76-.42,13.51,13.51,0,0,0,2.34-1.34,29.81,29.81,0,0,0,2.94-2.34c1.09-1,2.29-2.1,3.62-3.43.06.12.18.39.35.82s.38.94.66,1.69.68,1.78,1.19,3.09a44.16,44.16,0,0,1-4.41,4.07,35,35,0,0,1-4.31,2.95,20.59,20.59,0,0,1-4,1.78,11.93,11.93,0,0,1-3.53.6,8.51,8.51,0,0,1-3.43-.69,7.58,7.58,0,0,1-2.74-2,9.78,9.78,0,0,1-1.83-3.24,13.17,13.17,0,0,1-.67-4.38,17.55,17.55,0,0,1,.17-2.14c.12-.86.29-1.83.52-2.93s.49-2.29.82-3.59.67-2.67,1.07-4.11l-7.53.76c-2.41.23-4.8.46-7.18.67q-.83,2.46-1.63,4.82c-.54,1.57-1.05,3-1.55,4.43l-1.38,3.78c-.42,1.14-.77,2.11-1.07,2.91a14.51,14.51,0,0,1-2.79,4.39,3.84,3.84,0,0,1-2.45,1.29,4.08,4.08,0,0,1-1.38-.23,3.91,3.91,0,0,1-1.2-.67,3.28,3.28,0,0,1-.83-1.06,3,3,0,0,1-.31-1.38,3.37,3.37,0,0,1,.12-.9q1.23-4.48,2.68-8.66T205,46a18.24,18.24,0,0,1-3.09-.25,10.08,10.08,0,0,1-2.74-.86,7.35,7.35,0,0,1-2.24-1.7,8.69,8.69,0,0,1-1.63-2.76c-.07-.35-.14-.66-.19-.94a4.47,4.47,0,0,1-.07-.82c0-.85.3-1.28.91-1.28a2,2,0,0,1,1.23.6,17.63,17.63,0,0,1,1.73,1.91l2.75-.08c.92,0,1.9,0,3,0h2.81c.71-1.82,1.37-3.57,2-5.26s1.22-3.35,1.77-5a25.17,25.17,0,0,0,.79-3.1,15.64,15.64,0,0,0,.3-3,9.93,9.93,0,0,0-.21-2.11,4.52,4.52,0,0,0-.67-1.64,3.49,3.49,0,0,0-1.2-1.06,4,4,0,0,0-1.82-.38,8.24,8.24,0,0,0-2,.3,14.15,14.15,0,0,0-2.56,1,24.91,24.91,0,0,0-3.06,1.73A37.89,37.89,0,0,0,197.11,24a5.19,5.19,0,0,1-1.25.79,2.66,2.66,0,0,1-1,.23c-.15,0-.27-.26-.35-.77a12.92,12.92,0,0,1-.12-1.92,6.17,6.17,0,0,1,.72-2.9A10,10,0,0,1,197,16.87a16.28,16.28,0,0,1,2.77-2.11A22,22,0,0,1,203,13.15a21.11,21.11,0,0,1,3.3-1,14.75,14.75,0,0,1,3-.35,13.76,13.76,0,0,1,3.92.56,8.8,8.8,0,0,1,3.3,1.78,8.48,8.48,0,0,1,2.25,3.2,12.12,12.12,0,0,1,.84,4.77,20.28,20.28,0,0,1-.31,3.23c-.2,1.27-.48,2.66-.83,4.17s-.77,3.13-1.25,4.83-1,3.46-1.54,5.23q3-.2,6.8-.41l7.59-.41q1.49-4.89,3.29-10.12t3.83-10.27A7.13,7.13,0,0,1,239,15.69a3.71,3.71,0,0,1,2.59-1,3.94,3.94,0,0,1,1.19.18,2.67,2.67,0,0,1,1,.54,2.56,2.56,0,0,1,.69.94,3.39,3.39,0,0,1,.25,1.33c0,.45,0,1-.09,1.57a8.11,8.11,0,0,1-.47,1.92l-1.44,3.88c-.5,1.37-1,2.79-1.53,4.25s-1,2.94-1.56,4.46-1,3-1.48,4.54c1.23-.07,2.31-.15,3.23-.22s1.61-.12,2.08-.16l.6,0,.51,0A4.59,4.59,0,0,1,246,38a2,2,0,0,1,.85.5,1.69,1.69,0,0,1,.43.76,4.31,4.31,0,0,1,.11,1,1.8,1.8,0,0,1-.26,1,2.08,2.08,0,0,1-.66.66,2.62,2.62,0,0,1-.83.35,4.43,4.43,0,0,1-.83.13l-1.17.14-.5,0-.19,0-.22,0-.61,0-1.35.11-2.06.21Z" />
        <path id="i"
            d="M267.39,59a26.45,26.45,0,0,1-2.62,2.06,26,26,0,0,1-3.38,2,25.74,25.74,0,0,1-3.71,1.54,11.64,11.64,0,0,1-3.59.62,6.65,6.65,0,0,1-2.56-.43,4.19,4.19,0,0,1-1.69-1.18,4.64,4.64,0,0,1-.92-1.86,9.68,9.68,0,0,1-.28-2.42,24.83,24.83,0,0,1,.43-4.29q.42-2.44,1-5.07t1.3-5.23c.46-1.74.86-3.34,1.22-4.81a2.59,2.59,0,0,1,.82-1.3,5.38,5.38,0,0,1,1.39-.88,8.12,8.12,0,0,1,1.61-.5A8.73,8.73,0,0,1,258,37.1a2.28,2.28,0,0,1,1.67.46,1.68,1.68,0,0,1,.44,1.21,8.44,8.44,0,0,1-.3,1.86c-.19.81-.43,1.73-.73,2.76s-.6,2.13-.94,3.31-.64,2.36-.93,3.54-.54,2.34-.73,3.46a17.4,17.4,0,0,0-.3,3,6,6,0,0,0,.3,2.1,1.15,1.15,0,0,0,1.2.77,4.81,4.81,0,0,0,2.34-.73,21.49,21.49,0,0,0,2.61-1.77q1.32-1,2.58-2.16c.83-.74,1.58-1.37,2.22-1.9ZM254.3,28.87a4.55,4.55,0,0,1,.29-1.52,4.65,4.65,0,0,1,.95-1.6,5.27,5.27,0,0,1,1.76-1.26A6.48,6.48,0,0,1,260,24a8,8,0,0,1,1.93.23,4.78,4.78,0,0,1,1.58.72,3.4,3.4,0,0,1,1.07,1.27,4.1,4.1,0,0,1,.4,1.88A6,6,0,0,1,264.7,30a4.46,4.46,0,0,1-1,1.67,5.25,5.25,0,0,1-1.77,1.19,6.59,6.59,0,0,1-2.56.45,5.23,5.23,0,0,1-3.81-1.21A4.35,4.35,0,0,1,254.3,28.87Z" />
        <path id="p"
            d="M277.27,60a23.14,23.14,0,0,0,5.39-.58,20.35,20.35,0,0,0,4.4-1.58,19,19,0,0,0,3.58-2.33,22.9,22.9,0,0,0,2.88-2.86l.33,6.71a15.43,15.43,0,0,1-2.27,2.21,17.15,17.15,0,0,1-2.92,1.88,18,18,0,0,1-3.32,1.28,12.61,12.61,0,0,1-3.45.49,2.86,2.86,0,0,1-.51-.06L280.31,65l-2.18-.39c-.95-.17-2.23-.37-3.85-.6v.53a47.93,47.93,0,0,1-.9,9.68A31.83,31.83,0,0,1,271,81.61a14.58,14.58,0,0,1-3.43,4.74,6.12,6.12,0,0,1-4,1.67,4.54,4.54,0,0,1-2.78-.82A5.75,5.75,0,0,1,259,85a11.72,11.72,0,0,1-.94-3.25,27.47,27.47,0,0,1-.28-3.94,11.35,11.35,0,0,1,.38-2.71,28.31,28.31,0,0,1,1-3.17c.43-1.1.91-2.22,1.45-3.37s1.09-2.25,1.65-3.32q2-3.75,4.55-7.74c.21-1.52.43-3.08.65-4.68s.51-3.16.85-4.66a33.44,33.44,0,0,1,1.29-4.28,12.47,12.47,0,0,1,2-3.51A9.16,9.16,0,0,1,274.54,38a8.9,8.9,0,0,1,4.1-.88,10.92,10.92,0,0,1,3.34.49,7,7,0,0,1,2.73,1.56,7.55,7.55,0,0,1,1.84,2.8,11.53,11.53,0,0,1,.68,4.21,12.79,12.79,0,0,1-.59,3.85,12.17,12.17,0,0,1-1.83,3.56,16.37,16.37,0,0,1-3.16,3.18,22.42,22.42,0,0,1-4.56,2.65ZM263.38,78.15a4.34,4.34,0,0,0,.1.76,4.76,4.76,0,0,0,.34,1,3.17,3.17,0,0,0,.61.94,1.22,1.22,0,0,0,.94.41.94.94,0,0,0,.82-.54,5,5,0,0,0,.53-1.45,15.8,15.8,0,0,0,.29-2q.09-1.14.15-2.34c0-.81.06-1.59.07-2.35s0-1.44.07-2c.06-1,.11-2,.14-2.68s.05-1.34.07-1.83,0-1,.06-1.38a21.39,21.39,0,0,0-1.09,2.24c-.35.85-.68,1.74-1,2.65s-.6,1.84-.85,2.76-.48,1.77-.66,2.56-.33,1.48-.44,2.05A7.44,7.44,0,0,0,263.38,78.15Zm10.19-21.1a14.74,14.74,0,0,0,3-2,13.94,13.94,0,0,0,2.19-2.31,12.85,12.85,0,0,0,1.51-2.55,16.62,16.62,0,0,0,.94-2.7,8.73,8.73,0,0,0,.19-1.51,4.81,4.81,0,0,0-.18-1.62,3,3,0,0,0-.76-1.31,2,2,0,0,0-1.51-.54,3.14,3.14,0,0,0-1.9.6,5.29,5.29,0,0,0-1.42,1.63,10.51,10.51,0,0,0-1,2.43,25,25,0,0,0-.64,3,31.86,31.86,0,0,0-.35,3.35C273.61,54.74,273.57,55.9,273.57,57.05Z" />
        <path id="s"
            d="M289.39,54c1.1-.94,2-1.72,2.67-2.35s1.27-1.19,1.76-1.71a18.79,18.79,0,0,0,1.33-1.57l1.42-1.87c.55-.72,1.21-1.61,2-2.65s1.8-2.35,3.05-3.91a9.11,9.11,0,0,1,.85-1,6.35,6.35,0,0,1,1-.89,5.36,5.36,0,0,1,1.26-.65,4.65,4.65,0,0,1,1.54-.25,6.12,6.12,0,0,1,2.17.31,2.67,2.67,0,0,1,1.11.75,1.85,1.85,0,0,1,.41.92,6.88,6.88,0,0,1,.06.84,2.94,2.94,0,0,1-.56,1.55,15.93,15.93,0,0,1-1.23,1.64c-.45.53-.87,1-1.27,1.45a3.13,3.13,0,0,0-.69,1,9.4,9.4,0,0,0,.13,1.66,14.76,14.76,0,0,0,.35,1.46c.15.48.3,1,.46,1.52s.3,1.16.45,1.86a22.64,22.64,0,0,1,.35,2.44c.09.91.13,2,.13,3.25a17.77,17.77,0,0,1,2.27-1.28L313,55.27c.88-.41,1.78-.87,2.71-1.37a20.58,20.58,0,0,0,2.8-1.8l0,6.57a28.4,28.4,0,0,1-4.21,2.63,40.25,40.25,0,0,1-5,2.17A37.32,37.32,0,0,1,304,65a25.78,25.78,0,0,1-5.08.54,15.65,15.65,0,0,1-3.23-.32,8.52,8.52,0,0,1-2.62-1,5.62,5.62,0,0,1-1.83-1.8,6.06,6.06,0,0,1-.85-2.7,5.66,5.66,0,0,1-.81.12l-.77,0c-.31,0-.61,0-.88,0a1.41,1.41,0,0,1-.7-.22,1.22,1.22,0,0,1-.47-.62,3.18,3.18,0,0,1-.18-1.21,2.6,2.6,0,0,1,.35-1.31,5.44,5.44,0,0,1,.82-1.06,9.82,9.82,0,0,1,.94-.83C289,54.3,289.24,54.11,289.39,54Zm3.75,3.75a1.13,1.13,0,0,1,.78.44c.28.29.61.61,1,1a6.8,6.8,0,0,0,1.29,1,3.23,3.23,0,0,0,1.67.44,4.21,4.21,0,0,0,1.89-.38,3.18,3.18,0,0,0,1.19-1,3.88,3.88,0,0,0,.61-1.47,8.15,8.15,0,0,0,.18-1.74,14.8,14.8,0,0,0-.1-1.61c-.07-.55-.16-1.07-.27-1.57s-.22-1-.35-1.4-.24-.82-.34-1.13Z" />
        <path id="t"
            d="M340.05,58.67q-2.82,1.63-5,2.87c-1.47.82-2.77,1.5-3.91,2.05a24.93,24.93,0,0,1-3.05,1.23,8.4,8.4,0,0,1-2.42.41,6.12,6.12,0,0,1-3.92-1.35A10.07,10.07,0,0,1,318.9,60a23.9,23.9,0,0,1-1.72-6.14,52.25,52.25,0,0,1-.57-8.11q0-1.77.15-3.75c.09-1.33.23-2.65.41-4-.59-.08-1-.15-1.36-.22l-1-.2c-.36-.07-.82-.15-1.38-.22s-1.36-.18-2.41-.3a2.76,2.76,0,0,1-1.09-.33,1.61,1.61,0,0,1-.55-.59,1.77,1.77,0,0,1-.21-.7q0-.37,0-.63a1,1,0,0,1,.57-.9,4.92,4.92,0,0,1,1.47-.45,13,13,0,0,1,2-.16c.71,0,1.4,0,2.05,0l1.76,0a5.62,5.62,0,0,0,1.07,0,67.16,67.16,0,0,1,2-7.66,42.89,42.89,0,0,1,2.73-6.59,18.12,18.12,0,0,1,3.3-4.63,5.35,5.35,0,0,1,3.75-1.74,4,4,0,0,1,2.29.7,6.18,6.18,0,0,1,1.78,1.88A9.6,9.6,0,0,1,335,18.05a13.41,13.41,0,0,1,.39,3.26,12.3,12.3,0,0,1-.41,3,22.43,22.43,0,0,1-1.11,3.26A33.53,33.53,0,0,1,332.18,31c-.63,1.13-1.3,2.26-2,3.37.17,0,.46,0,.87,0l1.43,0,1.74.07c.62,0,1.23.06,1.81.07l1.65.06,1.26.06a.93.93,0,0,1,.84.59,3.21,3.21,0,0,1,.27,1.4,2.38,2.38,0,0,1-.59,1.67,1.73,1.73,0,0,1-1.29.65H326.92c-.56.78-1.13,1.55-1.71,2.3s-1.11,1.43-1.6,2c-.08,1.22-.14,2.41-.2,3.58,0,.51,0,1-.06,1.57l-.06,1.59c0,.53,0,1,0,1.53s0,.93,0,1.34a10.62,10.62,0,0,0,.29,2.67,4.87,4.87,0,0,0,.85,1.77,3.29,3.29,0,0,0,1.37,1,5.07,5.07,0,0,0,1.8.31,5.21,5.21,0,0,0,1.54-.3,16.48,16.48,0,0,0,2-.8c.73-.34,1.5-.75,2.31-1.22s1.61-1,2.4-1.54,1.55-1.14,2.28-1.75a23.63,23.63,0,0,0,2-1.89Zm-9.38-37.09a6.24,6.24,0,0,0,0-.72,2.67,2.67,0,0,0-.19-.75,1.46,1.46,0,0,0-.46-.59,1.42,1.42,0,0,0-.86-.23c-.51,0-1,.45-1.54,1.35a19.79,19.79,0,0,0-1.49,3.44c-.48,1.4-.93,2.94-1.35,4.61s-.8,3.32-1.16,4.9l.88.1.91.1c.59-1,1.2-2.07,1.83-3.23s1.21-2.31,1.72-3.43.92-2.17,1.26-3.15A7.88,7.88,0,0,0,330.67,21.58Z" />
        <path id="e"
            d="M349,65.23a10.92,10.92,0,0,1-4.82-1,10,10,0,0,1-3.44-2.68,11.22,11.22,0,0,1-2.06-3.9A15.46,15.46,0,0,1,338,53a20.67,20.67,0,0,1,1.3-7.06A18.33,18.33,0,0,1,341,42.6a13.33,13.33,0,0,1,2.32-2.82,10.87,10.87,0,0,1,3-1.93,9.15,9.15,0,0,1,3.68-.72,8.69,8.69,0,0,1,3,.53,7.36,7.36,0,0,1,2.44,1.48,6.55,6.55,0,0,1,1.63,2.3,7.5,7.5,0,0,1,.59,3,8.11,8.11,0,0,1-.9,3.63,13.33,13.33,0,0,1-2.47,3.43,17.66,17.66,0,0,1-3.77,2.87,20.05,20.05,0,0,1-4.73,2,9.17,9.17,0,0,0,.86,1.32,4.09,4.09,0,0,0,.87.82,2.8,2.8,0,0,0,.92.41,4.3,4.3,0,0,0,1,.12,10.94,10.94,0,0,0,3.71-.71A23.54,23.54,0,0,0,357,56.56a33.94,33.94,0,0,0,3.49-2.3,30.48,30.48,0,0,0,2.78-2.36l3.78,3.92a39,39,0,0,1-5.48,4.72c-.84.59-1.74,1.16-2.71,1.73a24,24,0,0,1-3.05,1.51,20.26,20.26,0,0,1-3.31,1A15,15,0,0,1,349,65.23Zm-3.89-13.77a5.84,5.84,0,0,0,2.3-.54,10.1,10.1,0,0,0,2.31-1.4,9.76,9.76,0,0,0,1.8-1.84,3.26,3.26,0,0,0,.73-1.93,4.36,4.36,0,0,0-.48-2.17,1.38,1.38,0,0,0-1.19-.85,4.49,4.49,0,0,0-2.15.47A4.64,4.64,0,0,0,347,44.41a6.32,6.32,0,0,0-1,1.7,12.64,12.64,0,0,0-.56,1.92,16.2,16.2,0,0,0-.25,1.88C345.17,50.51,345.15,51,345.15,51.46Z" />
        <path id="r"
            d="M362.2,59.11c0-.86.05-1.87.14-3s.23-2.35.4-3.62.36-2.56.58-3.88.47-2.57.72-3.76.51-2.29.76-3.28a20.41,20.41,0,0,1,.77-2.46,5.72,5.72,0,0,1,.46-1,2.13,2.13,0,0,1,.55-.6,1.73,1.73,0,0,1,.76-.29,8.37,8.37,0,0,1,2.31,0,.9.9,0,0,1,.63.35,1.51,1.51,0,0,1,.25.8c0,.36.05.83.05,1.44v2.62c0,1,0,2,.05,3H371c.39-.78.83-1.65,1.31-2.62a17.43,17.43,0,0,1,1.7-2.71,10,10,0,0,1,2.2-2.12A4.8,4.8,0,0,1,379,37.1a3.38,3.38,0,0,1,1.09.19,2.75,2.75,0,0,1,.92.55,2.63,2.63,0,0,1,.63.86,2.7,2.7,0,0,1,.23,1.16,10.19,10.19,0,0,1-.14,1.39l-.32,1.87c-.12.66-.23,1.29-.33,1.91a11,11,0,0,0-.14,1.54,6.19,6.19,0,0,0,.2,1.75,3.4,3.4,0,0,0,.54,1.13,1.89,1.89,0,0,0,.77.6,2.25,2.25,0,0,0,.89.18,7,7,0,0,0,2.72-.59,17.31,17.31,0,0,0,2.58-1.32,24,24,0,0,0,2.7-1.93l-.44,6.86-1.73,1.11c-.65.41-1.33.79-2.07,1.16a15,15,0,0,1-2.28.9,8,8,0,0,1-2.42.37,6.34,6.34,0,0,1-3.54-.89,6.45,6.45,0,0,1-2.14-2.35,11.59,11.59,0,0,1-1.17-3.25c-.26-1.2-.46-2.42-.62-3.65h-.47l-5.24,14.62a19.35,19.35,0,0,1-.78,1.89,5.85,5.85,0,0,1-.75,1.22,2.18,2.18,0,0,1-.82.66,2.32,2.32,0,0,1-1,.19,3.35,3.35,0,0,1-1.94-.51,3.46,3.46,0,0,1-1.12-1.38,6.49,6.49,0,0,1-.53-2A18.72,18.72,0,0,1,362.2,59.11Z" />
        <path id="J-2" data-name="J" class="cls-3"
            d="M143.67,72.73a23.23,23.23,0,0,1,1.51-8.07,30.32,30.32,0,0,1,4.29-7.8,32.66,32.66,0,0,1,6.71-6.56,29.5,29.5,0,0,1,8.76-4.38,54.17,54.17,0,0,1-4.66-4.25,36.31,36.31,0,0,1-3.78-4.55A22.9,22.9,0,0,1,154,32.43a12.71,12.71,0,0,1-.92-4.7,23.91,23.91,0,0,1,.66-5.69,23.61,23.61,0,0,1,1.81-5,21.1,21.1,0,0,1,2.74-4.16,18.94,18.94,0,0,1,3.4-3.16,15.4,15.4,0,0,1,3.79-2,11.74,11.74,0,0,1,4-.7,10.39,10.39,0,0,1,5.09,1.34,12.55,12.55,0,0,1,4.35,4.28,24.64,24.64,0,0,1,3,7.59,47.32,47.32,0,0,1,1.15,11.25c0,3.18-.12,6.2-.34,9.07s-.55,5.6-1,8.21c1.19.75,2.4,1.47,3.62,2.17s2.45,1.41,3.7,2.11l.95.56a11.59,11.59,0,0,1,1.12.69A6,6,0,0,1,192,55a1,1,0,0,1,.38.66.85.85,0,0,1-.25.57,4.3,4.3,0,0,1-.58.53,6.26,6.26,0,0,1-.68.42c-.22.12-.39.21-.51.26a2.69,2.69,0,0,1-1.29.27,15.76,15.76,0,0,1-3.85-.65,39,39,0,0,1-4.82-1.72,71,71,0,0,1-3.09,9.91,57.24,57.24,0,0,1-3.94,8.07,40.06,40.06,0,0,1-4.53,6.23A30.37,30.37,0,0,1,164.05,84a19.92,19.92,0,0,1-4.87,2.63,13.47,13.47,0,0,1-4.64.88,10,10,0,0,1-4.29-.93,9.58,9.58,0,0,1-3.44-2.8,13.7,13.7,0,0,1-2.3-4.62A22,22,0,0,1,143.67,72.73Zm7.5,1.87a7.47,7.47,0,0,0,1.16,4.53,3.66,3.66,0,0,0,3.06,1.54,8,8,0,0,0,4.38-1.7,20.55,20.55,0,0,0,4.91-5.26,47.67,47.67,0,0,0,4.7-9,73.92,73.92,0,0,0,3.79-13L172.09,51a20.25,20.25,0,0,0-5.7,2,27.53,27.53,0,0,0-5,3.44,31,31,0,0,0-4.2,4.38,35.39,35.39,0,0,0-3.21,4.82,25.7,25.7,0,0,0-2.05,4.76A14.35,14.35,0,0,0,151.17,74.6Zm9.38-48.75a11.43,11.43,0,0,0,1,4.66,20.91,20.91,0,0,0,2.87,4.59,37,37,0,0,0,4.4,4.49,68.68,68.68,0,0,0,5.62,4.4c.33-2.72.6-5.57.79-8.57s.3-6.19.3-9.57a33.19,33.19,0,0,0-.44-5.84,14.89,14.89,0,0,0-1.19-3.88A5.3,5.3,0,0,0,172.16,14a3.81,3.81,0,0,0-2.12-.66,5.14,5.14,0,0,0-2.2.53,9.78,9.78,0,0,0-2.17,1.45,15.31,15.31,0,0,0-2,2.15,16.17,16.17,0,0,0-1.62,2.63,15.59,15.59,0,0,0-1.1,2.87A10.59,10.59,0,0,0,160.55,25.85Z" />
        <path id="H-2" data-name="H" class="cls-3"
            d="M236.66,43.26q-1,3.6-1.64,6.72a28.54,28.54,0,0,0-.62,5.4,5.12,5.12,0,0,0,.84,3.12A3.2,3.2,0,0,0,238,59.63a4.82,4.82,0,0,0,1.76-.42,13.51,13.51,0,0,0,2.34-1.34,29.81,29.81,0,0,0,2.94-2.34c1.09-1,2.29-2.1,3.62-3.43.06.12.18.39.35.82s.38.94.66,1.69.68,1.78,1.19,3.09a44.16,44.16,0,0,1-4.41,4.07,35,35,0,0,1-4.31,2.95,20.59,20.59,0,0,1-4,1.78,11.93,11.93,0,0,1-3.53.6,8.51,8.51,0,0,1-3.43-.69,7.58,7.58,0,0,1-2.74-2,9.78,9.78,0,0,1-1.83-3.24,13.17,13.17,0,0,1-.67-4.38,17.55,17.55,0,0,1,.17-2.14c.12-.86.29-1.83.52-2.93s.49-2.29.82-3.59.67-2.67,1.07-4.11l-7.53.76c-2.41.23-4.8.46-7.18.67q-.83,2.46-1.63,4.82c-.54,1.57-1.05,3-1.55,4.43l-1.38,3.78c-.42,1.14-.77,2.11-1.07,2.91a14.51,14.51,0,0,1-2.79,4.39,3.84,3.84,0,0,1-2.45,1.29,4.08,4.08,0,0,1-1.38-.23,3.91,3.91,0,0,1-1.2-.67,3.28,3.28,0,0,1-.83-1.06,3,3,0,0,1-.31-1.38,3.37,3.37,0,0,1,.12-.9q1.23-4.48,2.68-8.66T205,46a18.24,18.24,0,0,1-3.09-.25,10.08,10.08,0,0,1-2.74-.86,7.35,7.35,0,0,1-2.24-1.7,8.69,8.69,0,0,1-1.63-2.76c-.07-.35-.14-.66-.19-.94a4.47,4.47,0,0,1-.07-.82c0-.85.3-1.28.91-1.28a2,2,0,0,1,1.23.6,17.63,17.63,0,0,1,1.73,1.91l2.75-.08c.92,0,1.9,0,3,0h2.81c.71-1.82,1.37-3.57,2-5.26s1.22-3.35,1.77-5a25.17,25.17,0,0,0,.79-3.1,15.64,15.64,0,0,0,.3-3,9.93,9.93,0,0,0-.21-2.11,4.52,4.52,0,0,0-.67-1.64,3.49,3.49,0,0,0-1.2-1.06,4,4,0,0,0-1.82-.38,8.24,8.24,0,0,0-2,.3,14.15,14.15,0,0,0-2.56,1,24.91,24.91,0,0,0-3.06,1.73A37.89,37.89,0,0,0,197.11,24a5.19,5.19,0,0,1-1.25.79,2.66,2.66,0,0,1-1,.23c-.15,0-.27-.26-.35-.77a12.92,12.92,0,0,1-.12-1.92,6.17,6.17,0,0,1,.72-2.9A10,10,0,0,1,197,16.87a16.28,16.28,0,0,1,2.77-2.11A22,22,0,0,1,203,13.15a21.11,21.11,0,0,1,3.3-1,14.75,14.75,0,0,1,3-.35,13.76,13.76,0,0,1,3.92.56,8.8,8.8,0,0,1,3.3,1.78,8.48,8.48,0,0,1,2.25,3.2,12.12,12.12,0,0,1,.84,4.77,20.28,20.28,0,0,1-.31,3.23c-.2,1.27-.48,2.66-.83,4.17s-.77,3.13-1.25,4.83-1,3.46-1.54,5.23q3-.2,6.8-.41l7.59-.41q1.49-4.89,3.29-10.12t3.83-10.27A7.13,7.13,0,0,1,239,15.69a3.71,3.71,0,0,1,2.59-1,3.94,3.94,0,0,1,1.19.18,2.67,2.67,0,0,1,1,.54,2.56,2.56,0,0,1,.69.94,3.39,3.39,0,0,1,.25,1.33c0,.45,0,1-.09,1.57a8.11,8.11,0,0,1-.47,1.92l-1.44,3.88c-.5,1.37-1,2.79-1.53,4.25s-1,2.94-1.56,4.46-1,3-1.48,4.54c1.23-.07,2.31-.15,3.23-.22s1.61-.12,2.08-.16l.6,0,.51,0A4.59,4.59,0,0,1,246,38a2,2,0,0,1,.85.5,1.69,1.69,0,0,1,.43.76,4.31,4.31,0,0,1,.11,1,1.8,1.8,0,0,1-.26,1,2.08,2.08,0,0,1-.66.66,2.62,2.62,0,0,1-.83.35,4.43,4.43,0,0,1-.83.13l-1.17.14-.5,0-.19,0-.22,0-.61,0-1.35.11-2.06.21Z" />
        <path id="i-2" data-name="i" class="cls-3"
            d="M267.39,59a26.45,26.45,0,0,1-2.62,2.06,26,26,0,0,1-3.38,2,25.74,25.74,0,0,1-3.71,1.54,11.64,11.64,0,0,1-3.59.62,6.65,6.65,0,0,1-2.56-.43,4.19,4.19,0,0,1-1.69-1.18,4.64,4.64,0,0,1-.92-1.86,9.68,9.68,0,0,1-.28-2.42,24.83,24.83,0,0,1,.43-4.29q.42-2.44,1-5.07t1.3-5.23c.46-1.74.86-3.34,1.22-4.81a2.59,2.59,0,0,1,.82-1.3,5.38,5.38,0,0,1,1.39-.88,8.12,8.12,0,0,1,1.61-.5A8.73,8.73,0,0,1,258,37.1a2.28,2.28,0,0,1,1.67.46,1.68,1.68,0,0,1,.44,1.21,8.44,8.44,0,0,1-.3,1.86c-.19.81-.43,1.73-.73,2.76s-.6,2.13-.94,3.31-.64,2.36-.93,3.54-.54,2.34-.73,3.46a17.4,17.4,0,0,0-.3,3,6,6,0,0,0,.3,2.1,1.15,1.15,0,0,0,1.2.77,4.81,4.81,0,0,0,2.34-.73,21.49,21.49,0,0,0,2.61-1.77q1.32-1,2.58-2.16c.83-.74,1.58-1.37,2.22-1.9ZM254.3,28.87a4.55,4.55,0,0,1,.29-1.52,4.65,4.65,0,0,1,.95-1.6,5.27,5.27,0,0,1,1.76-1.26A6.48,6.48,0,0,1,260,24a8,8,0,0,1,1.93.23,4.78,4.78,0,0,1,1.58.72,3.4,3.4,0,0,1,1.07,1.27,4.1,4.1,0,0,1,.4,1.88A6,6,0,0,1,264.7,30a4.46,4.46,0,0,1-1,1.67,5.25,5.25,0,0,1-1.77,1.19,6.59,6.59,0,0,1-2.56.45,5.23,5.23,0,0,1-3.81-1.21A4.35,4.35,0,0,1,254.3,28.87Z" />
        <path id="p-2" data-name="p" class="cls-3"
            d="M277.27,60a23.14,23.14,0,0,0,5.39-.58,20.35,20.35,0,0,0,4.4-1.58,19,19,0,0,0,3.58-2.33,22.9,22.9,0,0,0,2.88-2.86l.33,6.71a15.43,15.43,0,0,1-2.27,2.21,17.15,17.15,0,0,1-2.92,1.88,18,18,0,0,1-3.32,1.28,12.61,12.61,0,0,1-3.45.49,2.86,2.86,0,0,1-.51-.06L280.31,65l-2.18-.39c-.95-.17-2.23-.37-3.85-.6v.53a47.93,47.93,0,0,1-.9,9.68A31.83,31.83,0,0,1,271,81.61a14.58,14.58,0,0,1-3.43,4.74,6.12,6.12,0,0,1-4,1.67,4.54,4.54,0,0,1-2.78-.82A5.75,5.75,0,0,1,259,85a11.72,11.72,0,0,1-.94-3.25,27.47,27.47,0,0,1-.28-3.94,11.35,11.35,0,0,1,.38-2.71,28.31,28.31,0,0,1,1-3.17c.43-1.1.91-2.22,1.45-3.37s1.09-2.25,1.65-3.32q2-3.75,4.55-7.74c.21-1.52.43-3.08.65-4.68s.51-3.16.85-4.66a33.44,33.44,0,0,1,1.29-4.28,12.47,12.47,0,0,1,2-3.51A9.16,9.16,0,0,1,274.54,38a8.9,8.9,0,0,1,4.1-.88,10.92,10.92,0,0,1,3.34.49,7,7,0,0,1,2.73,1.56,7.55,7.55,0,0,1,1.84,2.8,11.53,11.53,0,0,1,.68,4.21,12.79,12.79,0,0,1-.59,3.85,12.17,12.17,0,0,1-1.83,3.56,16.37,16.37,0,0,1-3.16,3.18,22.42,22.42,0,0,1-4.56,2.65ZM263.38,78.15a4.34,4.34,0,0,0,.1.76,4.76,4.76,0,0,0,.34,1,3.17,3.17,0,0,0,.61.94,1.22,1.22,0,0,0,.94.41.94.94,0,0,0,.82-.54,5,5,0,0,0,.53-1.45,15.8,15.8,0,0,0,.29-2q.09-1.14.15-2.34c0-.81.06-1.59.07-2.35s0-1.44.07-2c.06-1,.11-2,.14-2.68s.05-1.34.07-1.83,0-1,.06-1.38a21.39,21.39,0,0,0-1.09,2.24c-.35.85-.68,1.74-1,2.65s-.6,1.84-.85,2.76-.48,1.77-.66,2.56-.33,1.48-.44,2.05A7.44,7.44,0,0,0,263.38,78.15Zm10.19-21.1a14.74,14.74,0,0,0,3-2,13.94,13.94,0,0,0,2.19-2.31,12.85,12.85,0,0,0,1.51-2.55,16.62,16.62,0,0,0,.94-2.7,8.73,8.73,0,0,0,.19-1.51,4.81,4.81,0,0,0-.18-1.62,3,3,0,0,0-.76-1.31,2,2,0,0,0-1.51-.54,3.14,3.14,0,0,0-1.9.6,5.29,5.29,0,0,0-1.42,1.63,10.51,10.51,0,0,0-1,2.43,25,25,0,0,0-.64,3,31.86,31.86,0,0,0-.35,3.35C273.61,54.74,273.57,55.9,273.57,57.05Z" />
        <path id="s-2" data-name="s" class="cls-3"
            d="M289.39,54c1.1-.94,2-1.72,2.67-2.35s1.27-1.19,1.76-1.71a18.79,18.79,0,0,0,1.33-1.57l1.42-1.87c.55-.72,1.21-1.61,2-2.65s1.8-2.35,3.05-3.91a9.11,9.11,0,0,1,.85-1,6.35,6.35,0,0,1,1-.89,5.36,5.36,0,0,1,1.26-.65,4.65,4.65,0,0,1,1.54-.25,6.12,6.12,0,0,1,2.17.31,2.67,2.67,0,0,1,1.11.75,1.85,1.85,0,0,1,.41.92,6.88,6.88,0,0,1,.06.84,2.94,2.94,0,0,1-.56,1.55,15.93,15.93,0,0,1-1.23,1.64c-.45.53-.87,1-1.27,1.45a3.13,3.13,0,0,0-.69,1,9.4,9.4,0,0,0,.13,1.66,14.76,14.76,0,0,0,.35,1.46c.15.48.3,1,.46,1.52s.3,1.16.45,1.86a22.64,22.64,0,0,1,.35,2.44c.09.91.13,2,.13,3.25a17.77,17.77,0,0,1,2.27-1.28L313,55.27c.88-.41,1.78-.87,2.71-1.37a20.58,20.58,0,0,0,2.8-1.8l0,6.57a28.4,28.4,0,0,1-4.21,2.63,40.25,40.25,0,0,1-5,2.17A37.32,37.32,0,0,1,304,65a25.78,25.78,0,0,1-5.08.54,15.65,15.65,0,0,1-3.23-.32,8.52,8.52,0,0,1-2.62-1,5.62,5.62,0,0,1-1.83-1.8,6.06,6.06,0,0,1-.85-2.7,5.66,5.66,0,0,1-.81.12l-.77,0c-.31,0-.61,0-.88,0a1.41,1.41,0,0,1-.7-.22,1.22,1.22,0,0,1-.47-.62,3.18,3.18,0,0,1-.18-1.21,2.6,2.6,0,0,1,.35-1.31,5.44,5.44,0,0,1,.82-1.06,9.82,9.82,0,0,1,.94-.83C289,54.3,289.24,54.11,289.39,54Zm3.75,3.75a1.13,1.13,0,0,1,.78.44c.28.29.61.61,1,1a6.8,6.8,0,0,0,1.29,1,3.23,3.23,0,0,0,1.67.44,4.21,4.21,0,0,0,1.89-.38,3.18,3.18,0,0,0,1.19-1,3.88,3.88,0,0,0,.61-1.47,8.15,8.15,0,0,0,.18-1.74,14.8,14.8,0,0,0-.1-1.61c-.07-.55-.16-1.07-.27-1.57s-.22-1-.35-1.4-.24-.82-.34-1.13Z" />
        <path id="t-2" data-name="t" class="cls-3"
            d="M340.05,58.67q-2.82,1.63-5,2.87c-1.47.82-2.77,1.5-3.91,2.05a24.93,24.93,0,0,1-3.05,1.23,8.4,8.4,0,0,1-2.42.41,6.12,6.12,0,0,1-3.92-1.35A10.07,10.07,0,0,1,318.9,60a23.9,23.9,0,0,1-1.72-6.14,52.25,52.25,0,0,1-.57-8.11q0-1.77.15-3.75c.09-1.33.23-2.65.41-4-.59-.08-1-.15-1.36-.22l-1-.2c-.36-.07-.82-.15-1.38-.22s-1.36-.18-2.41-.3a2.76,2.76,0,0,1-1.09-.33,1.61,1.61,0,0,1-.55-.59,1.77,1.77,0,0,1-.21-.7q0-.37,0-.63a1,1,0,0,1,.57-.9,4.92,4.92,0,0,1,1.47-.45,13,13,0,0,1,2-.16c.71,0,1.4,0,2.05,0l1.76,0a5.62,5.62,0,0,0,1.07,0,67.16,67.16,0,0,1,2-7.66,42.89,42.89,0,0,1,2.73-6.59,18.12,18.12,0,0,1,3.3-4.63,5.35,5.35,0,0,1,3.75-1.74,4,4,0,0,1,2.29.7,6.18,6.18,0,0,1,1.78,1.88A9.6,9.6,0,0,1,335,18.05a13.41,13.41,0,0,1,.39,3.26,12.3,12.3,0,0,1-.41,3,22.43,22.43,0,0,1-1.11,3.26A33.53,33.53,0,0,1,332.18,31c-.63,1.13-1.3,2.26-2,3.37.17,0,.46,0,.87,0l1.43,0,1.74.07c.62,0,1.23.06,1.81.07l1.65.06,1.26.06a.93.93,0,0,1,.84.59,3.21,3.21,0,0,1,.27,1.4,2.38,2.38,0,0,1-.59,1.67,1.73,1.73,0,0,1-1.29.65H326.92c-.56.78-1.13,1.55-1.71,2.3s-1.11,1.43-1.6,2c-.08,1.22-.14,2.41-.2,3.58,0,.51,0,1-.06,1.57l-.06,1.59c0,.53,0,1,0,1.53s0,.93,0,1.34a10.62,10.62,0,0,0,.29,2.67,4.87,4.87,0,0,0,.85,1.77,3.29,3.29,0,0,0,1.37,1,5.07,5.07,0,0,0,1.8.31,5.21,5.21,0,0,0,1.54-.3,16.48,16.48,0,0,0,2-.8c.73-.34,1.5-.75,2.31-1.22s1.61-1,2.4-1.54,1.55-1.14,2.28-1.75a23.63,23.63,0,0,0,2-1.89Zm-9.38-37.09a6.24,6.24,0,0,0,0-.72,2.67,2.67,0,0,0-.19-.75,1.46,1.46,0,0,0-.46-.59,1.42,1.42,0,0,0-.86-.23c-.51,0-1,.45-1.54,1.35a19.79,19.79,0,0,0-1.49,3.44c-.48,1.4-.93,2.94-1.35,4.61s-.8,3.32-1.16,4.9l.88.1.91.1c.59-1,1.2-2.07,1.83-3.23s1.21-2.31,1.72-3.43.92-2.17,1.26-3.15A7.88,7.88,0,0,0,330.67,21.58Z" />
        <path id="e-2" data-name="e" class="cls-3"
            d="M349,65.23a10.92,10.92,0,0,1-4.82-1,10,10,0,0,1-3.44-2.68,11.22,11.22,0,0,1-2.06-3.9A15.46,15.46,0,0,1,338,53a20.67,20.67,0,0,1,1.3-7.06A18.33,18.33,0,0,1,341,42.6a13.33,13.33,0,0,1,2.32-2.82,10.87,10.87,0,0,1,3-1.93,9.15,9.15,0,0,1,3.68-.72,8.69,8.69,0,0,1,3,.53,7.36,7.36,0,0,1,2.44,1.48,6.55,6.55,0,0,1,1.63,2.3,7.5,7.5,0,0,1,.59,3,8.11,8.11,0,0,1-.9,3.63,13.33,13.33,0,0,1-2.47,3.43,17.66,17.66,0,0,1-3.77,2.87,20.05,20.05,0,0,1-4.73,2,9.17,9.17,0,0,0,.86,1.32,4.09,4.09,0,0,0,.87.82,2.8,2.8,0,0,0,.92.41,4.3,4.3,0,0,0,1,.12,10.94,10.94,0,0,0,3.71-.71A23.54,23.54,0,0,0,357,56.56a33.94,33.94,0,0,0,3.49-2.3,30.48,30.48,0,0,0,2.78-2.36l3.78,3.92a39,39,0,0,1-5.48,4.72c-.84.59-1.74,1.16-2.71,1.73a24,24,0,0,1-3.05,1.51,20.26,20.26,0,0,1-3.31,1A15,15,0,0,1,349,65.23Zm-3.89-13.77a5.84,5.84,0,0,0,2.3-.54,10.1,10.1,0,0,0,2.31-1.4,9.76,9.76,0,0,0,1.8-1.84,3.26,3.26,0,0,0,.73-1.93,4.36,4.36,0,0,0-.48-2.17,1.38,1.38,0,0,0-1.19-.85,4.49,4.49,0,0,0-2.15.47A4.64,4.64,0,0,0,347,44.41a6.32,6.32,0,0,0-1,1.7,12.64,12.64,0,0,0-.56,1.92,16.2,16.2,0,0,0-.25,1.88C345.17,50.51,345.15,51,345.15,51.46Z" />
        <path id="r-2" data-name="r" class="cls-3"
            d="M362.2,59.11c0-.86.05-1.87.14-3s.23-2.35.4-3.62.36-2.56.58-3.88.47-2.57.72-3.76.51-2.29.76-3.28a20.41,20.41,0,0,1,.77-2.46,5.72,5.72,0,0,1,.46-1,2.13,2.13,0,0,1,.55-.6,1.73,1.73,0,0,1,.76-.29,8.37,8.37,0,0,1,2.31,0,.9.9,0,0,1,.63.35,1.51,1.51,0,0,1,.25.8c0,.36.05.83.05,1.44v2.62c0,1,0,2,.05,3H371c.39-.78.83-1.65,1.31-2.62a17.43,17.43,0,0,1,1.7-2.71,10,10,0,0,1,2.2-2.12A4.8,4.8,0,0,1,379,37.1a3.38,3.38,0,0,1,1.09.19,2.75,2.75,0,0,1,.92.55,2.63,2.63,0,0,1,.63.86,2.7,2.7,0,0,1,.23,1.16,10.19,10.19,0,0,1-.14,1.39l-.32,1.87c-.12.66-.23,1.29-.33,1.91a11,11,0,0,0-.14,1.54,6.19,6.19,0,0,0,.2,1.75,3.4,3.4,0,0,0,.54,1.13,1.89,1.89,0,0,0,.77.6,2.25,2.25,0,0,0,.89.18,7,7,0,0,0,2.72-.59,17.31,17.31,0,0,0,2.58-1.32,24,24,0,0,0,2.7-1.93l-.44,6.86-1.73,1.11c-.65.41-1.33.79-2.07,1.16a15,15,0,0,1-2.28.9,8,8,0,0,1-2.42.37,6.34,6.34,0,0,1-3.54-.89,6.45,6.45,0,0,1-2.14-2.35,11.59,11.59,0,0,1-1.17-3.25c-.26-1.2-.46-2.42-.62-3.65h-.47l-5.24,14.62a19.35,19.35,0,0,1-.78,1.89,5.85,5.85,0,0,1-.75,1.22,2.18,2.18,0,0,1-.82.66,2.32,2.32,0,0,1-1,.19,3.35,3.35,0,0,1-1.94-.51,3.46,3.46,0,0,1-1.12-1.38,6.49,6.49,0,0,1-.53-2A18.72,18.72,0,0,1,362.2,59.11Z" />
        <path id="J-3" data-name="J" class="cls-4"
            d="M143.67,72.73a23.23,23.23,0,0,1,1.51-8.07,30.32,30.32,0,0,1,4.29-7.8,32.66,32.66,0,0,1,6.71-6.56,29.5,29.5,0,0,1,8.76-4.38,54.17,54.17,0,0,1-4.66-4.25,36.31,36.31,0,0,1-3.78-4.55A22.9,22.9,0,0,1,154,32.43a12.71,12.71,0,0,1-.92-4.7,23.91,23.91,0,0,1,.66-5.69,23.61,23.61,0,0,1,1.81-5,21.1,21.1,0,0,1,2.74-4.16,18.94,18.94,0,0,1,3.4-3.16,15.4,15.4,0,0,1,3.79-2,11.74,11.74,0,0,1,4-.7,10.39,10.39,0,0,1,5.09,1.34,12.55,12.55,0,0,1,4.35,4.28,24.64,24.64,0,0,1,3,7.59,47.32,47.32,0,0,1,1.15,11.25c0,3.18-.12,6.2-.34,9.07s-.55,5.6-1,8.21c1.19.75,2.4,1.47,3.62,2.17s2.45,1.41,3.7,2.11l.95.56a11.59,11.59,0,0,1,1.12.69A6,6,0,0,1,192,55a1,1,0,0,1,.38.66.85.85,0,0,1-.25.57,4.3,4.3,0,0,1-.58.53,6.26,6.26,0,0,1-.68.42c-.22.12-.39.21-.51.26a2.69,2.69,0,0,1-1.29.27,15.76,15.76,0,0,1-3.85-.65,39,39,0,0,1-4.82-1.72,71,71,0,0,1-3.09,9.91,57.24,57.24,0,0,1-3.94,8.07,40.06,40.06,0,0,1-4.53,6.23A30.37,30.37,0,0,1,164.05,84a19.92,19.92,0,0,1-4.87,2.63,13.47,13.47,0,0,1-4.64.88,10,10,0,0,1-4.29-.93,9.58,9.58,0,0,1-3.44-2.8,13.7,13.7,0,0,1-2.3-4.62A22,22,0,0,1,143.67,72.73Zm7.5,1.87a7.47,7.47,0,0,0,1.16,4.53,3.66,3.66,0,0,0,3.06,1.54,8,8,0,0,0,4.38-1.7,20.55,20.55,0,0,0,4.91-5.26,47.67,47.67,0,0,0,4.7-9,73.92,73.92,0,0,0,3.79-13L172.09,51a20.25,20.25,0,0,0-5.7,2,27.53,27.53,0,0,0-5,3.44,31,31,0,0,0-4.2,4.38,35.39,35.39,0,0,0-3.21,4.82,25.7,25.7,0,0,0-2.05,4.76A14.35,14.35,0,0,0,151.17,74.6Zm9.38-48.75a11.43,11.43,0,0,0,1,4.66,20.91,20.91,0,0,0,2.87,4.59,37,37,0,0,0,4.4,4.49,68.68,68.68,0,0,0,5.62,4.4c.33-2.72.6-5.57.79-8.57s.3-6.19.3-9.57a33.19,33.19,0,0,0-.44-5.84,14.89,14.89,0,0,0-1.19-3.88A5.3,5.3,0,0,0,172.16,14a3.81,3.81,0,0,0-2.12-.66,5.14,5.14,0,0,0-2.2.53,9.78,9.78,0,0,0-2.17,1.45,15.31,15.31,0,0,0-2,2.15,16.17,16.17,0,0,0-1.62,2.63,15.59,15.59,0,0,0-1.1,2.87A10.59,10.59,0,0,0,160.55,25.85Z" />
        <path id="H-3" data-name="H" class="cls-4"
            d="M236.66,43.26q-1,3.6-1.64,6.72a28.54,28.54,0,0,0-.62,5.4,5.12,5.12,0,0,0,.84,3.12A3.2,3.2,0,0,0,238,59.63a4.82,4.82,0,0,0,1.76-.42,13.51,13.51,0,0,0,2.34-1.34,29.81,29.81,0,0,0,2.94-2.34c1.09-1,2.29-2.1,3.62-3.43.06.12.18.39.35.82s.38.94.66,1.69.68,1.78,1.19,3.09a44.16,44.16,0,0,1-4.41,4.07,35,35,0,0,1-4.31,2.95,20.59,20.59,0,0,1-4,1.78,11.93,11.93,0,0,1-3.53.6,8.51,8.51,0,0,1-3.43-.69,7.58,7.58,0,0,1-2.74-2,9.78,9.78,0,0,1-1.83-3.24,13.17,13.17,0,0,1-.67-4.38,17.55,17.55,0,0,1,.17-2.14c.12-.86.29-1.83.52-2.93s.49-2.29.82-3.59.67-2.67,1.07-4.11l-7.53.76c-2.41.23-4.8.46-7.18.67q-.83,2.46-1.63,4.82c-.54,1.57-1.05,3-1.55,4.43l-1.38,3.78c-.42,1.14-.77,2.11-1.07,2.91a14.51,14.51,0,0,1-2.79,4.39,3.84,3.84,0,0,1-2.45,1.29,4.08,4.08,0,0,1-1.38-.23,3.91,3.91,0,0,1-1.2-.67,3.28,3.28,0,0,1-.83-1.06,3,3,0,0,1-.31-1.38,3.37,3.37,0,0,1,.12-.9q1.23-4.48,2.68-8.66T205,46a18.24,18.24,0,0,1-3.09-.25,10.08,10.08,0,0,1-2.74-.86,7.35,7.35,0,0,1-2.24-1.7,8.69,8.69,0,0,1-1.63-2.76c-.07-.35-.14-.66-.19-.94a4.47,4.47,0,0,1-.07-.82c0-.85.3-1.28.91-1.28a2,2,0,0,1,1.23.6,17.63,17.63,0,0,1,1.73,1.91l2.75-.08c.92,0,1.9,0,3,0h2.81c.71-1.82,1.37-3.57,2-5.26s1.22-3.35,1.77-5a25.17,25.17,0,0,0,.79-3.1,15.64,15.64,0,0,0,.3-3,9.93,9.93,0,0,0-.21-2.11,4.52,4.52,0,0,0-.67-1.64,3.49,3.49,0,0,0-1.2-1.06,4,4,0,0,0-1.82-.38,8.24,8.24,0,0,0-2,.3,14.15,14.15,0,0,0-2.56,1,24.91,24.91,0,0,0-3.06,1.73A37.89,37.89,0,0,0,197.11,24a5.19,5.19,0,0,1-1.25.79,2.66,2.66,0,0,1-1,.23c-.15,0-.27-.26-.35-.77a12.92,12.92,0,0,1-.12-1.92,6.17,6.17,0,0,1,.72-2.9A10,10,0,0,1,197,16.87a16.28,16.28,0,0,1,2.77-2.11A22,22,0,0,1,203,13.15a21.11,21.11,0,0,1,3.3-1,14.75,14.75,0,0,1,3-.35,13.76,13.76,0,0,1,3.92.56,8.8,8.8,0,0,1,3.3,1.78,8.48,8.48,0,0,1,2.25,3.2,12.12,12.12,0,0,1,.84,4.77,20.28,20.28,0,0,1-.31,3.23c-.2,1.27-.48,2.66-.83,4.17s-.77,3.13-1.25,4.83-1,3.46-1.54,5.23q3-.2,6.8-.41l7.59-.41q1.49-4.89,3.29-10.12t3.83-10.27A7.13,7.13,0,0,1,239,15.69a3.71,3.71,0,0,1,2.59-1,3.94,3.94,0,0,1,1.19.18,2.67,2.67,0,0,1,1,.54,2.56,2.56,0,0,1,.69.94,3.39,3.39,0,0,1,.25,1.33c0,.45,0,1-.09,1.57a8.11,8.11,0,0,1-.47,1.92l-1.44,3.88c-.5,1.37-1,2.79-1.53,4.25s-1,2.94-1.56,4.46-1,3-1.48,4.54c1.23-.07,2.31-.15,3.23-.22s1.61-.12,2.08-.16l.6,0,.51,0A4.59,4.59,0,0,1,246,38a2,2,0,0,1,.85.5,1.69,1.69,0,0,1,.43.76,4.31,4.31,0,0,1,.11,1,1.8,1.8,0,0,1-.26,1,2.08,2.08,0,0,1-.66.66,2.62,2.62,0,0,1-.83.35,4.43,4.43,0,0,1-.83.13l-1.17.14-.5,0-.19,0-.22,0-.61,0-1.35.11-2.06.21Z" />
        <path id="i-3" data-name="i" class="cls-4"
            d="M267.39,59a26.45,26.45,0,0,1-2.62,2.06,26,26,0,0,1-3.38,2,25.74,25.74,0,0,1-3.71,1.54,11.64,11.64,0,0,1-3.59.62,6.65,6.65,0,0,1-2.56-.43,4.19,4.19,0,0,1-1.69-1.18,4.64,4.64,0,0,1-.92-1.86,9.68,9.68,0,0,1-.28-2.42,24.83,24.83,0,0,1,.43-4.29q.42-2.44,1-5.07t1.3-5.23c.46-1.74.86-3.34,1.22-4.81a2.59,2.59,0,0,1,.82-1.3,5.38,5.38,0,0,1,1.39-.88,8.12,8.12,0,0,1,1.61-.5A8.73,8.73,0,0,1,258,37.1a2.28,2.28,0,0,1,1.67.46,1.68,1.68,0,0,1,.44,1.21,8.44,8.44,0,0,1-.3,1.86c-.19.81-.43,1.73-.73,2.76s-.6,2.13-.94,3.31-.64,2.36-.93,3.54-.54,2.34-.73,3.46a17.4,17.4,0,0,0-.3,3,6,6,0,0,0,.3,2.1,1.15,1.15,0,0,0,1.2.77,4.81,4.81,0,0,0,2.34-.73,21.49,21.49,0,0,0,2.61-1.77q1.32-1,2.58-2.16c.83-.74,1.58-1.37,2.22-1.9ZM254.3,28.87a4.55,4.55,0,0,1,.29-1.52,4.65,4.65,0,0,1,.95-1.6,5.27,5.27,0,0,1,1.76-1.26A6.48,6.48,0,0,1,260,24a8,8,0,0,1,1.93.23,4.78,4.78,0,0,1,1.58.72,3.4,3.4,0,0,1,1.07,1.27,4.1,4.1,0,0,1,.4,1.88A6,6,0,0,1,264.7,30a4.46,4.46,0,0,1-1,1.67,5.25,5.25,0,0,1-1.77,1.19,6.59,6.59,0,0,1-2.56.45,5.23,5.23,0,0,1-3.81-1.21A4.35,4.35,0,0,1,254.3,28.87Z" />
        <path id="p-3" data-name="p" class="cls-4"
            d="M277.27,60a23.14,23.14,0,0,0,5.39-.58,20.35,20.35,0,0,0,4.4-1.58,19,19,0,0,0,3.58-2.33,22.9,22.9,0,0,0,2.88-2.86l.33,6.71a15.43,15.43,0,0,1-2.27,2.21,17.15,17.15,0,0,1-2.92,1.88,18,18,0,0,1-3.32,1.28,12.61,12.61,0,0,1-3.45.49,2.86,2.86,0,0,1-.51-.06L280.31,65l-2.18-.39c-.95-.17-2.23-.37-3.85-.6v.53a47.93,47.93,0,0,1-.9,9.68A31.83,31.83,0,0,1,271,81.61a14.58,14.58,0,0,1-3.43,4.74,6.12,6.12,0,0,1-4,1.67,4.54,4.54,0,0,1-2.78-.82A5.75,5.75,0,0,1,259,85a11.72,11.72,0,0,1-.94-3.25,27.47,27.47,0,0,1-.28-3.94,11.35,11.35,0,0,1,.38-2.71,28.31,28.31,0,0,1,1-3.17c.43-1.1.91-2.22,1.45-3.37s1.09-2.25,1.65-3.32q2-3.75,4.55-7.74c.21-1.52.43-3.08.65-4.68s.51-3.16.85-4.66a33.44,33.44,0,0,1,1.29-4.28,12.47,12.47,0,0,1,2-3.51A9.16,9.16,0,0,1,274.54,38a8.9,8.9,0,0,1,4.1-.88,10.92,10.92,0,0,1,3.34.49,7,7,0,0,1,2.73,1.56,7.55,7.55,0,0,1,1.84,2.8,11.53,11.53,0,0,1,.68,4.21,12.79,12.79,0,0,1-.59,3.85,12.17,12.17,0,0,1-1.83,3.56,16.37,16.37,0,0,1-3.16,3.18,22.42,22.42,0,0,1-4.56,2.65ZM263.38,78.15a4.34,4.34,0,0,0,.1.76,4.76,4.76,0,0,0,.34,1,3.17,3.17,0,0,0,.61.94,1.22,1.22,0,0,0,.94.41.94.94,0,0,0,.82-.54,5,5,0,0,0,.53-1.45,15.8,15.8,0,0,0,.29-2q.09-1.14.15-2.34c0-.81.06-1.59.07-2.35s0-1.44.07-2c.06-1,.11-2,.14-2.68s.05-1.34.07-1.83,0-1,.06-1.38a21.39,21.39,0,0,0-1.09,2.24c-.35.85-.68,1.74-1,2.65s-.6,1.84-.85,2.76-.48,1.77-.66,2.56-.33,1.48-.44,2.05A7.44,7.44,0,0,0,263.38,78.15Zm10.19-21.1a14.74,14.74,0,0,0,3-2,13.94,13.94,0,0,0,2.19-2.31,12.85,12.85,0,0,0,1.51-2.55,16.62,16.62,0,0,0,.94-2.7,8.73,8.73,0,0,0,.19-1.51,4.81,4.81,0,0,0-.18-1.62,3,3,0,0,0-.76-1.31,2,2,0,0,0-1.51-.54,3.14,3.14,0,0,0-1.9.6,5.29,5.29,0,0,0-1.42,1.63,10.51,10.51,0,0,0-1,2.43,25,25,0,0,0-.64,3,31.86,31.86,0,0,0-.35,3.35C273.61,54.74,273.57,55.9,273.57,57.05Z" />
        <path id="s-3" data-name="s" class="cls-4"
            d="M289.39,54c1.1-.94,2-1.72,2.67-2.35s1.27-1.19,1.76-1.71a18.79,18.79,0,0,0,1.33-1.57l1.42-1.87c.55-.72,1.21-1.61,2-2.65s1.8-2.35,3.05-3.91a9.11,9.11,0,0,1,.85-1,6.35,6.35,0,0,1,1-.89,5.36,5.36,0,0,1,1.26-.65,4.65,4.65,0,0,1,1.54-.25,6.12,6.12,0,0,1,2.17.31,2.67,2.67,0,0,1,1.11.75,1.85,1.85,0,0,1,.41.92,6.88,6.88,0,0,1,.06.84,2.94,2.94,0,0,1-.56,1.55,15.93,15.93,0,0,1-1.23,1.64c-.45.53-.87,1-1.27,1.45a3.13,3.13,0,0,0-.69,1,9.4,9.4,0,0,0,.13,1.66,14.76,14.76,0,0,0,.35,1.46c.15.48.3,1,.46,1.52s.3,1.16.45,1.86a22.64,22.64,0,0,1,.35,2.44c.09.91.13,2,.13,3.25a17.77,17.77,0,0,1,2.27-1.28L313,55.27c.88-.41,1.78-.87,2.71-1.37a20.58,20.58,0,0,0,2.8-1.8l0,6.57a28.4,28.4,0,0,1-4.21,2.63,40.25,40.25,0,0,1-5,2.17A37.32,37.32,0,0,1,304,65a25.78,25.78,0,0,1-5.08.54,15.65,15.65,0,0,1-3.23-.32,8.52,8.52,0,0,1-2.62-1,5.62,5.62,0,0,1-1.83-1.8,6.06,6.06,0,0,1-.85-2.7,5.66,5.66,0,0,1-.81.12l-.77,0c-.31,0-.61,0-.88,0a1.41,1.41,0,0,1-.7-.22,1.22,1.22,0,0,1-.47-.62,3.18,3.18,0,0,1-.18-1.21,2.6,2.6,0,0,1,.35-1.31,5.44,5.44,0,0,1,.82-1.06,9.82,9.82,0,0,1,.94-.83C289,54.3,289.24,54.11,289.39,54Zm3.75,3.75a1.13,1.13,0,0,1,.78.44c.28.29.61.61,1,1a6.8,6.8,0,0,0,1.29,1,3.23,3.23,0,0,0,1.67.44,4.21,4.21,0,0,0,1.89-.38,3.18,3.18,0,0,0,1.19-1,3.88,3.88,0,0,0,.61-1.47,8.15,8.15,0,0,0,.18-1.74,14.8,14.8,0,0,0-.1-1.61c-.07-.55-.16-1.07-.27-1.57s-.22-1-.35-1.4-.24-.82-.34-1.13Z" />
        <path id="t-3" data-name="t" class="cls-4"
            d="M340.05,58.67q-2.82,1.63-5,2.87c-1.47.82-2.77,1.5-3.91,2.05a24.93,24.93,0,0,1-3.05,1.23,8.4,8.4,0,0,1-2.42.41,6.12,6.12,0,0,1-3.92-1.35A10.07,10.07,0,0,1,318.9,60a23.9,23.9,0,0,1-1.72-6.14,52.25,52.25,0,0,1-.57-8.11q0-1.77.15-3.75c.09-1.33.23-2.65.41-4-.59-.08-1-.15-1.36-.22l-1-.2c-.36-.07-.82-.15-1.38-.22s-1.36-.18-2.41-.3a2.76,2.76,0,0,1-1.09-.33,1.61,1.61,0,0,1-.55-.59,1.77,1.77,0,0,1-.21-.7q0-.37,0-.63a1,1,0,0,1,.57-.9,4.92,4.92,0,0,1,1.47-.45,13,13,0,0,1,2-.16c.71,0,1.4,0,2.05,0l1.76,0a5.62,5.62,0,0,0,1.07,0,67.16,67.16,0,0,1,2-7.66,42.89,42.89,0,0,1,2.73-6.59,18.12,18.12,0,0,1,3.3-4.63,5.35,5.35,0,0,1,3.75-1.74,4,4,0,0,1,2.29.7,6.18,6.18,0,0,1,1.78,1.88A9.6,9.6,0,0,1,335,18.05a13.41,13.41,0,0,1,.39,3.26,12.3,12.3,0,0,1-.41,3,22.43,22.43,0,0,1-1.11,3.26A33.53,33.53,0,0,1,332.18,31c-.63,1.13-1.3,2.26-2,3.37.17,0,.46,0,.87,0l1.43,0,1.74.07c.62,0,1.23.06,1.81.07l1.65.06,1.26.06a.93.93,0,0,1,.84.59,3.21,3.21,0,0,1,.27,1.4,2.38,2.38,0,0,1-.59,1.67,1.73,1.73,0,0,1-1.29.65H326.92c-.56.78-1.13,1.55-1.71,2.3s-1.11,1.43-1.6,2c-.08,1.22-.14,2.41-.2,3.58,0,.51,0,1-.06,1.57l-.06,1.59c0,.53,0,1,0,1.53s0,.93,0,1.34a10.62,10.62,0,0,0,.29,2.67,4.87,4.87,0,0,0,.85,1.77,3.29,3.29,0,0,0,1.37,1,5.07,5.07,0,0,0,1.8.31,5.21,5.21,0,0,0,1.54-.3,16.48,16.48,0,0,0,2-.8c.73-.34,1.5-.75,2.31-1.22s1.61-1,2.4-1.54,1.55-1.14,2.28-1.75a23.63,23.63,0,0,0,2-1.89Zm-9.38-37.09a6.24,6.24,0,0,0,0-.72,2.67,2.67,0,0,0-.19-.75,1.46,1.46,0,0,0-.46-.59,1.42,1.42,0,0,0-.86-.23c-.51,0-1,.45-1.54,1.35a19.79,19.79,0,0,0-1.49,3.44c-.48,1.4-.93,2.94-1.35,4.61s-.8,3.32-1.16,4.9l.88.1.91.1c.59-1,1.2-2.07,1.83-3.23s1.21-2.31,1.72-3.43.92-2.17,1.26-3.15A7.88,7.88,0,0,0,330.67,21.58Z" />
        <path id="e-3" data-name="e" class="cls-4"
            d="M349,65.23a10.92,10.92,0,0,1-4.82-1,10,10,0,0,1-3.44-2.68,11.22,11.22,0,0,1-2.06-3.9A15.46,15.46,0,0,1,338,53a20.67,20.67,0,0,1,1.3-7.06A18.33,18.33,0,0,1,341,42.6a13.33,13.33,0,0,1,2.32-2.82,10.87,10.87,0,0,1,3-1.93,9.15,9.15,0,0,1,3.68-.72,8.69,8.69,0,0,1,3,.53,7.36,7.36,0,0,1,2.44,1.48,6.55,6.55,0,0,1,1.63,2.3,7.5,7.5,0,0,1,.59,3,8.11,8.11,0,0,1-.9,3.63,13.33,13.33,0,0,1-2.47,3.43,17.66,17.66,0,0,1-3.77,2.87,20.05,20.05,0,0,1-4.73,2,9.17,9.17,0,0,0,.86,1.32,4.09,4.09,0,0,0,.87.82,2.8,2.8,0,0,0,.92.41,4.3,4.3,0,0,0,1,.12,10.94,10.94,0,0,0,3.71-.71A23.54,23.54,0,0,0,357,56.56a33.94,33.94,0,0,0,3.49-2.3,30.48,30.48,0,0,0,2.78-2.36l3.78,3.92a39,39,0,0,1-5.48,4.72c-.84.59-1.74,1.16-2.71,1.73a24,24,0,0,1-3.05,1.51,20.26,20.26,0,0,1-3.31,1A15,15,0,0,1,349,65.23Zm-3.89-13.77a5.84,5.84,0,0,0,2.3-.54,10.1,10.1,0,0,0,2.31-1.4,9.76,9.76,0,0,0,1.8-1.84,3.26,3.26,0,0,0,.73-1.93,4.36,4.36,0,0,0-.48-2.17,1.38,1.38,0,0,0-1.19-.85,4.49,4.49,0,0,0-2.15.47A4.64,4.64,0,0,0,347,44.41a6.32,6.32,0,0,0-1,1.7,12.64,12.64,0,0,0-.56,1.92,16.2,16.2,0,0,0-.25,1.88C345.17,50.51,345.15,51,345.15,51.46Z" />
        <path id="r-3" data-name="r" class="cls-4"
            d="M362.2,59.11c0-.86.05-1.87.14-3s.23-2.35.4-3.62.36-2.56.58-3.88.47-2.57.72-3.76.51-2.29.76-3.28a20.41,20.41,0,0,1,.77-2.46,5.72,5.72,0,0,1,.46-1,2.13,2.13,0,0,1,.55-.6,1.73,1.73,0,0,1,.76-.29,8.37,8.37,0,0,1,2.31,0,.9.9,0,0,1,.63.35,1.51,1.51,0,0,1,.25.8c0,.36.05.83.05,1.44v2.62c0,1,0,2,.05,3H371c.39-.78.83-1.65,1.31-2.62a17.43,17.43,0,0,1,1.7-2.71,10,10,0,0,1,2.2-2.12A4.8,4.8,0,0,1,379,37.1a3.38,3.38,0,0,1,1.09.19,2.75,2.75,0,0,1,.92.55,2.63,2.63,0,0,1,.63.86,2.7,2.7,0,0,1,.23,1.16,10.19,10.19,0,0,1-.14,1.39l-.32,1.87c-.12.66-.23,1.29-.33,1.91a11,11,0,0,0-.14,1.54,6.19,6.19,0,0,0,.2,1.75,3.4,3.4,0,0,0,.54,1.13,1.89,1.89,0,0,0,.77.6,2.25,2.25,0,0,0,.89.18,7,7,0,0,0,2.72-.59,17.31,17.31,0,0,0,2.58-1.32,24,24,0,0,0,2.7-1.93l-.44,6.86-1.73,1.11c-.65.41-1.33.79-2.07,1.16a15,15,0,0,1-2.28.9,8,8,0,0,1-2.42.37,6.34,6.34,0,0,1-3.54-.89,6.45,6.45,0,0,1-2.14-2.35,11.59,11.59,0,0,1-1.17-3.25c-.26-1.2-.46-2.42-.62-3.65h-.47l-5.24,14.62a19.35,19.35,0,0,1-.78,1.89,5.85,5.85,0,0,1-.75,1.22,2.18,2.18,0,0,1-.82.66,2.32,2.32,0,0,1-1,.19,3.35,3.35,0,0,1-1.94-.51,3.46,3.46,0,0,1-1.12-1.38,6.49,6.49,0,0,1-.53-2A18.72,18.72,0,0,1,362.2,59.11Z" />
        <path id="J-4" data-name="J" class="cls-3"
            d="M143.67,72.73a23.23,23.23,0,0,1,1.51-8.07,30.32,30.32,0,0,1,4.29-7.8,32.66,32.66,0,0,1,6.71-6.56,29.5,29.5,0,0,1,8.76-4.38,54.17,54.17,0,0,1-4.66-4.25,36.31,36.31,0,0,1-3.78-4.55A22.9,22.9,0,0,1,154,32.43a12.71,12.71,0,0,1-.92-4.7,23.91,23.91,0,0,1,.66-5.69,23.61,23.61,0,0,1,1.81-5,21.1,21.1,0,0,1,2.74-4.16,18.94,18.94,0,0,1,3.4-3.16,15.4,15.4,0,0,1,3.79-2,11.74,11.74,0,0,1,4-.7,10.39,10.39,0,0,1,5.09,1.34,12.55,12.55,0,0,1,4.35,4.28,24.64,24.64,0,0,1,3,7.59,47.32,47.32,0,0,1,1.15,11.25c0,3.18-.12,6.2-.34,9.07s-.55,5.6-1,8.21c1.19.75,2.4,1.47,3.62,2.17s2.45,1.41,3.7,2.11l.95.56a11.59,11.59,0,0,1,1.12.69A6,6,0,0,1,192,55a1,1,0,0,1,.38.66.85.85,0,0,1-.25.57,4.3,4.3,0,0,1-.58.53,6.26,6.26,0,0,1-.68.42c-.22.12-.39.21-.51.26a2.69,2.69,0,0,1-1.29.27,15.76,15.76,0,0,1-3.85-.65,39,39,0,0,1-4.82-1.72,71,71,0,0,1-3.09,9.91,57.24,57.24,0,0,1-3.94,8.07,40.06,40.06,0,0,1-4.53,6.23A30.37,30.37,0,0,1,164.05,84a19.92,19.92,0,0,1-4.87,2.63,13.47,13.47,0,0,1-4.64.88,10,10,0,0,1-4.29-.93,9.58,9.58,0,0,1-3.44-2.8,13.7,13.7,0,0,1-2.3-4.62A22,22,0,0,1,143.67,72.73Zm7.5,1.87a7.47,7.47,0,0,0,1.16,4.53,3.66,3.66,0,0,0,3.06,1.54,8,8,0,0,0,4.38-1.7,20.55,20.55,0,0,0,4.91-5.26,47.67,47.67,0,0,0,4.7-9,73.92,73.92,0,0,0,3.79-13L172.09,51a20.25,20.25,0,0,0-5.7,2,27.53,27.53,0,0,0-5,3.44,31,31,0,0,0-4.2,4.38,35.39,35.39,0,0,0-3.21,4.82,25.7,25.7,0,0,0-2.05,4.76A14.35,14.35,0,0,0,151.17,74.6Zm9.38-48.75a11.43,11.43,0,0,0,1,4.66,20.91,20.91,0,0,0,2.87,4.59,37,37,0,0,0,4.4,4.49,68.68,68.68,0,0,0,5.62,4.4c.33-2.72.6-5.57.79-8.57s.3-6.19.3-9.57a33.19,33.19,0,0,0-.44-5.84,14.89,14.89,0,0,0-1.19-3.88A5.3,5.3,0,0,0,172.16,14a3.81,3.81,0,0,0-2.12-.66,5.14,5.14,0,0,0-2.2.53,9.78,9.78,0,0,0-2.17,1.45,15.31,15.31,0,0,0-2,2.15,16.17,16.17,0,0,0-1.62,2.63,15.59,15.59,0,0,0-1.1,2.87A10.59,10.59,0,0,0,160.55,25.85Z" />
        <path id="H-4" data-name="H" class="cls-3"
            d="M236.66,43.26q-1,3.6-1.64,6.72a28.54,28.54,0,0,0-.62,5.4,5.12,5.12,0,0,0,.84,3.12A3.2,3.2,0,0,0,238,59.63a4.82,4.82,0,0,0,1.76-.42,13.51,13.51,0,0,0,2.34-1.34,29.81,29.81,0,0,0,2.94-2.34c1.09-1,2.29-2.1,3.62-3.43.06.12.18.39.35.82s.38.94.66,1.69.68,1.78,1.19,3.09a44.16,44.16,0,0,1-4.41,4.07,35,35,0,0,1-4.31,2.95,20.59,20.59,0,0,1-4,1.78,11.93,11.93,0,0,1-3.53.6,8.51,8.51,0,0,1-3.43-.69,7.58,7.58,0,0,1-2.74-2,9.78,9.78,0,0,1-1.83-3.24,13.17,13.17,0,0,1-.67-4.38,17.55,17.55,0,0,1,.17-2.14c.12-.86.29-1.83.52-2.93s.49-2.29.82-3.59.67-2.67,1.07-4.11l-7.53.76c-2.41.23-4.8.46-7.18.67q-.83,2.46-1.63,4.82c-.54,1.57-1.05,3-1.55,4.43l-1.38,3.78c-.42,1.14-.77,2.11-1.07,2.91a14.51,14.51,0,0,1-2.79,4.39,3.84,3.84,0,0,1-2.45,1.29,4.08,4.08,0,0,1-1.38-.23,3.91,3.91,0,0,1-1.2-.67,3.28,3.28,0,0,1-.83-1.06,3,3,0,0,1-.31-1.38,3.37,3.37,0,0,1,.12-.9q1.23-4.48,2.68-8.66T205,46a18.24,18.24,0,0,1-3.09-.25,10.08,10.08,0,0,1-2.74-.86,7.35,7.35,0,0,1-2.24-1.7,8.69,8.69,0,0,1-1.63-2.76c-.07-.35-.14-.66-.19-.94a4.47,4.47,0,0,1-.07-.82c0-.85.3-1.28.91-1.28a2,2,0,0,1,1.23.6,17.63,17.63,0,0,1,1.73,1.91l2.75-.08c.92,0,1.9,0,3,0h2.81c.71-1.82,1.37-3.57,2-5.26s1.22-3.35,1.77-5a25.17,25.17,0,0,0,.79-3.1,15.64,15.64,0,0,0,.3-3,9.93,9.93,0,0,0-.21-2.11,4.52,4.52,0,0,0-.67-1.64,3.49,3.49,0,0,0-1.2-1.06,4,4,0,0,0-1.82-.38,8.24,8.24,0,0,0-2,.3,14.15,14.15,0,0,0-2.56,1,24.91,24.91,0,0,0-3.06,1.73A37.89,37.89,0,0,0,197.11,24a5.19,5.19,0,0,1-1.25.79,2.66,2.66,0,0,1-1,.23c-.15,0-.27-.26-.35-.77a12.92,12.92,0,0,1-.12-1.92,6.17,6.17,0,0,1,.72-2.9A10,10,0,0,1,197,16.87a16.28,16.28,0,0,1,2.77-2.11A22,22,0,0,1,203,13.15a21.11,21.11,0,0,1,3.3-1,14.75,14.75,0,0,1,3-.35,13.76,13.76,0,0,1,3.92.56,8.8,8.8,0,0,1,3.3,1.78,8.48,8.48,0,0,1,2.25,3.2,12.12,12.12,0,0,1,.84,4.77,20.28,20.28,0,0,1-.31,3.23c-.2,1.27-.48,2.66-.83,4.17s-.77,3.13-1.25,4.83-1,3.46-1.54,5.23q3-.2,6.8-.41l7.59-.41q1.49-4.89,3.29-10.12t3.83-10.27A7.13,7.13,0,0,1,239,15.69a3.71,3.71,0,0,1,2.59-1,3.94,3.94,0,0,1,1.19.18,2.67,2.67,0,0,1,1,.54,2.56,2.56,0,0,1,.69.94,3.39,3.39,0,0,1,.25,1.33c0,.45,0,1-.09,1.57a8.11,8.11,0,0,1-.47,1.92l-1.44,3.88c-.5,1.37-1,2.79-1.53,4.25s-1,2.94-1.56,4.46-1,3-1.48,4.54c1.23-.07,2.31-.15,3.23-.22s1.61-.12,2.08-.16l.6,0,.51,0A4.59,4.59,0,0,1,246,38a2,2,0,0,1,.85.5,1.69,1.69,0,0,1,.43.76,4.31,4.31,0,0,1,.11,1,1.8,1.8,0,0,1-.26,1,2.08,2.08,0,0,1-.66.66,2.62,2.62,0,0,1-.83.35,4.43,4.43,0,0,1-.83.13l-1.17.14-.5,0-.19,0-.22,0-.61,0-1.35.11-2.06.21Z" />
        <path id="i-4" data-name="i" class="cls-3"
            d="M267.39,59a26.45,26.45,0,0,1-2.62,2.06,26,26,0,0,1-3.38,2,25.74,25.74,0,0,1-3.71,1.54,11.64,11.64,0,0,1-3.59.62,6.65,6.65,0,0,1-2.56-.43,4.19,4.19,0,0,1-1.69-1.18,4.64,4.64,0,0,1-.92-1.86,9.68,9.68,0,0,1-.28-2.42,24.83,24.83,0,0,1,.43-4.29q.42-2.44,1-5.07t1.3-5.23c.46-1.74.86-3.34,1.22-4.81a2.59,2.59,0,0,1,.82-1.3,5.38,5.38,0,0,1,1.39-.88,8.12,8.12,0,0,1,1.61-.5A8.73,8.73,0,0,1,258,37.1a2.28,2.28,0,0,1,1.67.46,1.68,1.68,0,0,1,.44,1.21,8.44,8.44,0,0,1-.3,1.86c-.19.81-.43,1.73-.73,2.76s-.6,2.13-.94,3.31-.64,2.36-.93,3.54-.54,2.34-.73,3.46a17.4,17.4,0,0,0-.3,3,6,6,0,0,0,.3,2.1,1.15,1.15,0,0,0,1.2.77,4.81,4.81,0,0,0,2.34-.73,21.49,21.49,0,0,0,2.61-1.77q1.32-1,2.58-2.16c.83-.74,1.58-1.37,2.22-1.9ZM254.3,28.87a4.55,4.55,0,0,1,.29-1.52,4.65,4.65,0,0,1,.95-1.6,5.27,5.27,0,0,1,1.76-1.26A6.48,6.48,0,0,1,260,24a8,8,0,0,1,1.93.23,4.78,4.78,0,0,1,1.58.72,3.4,3.4,0,0,1,1.07,1.27,4.1,4.1,0,0,1,.4,1.88A6,6,0,0,1,264.7,30a4.46,4.46,0,0,1-1,1.67,5.25,5.25,0,0,1-1.77,1.19,6.59,6.59,0,0,1-2.56.45,5.23,5.23,0,0,1-3.81-1.21A4.35,4.35,0,0,1,254.3,28.87Z" />
        <path id="p-4" data-name="p" class="cls-3"
            d="M277.27,60a23.14,23.14,0,0,0,5.39-.58,20.35,20.35,0,0,0,4.4-1.58,19,19,0,0,0,3.58-2.33,22.9,22.9,0,0,0,2.88-2.86l.33,6.71a15.43,15.43,0,0,1-2.27,2.21,17.15,17.15,0,0,1-2.92,1.88,18,18,0,0,1-3.32,1.28,12.61,12.61,0,0,1-3.45.49,2.86,2.86,0,0,1-.51-.06L280.31,65l-2.18-.39c-.95-.17-2.23-.37-3.85-.6v.53a47.93,47.93,0,0,1-.9,9.68A31.83,31.83,0,0,1,271,81.61a14.58,14.58,0,0,1-3.43,4.74,6.12,6.12,0,0,1-4,1.67,4.54,4.54,0,0,1-2.78-.82A5.75,5.75,0,0,1,259,85a11.72,11.72,0,0,1-.94-3.25,27.47,27.47,0,0,1-.28-3.94,11.35,11.35,0,0,1,.38-2.71,28.31,28.31,0,0,1,1-3.17c.43-1.1.91-2.22,1.45-3.37s1.09-2.25,1.65-3.32q2-3.75,4.55-7.74c.21-1.52.43-3.08.65-4.68s.51-3.16.85-4.66a33.44,33.44,0,0,1,1.29-4.28,12.47,12.47,0,0,1,2-3.51A9.16,9.16,0,0,1,274.54,38a8.9,8.9,0,0,1,4.1-.88,10.92,10.92,0,0,1,3.34.49,7,7,0,0,1,2.73,1.56,7.55,7.55,0,0,1,1.84,2.8,11.53,11.53,0,0,1,.68,4.21,12.79,12.79,0,0,1-.59,3.85,12.17,12.17,0,0,1-1.83,3.56,16.37,16.37,0,0,1-3.16,3.18,22.42,22.42,0,0,1-4.56,2.65ZM263.38,78.15a4.34,4.34,0,0,0,.1.76,4.76,4.76,0,0,0,.34,1,3.17,3.17,0,0,0,.61.94,1.22,1.22,0,0,0,.94.41.94.94,0,0,0,.82-.54,5,5,0,0,0,.53-1.45,15.8,15.8,0,0,0,.29-2q.09-1.14.15-2.34c0-.81.06-1.59.07-2.35s0-1.44.07-2c.06-1,.11-2,.14-2.68s.05-1.34.07-1.83,0-1,.06-1.38a21.39,21.39,0,0,0-1.09,2.24c-.35.85-.68,1.74-1,2.65s-.6,1.84-.85,2.76-.48,1.77-.66,2.56-.33,1.48-.44,2.05A7.44,7.44,0,0,0,263.38,78.15Zm10.19-21.1a14.74,14.74,0,0,0,3-2,13.94,13.94,0,0,0,2.19-2.31,12.85,12.85,0,0,0,1.51-2.55,16.62,16.62,0,0,0,.94-2.7,8.73,8.73,0,0,0,.19-1.51,4.81,4.81,0,0,0-.18-1.62,3,3,0,0,0-.76-1.31,2,2,0,0,0-1.51-.54,3.14,3.14,0,0,0-1.9.6,5.29,5.29,0,0,0-1.42,1.63,10.51,10.51,0,0,0-1,2.43,25,25,0,0,0-.64,3,31.86,31.86,0,0,0-.35,3.35C273.61,54.74,273.57,55.9,273.57,57.05Z" />
        <path id="s-4" data-name="s" class="cls-3"
            d="M289.39,54c1.1-.94,2-1.72,2.67-2.35s1.27-1.19,1.76-1.71a18.79,18.79,0,0,0,1.33-1.57l1.42-1.87c.55-.72,1.21-1.61,2-2.65s1.8-2.35,3.05-3.91a9.11,9.11,0,0,1,.85-1,6.35,6.35,0,0,1,1-.89,5.36,5.36,0,0,1,1.26-.65,4.65,4.65,0,0,1,1.54-.25,6.12,6.12,0,0,1,2.17.31,2.67,2.67,0,0,1,1.11.75,1.85,1.85,0,0,1,.41.92,6.88,6.88,0,0,1,.06.84,2.94,2.94,0,0,1-.56,1.55,15.93,15.93,0,0,1-1.23,1.64c-.45.53-.87,1-1.27,1.45a3.13,3.13,0,0,0-.69,1,9.4,9.4,0,0,0,.13,1.66,14.76,14.76,0,0,0,.35,1.46c.15.48.3,1,.46,1.52s.3,1.16.45,1.86a22.64,22.64,0,0,1,.35,2.44c.09.91.13,2,.13,3.25a17.77,17.77,0,0,1,2.27-1.28L313,55.27c.88-.41,1.78-.87,2.71-1.37a20.58,20.58,0,0,0,2.8-1.8l0,6.57a28.4,28.4,0,0,1-4.21,2.63,40.25,40.25,0,0,1-5,2.17A37.32,37.32,0,0,1,304,65a25.78,25.78,0,0,1-5.08.54,15.65,15.65,0,0,1-3.23-.32,8.52,8.52,0,0,1-2.62-1,5.62,5.62,0,0,1-1.83-1.8,6.06,6.06,0,0,1-.85-2.7,5.66,5.66,0,0,1-.81.12l-.77,0c-.31,0-.61,0-.88,0a1.41,1.41,0,0,1-.7-.22,1.22,1.22,0,0,1-.47-.62,3.18,3.18,0,0,1-.18-1.21,2.6,2.6,0,0,1,.35-1.31,5.44,5.44,0,0,1,.82-1.06,9.82,9.82,0,0,1,.94-.83C289,54.3,289.24,54.11,289.39,54Zm3.75,3.75a1.13,1.13,0,0,1,.78.44c.28.29.61.61,1,1a6.8,6.8,0,0,0,1.29,1,3.23,3.23,0,0,0,1.67.44,4.21,4.21,0,0,0,1.89-.38,3.18,3.18,0,0,0,1.19-1,3.88,3.88,0,0,0,.61-1.47,8.15,8.15,0,0,0,.18-1.74,14.8,14.8,0,0,0-.1-1.61c-.07-.55-.16-1.07-.27-1.57s-.22-1-.35-1.4-.24-.82-.34-1.13Z" />
        <path id="t-4" data-name="t" class="cls-3"
            d="M340.05,58.67q-2.82,1.63-5,2.87c-1.47.82-2.77,1.5-3.91,2.05a24.93,24.93,0,0,1-3.05,1.23,8.4,8.4,0,0,1-2.42.41,6.12,6.12,0,0,1-3.92-1.35A10.07,10.07,0,0,1,318.9,60a23.9,23.9,0,0,1-1.72-6.14,52.25,52.25,0,0,1-.57-8.11q0-1.77.15-3.75c.09-1.33.23-2.65.41-4-.59-.08-1-.15-1.36-.22l-1-.2c-.36-.07-.82-.15-1.38-.22s-1.36-.18-2.41-.3a2.76,2.76,0,0,1-1.09-.33,1.61,1.61,0,0,1-.55-.59,1.77,1.77,0,0,1-.21-.7q0-.37,0-.63a1,1,0,0,1,.57-.9,4.92,4.92,0,0,1,1.47-.45,13,13,0,0,1,2-.16c.71,0,1.4,0,2.05,0l1.76,0a5.62,5.62,0,0,0,1.07,0,67.16,67.16,0,0,1,2-7.66,42.89,42.89,0,0,1,2.73-6.59,18.12,18.12,0,0,1,3.3-4.63,5.35,5.35,0,0,1,3.75-1.74,4,4,0,0,1,2.29.7,6.18,6.18,0,0,1,1.78,1.88A9.6,9.6,0,0,1,335,18.05a13.41,13.41,0,0,1,.39,3.26,12.3,12.3,0,0,1-.41,3,22.43,22.43,0,0,1-1.11,3.26A33.53,33.53,0,0,1,332.18,31c-.63,1.13-1.3,2.26-2,3.37.17,0,.46,0,.87,0l1.43,0,1.74.07c.62,0,1.23.06,1.81.07l1.65.06,1.26.06a.93.93,0,0,1,.84.59,3.21,3.21,0,0,1,.27,1.4,2.38,2.38,0,0,1-.59,1.67,1.73,1.73,0,0,1-1.29.65H326.92c-.56.78-1.13,1.55-1.71,2.3s-1.11,1.43-1.6,2c-.08,1.22-.14,2.41-.2,3.58,0,.51,0,1-.06,1.57l-.06,1.59c0,.53,0,1,0,1.53s0,.93,0,1.34a10.62,10.62,0,0,0,.29,2.67,4.87,4.87,0,0,0,.85,1.77,3.29,3.29,0,0,0,1.37,1,5.07,5.07,0,0,0,1.8.31,5.21,5.21,0,0,0,1.54-.3,16.48,16.48,0,0,0,2-.8c.73-.34,1.5-.75,2.31-1.22s1.61-1,2.4-1.54,1.55-1.14,2.28-1.75a23.63,23.63,0,0,0,2-1.89Zm-9.38-37.09a6.24,6.24,0,0,0,0-.72,2.67,2.67,0,0,0-.19-.75,1.46,1.46,0,0,0-.46-.59,1.42,1.42,0,0,0-.86-.23c-.51,0-1,.45-1.54,1.35a19.79,19.79,0,0,0-1.49,3.44c-.48,1.4-.93,2.94-1.35,4.61s-.8,3.32-1.16,4.9l.88.1.91.1c.59-1,1.2-2.07,1.83-3.23s1.21-2.31,1.72-3.43.92-2.17,1.26-3.15A7.88,7.88,0,0,0,330.67,21.58Z" />
        <path id="e-4" data-name="e" class="cls-3"
            d="M349,65.23a10.92,10.92,0,0,1-4.82-1,10,10,0,0,1-3.44-2.68,11.22,11.22,0,0,1-2.06-3.9A15.46,15.46,0,0,1,338,53a20.67,20.67,0,0,1,1.3-7.06A18.33,18.33,0,0,1,341,42.6a13.33,13.33,0,0,1,2.32-2.82,10.87,10.87,0,0,1,3-1.93,9.15,9.15,0,0,1,3.68-.72,8.69,8.69,0,0,1,3,.53,7.36,7.36,0,0,1,2.44,1.48,6.55,6.55,0,0,1,1.63,2.3,7.5,7.5,0,0,1,.59,3,8.11,8.11,0,0,1-.9,3.63,13.33,13.33,0,0,1-2.47,3.43,17.66,17.66,0,0,1-3.77,2.87,20.05,20.05,0,0,1-4.73,2,9.17,9.17,0,0,0,.86,1.32,4.09,4.09,0,0,0,.87.82,2.8,2.8,0,0,0,.92.41,4.3,4.3,0,0,0,1,.12,10.94,10.94,0,0,0,3.71-.71A23.54,23.54,0,0,0,357,56.56a33.94,33.94,0,0,0,3.49-2.3,30.48,30.48,0,0,0,2.78-2.36l3.78,3.92a39,39,0,0,1-5.48,4.72c-.84.59-1.74,1.16-2.71,1.73a24,24,0,0,1-3.05,1.51,20.26,20.26,0,0,1-3.31,1A15,15,0,0,1,349,65.23Zm-3.89-13.77a5.84,5.84,0,0,0,2.3-.54,10.1,10.1,0,0,0,2.31-1.4,9.76,9.76,0,0,0,1.8-1.84,3.26,3.26,0,0,0,.73-1.93,4.36,4.36,0,0,0-.48-2.17,1.38,1.38,0,0,0-1.19-.85,4.49,4.49,0,0,0-2.15.47A4.64,4.64,0,0,0,347,44.41a6.32,6.32,0,0,0-1,1.7,12.64,12.64,0,0,0-.56,1.92,16.2,16.2,0,0,0-.25,1.88C345.17,50.51,345.15,51,345.15,51.46Z" />
        <path id="r-4" data-name="r" class="cls-3"
            d="M362.2,59.11c0-.86.05-1.87.14-3s.23-2.35.4-3.62.36-2.56.58-3.88.47-2.57.72-3.76.51-2.29.76-3.28a20.41,20.41,0,0,1,.77-2.46,5.72,5.72,0,0,1,.46-1,2.13,2.13,0,0,1,.55-.6,1.73,1.73,0,0,1,.76-.29,8.37,8.37,0,0,1,2.31,0,.9.9,0,0,1,.63.35,1.51,1.51,0,0,1,.25.8c0,.36.05.83.05,1.44v2.62c0,1,0,2,.05,3H371c.39-.78.83-1.65,1.31-2.62a17.43,17.43,0,0,1,1.7-2.71,10,10,0,0,1,2.2-2.12A4.8,4.8,0,0,1,379,37.1a3.38,3.38,0,0,1,1.09.19,2.75,2.75,0,0,1,.92.55,2.63,2.63,0,0,1,.63.86,2.7,2.7,0,0,1,.23,1.16,10.19,10.19,0,0,1-.14,1.39l-.32,1.87c-.12.66-.23,1.29-.33,1.91a11,11,0,0,0-.14,1.54,6.19,6.19,0,0,0,.2,1.75,3.4,3.4,0,0,0,.54,1.13,1.89,1.89,0,0,0,.77.6,2.25,2.25,0,0,0,.89.18,7,7,0,0,0,2.72-.59,17.31,17.31,0,0,0,2.58-1.32,24,24,0,0,0,2.7-1.93l-.44,6.86-1.73,1.11c-.65.41-1.33.79-2.07,1.16a15,15,0,0,1-2.28.9,8,8,0,0,1-2.42.37,6.34,6.34,0,0,1-3.54-.89,6.45,6.45,0,0,1-2.14-2.35,11.59,11.59,0,0,1-1.17-3.25c-.26-1.2-.46-2.42-.62-3.65h-.47l-5.24,14.62a19.35,19.35,0,0,1-.78,1.89,5.85,5.85,0,0,1-.75,1.22,2.18,2.18,0,0,1-.82.66,2.32,2.32,0,0,1-1,.19,3.35,3.35,0,0,1-1.94-.51,3.46,3.46,0,0,1-1.12-1.38,6.49,6.49,0,0,1-.53-2A18.72,18.72,0,0,1,362.2,59.11Z" />
    </g>
</svg>