<svg id="Logo_JHipster" data-name="Logo JHipster" xmlns="http://www.w3.org/2000/svg"
    xmlns:xlink="http://www.w3.org/1999/xlink" viewBox="0 0 408 96">
    <defs>
        <style>
            .cls-1 {
                fill: #3374aa;
            }

            .cls-2 {
                fill: #4188c6;
            }

            .cls-3 {
                fill: #343333;
            }

            .cls-4 {
                fill: none;
                stroke: #fff;
                stroke-linecap: round;
                stroke-linejoin: round;
                stroke-width: 2px;
            }
        </style>
    </defs>
    <g id="JHipster_Bowtie" data-name="JHipster Bowtie">
        <path id="bowtie-left" class="cls-1"
            d="M78.11,44.05s-59.55-34.34-64.69-13-10.93,37.6,4.92,40.6S78.11,44.05,78.11,44.05Z" />
        <path id="bowtie-right" class="cls-2"
            d="M67.82,38.89c17.09-8.78,50.83-23.82,54.69-7.9,5.2,21.43,11,37.73-4.8,40.8-11.11,2.15-36.11-12.34-50-21.14C67.71,40.24,67.83,49.15,67.82,38.89Z" />
    </g>
    <g id="JHipster_Title" data-name="JHipster Title">
        <path id="J"
            d="M144.16,73.37a23.23,23.23,0,0,1,1.51-8.07A30.26,30.26,0,0,1,150,57.51a32.71,32.71,0,0,1,6.71-6.57,29.5,29.5,0,0,1,8.76-4.38,54.07,54.07,0,0,1-4.66-4.24A37.11,37.11,0,0,1,157,37.76a23.13,23.13,0,0,1-2.53-4.69,12.71,12.71,0,0,1-.92-4.7A23.87,23.87,0,0,1,156,17.69a21.1,21.1,0,0,1,2.74-4.16,19.31,19.31,0,0,1,3.4-3.16,15.4,15.4,0,0,1,3.79-2,11.79,11.79,0,0,1,4-.7A10.4,10.4,0,0,1,175,9a12.43,12.43,0,0,1,4.35,4.27,24.85,24.85,0,0,1,3,7.59,47.44,47.44,0,0,1,1.15,11.25c0,3.18-.12,6.21-.34,9.07s-.55,5.6-1,8.22c1.19.74,2.4,1.46,3.62,2.16s2.45,1.41,3.7,2.11c.26.16.57.35,1,.56s.75.44,1.11.69a6.72,6.72,0,0,1,.92.73,1,1,0,0,1,.38.66.82.82,0,0,1-.25.57,3.73,3.73,0,0,1-.58.53,4.18,4.18,0,0,1-.68.42l-.51.27a2.82,2.82,0,0,1-1.29.26,15.7,15.7,0,0,1-3.85-.64A39.18,39.18,0,0,1,180.93,56a71.12,71.12,0,0,1-3.09,9.92A58.33,58.33,0,0,1,173.9,74a40.44,40.44,0,0,1-4.53,6.22,30.37,30.37,0,0,1-4.83,4.41,20.45,20.45,0,0,1-4.86,2.64,13.76,13.76,0,0,1-4.65.88,10,10,0,0,1-4.29-.94,9.58,9.58,0,0,1-3.44-2.8,13.74,13.74,0,0,1-2.3-4.61A22.11,22.11,0,0,1,144.16,73.37Zm7.5,1.88a7.44,7.44,0,0,0,1.16,4.52,3.63,3.63,0,0,0,3.06,1.54,8,8,0,0,0,4.38-1.7,20.38,20.38,0,0,0,4.91-5.26,47.36,47.36,0,0,0,4.7-9,73.79,73.79,0,0,0,3.79-13l-1.08-.68a20.25,20.25,0,0,0-5.7,2,28.77,28.77,0,0,0-5,3.44,31,31,0,0,0-4.2,4.38,35.39,35.39,0,0,0-3.21,4.82A25.7,25.7,0,0,0,152.38,71,14.41,14.41,0,0,0,151.66,75.25ZM161,26.5a11.42,11.42,0,0,0,1,4.65,20.46,20.46,0,0,0,2.87,4.59,37.73,37.73,0,0,0,4.4,4.5A68.64,68.64,0,0,0,175,44.63q.51-4.07.79-8.57c.2-3,.3-6.18.3-9.56a33.23,33.23,0,0,0-.44-5.85,15,15,0,0,0-1.19-3.88,5.26,5.26,0,0,0-1.76-2.15,3.81,3.81,0,0,0-2.12-.66,5.13,5.13,0,0,0-2.2.52,10.14,10.14,0,0,0-2.17,1.45,15.4,15.4,0,0,0-2,2.16,15.66,15.66,0,0,0-1.62,2.62,16.16,16.16,0,0,0-1.1,2.87A10.66,10.66,0,0,0,161,26.5Z" />
        <path id="H"
            d="M237.15,43.9q-1,3.6-1.64,6.72a28.55,28.55,0,0,0-.62,5.41,5.12,5.12,0,0,0,.84,3.12,3.23,3.23,0,0,0,2.77,1.13,4.86,4.86,0,0,0,1.76-.43,13.38,13.38,0,0,0,2.34-1.33,31.64,31.64,0,0,0,2.94-2.35c1.09-1,2.29-2.1,3.62-3.42.06.11.18.39.35.82s.38.93.66,1.68.68,1.78,1.19,3.09A43.09,43.09,0,0,1,247,62.41a32.21,32.21,0,0,1-4.31,3,20.67,20.67,0,0,1-4,1.79,11.93,11.93,0,0,1-3.53.6,8.51,8.51,0,0,1-3.43-.69,7.73,7.73,0,0,1-2.74-2,9.78,9.78,0,0,1-1.83-3.24,13.17,13.17,0,0,1-.67-4.38,17.4,17.4,0,0,1,.17-2.13c.12-.86.29-1.84.52-2.93s.49-2.29.82-3.59.67-2.67,1.07-4.12c-2.62.27-5.13.53-7.53.76s-4.8.46-7.18.68c-.55,1.64-1.09,3.24-1.63,4.82s-1,3-1.55,4.42-1,2.64-1.38,3.78S209,61.23,208.67,62a14.72,14.72,0,0,1-2.79,4.4,3.84,3.84,0,0,1-2.45,1.29,4.09,4.09,0,0,1-1.38-.24,3.71,3.71,0,0,1-1.2-.67,3.18,3.18,0,0,1-.83-1.06,2.94,2.94,0,0,1-.31-1.37,3.44,3.44,0,0,1,.12-.91q1.23-4.48,2.68-8.66c1-2.78,2-5.49,2.94-8.13a18.24,18.24,0,0,1-3.09-.25,9.75,9.75,0,0,1-2.74-.86,7.35,7.35,0,0,1-2.24-1.7,8.83,8.83,0,0,1-1.63-2.75c-.07-.36-.14-.67-.19-.94a4.62,4.62,0,0,1-.07-.82c0-.86.3-1.29.91-1.29a2,2,0,0,1,1.23.6,17,17,0,0,1,1.73,1.92c.92,0,1.83-.07,2.75-.09s1.91,0,3,0h2.81q1.06-2.73,2-5.26c.63-1.69,1.23-3.34,1.77-5a25.32,25.32,0,0,0,.79-3.11,15.56,15.56,0,0,0,.3-3,10,10,0,0,0-.21-2.11,4.6,4.6,0,0,0-.67-1.64,3.36,3.36,0,0,0-1.2-1.05,3.86,3.86,0,0,0-1.82-.38,8.24,8.24,0,0,0-2,.29,14.15,14.15,0,0,0-2.56.95A26.29,26.29,0,0,0,201.19,22a41.18,41.18,0,0,0-3.59,2.65,4.73,4.73,0,0,1-1.25.79,2.68,2.68,0,0,1-1,.24c-.15,0-.27-.26-.35-.78a14.64,14.64,0,0,1-.11-1.92,6.18,6.18,0,0,1,.71-2.9,9.79,9.79,0,0,1,1.92-2.53,15.78,15.78,0,0,1,2.77-2.11,21.5,21.5,0,0,1,3.22-1.61,20.39,20.39,0,0,1,3.3-1,14.14,14.14,0,0,1,3-.36,13.76,13.76,0,0,1,3.92.56,8.82,8.82,0,0,1,3.3,1.79A8.44,8.44,0,0,1,219.26,18a12.14,12.14,0,0,1,.84,4.78,20.17,20.17,0,0,1-.31,3.22c-.2,1.27-.48,2.66-.83,4.17s-.77,3.13-1.25,4.84-1,3.45-1.54,5.23c2-.14,4.28-.28,6.8-.41l7.59-.41q1.49-4.89,3.29-10.13T237.68,19a7.09,7.09,0,0,1,1.77-2.67,3.76,3.76,0,0,1,2.59-1,3.94,3.94,0,0,1,1.19.18,3,3,0,0,1,1,.54,2.64,2.64,0,0,1,.69.94,3.39,3.39,0,0,1,.25,1.33c0,.45,0,1-.09,1.57a7.88,7.88,0,0,1-.47,1.92c-.45,1.21-.93,2.5-1.43,3.88s-1,2.79-1.54,4.25-1,2.94-1.56,4.47-1,3-1.47,4.54l3.22-.22,2.08-.16.6,0H245a5,5,0,0,1,1.42.17,2.06,2.06,0,0,1,.85.5,1.75,1.75,0,0,1,.43.76,4.37,4.37,0,0,1,.11,1,1.8,1.8,0,0,1-.26,1,2.08,2.08,0,0,1-.66.66,2.65,2.65,0,0,1-.83.36,7.24,7.24,0,0,1-.82.13l-1.18.13-.49.06-.19,0-.22,0-.62,0-1.35.12c-.7.08-1.39.14-2.06.2Z" />
        <path id="i"
            d="M267.88,59.63a25.28,25.28,0,0,1-2.62,2.07,28.48,28.48,0,0,1-3.38,2,26.42,26.42,0,0,1-3.71,1.54,11.61,11.61,0,0,1-3.59.61,6.86,6.86,0,0,1-2.56-.42,4.38,4.38,0,0,1-1.69-1.19,4.64,4.64,0,0,1-.92-1.86,10.11,10.11,0,0,1-.28-2.42,24.83,24.83,0,0,1,.43-4.29q.42-2.44,1-5.07t1.3-5.23q.69-2.61,1.22-4.8a2.61,2.61,0,0,1,.82-1.31,5.1,5.1,0,0,1,1.39-.87,7,7,0,0,1,1.61-.5,7.85,7.85,0,0,1,1.51-.16,2.34,2.34,0,0,1,1.67.45,1.69,1.69,0,0,1,.44,1.22,8.93,8.93,0,0,1-.29,1.86c-.2.81-.44,1.72-.74,2.75l-.93,3.31c-.34,1.18-.65,2.36-.94,3.55s-.54,2.33-.73,3.45a17.6,17.6,0,0,0-.3,3,6,6,0,0,0,.3,2.09,1.15,1.15,0,0,0,1.2.78,4.83,4.83,0,0,0,2.34-.74,20.4,20.4,0,0,0,2.61-1.77c.88-.69,1.74-1.41,2.58-2.15s1.58-1.38,2.22-1.91ZM254.79,29.51a4.87,4.87,0,0,1,.29-1.52,4.81,4.81,0,0,1,.95-1.6,5.56,5.56,0,0,1,1.76-1.26,6.51,6.51,0,0,1,2.74-.51,7.5,7.5,0,0,1,1.93.24,4.62,4.62,0,0,1,1.59.71,3.51,3.51,0,0,1,1.06,1.28,4.06,4.06,0,0,1,.4,1.87,6.07,6.07,0,0,1-.32,1.94,4.62,4.62,0,0,1-1,1.67,5.38,5.38,0,0,1-1.77,1.18,6.4,6.4,0,0,1-2.56.46A5.24,5.24,0,0,1,256,32.75,4.35,4.35,0,0,1,254.79,29.51Z" />
        <path id="p"
            d="M277.76,60.66a23.06,23.06,0,0,0,5.39-.59,20.63,20.63,0,0,0,4.41-1.58,18.94,18.94,0,0,0,3.57-2.33A23.68,23.68,0,0,0,294,53.3l.32,6.71a15.43,15.43,0,0,1-2.27,2.21,16.56,16.56,0,0,1-2.92,1.88,17.31,17.31,0,0,1-3.32,1.29,12.91,12.91,0,0,1-3.44.48,2.85,2.85,0,0,1-.52-.06l-1.07-.2-2.18-.4c-.95-.16-2.23-.36-3.85-.6v.53a47.93,47.93,0,0,1-.9,9.68,31.67,31.67,0,0,1-2.38,7.43A14.58,14.58,0,0,1,268.06,87a6.07,6.07,0,0,1-4,1.67,4.55,4.55,0,0,1-2.79-.82,5.68,5.68,0,0,1-1.77-2.21,11.72,11.72,0,0,1-.94-3.25,27.36,27.36,0,0,1-.28-3.94,11.42,11.42,0,0,1,.38-2.71,27.53,27.53,0,0,1,1-3.16c.43-1.11.91-2.23,1.45-3.37s1.09-2.26,1.66-3.33q2-3.75,4.54-7.73c.21-1.53.43-3.09.66-4.69s.5-3.15.85-4.66a32.35,32.35,0,0,1,1.28-4.28,12.86,12.86,0,0,1,2-3.51A9,9,0,0,1,275,38.63a8.77,8.77,0,0,1,4.1-.88,11.24,11.24,0,0,1,3.34.48,6.91,6.91,0,0,1,2.73,1.57A7.43,7.43,0,0,1,287,42.59a11.57,11.57,0,0,1,.68,4.21,12.74,12.74,0,0,1-.59,3.85,12.17,12.17,0,0,1-1.83,3.56,16.37,16.37,0,0,1-3.16,3.18A22,22,0,0,1,277.58,60ZM263.87,78.79a4.24,4.24,0,0,0,.1.76,4.83,4.83,0,0,0,.34,1.06,3.71,3.71,0,0,0,.61.94,1.26,1.26,0,0,0,.94.41,1,1,0,0,0,.82-.55,4.92,4.92,0,0,0,.53-1.45,14,14,0,0,0,.29-2q.09-1.14.15-2.34c0-.8.06-1.58.07-2.35s0-1.44.08-2c.05-1,.1-1.94.13-2.68s.05-1.34.07-1.83,0-1,.06-1.37A20.46,20.46,0,0,0,267,67.53c-.35.85-.68,1.73-1,2.65s-.6,1.83-.85,2.75-.47,1.77-.66,2.57-.33,1.47-.44,2A7.36,7.36,0,0,0,263.87,78.79ZM274.06,57.7a14.76,14.76,0,0,0,3-2,13.94,13.94,0,0,0,2.19-2.31,12.85,12.85,0,0,0,1.51-2.55,16.85,16.85,0,0,0,.94-2.69,8.86,8.86,0,0,0,.19-1.51,5.11,5.11,0,0,0-.17-1.63,3,3,0,0,0-.77-1.3,2,2,0,0,0-1.51-.54,3.14,3.14,0,0,0-1.9.6,5.25,5.25,0,0,0-1.42,1.62,10.89,10.89,0,0,0-1,2.43,25.46,25.46,0,0,0-.64,3c-.17,1.08-.28,2.19-.35,3.36S274.06,56.55,274.06,57.7Z" />
        <path id="s"
            d="M289.89,54.62c1.09-.94,2-1.72,2.66-2.34s1.27-1.2,1.76-1.72A18.69,18.69,0,0,0,295.64,49l1.42-1.88c.55-.72,1.21-1.61,2-2.65s1.8-2.35,3.05-3.91a13.24,13.24,0,0,1,.85-1,6.35,6.35,0,0,1,1-.89,5.33,5.33,0,0,1,1.26-.64,4.4,4.4,0,0,1,1.54-.25,6.16,6.16,0,0,1,2.17.3,2.7,2.7,0,0,1,1.11.75,1.85,1.85,0,0,1,.41.92,7,7,0,0,1,.06.84,2.89,2.89,0,0,1-.56,1.55,15.93,15.93,0,0,1-1.23,1.64c-.45.53-.87,1-1.27,1.45a3.13,3.13,0,0,0-.69,1,9.4,9.4,0,0,0,.13,1.66,13.52,13.52,0,0,0,.35,1.46c.15.48.3,1,.46,1.53s.3,1.15.45,1.86a22.07,22.07,0,0,1,.35,2.43c.09.92.13,2,.13,3.25a17.73,17.73,0,0,1,2.27-1.27l2.54-1.19c.88-.41,1.78-.86,2.71-1.36a22.7,22.7,0,0,0,2.8-1.8l0,6.56A27.62,27.62,0,0,1,314.8,62a40.21,40.21,0,0,1-5,2.16,37.32,37.32,0,0,1-5.3,1.48,25.78,25.78,0,0,1-5.08.54,15,15,0,0,1-3.23-.32,8.27,8.27,0,0,1-2.62-1,5.62,5.62,0,0,1-1.83-1.8,6,6,0,0,1-.85-2.7,5.74,5.74,0,0,1-.8.12l-.78,0c-.31,0-.61,0-.88,0a1.41,1.41,0,0,1-.7-.22,1.25,1.25,0,0,1-.47-.61,3.27,3.27,0,0,1-.18-1.22,2.56,2.56,0,0,1,.35-1.3,5.51,5.51,0,0,1,.82-1.07,9.65,9.65,0,0,1,.94-.82C289.49,54.94,289.73,54.76,289.89,54.62Zm3.75,3.75a1.17,1.17,0,0,1,.77.44c.28.29.61.62,1,1a7.21,7.21,0,0,0,1.29,1,3.14,3.14,0,0,0,1.67.44,4.08,4.08,0,0,0,1.89-.38,3.11,3.11,0,0,0,1.19-1,3.9,3.9,0,0,0,.61-1.46,8.31,8.31,0,0,0,.18-1.75,15,15,0,0,0-.1-1.61c-.07-.54-.16-1.07-.27-1.56s-.22-1-.35-1.41-.24-.82-.34-1.13Z" />
        <path id="t"
            d="M340.54,59.31q-2.82,1.63-5,2.87c-1.47.82-2.77,1.5-3.91,2.05a21.6,21.6,0,0,1-3.05,1.23,8.4,8.4,0,0,1-2.42.41,6.12,6.12,0,0,1-3.92-1.35,10.1,10.1,0,0,1-2.84-3.88,24.18,24.18,0,0,1-1.72-6.14,52.16,52.16,0,0,1-.57-8.11q0-1.76.15-3.75c.1-1.33.23-2.65.41-4-.59-.07-1-.15-1.36-.22l-1-.2c-.36-.07-.82-.14-1.38-.22s-1.36-.18-2.41-.29a2.59,2.59,0,0,1-1.09-.34,1.54,1.54,0,0,1-.55-.59,1.77,1.77,0,0,1-.21-.7q0-.36,0-.63a1,1,0,0,1,.57-.89,4.63,4.63,0,0,1,1.47-.46,14.39,14.39,0,0,1,2-.16c.71,0,1.4,0,2,0l1.76,0a5.88,5.88,0,0,0,1.07,0,66.64,66.64,0,0,1,2-7.66,43,43,0,0,1,2.72-6.6,18.29,18.29,0,0,1,3.3-4.63,5.35,5.35,0,0,1,3.75-1.74,4.1,4.1,0,0,1,2.3.7A6.27,6.27,0,0,1,334.33,16a9.6,9.6,0,0,1,1.13,2.74,13.44,13.44,0,0,1,.39,3.27,12,12,0,0,1-.41,3,22.32,22.32,0,0,1-1.11,3.25,33.53,33.53,0,0,1-1.66,3.35c-.63,1.14-1.3,2.26-2,3.37.17,0,.47,0,.88,0l1.42,0,1.74.07,1.82.08,1.64.06,1.26.05a1,1,0,0,1,.85.59,3.38,3.38,0,0,1,.26,1.41A2.4,2.4,0,0,1,340,39a1.72,1.72,0,0,1-1.29.64H327.41c-.56.78-1.13,1.55-1.71,2.3s-1.11,1.43-1.6,2c-.07,1.21-.14,2.4-.2,3.57,0,.51,0,1-.06,1.57l-.06,1.6c0,.52,0,1,0,1.52s0,.94,0,1.35a10.1,10.1,0,0,0,.3,2.66,4.43,4.43,0,0,0,.85,1.77,3.12,3.12,0,0,0,1.36,1,4.89,4.89,0,0,0,1.8.31,5.49,5.49,0,0,0,1.54-.29,18.47,18.47,0,0,0,2-.81c.73-.34,1.5-.75,2.31-1.22s1.61-1,2.41-1.53,1.54-1.15,2.27-1.76a23.63,23.63,0,0,0,2-1.89Zm-9.38-37.09a6.24,6.24,0,0,0,0-.72,2.76,2.76,0,0,0-.19-.75,1.43,1.43,0,0,0-.45-.58,1.41,1.41,0,0,0-.87-.24c-.51,0-1,.45-1.54,1.35a21,21,0,0,0-1.49,3.44q-.72,2.1-1.35,4.62c-.42,1.68-.8,3.31-1.16,4.89l.88.1.91.11q.88-1.5,1.83-3.24c.64-1.16,1.21-2.31,1.72-3.43s.92-2.17,1.26-3.15A7.88,7.88,0,0,0,331.16,22.22Z" />
        <path id="e"
            d="M349.53,65.87a11.06,11.06,0,0,1-4.82-1,10.06,10.06,0,0,1-3.44-2.69,11.26,11.26,0,0,1-2.06-3.89,15.53,15.53,0,0,1-.69-4.65,19.56,19.56,0,0,1,.32-3.47,19.9,19.9,0,0,1,1-3.59,18.33,18.33,0,0,1,1.66-3.35,13,13,0,0,1,2.33-2.81,10.7,10.7,0,0,1,3-1.94,9.15,9.15,0,0,1,3.68-.71,8.68,8.68,0,0,1,3,.52A7.42,7.42,0,0,1,356,39.78a6.64,6.64,0,0,1,1.63,2.3,7.53,7.53,0,0,1,.59,3,8.11,8.11,0,0,1-.9,3.63,13.16,13.16,0,0,1-2.47,3.43A17.66,17.66,0,0,1,351,55a19.64,19.64,0,0,1-4.73,2,8.39,8.39,0,0,0,.87,1.32,3.84,3.84,0,0,0,.86.82,2.61,2.61,0,0,0,.92.41,4.3,4.3,0,0,0,1,.12,10.92,10.92,0,0,0,3.71-.7,24.49,24.49,0,0,0,3.79-1.76A32.37,32.37,0,0,0,361,54.9a30.48,30.48,0,0,0,2.78-2.36l3.78,3.93a38.39,38.39,0,0,1-5.48,4.71c-.84.59-1.74,1.17-2.71,1.73a23.9,23.9,0,0,1-3,1.51A22,22,0,0,1,353,65.48,15.67,15.67,0,0,1,349.53,65.87ZM345.64,52.1a5.84,5.84,0,0,0,2.3-.54,10.43,10.43,0,0,0,2.31-1.39,9.8,9.8,0,0,0,1.8-1.85,3.28,3.28,0,0,0,.74-1.93,4.38,4.38,0,0,0-.49-2.17,1.38,1.38,0,0,0-1.18-.85,4.42,4.42,0,0,0-3.65,1.69,6.37,6.37,0,0,0-1,1.69,12.64,12.64,0,0,0-.56,1.92,14.23,14.23,0,0,0-.24,1.88C345.66,51.15,345.64,51.67,345.64,52.1Z" />
        <path id="r"
            d="M362.69,59.75c0-.86.05-1.86.14-3s.23-2.35.4-3.62.36-2.57.59-3.88.46-2.58.71-3.77.51-2.28.76-3.28a20.41,20.41,0,0,1,.77-2.46,5.32,5.32,0,0,1,.47-1,2,2,0,0,1,.54-.6,1.86,1.86,0,0,1,.76-.29,7.16,7.16,0,0,1,1.13-.07,7.27,7.27,0,0,1,1.18.07.94.94,0,0,1,.63.35A1.58,1.58,0,0,1,371,39c0,.35.05.83.05,1.43V43c0,1,0,2,.05,3h.33l1.32-2.63a17.1,17.1,0,0,1,1.69-2.71,10.5,10.5,0,0,1,2.2-2.12,4.79,4.79,0,0,1,2.84-.86,3.13,3.13,0,0,1,1.09.19,2.57,2.57,0,0,1,.92.54,2.63,2.63,0,0,1,.63.86,2.7,2.7,0,0,1,.23,1.16,8.69,8.69,0,0,1-.14,1.39c-.1.6-.21,1.22-.32,1.88s-.23,1.29-.33,1.9a11.18,11.18,0,0,0-.14,1.54,6.72,6.72,0,0,0,.2,1.76,3.34,3.34,0,0,0,.54,1.12,1.91,1.91,0,0,0,.77.61,2.43,2.43,0,0,0,.89.17,7,7,0,0,0,2.72-.58A18.31,18.31,0,0,0,389.14,49a24.06,24.06,0,0,0,2.7-1.94l-.44,6.86L389.67,55a20.3,20.3,0,0,1-2.07,1.16,16.17,16.17,0,0,1-2.28.91,8.3,8.3,0,0,1-2.42.36,6.28,6.28,0,0,1-3.54-.89,6.59,6.59,0,0,1-2.14-2.34,11.66,11.66,0,0,1-1.17-3.26c-.26-1.2-.46-2.41-.62-3.64H375l-5.24,14.62a17.14,17.14,0,0,1-.78,1.89A6.52,6.52,0,0,1,368.2,65a2.28,2.28,0,0,1-.83.66,2.32,2.32,0,0,1-1,.19A3,3,0,0,1,363.35,64a6.41,6.41,0,0,1-.53-2A18.6,18.6,0,0,1,362.69,59.75Z" />
        <path id="J-2" data-name="J" class="cls-3"
            d="M144.16,73.37a23.23,23.23,0,0,1,1.51-8.07A30.26,30.26,0,0,1,150,57.51a32.71,32.71,0,0,1,6.71-6.57,29.5,29.5,0,0,1,8.76-4.38,54.07,54.07,0,0,1-4.66-4.24A37.11,37.11,0,0,1,157,37.76a23.13,23.13,0,0,1-2.53-4.69,12.71,12.71,0,0,1-.92-4.7A23.87,23.87,0,0,1,156,17.69a21.1,21.1,0,0,1,2.74-4.16,19.31,19.31,0,0,1,3.4-3.16,15.4,15.4,0,0,1,3.79-2,11.79,11.79,0,0,1,4-.7A10.4,10.4,0,0,1,175,9a12.43,12.43,0,0,1,4.35,4.27,24.85,24.85,0,0,1,3,7.59,47.44,47.44,0,0,1,1.15,11.25c0,3.18-.12,6.21-.34,9.07s-.55,5.6-1,8.22c1.19.74,2.4,1.46,3.62,2.16s2.45,1.41,3.7,2.11c.26.16.57.35,1,.56s.75.44,1.11.69a6.72,6.72,0,0,1,.92.73,1,1,0,0,1,.38.66.82.82,0,0,1-.25.57,3.73,3.73,0,0,1-.58.53,4.18,4.18,0,0,1-.68.42l-.51.27a2.82,2.82,0,0,1-1.29.26,15.7,15.7,0,0,1-3.85-.64A39.18,39.18,0,0,1,180.93,56a71.12,71.12,0,0,1-3.09,9.92A58.33,58.33,0,0,1,173.9,74a40.44,40.44,0,0,1-4.53,6.22,30.37,30.37,0,0,1-4.83,4.41,20.45,20.45,0,0,1-4.86,2.64,13.76,13.76,0,0,1-4.65.88,10,10,0,0,1-4.29-.94,9.58,9.58,0,0,1-3.44-2.8,13.74,13.74,0,0,1-2.3-4.61A22.11,22.11,0,0,1,144.16,73.37Zm7.5,1.88a7.44,7.44,0,0,0,1.16,4.52,3.63,3.63,0,0,0,3.06,1.54,8,8,0,0,0,4.38-1.7,20.38,20.38,0,0,0,4.91-5.26,47.36,47.36,0,0,0,4.7-9,73.79,73.79,0,0,0,3.79-13l-1.08-.68a20.25,20.25,0,0,0-5.7,2,28.77,28.77,0,0,0-5,3.44,31,31,0,0,0-4.2,4.38,35.39,35.39,0,0,0-3.21,4.82A25.7,25.7,0,0,0,152.38,71,14.41,14.41,0,0,0,151.66,75.25ZM161,26.5a11.42,11.42,0,0,0,1,4.65,20.46,20.46,0,0,0,2.87,4.59,37.73,37.73,0,0,0,4.4,4.5A68.64,68.64,0,0,0,175,44.63q.51-4.07.79-8.57c.2-3,.3-6.18.3-9.56a33.23,33.23,0,0,0-.44-5.85,15,15,0,0,0-1.19-3.88,5.26,5.26,0,0,0-1.76-2.15,3.81,3.81,0,0,0-2.12-.66,5.13,5.13,0,0,0-2.2.52,10.14,10.14,0,0,0-2.17,1.45,15.4,15.4,0,0,0-2,2.16,15.66,15.66,0,0,0-1.62,2.62,16.16,16.16,0,0,0-1.1,2.87A10.66,10.66,0,0,0,161,26.5Z" />
        <path id="H-2" data-name="H" class="cls-3"
            d="M237.15,43.9q-1,3.6-1.64,6.72a28.55,28.55,0,0,0-.62,5.41,5.12,5.12,0,0,0,.84,3.12,3.23,3.23,0,0,0,2.77,1.13,4.86,4.86,0,0,0,1.76-.43,13.38,13.38,0,0,0,2.34-1.33,31.64,31.64,0,0,0,2.94-2.35c1.09-1,2.29-2.1,3.62-3.42.06.11.18.39.35.82s.38.93.66,1.68.68,1.78,1.19,3.09A43.09,43.09,0,0,1,247,62.41a32.21,32.21,0,0,1-4.31,3,20.67,20.67,0,0,1-4,1.79,11.93,11.93,0,0,1-3.53.6,8.51,8.51,0,0,1-3.43-.69,7.73,7.73,0,0,1-2.74-2,9.78,9.78,0,0,1-1.83-3.24,13.17,13.17,0,0,1-.67-4.38,17.4,17.4,0,0,1,.17-2.13c.12-.86.29-1.84.52-2.93s.49-2.29.82-3.59.67-2.67,1.07-4.12c-2.62.27-5.13.53-7.53.76s-4.8.46-7.18.68c-.55,1.64-1.09,3.24-1.63,4.82s-1,3-1.55,4.42-1,2.64-1.38,3.78S209,61.23,208.67,62a14.72,14.72,0,0,1-2.79,4.4,3.84,3.84,0,0,1-2.45,1.29,4.09,4.09,0,0,1-1.38-.24,3.71,3.71,0,0,1-1.2-.67,3.18,3.18,0,0,1-.83-1.06,2.94,2.94,0,0,1-.31-1.37,3.44,3.44,0,0,1,.12-.91q1.23-4.48,2.68-8.66c1-2.78,2-5.49,2.94-8.13a18.24,18.24,0,0,1-3.09-.25,9.75,9.75,0,0,1-2.74-.86,7.35,7.35,0,0,1-2.24-1.7,8.83,8.83,0,0,1-1.63-2.75c-.07-.36-.14-.67-.19-.94a4.62,4.62,0,0,1-.07-.82c0-.86.3-1.29.91-1.29a2,2,0,0,1,1.23.6,17,17,0,0,1,1.73,1.92c.92,0,1.83-.07,2.75-.09s1.91,0,3,0h2.81q1.06-2.73,2-5.26c.63-1.69,1.23-3.34,1.77-5a25.32,25.32,0,0,0,.79-3.11,15.56,15.56,0,0,0,.3-3,10,10,0,0,0-.21-2.11,4.6,4.6,0,0,0-.67-1.64,3.36,3.36,0,0,0-1.2-1.05,3.86,3.86,0,0,0-1.82-.38,8.24,8.24,0,0,0-2,.29,14.15,14.15,0,0,0-2.56.95A26.29,26.29,0,0,0,201.19,22a41.18,41.18,0,0,0-3.59,2.65,4.73,4.73,0,0,1-1.25.79,2.68,2.68,0,0,1-1,.24c-.15,0-.27-.26-.35-.78a14.64,14.64,0,0,1-.11-1.92,6.18,6.18,0,0,1,.71-2.9,9.79,9.79,0,0,1,1.92-2.53,15.78,15.78,0,0,1,2.77-2.11,21.5,21.5,0,0,1,3.22-1.61,20.39,20.39,0,0,1,3.3-1,14.14,14.14,0,0,1,3-.36,13.76,13.76,0,0,1,3.92.56,8.82,8.82,0,0,1,3.3,1.79A8.44,8.44,0,0,1,219.26,18a12.14,12.14,0,0,1,.84,4.78,20.17,20.17,0,0,1-.31,3.22c-.2,1.27-.48,2.66-.83,4.17s-.77,3.13-1.25,4.84-1,3.45-1.54,5.23c2-.14,4.28-.28,6.8-.41l7.59-.41q1.49-4.89,3.29-10.13T237.68,19a7.09,7.09,0,0,1,1.77-2.67,3.76,3.76,0,0,1,2.59-1,3.94,3.94,0,0,1,1.19.18,3,3,0,0,1,1,.54,2.64,2.64,0,0,1,.69.94,3.39,3.39,0,0,1,.25,1.33c0,.45,0,1-.09,1.57a7.88,7.88,0,0,1-.47,1.92c-.45,1.21-.93,2.5-1.43,3.88s-1,2.79-1.54,4.25-1,2.94-1.56,4.47-1,3-1.47,4.54l3.22-.22,2.08-.16.6,0H245a5,5,0,0,1,1.42.17,2.06,2.06,0,0,1,.85.5,1.75,1.75,0,0,1,.43.76,4.37,4.37,0,0,1,.11,1,1.8,1.8,0,0,1-.26,1,2.08,2.08,0,0,1-.66.66,2.65,2.65,0,0,1-.83.36,7.24,7.24,0,0,1-.82.13l-1.18.13-.49.06-.19,0-.22,0-.62,0-1.35.12c-.7.08-1.39.14-2.06.2Z" />
        <path id="i-2" data-name="i" class="cls-3"
            d="M267.88,59.63a25.28,25.28,0,0,1-2.62,2.07,28.48,28.48,0,0,1-3.38,2,26.42,26.42,0,0,1-3.71,1.54,11.61,11.61,0,0,1-3.59.61,6.86,6.86,0,0,1-2.56-.42,4.38,4.38,0,0,1-1.69-1.19,4.64,4.64,0,0,1-.92-1.86,10.11,10.11,0,0,1-.28-2.42,24.83,24.83,0,0,1,.43-4.29q.42-2.44,1-5.07t1.3-5.23q.69-2.61,1.22-4.8a2.61,2.61,0,0,1,.82-1.31,5.1,5.1,0,0,1,1.39-.87,7,7,0,0,1,1.61-.5,7.85,7.85,0,0,1,1.51-.16,2.34,2.34,0,0,1,1.67.45,1.69,1.69,0,0,1,.44,1.22,8.93,8.93,0,0,1-.29,1.86c-.2.81-.44,1.72-.74,2.75l-.93,3.31c-.34,1.18-.65,2.36-.94,3.55s-.54,2.33-.73,3.45a17.6,17.6,0,0,0-.3,3,6,6,0,0,0,.3,2.09,1.15,1.15,0,0,0,1.2.78,4.83,4.83,0,0,0,2.34-.74,20.4,20.4,0,0,0,2.61-1.77c.88-.69,1.74-1.41,2.58-2.15s1.58-1.38,2.22-1.91ZM254.79,29.51a4.87,4.87,0,0,1,.29-1.52,4.81,4.81,0,0,1,.95-1.6,5.56,5.56,0,0,1,1.76-1.26,6.51,6.51,0,0,1,2.74-.51,7.5,7.5,0,0,1,1.93.24,4.62,4.62,0,0,1,1.59.71,3.51,3.51,0,0,1,1.06,1.28,4.06,4.06,0,0,1,.4,1.87,6.07,6.07,0,0,1-.32,1.94,4.62,4.62,0,0,1-1,1.67,5.38,5.38,0,0,1-1.77,1.18,6.4,6.4,0,0,1-2.56.46A5.24,5.24,0,0,1,256,32.75,4.35,4.35,0,0,1,254.79,29.51Z" />
        <path id="p-2" data-name="p" class="cls-3"
            d="M277.76,60.66a23.06,23.06,0,0,0,5.39-.59,20.63,20.63,0,0,0,4.41-1.58,18.94,18.94,0,0,0,3.57-2.33A23.68,23.68,0,0,0,294,53.3l.32,6.71a15.43,15.43,0,0,1-2.27,2.21,16.56,16.56,0,0,1-2.92,1.88,17.31,17.31,0,0,1-3.32,1.29,12.91,12.91,0,0,1-3.44.48,2.85,2.85,0,0,1-.52-.06l-1.07-.2-2.18-.4c-.95-.16-2.23-.36-3.85-.6v.53a47.93,47.93,0,0,1-.9,9.68,31.67,31.67,0,0,1-2.38,7.43A14.58,14.58,0,0,1,268.06,87a6.07,6.07,0,0,1-4,1.67,4.55,4.55,0,0,1-2.79-.82,5.68,5.68,0,0,1-1.77-2.21,11.72,11.72,0,0,1-.94-3.25,27.36,27.36,0,0,1-.28-3.94,11.42,11.42,0,0,1,.38-2.71,27.53,27.53,0,0,1,1-3.16c.43-1.11.91-2.23,1.45-3.37s1.09-2.26,1.66-3.33q2-3.75,4.54-7.73c.21-1.53.43-3.09.66-4.69s.5-3.15.85-4.66a32.35,32.35,0,0,1,1.28-4.28,12.86,12.86,0,0,1,2-3.51A9,9,0,0,1,275,38.63a8.77,8.77,0,0,1,4.1-.88,11.24,11.24,0,0,1,3.34.48,6.91,6.91,0,0,1,2.73,1.57A7.43,7.43,0,0,1,287,42.59a11.57,11.57,0,0,1,.68,4.21,12.74,12.74,0,0,1-.59,3.85,12.17,12.17,0,0,1-1.83,3.56,16.37,16.37,0,0,1-3.16,3.18A22,22,0,0,1,277.58,60ZM263.87,78.79a4.24,4.24,0,0,0,.1.76,4.83,4.83,0,0,0,.34,1.06,3.71,3.71,0,0,0,.61.94,1.26,1.26,0,0,0,.94.41,1,1,0,0,0,.82-.55,4.92,4.92,0,0,0,.53-1.45,14,14,0,0,0,.29-2q.09-1.14.15-2.34c0-.8.06-1.58.07-2.35s0-1.44.08-2c.05-1,.1-1.94.13-2.68s.05-1.34.07-1.83,0-1,.06-1.37A20.46,20.46,0,0,0,267,67.53c-.35.85-.68,1.73-1,2.65s-.6,1.83-.85,2.75-.47,1.77-.66,2.57-.33,1.47-.44,2A7.36,7.36,0,0,0,263.87,78.79ZM274.06,57.7a14.76,14.76,0,0,0,3-2,13.94,13.94,0,0,0,2.19-2.31,12.85,12.85,0,0,0,1.51-2.55,16.85,16.85,0,0,0,.94-2.69,8.86,8.86,0,0,0,.19-1.51,5.11,5.11,0,0,0-.17-1.63,3,3,0,0,0-.77-1.3,2,2,0,0,0-1.51-.54,3.14,3.14,0,0,0-1.9.6,5.25,5.25,0,0,0-1.42,1.62,10.89,10.89,0,0,0-1,2.43,25.46,25.46,0,0,0-.64,3c-.17,1.08-.28,2.19-.35,3.36S274.06,56.55,274.06,57.7Z" />
        <path id="s-2" data-name="s" class="cls-3"
            d="M289.89,54.62c1.09-.94,2-1.72,2.66-2.34s1.27-1.2,1.76-1.72A18.69,18.69,0,0,0,295.64,49l1.42-1.88c.55-.72,1.21-1.61,2-2.65s1.8-2.35,3.05-3.91a13.24,13.24,0,0,1,.85-1,6.35,6.35,0,0,1,1-.89,5.33,5.33,0,0,1,1.26-.64,4.4,4.4,0,0,1,1.54-.25,6.16,6.16,0,0,1,2.17.3,2.7,2.7,0,0,1,1.11.75,1.85,1.85,0,0,1,.41.92,7,7,0,0,1,.06.84,2.89,2.89,0,0,1-.56,1.55,15.93,15.93,0,0,1-1.23,1.64c-.45.53-.87,1-1.27,1.45a3.13,3.13,0,0,0-.69,1,9.4,9.4,0,0,0,.13,1.66,13.52,13.52,0,0,0,.35,1.46c.15.48.3,1,.46,1.53s.3,1.15.45,1.86a22.07,22.07,0,0,1,.35,2.43c.09.92.13,2,.13,3.25a17.73,17.73,0,0,1,2.27-1.27l2.54-1.19c.88-.41,1.78-.86,2.71-1.36a22.7,22.7,0,0,0,2.8-1.8l0,6.56A27.62,27.62,0,0,1,314.8,62a40.21,40.21,0,0,1-5,2.16,37.32,37.32,0,0,1-5.3,1.48,25.78,25.78,0,0,1-5.08.54,15,15,0,0,1-3.23-.32,8.27,8.27,0,0,1-2.62-1,5.62,5.62,0,0,1-1.83-1.8,6,6,0,0,1-.85-2.7,5.74,5.74,0,0,1-.8.12l-.78,0c-.31,0-.61,0-.88,0a1.41,1.41,0,0,1-.7-.22,1.25,1.25,0,0,1-.47-.61,3.27,3.27,0,0,1-.18-1.22,2.56,2.56,0,0,1,.35-1.3,5.51,5.51,0,0,1,.82-1.07,9.65,9.65,0,0,1,.94-.82C289.49,54.94,289.73,54.76,289.89,54.62Zm3.75,3.75a1.17,1.17,0,0,1,.77.44c.28.29.61.62,1,1a7.21,7.21,0,0,0,1.29,1,3.14,3.14,0,0,0,1.67.44,4.08,4.08,0,0,0,1.89-.38,3.11,3.11,0,0,0,1.19-1,3.9,3.9,0,0,0,.61-1.46,8.31,8.31,0,0,0,.18-1.75,15,15,0,0,0-.1-1.61c-.07-.54-.16-1.07-.27-1.56s-.22-1-.35-1.41-.24-.82-.34-1.13Z" />
        <path id="t-2" data-name="t" class="cls-3"
            d="M340.54,59.31q-2.82,1.63-5,2.87c-1.47.82-2.77,1.5-3.91,2.05a21.6,21.6,0,0,1-3.05,1.23,8.4,8.4,0,0,1-2.42.41,6.12,6.12,0,0,1-3.92-1.35,10.1,10.1,0,0,1-2.84-3.88,24.18,24.18,0,0,1-1.72-6.14,52.16,52.16,0,0,1-.57-8.11q0-1.76.15-3.75c.1-1.33.23-2.65.41-4-.59-.07-1-.15-1.36-.22l-1-.2c-.36-.07-.82-.14-1.38-.22s-1.36-.18-2.41-.29a2.59,2.59,0,0,1-1.09-.34,1.54,1.54,0,0,1-.55-.59,1.77,1.77,0,0,1-.21-.7q0-.36,0-.63a1,1,0,0,1,.57-.89,4.63,4.63,0,0,1,1.47-.46,14.39,14.39,0,0,1,2-.16c.71,0,1.4,0,2,0l1.76,0a5.88,5.88,0,0,0,1.07,0,66.64,66.64,0,0,1,2-7.66,43,43,0,0,1,2.72-6.6,18.29,18.29,0,0,1,3.3-4.63,5.35,5.35,0,0,1,3.75-1.74,4.1,4.1,0,0,1,2.3.7A6.27,6.27,0,0,1,334.33,16a9.6,9.6,0,0,1,1.13,2.74,13.44,13.44,0,0,1,.39,3.27,12,12,0,0,1-.41,3,22.32,22.32,0,0,1-1.11,3.25,33.53,33.53,0,0,1-1.66,3.35c-.63,1.14-1.3,2.26-2,3.37.17,0,.47,0,.88,0l1.42,0,1.74.07,1.82.08,1.64.06,1.26.05a1,1,0,0,1,.85.59,3.38,3.38,0,0,1,.26,1.41A2.4,2.4,0,0,1,340,39a1.72,1.72,0,0,1-1.29.64H327.41c-.56.78-1.13,1.55-1.71,2.3s-1.11,1.43-1.6,2c-.07,1.21-.14,2.4-.2,3.57,0,.51,0,1-.06,1.57l-.06,1.6c0,.52,0,1,0,1.52s0,.94,0,1.35a10.1,10.1,0,0,0,.3,2.66,4.43,4.43,0,0,0,.85,1.77,3.12,3.12,0,0,0,1.36,1,4.89,4.89,0,0,0,1.8.31,5.49,5.49,0,0,0,1.54-.29,18.47,18.47,0,0,0,2-.81c.73-.34,1.5-.75,2.31-1.22s1.61-1,2.41-1.53,1.54-1.15,2.27-1.76a23.63,23.63,0,0,0,2-1.89Zm-9.38-37.09a6.24,6.24,0,0,0,0-.72,2.76,2.76,0,0,0-.19-.75,1.43,1.43,0,0,0-.45-.58,1.41,1.41,0,0,0-.87-.24c-.51,0-1,.45-1.54,1.35a21,21,0,0,0-1.49,3.44q-.72,2.1-1.35,4.62c-.42,1.68-.8,3.31-1.16,4.89l.88.1.91.11q.88-1.5,1.83-3.24c.64-1.16,1.21-2.31,1.72-3.43s.92-2.17,1.26-3.15A7.88,7.88,0,0,0,331.16,22.22Z" />
        <path id="e-2" data-name="e" class="cls-3"
            d="M349.53,65.87a11.06,11.06,0,0,1-4.82-1,10.06,10.06,0,0,1-3.44-2.69,11.26,11.26,0,0,1-2.06-3.89,15.53,15.53,0,0,1-.69-4.65,19.56,19.56,0,0,1,.32-3.47,19.9,19.9,0,0,1,1-3.59,18.33,18.33,0,0,1,1.66-3.35,13,13,0,0,1,2.33-2.81,10.7,10.7,0,0,1,3-1.94,9.15,9.15,0,0,1,3.68-.71,8.68,8.68,0,0,1,3,.52A7.42,7.42,0,0,1,356,39.78a6.64,6.64,0,0,1,1.63,2.3,7.53,7.53,0,0,1,.59,3,8.11,8.11,0,0,1-.9,3.63,13.16,13.16,0,0,1-2.47,3.43A17.66,17.66,0,0,1,351,55a19.64,19.64,0,0,1-4.73,2,8.39,8.39,0,0,0,.87,1.32,3.84,3.84,0,0,0,.86.82,2.61,2.61,0,0,0,.92.41,4.3,4.3,0,0,0,1,.12,10.92,10.92,0,0,0,3.71-.7,24.49,24.49,0,0,0,3.79-1.76A32.37,32.37,0,0,0,361,54.9a30.48,30.48,0,0,0,2.78-2.36l3.78,3.93a38.39,38.39,0,0,1-5.48,4.71c-.84.59-1.74,1.17-2.71,1.73a23.9,23.9,0,0,1-3,1.51A22,22,0,0,1,353,65.48,15.67,15.67,0,0,1,349.53,65.87ZM345.64,52.1a5.84,5.84,0,0,0,2.3-.54,10.43,10.43,0,0,0,2.31-1.39,9.8,9.8,0,0,0,1.8-1.85,3.28,3.28,0,0,0,.74-1.93,4.38,4.38,0,0,0-.49-2.17,1.38,1.38,0,0,0-1.18-.85,4.42,4.42,0,0,0-3.65,1.69,6.37,6.37,0,0,0-1,1.69,12.64,12.64,0,0,0-.56,1.92,14.23,14.23,0,0,0-.24,1.88C345.66,51.15,345.64,51.67,345.64,52.1Z" />
        <path id="r-2" data-name="r" class="cls-3"
            d="M362.69,59.75c0-.86.05-1.86.14-3s.23-2.35.4-3.62.36-2.57.59-3.88.46-2.58.71-3.77.51-2.28.76-3.28a20.41,20.41,0,0,1,.77-2.46,5.32,5.32,0,0,1,.47-1,2,2,0,0,1,.54-.6,1.86,1.86,0,0,1,.76-.29,7.16,7.16,0,0,1,1.13-.07,7.27,7.27,0,0,1,1.18.07.94.94,0,0,1,.63.35A1.58,1.58,0,0,1,371,39c0,.35.05.83.05,1.43V43c0,1,0,2,.05,3h.33l1.32-2.63a17.1,17.1,0,0,1,1.69-2.71,10.5,10.5,0,0,1,2.2-2.12,4.79,4.79,0,0,1,2.84-.86,3.13,3.13,0,0,1,1.09.19,2.57,2.57,0,0,1,.92.54,2.63,2.63,0,0,1,.63.86,2.7,2.7,0,0,1,.23,1.16,8.69,8.69,0,0,1-.14,1.39c-.1.6-.21,1.22-.32,1.88s-.23,1.29-.33,1.9a11.18,11.18,0,0,0-.14,1.54,6.72,6.72,0,0,0,.2,1.76,3.34,3.34,0,0,0,.54,1.12,1.91,1.91,0,0,0,.77.61,2.43,2.43,0,0,0,.89.17,7,7,0,0,0,2.72-.58A18.31,18.31,0,0,0,389.14,49a24.06,24.06,0,0,0,2.7-1.94l-.44,6.86L389.67,55a20.3,20.3,0,0,1-2.07,1.16,16.17,16.17,0,0,1-2.28.91,8.3,8.3,0,0,1-2.42.36,6.28,6.28,0,0,1-3.54-.89,6.59,6.59,0,0,1-2.14-2.34,11.66,11.66,0,0,1-1.17-3.26c-.26-1.2-.46-2.41-.62-3.64H375l-5.24,14.62a17.14,17.14,0,0,1-.78,1.89A6.52,6.52,0,0,1,368.2,65a2.28,2.28,0,0,1-.83.66,2.32,2.32,0,0,1-1,.19A3,3,0,0,1,363.35,64a6.41,6.41,0,0,1-.53-2A18.6,18.6,0,0,1,362.69,59.75Z" />
        <path id="J-3" data-name="J" class="cls-4"
            d="M144.16,73.37a23.23,23.23,0,0,1,1.51-8.07A30.26,30.26,0,0,1,150,57.51a32.71,32.71,0,0,1,6.71-6.57,29.5,29.5,0,0,1,8.76-4.38,54.07,54.07,0,0,1-4.66-4.24A37.11,37.11,0,0,1,157,37.76a23.13,23.13,0,0,1-2.53-4.69,12.71,12.71,0,0,1-.92-4.7A23.87,23.87,0,0,1,156,17.69a21.1,21.1,0,0,1,2.74-4.16,19.31,19.31,0,0,1,3.4-3.16,15.4,15.4,0,0,1,3.79-2,11.79,11.79,0,0,1,4-.7A10.4,10.4,0,0,1,175,9a12.43,12.43,0,0,1,4.35,4.27,24.85,24.85,0,0,1,3,7.59,47.44,47.44,0,0,1,1.15,11.25c0,3.18-.12,6.21-.34,9.07s-.55,5.6-1,8.22c1.19.74,2.4,1.46,3.62,2.16s2.45,1.41,3.7,2.11c.26.16.57.35,1,.56s.75.44,1.11.69a6.72,6.72,0,0,1,.92.73,1,1,0,0,1,.38.66.82.82,0,0,1-.25.57,3.73,3.73,0,0,1-.58.53,4.18,4.18,0,0,1-.68.42l-.51.27a2.82,2.82,0,0,1-1.29.26,15.7,15.7,0,0,1-3.85-.64A39.18,39.18,0,0,1,180.93,56a71.12,71.12,0,0,1-3.09,9.92A58.33,58.33,0,0,1,173.9,74a40.44,40.44,0,0,1-4.53,6.22,30.37,30.37,0,0,1-4.83,4.41,20.45,20.45,0,0,1-4.86,2.64,13.76,13.76,0,0,1-4.65.88,10,10,0,0,1-4.29-.94,9.58,9.58,0,0,1-3.44-2.8,13.74,13.74,0,0,1-2.3-4.61A22.11,22.11,0,0,1,144.16,73.37Zm7.5,1.88a7.44,7.44,0,0,0,1.16,4.52,3.63,3.63,0,0,0,3.06,1.54,8,8,0,0,0,4.38-1.7,20.38,20.38,0,0,0,4.91-5.26,47.36,47.36,0,0,0,4.7-9,73.79,73.79,0,0,0,3.79-13l-1.08-.68a20.25,20.25,0,0,0-5.7,2,28.77,28.77,0,0,0-5,3.44,31,31,0,0,0-4.2,4.38,35.39,35.39,0,0,0-3.21,4.82A25.7,25.7,0,0,0,152.38,71,14.41,14.41,0,0,0,151.66,75.25ZM161,26.5a11.42,11.42,0,0,0,1,4.65,20.46,20.46,0,0,0,2.87,4.59,37.73,37.73,0,0,0,4.4,4.5A68.64,68.64,0,0,0,175,44.63q.51-4.07.79-8.57c.2-3,.3-6.18.3-9.56a33.23,33.23,0,0,0-.44-5.85,15,15,0,0,0-1.19-3.88,5.26,5.26,0,0,0-1.76-2.15,3.81,3.81,0,0,0-2.12-.66,5.13,5.13,0,0,0-2.2.52,10.14,10.14,0,0,0-2.17,1.45,15.4,15.4,0,0,0-2,2.16,15.66,15.66,0,0,0-1.62,2.62,16.16,16.16,0,0,0-1.1,2.87A10.66,10.66,0,0,0,161,26.5Z" />
        <path id="H-3" data-name="H" class="cls-4"
            d="M237.15,43.9q-1,3.6-1.64,6.72a28.55,28.55,0,0,0-.62,5.41,5.12,5.12,0,0,0,.84,3.12,3.23,3.23,0,0,0,2.77,1.13,4.86,4.86,0,0,0,1.76-.43,13.38,13.38,0,0,0,2.34-1.33,31.64,31.64,0,0,0,2.94-2.35c1.09-1,2.29-2.1,3.62-3.42.06.11.18.39.35.82s.38.93.66,1.68.68,1.78,1.19,3.09A43.09,43.09,0,0,1,247,62.41a32.21,32.21,0,0,1-4.31,3,20.67,20.67,0,0,1-4,1.79,11.93,11.93,0,0,1-3.53.6,8.51,8.51,0,0,1-3.43-.69,7.73,7.73,0,0,1-2.74-2,9.78,9.78,0,0,1-1.83-3.24,13.17,13.17,0,0,1-.67-4.38,17.4,17.4,0,0,1,.17-2.13c.12-.86.29-1.84.52-2.93s.49-2.29.82-3.59.67-2.67,1.07-4.12c-2.62.27-5.13.53-7.53.76s-4.8.46-7.18.68c-.55,1.64-1.09,3.24-1.63,4.82s-1,3-1.55,4.42-1,2.64-1.38,3.78S209,61.23,208.67,62a14.72,14.72,0,0,1-2.79,4.4,3.84,3.84,0,0,1-2.45,1.29,4.09,4.09,0,0,1-1.38-.24,3.71,3.71,0,0,1-1.2-.67,3.18,3.18,0,0,1-.83-1.06,2.94,2.94,0,0,1-.31-1.37,3.44,3.44,0,0,1,.12-.91q1.23-4.48,2.68-8.66c1-2.78,2-5.49,2.94-8.13a18.24,18.24,0,0,1-3.09-.25,9.75,9.75,0,0,1-2.74-.86,7.35,7.35,0,0,1-2.24-1.7,8.83,8.83,0,0,1-1.63-2.75c-.07-.36-.14-.67-.19-.94a4.62,4.62,0,0,1-.07-.82c0-.86.3-1.29.91-1.29a2,2,0,0,1,1.23.6,17,17,0,0,1,1.73,1.92c.92,0,1.83-.07,2.75-.09s1.91,0,3,0h2.81q1.06-2.73,2-5.26c.63-1.69,1.23-3.34,1.77-5a25.32,25.32,0,0,0,.79-3.11,15.56,15.56,0,0,0,.3-3,10,10,0,0,0-.21-2.11,4.6,4.6,0,0,0-.67-1.64,3.36,3.36,0,0,0-1.2-1.05,3.86,3.86,0,0,0-1.82-.38,8.24,8.24,0,0,0-2,.29,14.15,14.15,0,0,0-2.56.95A26.29,26.29,0,0,0,201.19,22a41.18,41.18,0,0,0-3.59,2.65,4.73,4.73,0,0,1-1.25.79,2.68,2.68,0,0,1-1,.24c-.15,0-.27-.26-.35-.78a14.64,14.64,0,0,1-.11-1.92,6.18,6.18,0,0,1,.71-2.9,9.79,9.79,0,0,1,1.92-2.53,15.78,15.78,0,0,1,2.77-2.11,21.5,21.5,0,0,1,3.22-1.61,20.39,20.39,0,0,1,3.3-1,14.14,14.14,0,0,1,3-.36,13.76,13.76,0,0,1,3.92.56,8.82,8.82,0,0,1,3.3,1.79A8.44,8.44,0,0,1,219.26,18a12.14,12.14,0,0,1,.84,4.78,20.17,20.17,0,0,1-.31,3.22c-.2,1.27-.48,2.66-.83,4.17s-.77,3.13-1.25,4.84-1,3.45-1.54,5.23c2-.14,4.28-.28,6.8-.41l7.59-.41q1.49-4.89,3.29-10.13T237.68,19a7.09,7.09,0,0,1,1.77-2.67,3.76,3.76,0,0,1,2.59-1,3.94,3.94,0,0,1,1.19.18,3,3,0,0,1,1,.54,2.64,2.64,0,0,1,.69.94,3.39,3.39,0,0,1,.25,1.33c0,.45,0,1-.09,1.57a7.88,7.88,0,0,1-.47,1.92c-.45,1.21-.93,2.5-1.43,3.88s-1,2.79-1.54,4.25-1,2.94-1.56,4.47-1,3-1.47,4.54l3.22-.22,2.08-.16.6,0H245a5,5,0,0,1,1.42.17,2.06,2.06,0,0,1,.85.5,1.75,1.75,0,0,1,.43.76,4.37,4.37,0,0,1,.11,1,1.8,1.8,0,0,1-.26,1,2.08,2.08,0,0,1-.66.66,2.65,2.65,0,0,1-.83.36,7.24,7.24,0,0,1-.82.13l-1.18.13-.49.06-.19,0-.22,0-.62,0-1.35.12c-.7.08-1.39.14-2.06.2Z" />
        <path id="i-3" data-name="i" class="cls-4"
            d="M267.88,59.63a25.28,25.28,0,0,1-2.62,2.07,28.48,28.48,0,0,1-3.38,2,26.42,26.42,0,0,1-3.71,1.54,11.61,11.61,0,0,1-3.59.61,6.86,6.86,0,0,1-2.56-.42,4.38,4.38,0,0,1-1.69-1.19,4.64,4.64,0,0,1-.92-1.86,10.11,10.11,0,0,1-.28-2.42,24.83,24.83,0,0,1,.43-4.29q.42-2.44,1-5.07t1.3-5.23q.69-2.61,1.22-4.8a2.61,2.61,0,0,1,.82-1.31,5.1,5.1,0,0,1,1.39-.87,7,7,0,0,1,1.61-.5,7.85,7.85,0,0,1,1.51-.16,2.34,2.34,0,0,1,1.67.45,1.69,1.69,0,0,1,.44,1.22,8.93,8.93,0,0,1-.29,1.86c-.2.81-.44,1.72-.74,2.75l-.93,3.31c-.34,1.18-.65,2.36-.94,3.55s-.54,2.33-.73,3.45a17.6,17.6,0,0,0-.3,3,6,6,0,0,0,.3,2.09,1.15,1.15,0,0,0,1.2.78,4.83,4.83,0,0,0,2.34-.74,20.4,20.4,0,0,0,2.61-1.77c.88-.69,1.74-1.41,2.58-2.15s1.58-1.38,2.22-1.91ZM254.79,29.51a4.87,4.87,0,0,1,.29-1.52,4.81,4.81,0,0,1,.95-1.6,5.56,5.56,0,0,1,1.76-1.26,6.51,6.51,0,0,1,2.74-.51,7.5,7.5,0,0,1,1.93.24,4.62,4.62,0,0,1,1.59.71,3.51,3.51,0,0,1,1.06,1.28,4.06,4.06,0,0,1,.4,1.87,6.07,6.07,0,0,1-.32,1.94,4.62,4.62,0,0,1-1,1.67,5.38,5.38,0,0,1-1.77,1.18,6.4,6.4,0,0,1-2.56.46A5.24,5.24,0,0,1,256,32.75,4.35,4.35,0,0,1,254.79,29.51Z" />
        <path id="p-3" data-name="p" class="cls-4"
            d="M277.76,60.66a23.06,23.06,0,0,0,5.39-.59,20.63,20.63,0,0,0,4.41-1.58,18.94,18.94,0,0,0,3.57-2.33A23.68,23.68,0,0,0,294,53.3l.32,6.71a15.43,15.43,0,0,1-2.27,2.21,16.56,16.56,0,0,1-2.92,1.88,17.31,17.31,0,0,1-3.32,1.29,12.91,12.91,0,0,1-3.44.48,2.85,2.85,0,0,1-.52-.06l-1.07-.2-2.18-.4c-.95-.16-2.23-.36-3.85-.6v.53a47.93,47.93,0,0,1-.9,9.68,31.67,31.67,0,0,1-2.38,7.43A14.58,14.58,0,0,1,268.06,87a6.07,6.07,0,0,1-4,1.67,4.55,4.55,0,0,1-2.79-.82,5.68,5.68,0,0,1-1.77-2.21,11.72,11.72,0,0,1-.94-3.25,27.36,27.36,0,0,1-.28-3.94,11.42,11.42,0,0,1,.38-2.71,27.53,27.53,0,0,1,1-3.16c.43-1.11.91-2.23,1.45-3.37s1.09-2.26,1.66-3.33q2-3.75,4.54-7.73c.21-1.53.43-3.09.66-4.69s.5-3.15.85-4.66a32.35,32.35,0,0,1,1.28-4.28,12.86,12.86,0,0,1,2-3.51A9,9,0,0,1,275,38.63a8.77,8.77,0,0,1,4.1-.88,11.24,11.24,0,0,1,3.34.48,6.91,6.91,0,0,1,2.73,1.57A7.43,7.43,0,0,1,287,42.59a11.57,11.57,0,0,1,.68,4.21,12.74,12.74,0,0,1-.59,3.85,12.17,12.17,0,0,1-1.83,3.56,16.37,16.37,0,0,1-3.16,3.18A22,22,0,0,1,277.58,60ZM263.87,78.79a4.24,4.24,0,0,0,.1.76,4.83,4.83,0,0,0,.34,1.06,3.71,3.71,0,0,0,.61.94,1.26,1.26,0,0,0,.94.41,1,1,0,0,0,.82-.55,4.92,4.92,0,0,0,.53-1.45,14,14,0,0,0,.29-2q.09-1.14.15-2.34c0-.8.06-1.58.07-2.35s0-1.44.08-2c.05-1,.1-1.94.13-2.68s.05-1.34.07-1.83,0-1,.06-1.37A20.46,20.46,0,0,0,267,67.53c-.35.85-.68,1.73-1,2.65s-.6,1.83-.85,2.75-.47,1.77-.66,2.57-.33,1.47-.44,2A7.36,7.36,0,0,0,263.87,78.79ZM274.06,57.7a14.76,14.76,0,0,0,3-2,13.94,13.94,0,0,0,2.19-2.31,12.85,12.85,0,0,0,1.51-2.55,16.85,16.85,0,0,0,.94-2.69,8.86,8.86,0,0,0,.19-1.51,5.11,5.11,0,0,0-.17-1.63,3,3,0,0,0-.77-1.3,2,2,0,0,0-1.51-.54,3.14,3.14,0,0,0-1.9.6,5.25,5.25,0,0,0-1.42,1.62,10.89,10.89,0,0,0-1,2.43,25.46,25.46,0,0,0-.64,3c-.17,1.08-.28,2.19-.35,3.36S274.06,56.55,274.06,57.7Z" />
        <path id="s-3" data-name="s" class="cls-4"
            d="M289.89,54.62c1.09-.94,2-1.72,2.66-2.34s1.27-1.2,1.76-1.72A18.69,18.69,0,0,0,295.64,49l1.42-1.88c.55-.72,1.21-1.61,2-2.65s1.8-2.35,3.05-3.91a13.24,13.24,0,0,1,.85-1,6.35,6.35,0,0,1,1-.89,5.33,5.33,0,0,1,1.26-.64,4.4,4.4,0,0,1,1.54-.25,6.16,6.16,0,0,1,2.17.3,2.7,2.7,0,0,1,1.11.75,1.85,1.85,0,0,1,.41.92,7,7,0,0,1,.06.84,2.89,2.89,0,0,1-.56,1.55,15.93,15.93,0,0,1-1.23,1.64c-.45.53-.87,1-1.27,1.45a3.13,3.13,0,0,0-.69,1,9.4,9.4,0,0,0,.13,1.66,13.52,13.52,0,0,0,.35,1.46c.15.48.3,1,.46,1.53s.3,1.15.45,1.86a22.07,22.07,0,0,1,.35,2.43c.09.92.13,2,.13,3.25a17.73,17.73,0,0,1,2.27-1.27l2.54-1.19c.88-.41,1.78-.86,2.71-1.36a22.7,22.7,0,0,0,2.8-1.8l0,6.56A27.62,27.62,0,0,1,314.8,62a40.21,40.21,0,0,1-5,2.16,37.32,37.32,0,0,1-5.3,1.48,25.78,25.78,0,0,1-5.08.54,15,15,0,0,1-3.23-.32,8.27,8.27,0,0,1-2.62-1,5.62,5.62,0,0,1-1.83-1.8,6,6,0,0,1-.85-2.7,5.74,5.74,0,0,1-.8.12l-.78,0c-.31,0-.61,0-.88,0a1.41,1.41,0,0,1-.7-.22,1.25,1.25,0,0,1-.47-.61,3.27,3.27,0,0,1-.18-1.22,2.56,2.56,0,0,1,.35-1.3,5.51,5.51,0,0,1,.82-1.07,9.65,9.65,0,0,1,.94-.82C289.49,54.94,289.73,54.76,289.89,54.62Zm3.75,3.75a1.17,1.17,0,0,1,.77.44c.28.29.61.62,1,1a7.21,7.21,0,0,0,1.29,1,3.14,3.14,0,0,0,1.67.44,4.08,4.08,0,0,0,1.89-.38,3.11,3.11,0,0,0,1.19-1,3.9,3.9,0,0,0,.61-1.46,8.31,8.31,0,0,0,.18-1.75,15,15,0,0,0-.1-1.61c-.07-.54-.16-1.07-.27-1.56s-.22-1-.35-1.41-.24-.82-.34-1.13Z" />
        <path id="t-3" data-name="t" class="cls-4"
            d="M340.54,59.31q-2.82,1.63-5,2.87c-1.47.82-2.77,1.5-3.91,2.05a21.6,21.6,0,0,1-3.05,1.23,8.4,8.4,0,0,1-2.42.41,6.12,6.12,0,0,1-3.92-1.35,10.1,10.1,0,0,1-2.84-3.88,24.18,24.18,0,0,1-1.72-6.14,52.16,52.16,0,0,1-.57-8.11q0-1.76.15-3.75c.1-1.33.23-2.65.41-4-.59-.07-1-.15-1.36-.22l-1-.2c-.36-.07-.82-.14-1.38-.22s-1.36-.18-2.41-.29a2.59,2.59,0,0,1-1.09-.34,1.54,1.54,0,0,1-.55-.59,1.77,1.77,0,0,1-.21-.7q0-.36,0-.63a1,1,0,0,1,.57-.89,4.63,4.63,0,0,1,1.47-.46,14.39,14.39,0,0,1,2-.16c.71,0,1.4,0,2,0l1.76,0a5.88,5.88,0,0,0,1.07,0,66.64,66.64,0,0,1,2-7.66,43,43,0,0,1,2.72-6.6,18.29,18.29,0,0,1,3.3-4.63,5.35,5.35,0,0,1,3.75-1.74,4.1,4.1,0,0,1,2.3.7A6.27,6.27,0,0,1,334.33,16a9.6,9.6,0,0,1,1.13,2.74,13.44,13.44,0,0,1,.39,3.27,12,12,0,0,1-.41,3,22.32,22.32,0,0,1-1.11,3.25,33.53,33.53,0,0,1-1.66,3.35c-.63,1.14-1.3,2.26-2,3.37.17,0,.47,0,.88,0l1.42,0,1.74.07,1.82.08,1.64.06,1.26.05a1,1,0,0,1,.85.59,3.38,3.38,0,0,1,.26,1.41A2.4,2.4,0,0,1,340,39a1.72,1.72,0,0,1-1.29.64H327.41c-.56.78-1.13,1.55-1.71,2.3s-1.11,1.43-1.6,2c-.07,1.21-.14,2.4-.2,3.57,0,.51,0,1-.06,1.57l-.06,1.6c0,.52,0,1,0,1.52s0,.94,0,1.35a10.1,10.1,0,0,0,.3,2.66,4.43,4.43,0,0,0,.85,1.77,3.12,3.12,0,0,0,1.36,1,4.89,4.89,0,0,0,1.8.31,5.49,5.49,0,0,0,1.54-.29,18.47,18.47,0,0,0,2-.81c.73-.34,1.5-.75,2.31-1.22s1.61-1,2.41-1.53,1.54-1.15,2.27-1.76a23.63,23.63,0,0,0,2-1.89Zm-9.38-37.09a6.24,6.24,0,0,0,0-.72,2.76,2.76,0,0,0-.19-.75,1.43,1.43,0,0,0-.45-.58,1.41,1.41,0,0,0-.87-.24c-.51,0-1,.45-1.54,1.35a21,21,0,0,0-1.49,3.44q-.72,2.1-1.35,4.62c-.42,1.68-.8,3.31-1.16,4.89l.88.1.91.11q.88-1.5,1.83-3.24c.64-1.16,1.21-2.31,1.72-3.43s.92-2.17,1.26-3.15A7.88,7.88,0,0,0,331.16,22.22Z" />
        <path id="e-3" data-name="e" class="cls-4"
            d="M349.53,65.87a11.06,11.06,0,0,1-4.82-1,10.06,10.06,0,0,1-3.44-2.69,11.26,11.26,0,0,1-2.06-3.89,15.53,15.53,0,0,1-.69-4.65,19.56,19.56,0,0,1,.32-3.47,19.9,19.9,0,0,1,1-3.59,18.33,18.33,0,0,1,1.66-3.35,13,13,0,0,1,2.33-2.81,10.7,10.7,0,0,1,3-1.94,9.15,9.15,0,0,1,3.68-.71,8.68,8.68,0,0,1,3,.52A7.42,7.42,0,0,1,356,39.78a6.64,6.64,0,0,1,1.63,2.3,7.53,7.53,0,0,1,.59,3,8.11,8.11,0,0,1-.9,3.63,13.16,13.16,0,0,1-2.47,3.43A17.66,17.66,0,0,1,351,55a19.64,19.64,0,0,1-4.73,2,8.39,8.39,0,0,0,.87,1.32,3.84,3.84,0,0,0,.86.82,2.61,2.61,0,0,0,.92.41,4.3,4.3,0,0,0,1,.12,10.92,10.92,0,0,0,3.71-.7,24.49,24.49,0,0,0,3.79-1.76A32.37,32.37,0,0,0,361,54.9a30.48,30.48,0,0,0,2.78-2.36l3.78,3.93a38.39,38.39,0,0,1-5.48,4.71c-.84.59-1.74,1.17-2.71,1.73a23.9,23.9,0,0,1-3,1.51A22,22,0,0,1,353,65.48,15.67,15.67,0,0,1,349.53,65.87ZM345.64,52.1a5.84,5.84,0,0,0,2.3-.54,10.43,10.43,0,0,0,2.31-1.39,9.8,9.8,0,0,0,1.8-1.85,3.28,3.28,0,0,0,.74-1.93,4.38,4.38,0,0,0-.49-2.17,1.38,1.38,0,0,0-1.18-.85,4.42,4.42,0,0,0-3.65,1.69,6.37,6.37,0,0,0-1,1.69,12.64,12.64,0,0,0-.56,1.92,14.23,14.23,0,0,0-.24,1.88C345.66,51.15,345.64,51.67,345.64,52.1Z" />
        <path id="r-3" data-name="r" class="cls-4"
            d="M362.69,59.75c0-.86.05-1.86.14-3s.23-2.35.4-3.62.36-2.57.59-3.88.46-2.58.71-3.77.51-2.28.76-3.28a20.41,20.41,0,0,1,.77-2.46,5.32,5.32,0,0,1,.47-1,2,2,0,0,1,.54-.6,1.86,1.86,0,0,1,.76-.29,7.16,7.16,0,0,1,1.13-.07,7.27,7.27,0,0,1,1.18.07.94.94,0,0,1,.63.35A1.58,1.58,0,0,1,371,39c0,.35.05.83.05,1.43V43c0,1,0,2,.05,3h.33l1.32-2.63a17.1,17.1,0,0,1,1.69-2.71,10.5,10.5,0,0,1,2.2-2.12,4.79,4.79,0,0,1,2.84-.86,3.13,3.13,0,0,1,1.09.19,2.57,2.57,0,0,1,.92.54,2.63,2.63,0,0,1,.63.86,2.7,2.7,0,0,1,.23,1.16,8.69,8.69,0,0,1-.14,1.39c-.1.6-.21,1.22-.32,1.88s-.23,1.29-.33,1.9a11.18,11.18,0,0,0-.14,1.54,6.72,6.72,0,0,0,.2,1.76,3.34,3.34,0,0,0,.54,1.12,1.91,1.91,0,0,0,.77.61,2.43,2.43,0,0,0,.89.17,7,7,0,0,0,2.72-.58A18.31,18.31,0,0,0,389.14,49a24.06,24.06,0,0,0,2.7-1.94l-.44,6.86L389.67,55a20.3,20.3,0,0,1-2.07,1.16,16.17,16.17,0,0,1-2.28.91,8.3,8.3,0,0,1-2.42.36,6.28,6.28,0,0,1-3.54-.89,6.59,6.59,0,0,1-2.14-2.34,11.66,11.66,0,0,1-1.17-3.26c-.26-1.2-.46-2.41-.62-3.64H375l-5.24,14.62a17.14,17.14,0,0,1-.78,1.89A6.52,6.52,0,0,1,368.2,65a2.28,2.28,0,0,1-.83.66,2.32,2.32,0,0,1-1,.19A3,3,0,0,1,363.35,64a6.41,6.41,0,0,1-.53-2A18.6,18.6,0,0,1,362.69,59.75Z" />
        <path id="J-4" data-name="J" class="cls-3"
            d="M144.16,73.37a23.23,23.23,0,0,1,1.51-8.07A30.26,30.26,0,0,1,150,57.51a32.71,32.71,0,0,1,6.71-6.57,29.5,29.5,0,0,1,8.76-4.38,54.07,54.07,0,0,1-4.66-4.24A37.11,37.11,0,0,1,157,37.76a23.13,23.13,0,0,1-2.53-4.69,12.71,12.71,0,0,1-.92-4.7A23.87,23.87,0,0,1,156,17.69a21.1,21.1,0,0,1,2.74-4.16,19.31,19.31,0,0,1,3.4-3.16,15.4,15.4,0,0,1,3.79-2,11.79,11.79,0,0,1,4-.7A10.4,10.4,0,0,1,175,9a12.43,12.43,0,0,1,4.35,4.27,24.85,24.85,0,0,1,3,7.59,47.44,47.44,0,0,1,1.15,11.25c0,3.18-.12,6.21-.34,9.07s-.55,5.6-1,8.22c1.19.74,2.4,1.46,3.62,2.16s2.45,1.41,3.7,2.11c.26.16.57.35,1,.56s.75.44,1.11.69a6.72,6.72,0,0,1,.92.73,1,1,0,0,1,.38.66.82.82,0,0,1-.25.57,3.73,3.73,0,0,1-.58.53,4.18,4.18,0,0,1-.68.42l-.51.27a2.82,2.82,0,0,1-1.29.26,15.7,15.7,0,0,1-3.85-.64A39.18,39.18,0,0,1,180.93,56a71.12,71.12,0,0,1-3.09,9.92A58.33,58.33,0,0,1,173.9,74a40.44,40.44,0,0,1-4.53,6.22,30.37,30.37,0,0,1-4.83,4.41,20.45,20.45,0,0,1-4.86,2.64,13.76,13.76,0,0,1-4.65.88,10,10,0,0,1-4.29-.94,9.58,9.58,0,0,1-3.44-2.8,13.74,13.74,0,0,1-2.3-4.61A22.11,22.11,0,0,1,144.16,73.37Zm7.5,1.88a7.44,7.44,0,0,0,1.16,4.52,3.63,3.63,0,0,0,3.06,1.54,8,8,0,0,0,4.38-1.7,20.38,20.38,0,0,0,4.91-5.26,47.36,47.36,0,0,0,4.7-9,73.79,73.79,0,0,0,3.79-13l-1.08-.68a20.25,20.25,0,0,0-5.7,2,28.77,28.77,0,0,0-5,3.44,31,31,0,0,0-4.2,4.38,35.39,35.39,0,0,0-3.21,4.82A25.7,25.7,0,0,0,152.38,71,14.41,14.41,0,0,0,151.66,75.25ZM161,26.5a11.42,11.42,0,0,0,1,4.65,20.46,20.46,0,0,0,2.87,4.59,37.73,37.73,0,0,0,4.4,4.5A68.64,68.64,0,0,0,175,44.63q.51-4.07.79-8.57c.2-3,.3-6.18.3-9.56a33.23,33.23,0,0,0-.44-5.85,15,15,0,0,0-1.19-3.88,5.26,5.26,0,0,0-1.76-2.15,3.81,3.81,0,0,0-2.12-.66,5.13,5.13,0,0,0-2.2.52,10.14,10.14,0,0,0-2.17,1.45,15.4,15.4,0,0,0-2,2.16,15.66,15.66,0,0,0-1.62,2.62,16.16,16.16,0,0,0-1.1,2.87A10.66,10.66,0,0,0,161,26.5Z" />
        <path id="H-4" data-name="H" class="cls-3"
            d="M237.15,43.9q-1,3.6-1.64,6.72a28.55,28.55,0,0,0-.62,5.41,5.12,5.12,0,0,0,.84,3.12,3.23,3.23,0,0,0,2.77,1.13,4.86,4.86,0,0,0,1.76-.43,13.38,13.38,0,0,0,2.34-1.33,31.64,31.64,0,0,0,2.94-2.35c1.09-1,2.29-2.1,3.62-3.42.06.11.18.39.35.82s.38.93.66,1.68.68,1.78,1.19,3.09A43.09,43.09,0,0,1,247,62.41a32.21,32.21,0,0,1-4.31,3,20.67,20.67,0,0,1-4,1.79,11.93,11.93,0,0,1-3.53.6,8.51,8.51,0,0,1-3.43-.69,7.73,7.73,0,0,1-2.74-2,9.78,9.78,0,0,1-1.83-3.24,13.17,13.17,0,0,1-.67-4.38,17.4,17.4,0,0,1,.17-2.13c.12-.86.29-1.84.52-2.93s.49-2.29.82-3.59.67-2.67,1.07-4.12c-2.62.27-5.13.53-7.53.76s-4.8.46-7.18.68c-.55,1.64-1.09,3.24-1.63,4.82s-1,3-1.55,4.42-1,2.64-1.38,3.78S209,61.23,208.67,62a14.72,14.72,0,0,1-2.79,4.4,3.84,3.84,0,0,1-2.45,1.29,4.09,4.09,0,0,1-1.38-.24,3.71,3.71,0,0,1-1.2-.67,3.18,3.18,0,0,1-.83-1.06,2.94,2.94,0,0,1-.31-1.37,3.44,3.44,0,0,1,.12-.91q1.23-4.48,2.68-8.66c1-2.78,2-5.49,2.94-8.13a18.24,18.24,0,0,1-3.09-.25,9.75,9.75,0,0,1-2.74-.86,7.35,7.35,0,0,1-2.24-1.7,8.83,8.83,0,0,1-1.63-2.75c-.07-.36-.14-.67-.19-.94a4.62,4.62,0,0,1-.07-.82c0-.86.3-1.29.91-1.29a2,2,0,0,1,1.23.6,17,17,0,0,1,1.73,1.92c.92,0,1.83-.07,2.75-.09s1.91,0,3,0h2.81q1.06-2.73,2-5.26c.63-1.69,1.23-3.34,1.77-5a25.32,25.32,0,0,0,.79-3.11,15.56,15.56,0,0,0,.3-3,10,10,0,0,0-.21-2.11,4.6,4.6,0,0,0-.67-1.64,3.36,3.36,0,0,0-1.2-1.05,3.86,3.86,0,0,0-1.82-.38,8.24,8.24,0,0,0-2,.29,14.15,14.15,0,0,0-2.56.95A26.29,26.29,0,0,0,201.19,22a41.18,41.18,0,0,0-3.59,2.65,4.73,4.73,0,0,1-1.25.79,2.68,2.68,0,0,1-1,.24c-.15,0-.27-.26-.35-.78a14.64,14.64,0,0,1-.11-1.92,6.18,6.18,0,0,1,.71-2.9,9.79,9.79,0,0,1,1.92-2.53,15.78,15.78,0,0,1,2.77-2.11,21.5,21.5,0,0,1,3.22-1.61,20.39,20.39,0,0,1,3.3-1,14.14,14.14,0,0,1,3-.36,13.76,13.76,0,0,1,3.92.56,8.82,8.82,0,0,1,3.3,1.79A8.44,8.44,0,0,1,219.26,18a12.14,12.14,0,0,1,.84,4.78,20.17,20.17,0,0,1-.31,3.22c-.2,1.27-.48,2.66-.83,4.17s-.77,3.13-1.25,4.84-1,3.45-1.54,5.23c2-.14,4.28-.28,6.8-.41l7.59-.41q1.49-4.89,3.29-10.13T237.68,19a7.09,7.09,0,0,1,1.77-2.67,3.76,3.76,0,0,1,2.59-1,3.94,3.94,0,0,1,1.19.18,3,3,0,0,1,1,.54,2.64,2.64,0,0,1,.69.94,3.39,3.39,0,0,1,.25,1.33c0,.45,0,1-.09,1.57a7.88,7.88,0,0,1-.47,1.92c-.45,1.21-.93,2.5-1.43,3.88s-1,2.79-1.54,4.25-1,2.94-1.56,4.47-1,3-1.47,4.54l3.22-.22,2.08-.16.6,0H245a5,5,0,0,1,1.42.17,2.06,2.06,0,0,1,.85.5,1.75,1.75,0,0,1,.43.76,4.37,4.37,0,0,1,.11,1,1.8,1.8,0,0,1-.26,1,2.08,2.08,0,0,1-.66.66,2.65,2.65,0,0,1-.83.36,7.24,7.24,0,0,1-.82.13l-1.18.13-.49.06-.19,0-.22,0-.62,0-1.35.12c-.7.08-1.39.14-2.06.2Z" />
        <path id="i-4" data-name="i" class="cls-3"
            d="M267.88,59.63a25.28,25.28,0,0,1-2.62,2.07,28.48,28.48,0,0,1-3.38,2,26.42,26.42,0,0,1-3.71,1.54,11.61,11.61,0,0,1-3.59.61,6.86,6.86,0,0,1-2.56-.42,4.38,4.38,0,0,1-1.69-1.19,4.64,4.64,0,0,1-.92-1.86,10.11,10.11,0,0,1-.28-2.42,24.83,24.83,0,0,1,.43-4.29q.42-2.44,1-5.07t1.3-5.23q.69-2.61,1.22-4.8a2.61,2.61,0,0,1,.82-1.31,5.1,5.1,0,0,1,1.39-.87,7,7,0,0,1,1.61-.5,7.85,7.85,0,0,1,1.51-.16,2.34,2.34,0,0,1,1.67.45,1.69,1.69,0,0,1,.44,1.22,8.93,8.93,0,0,1-.29,1.86c-.2.81-.44,1.72-.74,2.75l-.93,3.31c-.34,1.18-.65,2.36-.94,3.55s-.54,2.33-.73,3.45a17.6,17.6,0,0,0-.3,3,6,6,0,0,0,.3,2.09,1.15,1.15,0,0,0,1.2.78,4.83,4.83,0,0,0,2.34-.74,20.4,20.4,0,0,0,2.61-1.77c.88-.69,1.74-1.41,2.58-2.15s1.58-1.38,2.22-1.91ZM254.79,29.51a4.87,4.87,0,0,1,.29-1.52,4.81,4.81,0,0,1,.95-1.6,5.56,5.56,0,0,1,1.76-1.26,6.51,6.51,0,0,1,2.74-.51,7.5,7.5,0,0,1,1.93.24,4.62,4.62,0,0,1,1.59.71,3.51,3.51,0,0,1,1.06,1.28,4.06,4.06,0,0,1,.4,1.87,6.07,6.07,0,0,1-.32,1.94,4.62,4.62,0,0,1-1,1.67,5.38,5.38,0,0,1-1.77,1.18,6.4,6.4,0,0,1-2.56.46A5.24,5.24,0,0,1,256,32.75,4.35,4.35,0,0,1,254.79,29.51Z" />
        <path id="p-4" data-name="p" class="cls-3"
            d="M277.76,60.66a23.06,23.06,0,0,0,5.39-.59,20.63,20.63,0,0,0,4.41-1.58,18.94,18.94,0,0,0,3.57-2.33A23.68,23.68,0,0,0,294,53.3l.32,6.71a15.43,15.43,0,0,1-2.27,2.21,16.56,16.56,0,0,1-2.92,1.88,17.31,17.31,0,0,1-3.32,1.29,12.91,12.91,0,0,1-3.44.48,2.85,2.85,0,0,1-.52-.06l-1.07-.2-2.18-.4c-.95-.16-2.23-.36-3.85-.6v.53a47.93,47.93,0,0,1-.9,9.68,31.67,31.67,0,0,1-2.38,7.43A14.58,14.58,0,0,1,268.06,87a6.07,6.07,0,0,1-4,1.67,4.55,4.55,0,0,1-2.79-.82,5.68,5.68,0,0,1-1.77-2.21,11.72,11.72,0,0,1-.94-3.25,27.36,27.36,0,0,1-.28-3.94,11.42,11.42,0,0,1,.38-2.71,27.53,27.53,0,0,1,1-3.16c.43-1.11.91-2.23,1.45-3.37s1.09-2.26,1.66-3.33q2-3.75,4.54-7.73c.21-1.53.43-3.09.66-4.69s.5-3.15.85-4.66a32.35,32.35,0,0,1,1.28-4.28,12.86,12.86,0,0,1,2-3.51A9,9,0,0,1,275,38.63a8.77,8.77,0,0,1,4.1-.88,11.24,11.24,0,0,1,3.34.48,6.91,6.91,0,0,1,2.73,1.57A7.43,7.43,0,0,1,287,42.59a11.57,11.57,0,0,1,.68,4.21,12.74,12.74,0,0,1-.59,3.85,12.17,12.17,0,0,1-1.83,3.56,16.37,16.37,0,0,1-3.16,3.18A22,22,0,0,1,277.58,60ZM263.87,78.79a4.24,4.24,0,0,0,.1.76,4.83,4.83,0,0,0,.34,1.06,3.71,3.71,0,0,0,.61.94,1.26,1.26,0,0,0,.94.41,1,1,0,0,0,.82-.55,4.92,4.92,0,0,0,.53-1.45,14,14,0,0,0,.29-2q.09-1.14.15-2.34c0-.8.06-1.58.07-2.35s0-1.44.08-2c.05-1,.1-1.94.13-2.68s.05-1.34.07-1.83,0-1,.06-1.37A20.46,20.46,0,0,0,267,67.53c-.35.85-.68,1.73-1,2.65s-.6,1.83-.85,2.75-.47,1.77-.66,2.57-.33,1.47-.44,2A7.36,7.36,0,0,0,263.87,78.79ZM274.06,57.7a14.76,14.76,0,0,0,3-2,13.94,13.94,0,0,0,2.19-2.31,12.85,12.85,0,0,0,1.51-2.55,16.85,16.85,0,0,0,.94-2.69,8.86,8.86,0,0,0,.19-1.51,5.11,5.11,0,0,0-.17-1.63,3,3,0,0,0-.77-1.3,2,2,0,0,0-1.51-.54,3.14,3.14,0,0,0-1.9.6,5.25,5.25,0,0,0-1.42,1.62,10.89,10.89,0,0,0-1,2.43,25.46,25.46,0,0,0-.64,3c-.17,1.08-.28,2.19-.35,3.36S274.06,56.55,274.06,57.7Z" />
        <path id="s-4" data-name="s" class="cls-3"
            d="M289.89,54.62c1.09-.94,2-1.72,2.66-2.34s1.27-1.2,1.76-1.72A18.69,18.69,0,0,0,295.64,49l1.42-1.88c.55-.72,1.21-1.61,2-2.65s1.8-2.35,3.05-3.91a13.24,13.24,0,0,1,.85-1,6.35,6.35,0,0,1,1-.89,5.33,5.33,0,0,1,1.26-.64,4.4,4.4,0,0,1,1.54-.25,6.16,6.16,0,0,1,2.17.3,2.7,2.7,0,0,1,1.11.75,1.85,1.85,0,0,1,.41.92,7,7,0,0,1,.06.84,2.89,2.89,0,0,1-.56,1.55,15.93,15.93,0,0,1-1.23,1.64c-.45.53-.87,1-1.27,1.45a3.13,3.13,0,0,0-.69,1,9.4,9.4,0,0,0,.13,1.66,13.52,13.52,0,0,0,.35,1.46c.15.48.3,1,.46,1.53s.3,1.15.45,1.86a22.07,22.07,0,0,1,.35,2.43c.09.92.13,2,.13,3.25a17.73,17.73,0,0,1,2.27-1.27l2.54-1.19c.88-.41,1.78-.86,2.71-1.36a22.7,22.7,0,0,0,2.8-1.8l0,6.56A27.62,27.62,0,0,1,314.8,62a40.21,40.21,0,0,1-5,2.16,37.32,37.32,0,0,1-5.3,1.48,25.78,25.78,0,0,1-5.08.54,15,15,0,0,1-3.23-.32,8.27,8.27,0,0,1-2.62-1,5.62,5.62,0,0,1-1.83-1.8,6,6,0,0,1-.85-2.7,5.74,5.74,0,0,1-.8.12l-.78,0c-.31,0-.61,0-.88,0a1.41,1.41,0,0,1-.7-.22,1.25,1.25,0,0,1-.47-.61,3.27,3.27,0,0,1-.18-1.22,2.56,2.56,0,0,1,.35-1.3,5.51,5.51,0,0,1,.82-1.07,9.65,9.65,0,0,1,.94-.82C289.49,54.94,289.73,54.76,289.89,54.62Zm3.75,3.75a1.17,1.17,0,0,1,.77.44c.28.29.61.62,1,1a7.21,7.21,0,0,0,1.29,1,3.14,3.14,0,0,0,1.67.44,4.08,4.08,0,0,0,1.89-.38,3.11,3.11,0,0,0,1.19-1,3.9,3.9,0,0,0,.61-1.46,8.31,8.31,0,0,0,.18-1.75,15,15,0,0,0-.1-1.61c-.07-.54-.16-1.07-.27-1.56s-.22-1-.35-1.41-.24-.82-.34-1.13Z" />
        <path id="t-4" data-name="t" class="cls-3"
            d="M340.54,59.31q-2.82,1.63-5,2.87c-1.47.82-2.77,1.5-3.91,2.05a21.6,21.6,0,0,1-3.05,1.23,8.4,8.4,0,0,1-2.42.41,6.12,6.12,0,0,1-3.92-1.35,10.1,10.1,0,0,1-2.84-3.88,24.18,24.18,0,0,1-1.72-6.14,52.16,52.16,0,0,1-.57-8.11q0-1.76.15-3.75c.1-1.33.23-2.65.41-4-.59-.07-1-.15-1.36-.22l-1-.2c-.36-.07-.82-.14-1.38-.22s-1.36-.18-2.41-.29a2.59,2.59,0,0,1-1.09-.34,1.54,1.54,0,0,1-.55-.59,1.77,1.77,0,0,1-.21-.7q0-.36,0-.63a1,1,0,0,1,.57-.89,4.63,4.63,0,0,1,1.47-.46,14.39,14.39,0,0,1,2-.16c.71,0,1.4,0,2,0l1.76,0a5.88,5.88,0,0,0,1.07,0,66.64,66.64,0,0,1,2-7.66,43,43,0,0,1,2.72-6.6,18.29,18.29,0,0,1,3.3-4.63,5.35,5.35,0,0,1,3.75-1.74,4.1,4.1,0,0,1,2.3.7A6.27,6.27,0,0,1,334.33,16a9.6,9.6,0,0,1,1.13,2.74,13.44,13.44,0,0,1,.39,3.27,12,12,0,0,1-.41,3,22.32,22.32,0,0,1-1.11,3.25,33.53,33.53,0,0,1-1.66,3.35c-.63,1.14-1.3,2.26-2,3.37.17,0,.47,0,.88,0l1.42,0,1.74.07,1.82.08,1.64.06,1.26.05a1,1,0,0,1,.85.59,3.38,3.38,0,0,1,.26,1.41A2.4,2.4,0,0,1,340,39a1.72,1.72,0,0,1-1.29.64H327.41c-.56.78-1.13,1.55-1.71,2.3s-1.11,1.43-1.6,2c-.07,1.21-.14,2.4-.2,3.57,0,.51,0,1-.06,1.57l-.06,1.6c0,.52,0,1,0,1.52s0,.94,0,1.35a10.1,10.1,0,0,0,.3,2.66,4.43,4.43,0,0,0,.85,1.77,3.12,3.12,0,0,0,1.36,1,4.89,4.89,0,0,0,1.8.31,5.49,5.49,0,0,0,1.54-.29,18.47,18.47,0,0,0,2-.81c.73-.34,1.5-.75,2.31-1.22s1.61-1,2.41-1.53,1.54-1.15,2.27-1.76a23.63,23.63,0,0,0,2-1.89Zm-9.38-37.09a6.24,6.24,0,0,0,0-.72,2.76,2.76,0,0,0-.19-.75,1.43,1.43,0,0,0-.45-.58,1.41,1.41,0,0,0-.87-.24c-.51,0-1,.45-1.54,1.35a21,21,0,0,0-1.49,3.44q-.72,2.1-1.35,4.62c-.42,1.68-.8,3.31-1.16,4.89l.88.1.91.11q.88-1.5,1.83-3.24c.64-1.16,1.21-2.31,1.72-3.43s.92-2.17,1.26-3.15A7.88,7.88,0,0,0,331.16,22.22Z" />
        <path id="e-4" data-name="e" class="cls-3"
            d="M349.53,65.87a11.06,11.06,0,0,1-4.82-1,10.06,10.06,0,0,1-3.44-2.69,11.26,11.26,0,0,1-2.06-3.89,15.53,15.53,0,0,1-.69-4.65,19.56,19.56,0,0,1,.32-3.47,19.9,19.9,0,0,1,1-3.59,18.33,18.33,0,0,1,1.66-3.35,13,13,0,0,1,2.33-2.81,10.7,10.7,0,0,1,3-1.94,9.15,9.15,0,0,1,3.68-.71,8.68,8.68,0,0,1,3,.52A7.42,7.42,0,0,1,356,39.78a6.64,6.64,0,0,1,1.63,2.3,7.53,7.53,0,0,1,.59,3,8.11,8.11,0,0,1-.9,3.63,13.16,13.16,0,0,1-2.47,3.43A17.66,17.66,0,0,1,351,55a19.64,19.64,0,0,1-4.73,2,8.39,8.39,0,0,0,.87,1.32,3.84,3.84,0,0,0,.86.82,2.61,2.61,0,0,0,.92.41,4.3,4.3,0,0,0,1,.12,10.92,10.92,0,0,0,3.71-.7,24.49,24.49,0,0,0,3.79-1.76A32.37,32.37,0,0,0,361,54.9a30.48,30.48,0,0,0,2.78-2.36l3.78,3.93a38.39,38.39,0,0,1-5.48,4.71c-.84.59-1.74,1.17-2.71,1.73a23.9,23.9,0,0,1-3,1.51A22,22,0,0,1,353,65.48,15.67,15.67,0,0,1,349.53,65.87ZM345.64,52.1a5.84,5.84,0,0,0,2.3-.54,10.43,10.43,0,0,0,2.31-1.39,9.8,9.8,0,0,0,1.8-1.85,3.28,3.28,0,0,0,.74-1.93,4.38,4.38,0,0,0-.49-2.17,1.38,1.38,0,0,0-1.18-.85,4.42,4.42,0,0,0-3.65,1.69,6.37,6.37,0,0,0-1,1.69,12.64,12.64,0,0,0-.56,1.92,14.23,14.23,0,0,0-.24,1.88C345.66,51.15,345.64,51.67,345.64,52.1Z" />
        <path id="r-4" data-name="r" class="cls-3"
            d="M362.69,59.75c0-.86.05-1.86.14-3s.23-2.35.4-3.62.36-2.57.59-3.88.46-2.58.71-3.77.51-2.28.76-3.28a20.41,20.41,0,0,1,.77-2.46,5.32,5.32,0,0,1,.47-1,2,2,0,0,1,.54-.6,1.86,1.86,0,0,1,.76-.29,7.16,7.16,0,0,1,1.13-.07,7.27,7.27,0,0,1,1.18.07.94.94,0,0,1,.63.35A1.58,1.58,0,0,1,371,39c0,.35.05.83.05,1.43V43c0,1,0,2,.05,3h.33l1.32-2.63a17.1,17.1,0,0,1,1.69-2.71,10.5,10.5,0,0,1,2.2-2.12,4.79,4.79,0,0,1,2.84-.86,3.13,3.13,0,0,1,1.09.19,2.57,2.57,0,0,1,.92.54,2.63,2.63,0,0,1,.63.86,2.7,2.7,0,0,1,.23,1.16,8.69,8.69,0,0,1-.14,1.39c-.1.6-.21,1.22-.32,1.88s-.23,1.29-.33,1.9a11.18,11.18,0,0,0-.14,1.54,6.72,6.72,0,0,0,.2,1.76,3.34,3.34,0,0,0,.54,1.12,1.91,1.91,0,0,0,.77.61,2.43,2.43,0,0,0,.89.17,7,7,0,0,0,2.72-.58A18.31,18.31,0,0,0,389.14,49a24.06,24.06,0,0,0,2.7-1.94l-.44,6.86L389.67,55a20.3,20.3,0,0,1-2.07,1.16,16.17,16.17,0,0,1-2.28.91,8.3,8.3,0,0,1-2.42.36,6.28,6.28,0,0,1-3.54-.89,6.59,6.59,0,0,1-2.14-2.34,11.66,11.66,0,0,1-1.17-3.26c-.26-1.2-.46-2.41-.62-3.64H375l-5.24,14.62a17.14,17.14,0,0,1-.78,1.89A6.52,6.52,0,0,1,368.2,65a2.28,2.28,0,0,1-.83.66,2.32,2.32,0,0,1-1,.19A3,3,0,0,1,363.35,64a6.41,6.41,0,0,1-.53-2A18.6,18.6,0,0,1,362.69,59.75Z" />
    </g>
</svg>