<svg xmlns="http://www.w3.org/2000/svg" viewBox="0 0 708.66 1133.86"><g style="isolation:isolate"><g id="Calque_1" data-name="Calque 1"><path d="M463.8,274.75c-.42-1.43-1.46-1.71-2.26-.72s-1.38,3.92-1.76,5.36c-.62,2.4-1.06,4.89-1.62,7.32a284.76,284.76,0,0,1-17.38,52.2,243.62,243.62,0,0,1-13.71,26.48c-5.11,8.47-11.48,15.79-16.19,24.63-.58,1.09.24,2.57,1.16,1.88,5.89-4.4,10.8-12,15.26-18.71A227.44,227.44,0,0,0,440.2,351,245.46,245.46,0,0,0,459,301.25q1.69-6.54,3.1-13.22c.46-2.2,1-4.45,1.32-6.71C463.66,279.94,464.22,276.17,463.8,274.75Z" style="fill:#51b5ed"/><path d="M229.4,275.07a1.29,1.29,0,0,1,2.3-.22c.75.95,1,3.2,1.23,4.36.38,1.93.58,3.9.9,5.84A191.27,191.27,0,0,0,246,327.56a182.88,182.88,0,0,0,11,22.28c4.24,7.23,9.83,13.77,13.63,21.23.47.92-.49,1.93-1.33,1.27-5.4-4.23-9.52-10.75-13.28-16.56a178.55,178.55,0,0,1-10.62-18.86,169.79,169.79,0,0,1-13.82-40.87q-1.05-5.25-1.79-10.57c-.24-1.75-.56-3.55-.66-5.33C229,279.06,228.85,276.09,229.4,275.07Z" style="fill:#51b5ed"/><path id="sleeve" d="M110.06,437.23s-51.37,516.6-75.32,569.66c-3,66.58,55,18.88,55,18.88l42.83-150.54s50.18-194,50.67-207.57S110.06,437.23,110.06,437.23Z" style="fill:#eac6ad"/><path id="sleeve-2" data-name="sleeve" d="M703.53,758.92S597.65,531.63,603.31,493.37s.7-54.15-12.22-61.21-149.45,13-149.45,13-37.66,25.24-35.17,36-8.15,316.48,9.93,354.44,26,180.45,23.45,177.56l108.51-30.3S515,762.55,525,720.42s18.38-67.67,18.38-67.67L659.55,797.33Z" style="fill:#fff"/><path id="sleeve-3" data-name="sleeve" d="M571.12,681.67C567.54,668.55,605.4,458.4,605.4,458.4s2.78,92,42.23,168.22c.1.3,49,86.67,48.72,86.77-10,2.09-77,33.76-77,33.76" style="fill:#f1f1f1"/><g id="jacket"><path id="shoulders" d="M546.2,513.44s1.29-34.18-24.05-56.24S434.91,409,344.78,410.4s35.08,101.06,35.08,101.06Z" style="fill:#fff"/><path id="shoulders-2" data-name="shoulders" d="M147.24,513.44s-1.29-34.18,24-56.24,87.24-48.29,177.47-46.9-35.08,101.16-35.08,101.16-56.34.69-103.44,1.29C176.36,513.05,147.24,513.44,147.24,513.44Z" style="fill:#fff"/></g><path id="shoulders-3" data-name="shoulders" d="M336.51,420.44C226.32,420.44,137,463,137,515.43s89.33,95,199.52,95S536,567.9,536,515.43,446.71,420.44,336.51,420.44Z" style="fill:#fff"/><path id="ear" d="M235,229.16s-11.33-4.57-20,.79-11.82,28.92-4.47,39.25S225.44,292,233.39,293s17.09-1.59,17.09-1.59l-3.28-31.5Z" style="fill:#f2c2a0"/><path id="ear-2" data-name="ear" d="M452.79,229.16s11.43-4.57,20,.79,11.83,28.92,4.48,39.15-14.91,22.66-22.86,23.65-17.09-1.59-17.09-1.59l3.28-31.4Z" style="fill:#f2c2a0"/><path id="shirt" d="M414.62,450.45,352,483.24H297.26l-7.35-55.45-6.06-10.73s-136,9.34-157.39,8.64c-6.56,1.39-34.78,12-28.42,39.75,6.75,29.91,70.65,314.79,70.65,314.79l-19,168.92s-25.14,31.4-10,38.36,173.69,31.79,223.57,30.3,204.5,1.69,209.67-18.78-34.29-129.57-34.29-129.57l-76.9-376.3Z" style="fill:#fff"/><path id="sleeve-4" data-name="sleeve" d="M180.41,703.73c0-13.61-83.86-246.63-83.86-246.63S56.1,878.61,40.11,913.19a.44.44,0,0,0,.39.6c10.24-.7,84.37,27.32,84.37,27.32" style="fill:#f1f1f1"/><path id="sleeve-5" data-name="sleeve" d="M213.2,416.46c-12.82.4-25.34,2.79-68.76,5.17,0,0,.89,76.91,13,160.18,11.23,77.7,8.64,154.91,8.64,194.75s-43.42,192-45,206.19,133.25,35.77,158.29,37.16c50.77-1.39,64.88-141.89,69.16-254.57,7.35-75.32,13.21-71.94.79-114.57" style="fill:#3d4251"/><path id="earring" d="M461.83,285a7.36,7.36,0,1,1-7.35,7.35A7.34,7.34,0,0,1,461.83,285Z" style="fill:#4189c6"/><path id="neck" d="M398.54,372.25H288.84v82.67l55,24.84,54.75-24.84Z" style="fill:#f2c2a0"/><path id="face" d="M338.62,71.66c69.26-1.09,108.51,34.09,124.8,86.05,20.08,63.9-9.34,136.63-33.48,177.87C420.1,352.47,411.26,369,395.66,380c-10.54,7.45-25.34,12-40.35,14.7-19,3.38-44.91-4-55.44-10.23-37.66-22.26-67.27-95.29-78.3-145.57-5-22.66-4-55,2.08-75.42,11.83-40.25,34.09-68.56,71.35-83.17,9.14-3.58,19.57-5.37,30.21-7.35C329.58,72.46,334.15,72.06,338.62,71.66Z" style="fill:#f2c2a0"/><path id="eye" d="M293.11,215.25a23.05,23.05,0,1,1-23.05,23.05A23.06,23.06,0,0,1,293.11,215.25Z" style="fill:#fff"/><path id="pupill" d="M302.25,238.1a9.86,9.86,0,0,1-9.83,9.84,9.74,9.74,0,0,1-8.95-5.86,4.64,4.64,0,0,0,2,.49,4.08,4.08,0,1,0-2.38-7.35,9.79,9.79,0,0,1,19.17,2.88Z" style="fill:#333"/><path id="eye-2" data-name="eye" d="M397.35,215.25a23.05,23.05,0,1,1-23.06,23.05A23.07,23.07,0,0,1,397.35,215.25Z" style="fill:#fff"/><path id="pupill-2" data-name="pupill" d="M406.49,238.1a9.86,9.86,0,0,1-9.84,9.84,9.74,9.74,0,0,1-8.94-5.86,4.6,4.6,0,0,0,2,.49,4.08,4.08,0,1,0-2.38-7.35,9.8,9.8,0,0,1,19.18,2.88Z" style="fill:#333"/><path id="glasses" d="M333.65,238.9h24.84v10.23H333.65Z" style="fill:#4189c6"/><path id="glasses-2" data-name="glasses" d="M326.4,207.1H260.32a8.19,8.19,0,0,0-8.15,8.15v50.57a8.18,8.18,0,0,0,8.15,8.15H326.4a8.18,8.18,0,0,0,8.15-8.15V215.25A8.19,8.19,0,0,0,326.4,207.1Zm-1.79,51.67a6.1,6.1,0,0,1-6.16,6.06h-50a6.1,6.1,0,0,1-6.16-6.06V221.31a6.1,6.1,0,0,1,6.16-6.06h50a6.1,6.1,0,0,1,6.16,6.06Z" style="fill:#4189c6"/><path id="glasses-3" data-name="glasses" d="M429.54,207.1H363.46a8.19,8.19,0,0,0-8.15,8.15v50.57a8.18,8.18,0,0,0,8.15,8.15h66.08a8.18,8.18,0,0,0,8.15-8.15V215.25A8.19,8.19,0,0,0,429.54,207.1Zm-1.69,51.67a6.1,6.1,0,0,1-6.16,6.06h-50a6.1,6.1,0,0,1-6.16-6.06V221.31a6.1,6.1,0,0,1,6.16-6.06h50a6.1,6.1,0,0,1,6.16,6.06Z" style="fill:#4189c6"/><path id="eyebrows" d="M294.9,176.69c-24.54.5-38.75,8.55-38.75,16.8s13,6,22.85,2.08,22.66-3.57,28.12.4,17,5.17,17.49-3.28S303.25,176.49,294.9,176.69Z" style="fill:#a3634d"/><path id="eyebrows-2" data-name="eyebrows" d="M394.86,176.49c24.55.5,38.75,8.45,38.75,16.7s-13,6-22.85,2.08-22.75-3.57-28.12.4-17.09,5.07-17.59-3.28S386.52,176.3,394.86,176.49Z" style="fill:#a3634d"/><path id="collar" d="M274,382.58,348,479.26l-45.41,12.52-50.48-62.5s.1-18.18,4.08-26.73S274,382.58,274,382.58Z" style="fill:#fff"/><path id="collar-2" data-name="collar" d="M416,395.6l-76.22,85.15,44.42,11,49.38-55.15s-.09-16-4-23.55S416,395.6,416,395.6Z" style="fill:#fff"/><path id="beard" d="M456.37,278.24c-7.65,22.16-12.32,56.84-21,76.42-6.95,22.65-23.13,32.65-38.63,43.68-10.53,7.46-25.34,12-40.34,14.71-19,3.38-54.35-.7-64.89-6.86-27-15.9-41.55-79.55-56.36-120.69a31.48,31.48,0,0,1,.7-7.75c.39-.1.79-.3,1.19-.4,6.06-2.28,12.22,4.17,15.5,6.56,11.82,8.74,20.37,19.87,31,29.81-2.18-8.15,4.37-26.23,12.62-19.18,3.78,2.68.5,12.12,1.59,17.09,18,12.12,19.87-9.84,28.52-14.31,5.86-1.09,11.33,3.88,17.09,4.87,9.44,1.69,13.91-4.87,22.06-5.26,8.15,4.67,8.15,20,22.46,17.09,3.57-.7,5.16-.5,6.55-3.28,2.69-5.17-1.68-13.42,1.2-16.7s3.28-.49,4.87-.79c6,2.78,11.32,11.13,8.14,20,3.38-3.67,6.76-7.35,10.24-11,10.33-10.43,19.77-18.68,33.88-25.73.8.1,1.59.29,2.49.39C455.67,277.35,456,277.75,456.37,278.24Z" style="fill:#a3634d"/><path id="mounth" d="M313.68,328.23s8.25,14.4,31.4,13.91,31-13.91,31-13.91-15.1-4.87-27.32-4.87c-5.27,0-10.64,2.88-17.59,4.07S313.68,328.23,313.68,328.23Z" style="fill:#f2c2a0"/><path id="hears" d="M219.08,220.91s6.07-16.89,6.56-23.65,5.17-46.6,19.58-66.47c9.34-14.31,22.85-17.29,36.27-14.31s28.91,11.13,44.91,8.94,56.34-22.46,73-14.71,44.62,21.27,47.7,46.9,21.16,66.08,21.16,66.08,9.34-65.38,9.34-82.77S432.22,72.26,423,62.22s-39.25-36.36-57.13-35.47-41.94,15.4-51.38,16.3-15.69-3.58-26.13-1.59-21.46,1.39-53.06,34.28S207,157.91,209.15,185.44,219.08,220.91,219.08,220.91Z" style="fill:#a3634d"/><path d="M333.65,117.37s22.06-25.44,36.27-36.66,31.8-24,31.8-24S387.91,60,367,77.82A176.44,176.44,0,0,0,333.65,117.37Z" style="fill:#b27362"/><g id="tie"><path id="tie-2" data-name="tie" d="M330.31,486s86.7-49.89,94.1-18.63,15.65,55-7.36,59.32S330.31,486,330.31,486Z" style="fill:#3373aa"/><path id="tie-3" data-name="tie" d="M345.27,478.55c-24.84-12.91-73.82-35.13-79.51-11.8-7.69,31.36-16.23,55.11,6.78,59.73,16.16,3.2,52.59-17.88,72.76-30.63C345.39,480.54,345.25,493.55,345.27,478.55Z" style="fill:#4189c6"/></g><path id="sleeve-6" data-name="sleeve" d="M476.52,435.74c22.85-2.09,29.91-4,80.59-5.66,0,0-3.38,78-11.63,152.42-7,62.8-8.64,99.47-19.28,166.44-5.36,58.13,57.34,214,57.34,248,0,14.31-69.36,23-188,28.22-33.09,0-52.07-86.45-60.22-186.91.5-91.91.9-179.06,8.15-191.28" style="fill:#3d4251"/><path d="M354.4,820.58a10.93,10.93,0,1,1-10.93-10.93A10.9,10.9,0,0,1,354.4,820.58Z" style="fill:#474b56"/><path d="M357.88,710.09A10.93,10.93,0,1,1,347,699.16,10.9,10.9,0,0,1,357.88,710.09Z" style="fill:#474b56"/><path id="hand" d="M35.81,999.34s-36.07,42.23-34.48,62.3,3.47,53.56,19.17,61,70.75,6.75,79.69-15.8-6.36-100.07-6.36-100.07Z" style="fill:#f2c2a0"/><path id="handle" d="M40.21,908.42l5.66-50.48s24.24-10.53,55.54-7.35S146,873.35,146,873.35l-17.59,68.86L57.89,931.57A21,21,0,0,1,40.21,908.42Z" style="fill:#fff"/><path d="M467.87,225c-2.59,5.83-4.05,12.63-6,18.9-2.06,6.64-4.39,13.13-6.85,19.52q-3.55,9.25-7.71,18.06c-1.34,2.84-2.68,5.68-4,8.49-1.13,2.33-2.88,5.48-2.11,8.4.19.71.58,1.11,1.14,1.17,2.09.21,3.7-2.42,4.9-4.46,1.71-2.92,3.34-6,4.88-9.09,3-6.13,5.79-12.52,8.34-19,2.46-6.27,4.61-12.74,6.6-19.31,2-6.74,4.27-13.93,4.65-21.25C471.83,223.54,468.86,222.75,467.87,225Z" style="fill:#51b5ed"/><path d="M220.68,222.19c3.07,6.05,4.79,13.11,7.1,19.61,2.45,6.89,5.21,13.63,8.12,20.25q4.22,9.61,9.14,18.74,2.39,4.43,4.79,8.82c1.34,2.41,3.42,5.68,2.5,8.71a1.54,1.54,0,0,1-1.34,1.21c-2.48.22-4.4-2.52-5.81-4.62-2-3-4-6.22-5.79-9.44-3.59-6.36-6.86-13-9.89-19.74-2.92-6.5-5.47-13.22-7.82-20-2.42-7-5.07-14.46-5.52-22A2.4,2.4,0,0,1,220.68,222.19Z" style="fill:#51b5ed"/><path d="M448,317.68c-.1.78-.21,1.59-.32,2.4a176.72,176.72,0,0,1-6,26.73c-.24.78-.49,1.56-.76,2.34A161.09,161.09,0,0,1,432.28,371q-2.38,5-5.2,9.8a112.86,112.86,0,0,1-11.76,16.75c-12.63,14.75-41.11,28-69.68,27.59-26.81-.35-53.68-13.32-67.54-28.48a128.61,128.61,0,0,1-15.51-20.95q-2.46-4.07-4.63-8.23a174.84,174.84,0,0,1-10-23.29c-.67-2-1.32-4-1.91-5.92A162.64,162.64,0,0,1,240.86,316c-.37-2.24-.67-4.39-.88-6.38-1-9.83-.49-16.59,1.23-18,5.58-4.64,14.06,3.49,37.34.56,27.52-3.47,40.71-22.59,69.35-20.84s41.25,16.67,59.34,20.06c21.08,4,33.81-1,39.68,4.36C448.94,297.6,449.45,306,448,317.68Z" style="fill:#a6e8ff"/><path d="M345.83,416.81c-26.41-.35-50.42-13.67-61.54-25.9-28-30.72-36.65-74.74-37-91a93,93,0,0,0,18.83,2,94.19,94.19,0,0,0,11.8-.77c14.41-1.83,25.45-7.29,35.19-12.11,10.32-5.1,19.22-9.51,31.09-9.51,1,0,2,0,3.1.09,15.36.95,25.66,6.18,35.62,11.25,7.41,3.77,15.08,7.67,24.12,9.38a119.1,119.1,0,0,0,22.68,2c1.59,0,3.1,0,4.52,0l3.42,0c1.38,0,2.43,0,3.23.08.79,14.21-7,60.54-31.92,89.86-10.18,12-35.4,24.7-62.1,24.7Z" style="fill:#aadef7"/><g style="opacity:0.27"><path d="M424,349c-.2.54-.39,1.07-.61,1.61a179.69,179.69,0,0,1-39.29,10.64c-21.58,3.2-42.3,1.86-62.21-.67-6.31-.81-12.54-1.74-18.69-2.87a211.75,211.75,0,0,1-31.46-8c-2.21-.76-4.3-1.59-6.35-2.49-.55-1.37-1.08-2.74-1.57-4.07,1.68.35,3,.61,3.53.74,20.35,4.47,40.78,9,62.54,10.54,18.85,1.37,38.49.56,58.18-.68C399.91,353,412,352,424,349Z" style="fill:#4189c6;mix-blend-mode:multiply"/><path d="M429.18,329c-.09.53-.17,1.09-.26,1.64-55.49,11.62-114.68,11.05-169.37-2.81-.31-1.54-.56-3-.73-4.38,1.43.24,2.86.53,4.3.81,14.39,2.85,28.79,5.77,43.43,7.4,17.59,2,35.4,2,53.12,1.68C382.91,332.85,406.17,331.66,429.18,329Z" style="fill:#4189c6;mix-blend-mode:multiply"/><path d="M416.29,365.59q-1.95,3.44-4.26,6.73c-46.12,16.76-90.54,15.28-134.69-3.49-1.35-1.87-2.61-3.76-3.8-5.66a321.08,321.08,0,0,0,62.3,12c17.46,1.51,35.23,1.62,52.85-1.37C398,372.19,407.12,369,416.29,365.59Z" style="fill:#4189c6;mix-blend-mode:multiply"/></g><path id="sleeve-7" data-name="sleeve" d="M672.91,674S505.43,534.25,475,484.52c-53.25-40-46.62,34.7-46.62,34.7L528.6,639.4s81.73,96.78,92.7,104.86S672.91,674,672.91,674Z" style="fill:#eac6ad"/><path id="sleeve-8" data-name="sleeve" d="M570.35,557.59s178,165.83,128.26,220.5-85.05-5.26-85.05-5.26L507.9,616.71a122.68,122.68,0,0,0,26.8-21.81C548,580.47,570.35,557.59,570.35,557.59Z" style="fill:#f1f1f1"/><path id="handle-2" data-name="handle" d="M589.6,564.14l40.64,44.12s-9.55,30.16-36.93,56.28-55.2,23-55.2,23l-47.74-69.13,64.71-55.95A24.68,24.68,0,0,1,589.6,564.14Z" style="fill:#fff"/><path id="hand-2" data-name="hand" d="M477.07,526.7c6.34-15.66-.29-118.5-19.26-125.36s-47.22-18-59.49-16.75-21.23,1.22-27.15,7.9-20.51,27.85-17.8,39.65,39,18.93,47.39,26.95,14.1,40.84,19.75,47.91,21.35,38.77,39.66,33.13S470.73,542.36,477.07,526.7Z" style="fill:#f2c2a0"/><path d="M507.13,577.75c1.13.63,2.05,1.18,2.77,1.54a15.56,15.56,0,0,0,2,.79,2.5,2.5,0,0,0,1.49-.08,3.51,3.51,0,0,0,1.35-.77,2.08,2.08,0,0,0,.74-1.13,5,5,0,0,0,0-1.29c-.12-.4-.25-.89-.37-1.38a7,7,0,0,1-.48-1.56,2.74,2.74,0,0,0-.13-.59c-.12-.4-.24-.79-.37-1.38a17.18,17.18,0,0,0-.6-1.86c-.23-.68-.37-1.37-.61-2s-.36-1.28-.59-1.86-.35-1-.47-1.37l-.33-.58a1.67,1.67,0,0,0-.52-.37,1.82,1.82,0,0,0-1.19.06c-.19.11-.39.12-.48.23s-.29.21-.39.22-.09.1-.19.1a1,1,0,0,0-.46.73,2.7,2.7,0,0,0,.14.88l4.37,11-8.42-4.93a1.66,1.66,0,0,0-.62-.27,7.76,7.76,0,0,0-.8-.15l-.89,0a1.26,1.26,0,0,0-.78.44.92.92,0,0,0-.35.82,1.47,1.47,0,0,0,.45,1,4.46,4.46,0,0,0,1,.84,15.49,15.49,0,0,0,1.43.82l1.54.81C506.2,577.1,506.71,577.37,507.13,577.75Z" style="fill:#333"/><path d="M491,574.72a6.65,6.65,0,0,1-2.36.52,4.6,4.6,0,0,1-2.11-.38,4.27,4.27,0,0,1-1.66-1.31,5.35,5.35,0,0,1-1.1-1.93,7,7,0,0,1-.53-2.56,17.6,17.6,0,0,1,.13-3.09,18.39,18.39,0,0,1,.91-3.53,28.56,28.56,0,0,1,1.79-3.88,34.14,34.14,0,0,1,2.66-4.22,18.4,18.4,0,0,1-2.16-1.28,5.91,5.91,0,0,1-1.45-1.21.86.86,0,0,1-.33-.58l0-.3,0-.4,0-.39c0-.2,0-.2.08-.31l.4,0a1.15,1.15,0,0,1,.5.08,1.42,1.42,0,0,1,.61.16c.2.09.4.08.5.18.62.26,1.32.42,1.93.69a13.54,13.54,0,0,0,1.93.69c.84-.94,1.79-1.88,2.73-2.83s2.09-1.9,3.24-2.85a22.35,22.35,0,0,1,4.51-3,12.69,12.69,0,0,1,3.72-1.19,5.39,5.39,0,0,1,2.9.24,5.23,5.23,0,0,1,2.07,1.49,5.46,5.46,0,0,1,1,1.64,6.16,6.16,0,0,1,.4,2,5.47,5.47,0,0,1-.08,2.19,9,9,0,0,1-.67,2.32,12.6,12.6,0,0,1-1.28,2.16,11.75,11.75,0,0,1-1.89,2,5,5,0,0,1-2,1.1,9.11,9.11,0,0,1-2.46.53,12.79,12.79,0,0,1-2.78,0c-1-.15-2-.19-3-.44a14.59,14.59,0,0,1,1,4.52,16.51,16.51,0,0,1-.36,4.5,13.93,13.93,0,0,1-1.59,4,12.2,12.2,0,0,1-2.52,3A16.25,16.25,0,0,1,491,574.72Zm.91-5.42c.36-.71.72-1.43,1.07-2.25s.51-1.71.76-2.62a14.54,14.54,0,0,0,.35-2.91,13.86,13.86,0,0,0-.26-2.87,12.63,12.63,0,0,0-1-2.73l-.6-.17a39.32,39.32,0,0,0-3.6,5.37,24.22,24.22,0,0,0-1.85,4.47,11.63,11.63,0,0,0-.42,3.41,3.37,3.37,0,0,0,.71,2.15,1.78,1.78,0,0,0,1.53.62,3.73,3.73,0,0,0,2-1A4.61,4.61,0,0,0,491.86,569.3Zm14.68-17.89a9.64,9.64,0,0,0,.72-1.33,7.87,7.87,0,0,0,.42-1.42,3.3,3.3,0,0,0,.23-1.4,5.52,5.52,0,0,0-.17-1.29,1.75,1.75,0,0,0-.45-1,1.47,1.47,0,0,0-.92-.55,1.89,1.89,0,0,0-1.3,0,11.71,11.71,0,0,0-1.75.79,11.32,11.32,0,0,0-2.3,1.62c-1.24,1.06-2.38,2.11-3.42,3.06s-2,2-2.93,2.94a19.93,19.93,0,0,0,3.32.72,17.47,17.47,0,0,0,3,.24,7.21,7.21,0,0,0,2.57-.33,4,4,0,0,0,2-1A5,5,0,0,0,506.54,551.41Z" style="fill:#333"/><path d="M475.94,529.74a29.31,29.31,0,0,1-1.95,2.69,10.35,10.35,0,0,1-1.79,1.89,2.37,2.37,0,0,1-1.36.67,1.3,1.3,0,0,1-1.22-.63,1.91,1.91,0,0,1-.34-.78c-.12-.3-.15-.79-.27-1.28a11.8,11.8,0,0,1,0-1.79c.07-.7,0-1.5.18-2.4a.73.73,0,0,0-.4.12,2.91,2.91,0,0,0-.78.24c-.39.12-.88.34-1.47.48a15.15,15.15,0,0,0-.14,2.89,18.69,18.69,0,0,0,.23,2.47,10.56,10.56,0,0,0,.6,2.06,5.18,5.18,0,0,0,.88,1.45,4.46,4.46,0,0,0,1.34,1,4.21,4.21,0,0,0,1.62.41,5.43,5.43,0,0,0,1.77-.29,5.72,5.72,0,0,0,1.84-1.09c.18-.21.47-.42.75-.74s.57-.62.94-1a15.94,15.94,0,0,0,1-1.45c.37-.52.74-1,1.21-1.65.65,1.06,1.4,2,2,3l1.94,2.88c-.46.73-.82,1.44-1.29,2.06s-.82,1.34-1.19,2-.63,1.12-1,1.64-.55.93-.73,1.33a9,9,0,0,0-.77,2.33,1.72,1.72,0,0,0,.26,1.28c.11.19.32.28.53.47l.61.27a.62.62,0,0,0,.59,0,.84.84,0,0,0,.58-.33l.29-.32c.83-1.23,1.66-2.47,2.39-3.61s1.47-2.36,2.1-3.59a5.44,5.44,0,0,0,1.05,1,4.6,4.6,0,0,0,1.13.74,5.58,5.58,0,0,0,1.31.33,4,4,0,0,0,1.48-.28c.2-.11.3-.12.39-.22s.19-.11.29-.22c.28-.21.37-.51.16-.7a1.87,1.87,0,0,0-.61-.27,4.15,4.15,0,0,0-1.2,0,7.25,7.25,0,0,0-.85-1.05,13.23,13.23,0,0,1-.86-1.15l-.85-1c.46-.82.91-1.64,1.37-2.36s.82-1.44,1.28-2.16a10.82,10.82,0,0,1,.93-1.24,5.17,5.17,0,0,1,1-1,3.89,3.89,0,0,1,.86-.55,3.38,3.38,0,0,1,.79-.24,1.25,1.25,0,0,1,.8.16,1.93,1.93,0,0,1,.73.56,3.56,3.56,0,0,1,.54.87c.12.39.34.77.47,1.27a7.82,7.82,0,0,1,.28,1.67l.11,2.09a1.49,1.49,0,0,0,.14.68,1,1,0,0,0,.22.49c0,.1.2,0,.4-.12a7.63,7.63,0,0,0,.76-.54,3.16,3.16,0,0,0,.84-1.14,3.25,3.25,0,0,0,.32-1.51,4.87,4.87,0,0,0-.09-1.68c-.13-.59-.26-1.18-.39-1.67a4.29,4.29,0,0,0-.68-1.56,12.46,12.46,0,0,0-.76-1.25,8.48,8.48,0,0,0-1.36-1.32,5.73,5.73,0,0,0-1.63-.71,4.14,4.14,0,0,0-1.88.19,5.24,5.24,0,0,0-2,1.21,14.51,14.51,0,0,1-1.14,1.05c-.37.42-.84,1-1.31,1.56s-.93,1.25-1.39,2-.92,1.44-1.48,2.16c-.53-.76-1.18-1.62-1.92-2.58s-1.5-1.91-2.14-2.87c.92-1.34,1.84-2.79,2.75-4.33s1.83-3,2.65-4.52a3,3,0,0,0,.42-1.51,2,2,0,0,0-.47-1.27,1.4,1.4,0,0,0-.42-.37c-.2-.09-.3-.19-.5-.18l-.6,0a.9.9,0,0,0-.58.33,2.76,2.76,0,0,0-.57.53,4.63,4.63,0,0,0-.56.73c-.27.51-.63,1.13-1,1.74l-1.09,1.85c-.37.62-.74,1.23-1.2,1.95s-.82,1.34-1.19,2c-.32-.48-.64-.86-.86-1.25a3.65,3.65,0,0,0-.54-.77c-.1-.09-.11-.19-.2-.19s-.11-.09-.11-.19c-.21-.19-.32-.38-.53-.47a.79.79,0,0,0-.4-.18.69.69,0,0,0-.4.12c-.09.11-.29.12-.38.22a.54.54,0,0,0-.28.42.83.83,0,0,0,0,.79c.11.09.12.29.22.39a2.21,2.21,0,0,0,.33.48.32.32,0,0,1,.11.19v.1l.11.09a1.52,1.52,0,0,1,.21.29,1.76,1.76,0,0,1,.33.58c.21.29.33.58.54.87C475.52,529.27,475.72,529.46,475.94,529.74Z" style="fill:#333"/><path d="M458.45,518.83a10.57,10.57,0,0,1,.58,1.66c.23.58.36,1.17.59,1.66s.35,1.07.58,1.56a6.28,6.28,0,0,0,.66,1.16,1.85,1.85,0,0,0,.92.65,1.05,1.05,0,0,0,.89-.25l.56-.63a1.41,1.41,0,0,0,.26-.71,1.24,1.24,0,0,0,.07-.6l0-.49L460,513.17l8.77,5.9a5.54,5.54,0,0,0,.81.36.85.85,0,0,0,.79-.24.1.1,0,0,0,.09-.11l.28-.31c.1-.1.18-.31.28-.41s.18-.31.27-.51a1.27,1.27,0,0,0,.07-.6.84.84,0,0,0-.33-.58,1.31,1.31,0,0,0-.42-.38c-.31-.18-.62-.36-1-.64a15.49,15.49,0,0,0-1.43-.82,12.5,12.5,0,0,1-1.55-.91c-.51-.28-1-.55-1.43-.82a3.87,3.87,0,0,0-1.12-.54.72.72,0,0,1-.42-.28,15.49,15.49,0,0,1-1.43-.82,8.4,8.4,0,0,0-1.33-.63,2.77,2.77,0,0,0-1.21-.23,1.56,1.56,0,0,0-1.16.56,3.71,3.71,0,0,0-1,1.15,3.27,3.27,0,0,0-.32,1.51,7.7,7.7,0,0,0,.31,2.07A16.78,16.78,0,0,0,458.45,518.83Z" style="fill:#333"/></g></g></svg>