<svg id="Logo_JHipster_V2" data-name="Logo JHipster V2" xmlns="http://www.w3.org/2000/svg"
    xmlns:xlink="http://www.w3.org/1999/xlink" viewBox="0 0 408 96">
    <defs>
        <style>
            .cls-1 {
                fill: url(#Dégradé_sans_nom_22);
            }

            .cls-2 {
                fill: url(#Dégradé_sans_nom_58);
            }

            .cls-3 {
                fill: #343333;
            }

            .cls-4 {
                fill: none;
                stroke: #fff;
                stroke-linecap: round;
                stroke-linejoin: round;
                stroke-width: 2px;
            }
        </style>
        <linearGradient id="Dégradé_sans_nom_22" x1="8.14" y1="48" x2="128.14" y2="48" gradientUnits="userSpaceOnUse">
            <stop offset="0" stop-color="#3474ab" />
            <stop offset="0.5" stop-color="#2a5d89" />
            <stop offset="0.5" stop-color="#2b5f8c" />
            <stop offset="0.5" stop-color="#346fa2" />
            <stop offset="0.51" stop-color="#3a7ab3" />
            <stop offset="0.52" stop-color="#3f83be" />
            <stop offset="0.53" stop-color="#4188c5" />
            <stop offset="0.55" stop-color="#4289c7" />
        </linearGradient>
        <linearGradient id="Dégradé_sans_nom_58" x1="7.64" y1="47.85" x2="128.64" y2="47.85"
            gradientUnits="userSpaceOnUse">
            <stop offset="0" stop-color="#2e608b" />
            <stop offset="0.01" stop-color="#457298" />
            <stop offset="0.02" stop-color="#7093b0" />
            <stop offset="0.04" stop-color="#97b0c5" />
            <stop offset="0.05" stop-color="#b7c8d7" />
            <stop offset="0.07" stop-color="#d1dce6" />
            <stop offset="0.09" stop-color="#e6ecf1" />
            <stop offset="0.11" stop-color="#f4f7f9" />
            <stop offset="0.14" stop-color="#fcfdfe" />
            <stop offset="0.19" stop-color="#fff" />
            <stop offset="0.2" stop-color="#f6f9fb" />
            <stop offset="0.26" stop-color="#bcd1e3" />
            <stop offset="0.32" stop-color="#8bb0cf" />
            <stop offset="0.37" stop-color="#6596bf" />
            <stop offset="0.42" stop-color="#4a83b4" />
            <stop offset="0.47" stop-color="#3a78ad" />
            <stop offset="0.5" stop-color="#3474ab" />
            <stop offset="0.53" stop-color="#3d7aaf" />
            <stop offset="0.57" stop-color="#558bb9" />
            <stop offset="0.62" stop-color="#7da6c9" />
            <stop offset="0.69" stop-color="#b4cce0" />
            <stop offset="0.76" stop-color="#fafbfd" />
            <stop offset="0.76" stop-color="#fff" />
            <stop offset="0.82" stop-color="#fcfdfe" />
            <stop offset="0.85" stop-color="#f4f7f9" />
            <stop offset="0.88" stop-color="#e6ecf1" />
            <stop offset="0.91" stop-color="#d1dce6" />
            <stop offset="0.93" stop-color="#b7c8d7" />
            <stop offset="0.95" stop-color="#97b0c5" />
            <stop offset="0.97" stop-color="#7093b0" />
            <stop offset="0.99" stop-color="#457298" />
            <stop offset="1" stop-color="#2e608b" />
        </linearGradient>
    </defs>
    <g id="Logo_Bowtie" data-name="Logo Bowtie">
        <path class="cls-1"
            d="M68.63,51.12l-.51-.32c-13.94,8.81-38.5,23-49.51,20.86C2.08,68.41,9,51.44,13.57,31.13,18,11.52,67.93,39,68.41,38.76c18-9.24,50.43-23.45,54.25-7.7,5.2,21.4,11,37.67-4.79,40.73C107,73.9,82.61,59.94,68.63,51.12Z" />
        <path class="cls-2"
            d="M68.63,51.12l-.51-.32h0c-5.68,3.6-11.47,7.06-17.39,10.26a133.79,133.79,0,0,1-18.32,8.45A41.85,41.85,0,0,1,22.6,71.9a14.08,14.08,0,0,1-5.05-.34,14.88,14.88,0,0,1-4.68-1.94,9.87,9.87,0,0,1-3.43-3.74A13.76,13.76,0,0,1,8.06,61a37.59,37.59,0,0,1,.66-10.1c1.2-6.65,3-13.13,4.48-19.7a8.9,8.9,0,0,1,2.42-4.57,10.09,10.09,0,0,1,4.58-2.43,26.67,26.67,0,0,1,10.19-.05,96.15,96.15,0,0,1,19.42,5.75c6.27,2.47,12.4,5.37,18.43,8.29l.24.09c.09,0-.18,0-.29,0l.06,0,.14-.07.56-.29,1.13-.57,2.26-1.12q2.28-1.11,4.57-2.18c3.06-1.42,6.14-2.78,9.27-4s6.3-2.43,9.53-3.45a70.19,70.19,0,0,1,9.85-2.45,26.66,26.66,0,0,1,10.19,0,10.28,10.28,0,0,1,4.63,2.3A8.85,8.85,0,0,1,123,30.87c1.55,6.55,3.34,13.05,4.55,19.69a40.69,40.69,0,0,1,.76,10.1,14.08,14.08,0,0,1-1.19,4.94,10.07,10.07,0,0,1-3.2,3.94,14.24,14.24,0,0,1-4.64,2.07l-1.24.28c-.41.07-.84.12-1.26.17a17.94,17.94,0,0,1-2.54,0,40.06,40.06,0,0,1-9.83-2.3A131.94,131.94,0,0,1,86,61.36C80.1,58.17,74.32,54.72,68.63,51.12Zm0,0c5.7,3.58,11.5,7,17.43,10.18a133.51,133.51,0,0,0,18.36,8.33,39,39,0,0,0,9.8,2.21,14.25,14.25,0,0,0,5-.49,13.77,13.77,0,0,0,4.52-2.07,9.62,9.62,0,0,0,3.06-3.83,14,14,0,0,0,1.12-4.82,40.39,40.39,0,0,0-.85-10c-1.26-6.59-3.11-13.08-4.72-19.61a8.16,8.16,0,0,0-2.41-4.11,9.44,9.44,0,0,0-4.32-2.09,26.23,26.23,0,0,0-9.87.12A68.12,68.12,0,0,0,96,27.41c-3.19,1-6.34,2.19-9.45,3.46s-6.17,2.63-9.21,4.05c-1.52.72-3,1.45-4.54,2.19l-2.26,1.13-1.12.57-.56.29-.14.07-.09,0a.69.69,0,0,1-.44,0l-.34-.14c-6.08-3-12.12-5.85-18.37-8.33A94.93,94.93,0,0,0,30.26,25a26.42,26.42,0,0,0-9.87,0,9.38,9.38,0,0,0-4.27,2.19,8.29,8.29,0,0,0-2.25,4.21c-1.51,6.56-3.4,13-4.65,19.63a36.4,36.4,0,0,0-.75,10,13.32,13.32,0,0,0,1.29,4.77A9.6,9.6,0,0,0,13,69.36a15,15,0,0,0,4.58,1.94,14.26,14.26,0,0,0,5,.38,40.26,40.26,0,0,0,9.78-2.31A135.25,135.25,0,0,0,50.7,61c5.93-3.19,11.72-6.62,17.42-10.2h0Z" />
    </g>
    <g id="JHipster_Title" data-name="JHipster Title">
        <path id="J"
            d="M144.23,73.21a23.46,23.46,0,0,1,1.51-8.07A30.26,30.26,0,0,1,150,57.35a33,33,0,0,1,6.71-6.57,29.5,29.5,0,0,1,8.76-4.38,52.49,52.49,0,0,1-4.65-4.24,35.39,35.39,0,0,1-3.78-4.56,23,23,0,0,1-2.54-4.69,12.92,12.92,0,0,1-.92-4.7,23.87,23.87,0,0,1,2.47-10.68,21.55,21.55,0,0,1,2.74-4.16,19.31,19.31,0,0,1,3.4-3.16,15.28,15.28,0,0,1,3.8-2,11.7,11.7,0,0,1,4-.7,10.49,10.49,0,0,1,5.08,1.34,12.55,12.55,0,0,1,4.35,4.28,25,25,0,0,1,3.05,7.59A48,48,0,0,1,183.61,32c0,3.18-.11,6.21-.34,9.07s-.55,5.6-1,8.22c1.19.74,2.4,1.46,3.62,2.16s2.45,1.41,3.7,2.11l1,.56a12.8,12.8,0,0,1,1.11.69,6.72,6.72,0,0,1,.92.73,1,1,0,0,1,.38.66.87.87,0,0,1-.24.57,4.35,4.35,0,0,1-.59.53,5.63,5.63,0,0,1-.67.42L191,58a2.82,2.82,0,0,1-1.29.26,15.77,15.77,0,0,1-3.85-.64A39.77,39.77,0,0,1,181,55.84a70.55,70.55,0,0,1-3.09,9.91A56.83,56.83,0,0,1,174,73.83a39.78,39.78,0,0,1-4.53,6.22,30.37,30.37,0,0,1-4.83,4.41,20.45,20.45,0,0,1-4.86,2.64,13.72,13.72,0,0,1-4.65.88,10,10,0,0,1-4.29-.94,9.66,9.66,0,0,1-3.44-2.8,13.93,13.93,0,0,1-2.3-4.61A22.11,22.11,0,0,1,144.23,73.21Zm7.5,1.88a7.44,7.44,0,0,0,1.16,4.52A3.63,3.63,0,0,0,156,81.15a8,8,0,0,0,4.38-1.7,20.55,20.55,0,0,0,4.91-5.26,47.36,47.36,0,0,0,4.7-9,73.75,73.75,0,0,0,3.8-13l-1.09-.68a20.25,20.25,0,0,0-5.7,2,28.77,28.77,0,0,0-5,3.44,31,31,0,0,0-4.2,4.38,35.39,35.39,0,0,0-3.21,4.82,25.7,25.7,0,0,0-2.05,4.76A14.41,14.41,0,0,0,151.73,75.09Zm9.38-48.75a11.42,11.42,0,0,0,1,4.65A20.51,20.51,0,0,0,165,35.58a37.61,37.61,0,0,0,4.39,4.5A69.33,69.33,0,0,0,175,44.47q.5-4.06.79-8.57t.29-9.56a33.23,33.23,0,0,0-.44-5.85,14.52,14.52,0,0,0-1.19-3.88,5.18,5.18,0,0,0-1.75-2.15,3.86,3.86,0,0,0-2.13-.66,5.16,5.16,0,0,0-2.2.52,9.85,9.85,0,0,0-2.16,1.45,14.87,14.87,0,0,0-2,2.16,16.35,16.35,0,0,0-1.62,2.62,15.87,15.87,0,0,0-1.1,2.87A11.06,11.06,0,0,0,161.11,26.34Z" />
        <path id="H"
            d="M237.22,43.74q-1,3.6-1.64,6.72a28.45,28.45,0,0,0-.61,5.41A5.12,5.12,0,0,0,235.8,59a3.23,3.23,0,0,0,2.77,1.12,4.82,4.82,0,0,0,1.76-.42,13.38,13.38,0,0,0,2.34-1.33,33,33,0,0,0,3-2.35c1.08-.95,2.29-2.1,3.61-3.42.06.11.18.39.36.82s.37.93.65,1.68.68,1.78,1.19,3.09A42.07,42.07,0,0,1,247,62.25a32.8,32.8,0,0,1-4.3,3,20.93,20.93,0,0,1-4,1.78,11.91,11.91,0,0,1-3.53.61,8.51,8.51,0,0,1-3.43-.69,7.82,7.82,0,0,1-2.74-2,9.78,9.78,0,0,1-1.83-3.24,13.17,13.17,0,0,1-.67-4.38,16.11,16.11,0,0,1,.18-2.14c.11-.86.28-1.83.51-2.93s.5-2.29.82-3.58.68-2.67,1.07-4.12c-2.62.27-5.13.53-7.53.76s-4.8.46-7.18.67c-.55,1.65-1.09,3.25-1.63,4.82s-1.05,3-1.55,4.43L209.82,59c-.43,1.14-.78,2.11-1.07,2.91a14.71,14.71,0,0,1-2.8,4.4,3.84,3.84,0,0,1-2.45,1.29,4.09,4.09,0,0,1-1.38-.24,4,4,0,0,1-1.2-.67,3.28,3.28,0,0,1-.83-1.06,3,3,0,0,1-.31-1.37,3.39,3.39,0,0,1,.12-.91q1.23-4.48,2.68-8.66t2.94-8.13a18.24,18.24,0,0,1-3.09-.25,9.85,9.85,0,0,1-2.74-.86,7.47,7.47,0,0,1-2.24-1.7A8.75,8.75,0,0,1,195.83,41c-.08-.35-.15-.66-.19-.93a4.65,4.65,0,0,1-.08-.82c0-.86.3-1.29.91-1.29a2,2,0,0,1,1.23.6,16.07,16.07,0,0,1,1.73,1.92c.92,0,1.83-.07,2.75-.09s1.91,0,3,0H208q1.06-2.73,2-5.26t1.77-5a25.38,25.38,0,0,0,.8-3.11,16.46,16.46,0,0,0,.29-3,10,10,0,0,0-.21-2.11,4.42,4.42,0,0,0-.67-1.64,3.2,3.2,0,0,0-1.2-1.05,3.86,3.86,0,0,0-1.82-.38,8.17,8.17,0,0,0-2,.29,14,14,0,0,0-2.57.95,26.29,26.29,0,0,0-3.06,1.73,41.18,41.18,0,0,0-3.59,2.65,5.15,5.15,0,0,1-1.24.79,2.72,2.72,0,0,1-1,.24q-.24,0-.36-.78a14.64,14.64,0,0,1-.11-1.92,6.2,6.2,0,0,1,.72-2.9,9.53,9.53,0,0,1,1.91-2.53,15.67,15.67,0,0,1,2.77-2.11,20.26,20.26,0,0,1,3.23-1.61,21.06,21.06,0,0,1,3.29-1,14.83,14.83,0,0,1,3-.35,13.71,13.71,0,0,1,3.92.56,8.82,8.82,0,0,1,3.3,1.79,8.57,8.57,0,0,1,2.26,3.19,12.33,12.33,0,0,1,.83,4.78,20.27,20.27,0,0,1-.31,3.22c-.2,1.27-.48,2.66-.83,4.17s-.77,3.13-1.25,4.84-1,3.45-1.53,5.23q3-.21,6.79-.41l7.59-.41q1.5-4.9,3.3-10.13c1.2-3.48,2.47-6.91,3.82-10.26a7.09,7.09,0,0,1,1.77-2.67,3.76,3.76,0,0,1,2.59-1,3.9,3.9,0,0,1,1.19.18,3,3,0,0,1,1,.54,2.53,2.53,0,0,1,.69.94,3.22,3.22,0,0,1,.25,1.33c0,.45,0,1-.09,1.57a7.65,7.65,0,0,1-.47,1.92c-.45,1.21-.92,2.5-1.43,3.88s-1,2.79-1.54,4.25-1,2.94-1.55,4.47-1,3-1.48,4.54l3.22-.22,2.08-.16.6,0h.51a5,5,0,0,1,1.42.17,2,2,0,0,1,.85.5,1.75,1.75,0,0,1,.43.76,3.86,3.86,0,0,1,.12,1,1.8,1.8,0,0,1-.27,1,1.9,1.9,0,0,1-.66.66,2.41,2.41,0,0,1-.83.35,5.64,5.64,0,0,1-.82.14l-1.17.13-.5.06-.19,0-.22,0-.62,0-1.35.12-2.06.2Z" />
        <path id="i"
            d="M268,59.47a26.7,26.7,0,0,1-2.62,2.07,28.48,28.48,0,0,1-3.38,2,26.36,26.36,0,0,1-3.71,1.53,11.3,11.3,0,0,1-3.59.62,6.86,6.86,0,0,1-2.56-.42,4.34,4.34,0,0,1-1.68-1.19,4.66,4.66,0,0,1-.93-1.86,10.11,10.11,0,0,1-.28-2.42,25.86,25.86,0,0,1,.43-4.29q.42-2.45,1-5.07t1.3-5.23q.69-2.61,1.22-4.8a2.68,2.68,0,0,1,.82-1.31,5.38,5.38,0,0,1,1.39-.88,7.67,7.67,0,0,1,1.61-.49,7.85,7.85,0,0,1,1.51-.16,2.34,2.34,0,0,1,1.67.45,1.69,1.69,0,0,1,.44,1.22,9,9,0,0,1-.29,1.86c-.2.81-.44,1.72-.73,2.75s-.61,2.13-.94,3.31-.65,2.36-.94,3.54-.54,2.34-.73,3.46a17.58,17.58,0,0,0-.3,3,6,6,0,0,0,.3,2.1,1.15,1.15,0,0,0,1.2.78,4.83,4.83,0,0,0,2.34-.74,21.49,21.49,0,0,0,2.61-1.77c.88-.69,1.74-1.41,2.58-2.15s1.58-1.38,2.22-1.91ZM254.86,29.35a4.87,4.87,0,0,1,.29-1.52,4.81,4.81,0,0,1,1-1.6A5.27,5.27,0,0,1,257.86,25a6.51,6.51,0,0,1,2.74-.51,8,8,0,0,1,1.93.23,4.83,4.83,0,0,1,1.59.72,3.45,3.45,0,0,1,1.07,1.28,4.16,4.16,0,0,1,.39,1.87,6.07,6.07,0,0,1-.32,1.94,4.62,4.62,0,0,1-1,1.67,5.28,5.28,0,0,1-1.77,1.18,6.4,6.4,0,0,1-2.56.46,5.24,5.24,0,0,1-3.81-1.22A4.35,4.35,0,0,1,254.86,29.35Z" />
        <path id="p"
            d="M277.83,60.5a23.06,23.06,0,0,0,5.39-.59,20.63,20.63,0,0,0,4.41-1.58A18.62,18.62,0,0,0,291.2,56a23,23,0,0,0,2.89-2.86l.32,6.71a15.43,15.43,0,0,1-2.27,2.21,16.56,16.56,0,0,1-2.92,1.88,18,18,0,0,1-3.32,1.29,12.91,12.91,0,0,1-3.44.48,2.85,2.85,0,0,1-.52-.06l-1.07-.2-2.18-.4c-.95-.16-2.23-.37-3.85-.6V65a48.7,48.7,0,0,1-.89,9.68,32.13,32.13,0,0,1-2.39,7.43,14.58,14.58,0,0,1-3.43,4.74,6.07,6.07,0,0,1-4,1.67,4.57,4.57,0,0,1-2.79-.82,5.68,5.68,0,0,1-1.77-2.21,11.72,11.72,0,0,1-.94-3.25,27.4,27.4,0,0,1-.27-3.94,10.87,10.87,0,0,1,.38-2.71,26.26,26.26,0,0,1,1-3.17c.43-1.1.91-2.22,1.45-3.36s1.09-2.26,1.66-3.33q2-3.75,4.54-7.73c.21-1.53.43-3.09.66-4.69s.51-3.16.85-4.66a30.92,30.92,0,0,1,1.29-4.28,12.59,12.59,0,0,1,2-3.51,9.16,9.16,0,0,1,2.91-2.38,8.93,8.93,0,0,1,4.1-.87,11.19,11.19,0,0,1,3.34.48,6.91,6.91,0,0,1,2.73,1.57,7.32,7.32,0,0,1,1.84,2.79,11.57,11.57,0,0,1,.68,4.21,12.74,12.74,0,0,1-.59,3.85,12.17,12.17,0,0,1-1.83,3.56,16.09,16.09,0,0,1-3.16,3.18,22,22,0,0,1-4.56,2.65ZM263.94,78.63a4.24,4.24,0,0,0,.1.76,5,5,0,0,0,.34,1.06,3.29,3.29,0,0,0,.62.93,1.19,1.19,0,0,0,.93.41.93.93,0,0,0,.82-.54,4.92,4.92,0,0,0,.53-1.45,12.8,12.8,0,0,0,.29-2q.09-1.14.15-2.34c0-.8.06-1.58.07-2.35s0-1.44.08-2c.06-1.05.1-2,.13-2.68s.05-1.34.07-1.83,0-1,.06-1.38a19.82,19.82,0,0,0-1.08,2.25c-.36.85-.69,1.73-1,2.65s-.6,1.83-.85,2.75-.47,1.77-.66,2.56-.33,1.48-.44,2.06A7.36,7.36,0,0,0,263.94,78.63Zm10.2-21.09a15,15,0,0,0,3-2,14.44,14.44,0,0,0,2.2-2.31,13.3,13.3,0,0,0,1.5-2.55,15.72,15.72,0,0,0,.94-2.7,8.61,8.61,0,0,0,.19-1.5,5.11,5.11,0,0,0-.17-1.63,3,3,0,0,0-.76-1.3,2.07,2.07,0,0,0-1.51-.55,3.16,3.16,0,0,0-1.91.61,5.38,5.38,0,0,0-1.42,1.62,10.44,10.44,0,0,0-1,2.43,25.43,25.43,0,0,0-.65,3c-.17,1.07-.28,2.19-.35,3.35S274.14,56.38,274.14,57.54Z" />
        <path id="s"
            d="M290,54.46c1.09-.94,2-1.72,2.66-2.34s1.27-1.2,1.76-1.72a18.69,18.69,0,0,0,1.33-1.56L297.13,47l2-2.65q1.17-1.58,3-3.91a11.6,11.6,0,0,1,.85-1,6.79,6.79,0,0,1,1-.89,5.76,5.76,0,0,1,1.26-.65,4.65,4.65,0,0,1,1.54-.24,6.16,6.16,0,0,1,2.17.3,2.7,2.7,0,0,1,1.11.75,1.77,1.77,0,0,1,.41.92,7,7,0,0,1,.06.84,2.91,2.91,0,0,1-.56,1.55,15.93,15.93,0,0,1-1.23,1.64c-.45.53-.87,1-1.27,1.45a3.13,3.13,0,0,0-.69,1,9.4,9.4,0,0,0,.13,1.66,14.11,14.11,0,0,0,.35,1.46c.15.48.3,1,.46,1.53s.31,1.15.45,1.86A19.9,19.9,0,0,1,308.6,55c.09.92.14,2,.14,3.25A17.07,17.07,0,0,1,311,56.94l2.53-1.19c.88-.41,1.78-.86,2.71-1.36a22.7,22.7,0,0,0,2.8-1.8l0,6.56a26.65,26.65,0,0,1-4.21,2.63,40.25,40.25,0,0,1-5,2.17,37,37,0,0,1-5.3,1.48,25.78,25.78,0,0,1-5.08.54,14.9,14.9,0,0,1-3.22-.32,8.24,8.24,0,0,1-2.63-1,5.62,5.62,0,0,1-1.83-1.8,6,6,0,0,1-.85-2.7,5.74,5.74,0,0,1-.8.12l-.78,0c-.31,0-.6,0-.88,0a1.41,1.41,0,0,1-.7-.22,1.3,1.3,0,0,1-.47-.61,3.27,3.27,0,0,1-.18-1.22,2.47,2.47,0,0,1,.36-1.3,4.82,4.82,0,0,1,.82-1.07,8.54,8.54,0,0,1,.93-.82C289.57,54.78,289.8,54.6,290,54.46Zm3.75,3.75a1.17,1.17,0,0,1,.77.44l1,1a8,8,0,0,0,1.29,1,3.14,3.14,0,0,0,1.67.44,4,4,0,0,0,1.89-.38,3.11,3.11,0,0,0,1.19-1,3.9,3.9,0,0,0,.61-1.46,8.31,8.31,0,0,0,.18-1.75,12.76,12.76,0,0,0-.1-1.61c-.07-.54-.16-1.07-.27-1.57s-.22-1-.35-1.4-.24-.82-.33-1.13Z" />
        <path id="t"
            d="M340.61,59.15q-2.81,1.64-5,2.87c-1.46.82-2.77,1.5-3.91,2a21.6,21.6,0,0,1-3.05,1.23,8.39,8.39,0,0,1-2.41.41,6.13,6.13,0,0,1-3.93-1.35,10.17,10.17,0,0,1-2.84-3.88,24.6,24.6,0,0,1-1.72-6.14,52.16,52.16,0,0,1-.57-8.11q0-1.75.15-3.75c.1-1.33.23-2.65.41-4-.59-.07-1-.15-1.36-.22l-1-.2c-.36-.07-.82-.14-1.37-.22s-1.37-.18-2.42-.29a2.75,2.75,0,0,1-1.09-.34,1.62,1.62,0,0,1-.55-.59,1.77,1.77,0,0,1-.21-.7q0-.36,0-.63a1,1,0,0,1,.57-.89,4.72,4.72,0,0,1,1.47-.46,13.07,13.07,0,0,1,2-.16c.72,0,1.4,0,2.05,0l1.76,0a6.93,6.93,0,0,0,1.07,0,67.35,67.35,0,0,1,2-7.67,44.37,44.37,0,0,1,2.72-6.59,18.55,18.55,0,0,1,3.3-4.63,5.35,5.35,0,0,1,3.75-1.74,4,4,0,0,1,2.3.7,6.27,6.27,0,0,1,1.77,1.88,9.6,9.6,0,0,1,1.13,2.74,13.41,13.41,0,0,1,.39,3.26,12,12,0,0,1-.41,3,22.32,22.32,0,0,1-1.11,3.25,33.53,33.53,0,0,1-1.66,3.35c-.63,1.14-1.3,2.26-2,3.37.17,0,.47,0,.88.05l1.42,0,1.74.07,1.82.08,1.64.05,1.26.06a1,1,0,0,1,.85.59,3.38,3.38,0,0,1,.26,1.41,2.39,2.39,0,0,1-.58,1.67,1.75,1.75,0,0,1-1.29.64H327.49c-.57.78-1.14,1.55-1.72,2.3s-1.11,1.43-1.59,2q-.12,1.81-.21,3.57c0,.51,0,1-.06,1.57l-.06,1.59c0,.53,0,1,0,1.53s0,.94,0,1.35a10.1,10.1,0,0,0,.3,2.66,4.64,4.64,0,0,0,.85,1.77,3.12,3.12,0,0,0,1.36,1,4.93,4.93,0,0,0,1.8.31,5.21,5.21,0,0,0,1.54-.3,16.48,16.48,0,0,0,2-.8c.73-.34,1.5-.75,2.32-1.22s1.61-1,2.4-1.53,1.55-1.15,2.27-1.76a22.16,22.16,0,0,0,2-1.89Zm-9.37-37.09a6.39,6.39,0,0,0-.05-.72,2.76,2.76,0,0,0-.19-.75,1.43,1.43,0,0,0-.45-.58,1.41,1.41,0,0,0-.87-.24q-.76,0-1.53,1.35a20.08,20.08,0,0,0-1.5,3.44q-.72,2.1-1.35,4.62t-1.15,4.89l.88.1.9.1c.59-1,1.2-2.07,1.83-3.23s1.21-2.31,1.72-3.43a33.28,33.28,0,0,0,1.26-3.15A7.94,7.94,0,0,0,331.24,22.06Z" />
        <path id="e"
            d="M349.61,65.71a10.86,10.86,0,0,1-4.82-1A9.86,9.86,0,0,1,341.34,62a11.43,11.43,0,0,1-2.06-3.89,15.58,15.58,0,0,1-.69-4.65,20.67,20.67,0,0,1,1.3-7.06,18.33,18.33,0,0,1,1.66-3.35,13,13,0,0,1,2.33-2.81,10.75,10.75,0,0,1,3-1.94,9.07,9.07,0,0,1,3.67-.72,8.65,8.65,0,0,1,3,.53A7.57,7.57,0,0,1,356,39.62a6.75,6.75,0,0,1,1.62,2.3,7.53,7.53,0,0,1,.59,3,8.11,8.11,0,0,1-.9,3.63A13.16,13.16,0,0,1,354.88,52a17.66,17.66,0,0,1-3.77,2.87,20.05,20.05,0,0,1-4.73,2,9.15,9.15,0,0,0,.87,1.32,3.84,3.84,0,0,0,.86.82,2.8,2.8,0,0,0,.92.41,4.36,4.36,0,0,0,1,.12,11.12,11.12,0,0,0,3.71-.7A24.49,24.49,0,0,0,357.57,57a31.41,31.41,0,0,0,3.49-2.3,30.48,30.48,0,0,0,2.78-2.36l3.78,3.93A38.39,38.39,0,0,1,362.14,61c-.84.59-1.74,1.16-2.71,1.73a23.9,23.9,0,0,1-3,1.51,20.89,20.89,0,0,1-3.31,1A15.08,15.08,0,0,1,349.61,65.71Zm-3.9-13.77a5.84,5.84,0,0,0,2.3-.54A10.43,10.43,0,0,0,350.32,50a9.22,9.22,0,0,0,1.8-1.85,3.28,3.28,0,0,0,.74-1.93,4.28,4.28,0,0,0-.49-2.17,1.37,1.37,0,0,0-1.18-.85,4.65,4.65,0,0,0-2.16.47,4.78,4.78,0,0,0-1.49,1.21,6.59,6.59,0,0,0-1,1.7,11.55,11.55,0,0,0-.55,1.92,14.29,14.29,0,0,0-.25,1.88C345.73,51,345.71,51.51,345.71,51.94Z" />
        <path id="r"
            d="M362.76,59.59c0-.86.05-1.86.15-3s.22-2.34.39-3.61.36-2.57.59-3.89.46-2.57.71-3.76.51-2.29.77-3.28a18.91,18.91,0,0,1,.76-2.46,5.32,5.32,0,0,1,.47-1,2,2,0,0,1,.54-.6,1.73,1.73,0,0,1,.76-.29,9.56,9.56,0,0,1,2.31,0,.9.9,0,0,1,.63.35,1.55,1.55,0,0,1,.25.81c0,.35.05.83.05,1.43v2.62c0,1,0,2,.06,3h.32c.39-.79.83-1.66,1.32-2.63a17.15,17.15,0,0,1,1.7-2.71,10,10,0,0,1,2.19-2.12,4.8,4.8,0,0,1,2.85-.86,3.07,3.07,0,0,1,1.08.19,2.57,2.57,0,0,1,.92.54,2.37,2.37,0,0,1,.63.86,2.7,2.7,0,0,1,.24,1.16,8.93,8.93,0,0,1-.15,1.39c-.1.6-.21,1.22-.32,1.88s-.23,1.28-.32,1.9a10,10,0,0,0-.15,1.54,6.72,6.72,0,0,0,.2,1.76,3.25,3.25,0,0,0,.55,1.12,1.72,1.72,0,0,0,.76.6,2.25,2.25,0,0,0,.89.18,6.93,6.93,0,0,0,2.73-.59,18.72,18.72,0,0,0,2.57-1.31,25.41,25.41,0,0,0,2.7-1.94l-.44,6.86-1.73,1.11A21.25,21.25,0,0,1,387.68,56a16.79,16.79,0,0,1-2.29.91,8.3,8.3,0,0,1-2.42.36,6.28,6.28,0,0,1-3.54-.89A6.59,6.59,0,0,1,377.29,54a11.77,11.77,0,0,1-1.17-3.26c-.26-1.2-.46-2.41-.62-3.64H375l-5.24,14.62a16.12,16.12,0,0,1-.78,1.88,6.31,6.31,0,0,1-.74,1.22,2.34,2.34,0,0,1-.82.66,2.4,2.4,0,0,1-1,.19,3.07,3.07,0,0,1-3.06-1.89,6.49,6.49,0,0,1-.53-2A18.6,18.6,0,0,1,362.76,59.59Z" />
        <path id="J-2" data-name="J" class="cls-3"
            d="M144.23,73.21a23.46,23.46,0,0,1,1.51-8.07A30.26,30.26,0,0,1,150,57.35a33,33,0,0,1,6.71-6.57,29.5,29.5,0,0,1,8.76-4.38,52.49,52.49,0,0,1-4.65-4.24,35.39,35.39,0,0,1-3.78-4.56,23,23,0,0,1-2.54-4.69,12.92,12.92,0,0,1-.92-4.7,23.87,23.87,0,0,1,2.47-10.68,21.55,21.55,0,0,1,2.74-4.16,19.31,19.31,0,0,1,3.4-3.16,15.28,15.28,0,0,1,3.8-2,11.7,11.7,0,0,1,4-.7,10.49,10.49,0,0,1,5.08,1.34,12.55,12.55,0,0,1,4.35,4.28,25,25,0,0,1,3.05,7.59A48,48,0,0,1,183.61,32c0,3.18-.11,6.21-.34,9.07s-.55,5.6-1,8.22c1.19.74,2.4,1.46,3.62,2.16s2.45,1.41,3.7,2.11l1,.56a12.8,12.8,0,0,1,1.11.69,6.72,6.72,0,0,1,.92.73,1,1,0,0,1,.38.66.87.87,0,0,1-.24.57,4.35,4.35,0,0,1-.59.53,5.63,5.63,0,0,1-.67.42L191,58a2.82,2.82,0,0,1-1.29.26,15.77,15.77,0,0,1-3.85-.64A39.77,39.77,0,0,1,181,55.84a70.55,70.55,0,0,1-3.09,9.91A56.83,56.83,0,0,1,174,73.83a39.78,39.78,0,0,1-4.53,6.22,30.37,30.37,0,0,1-4.83,4.41,20.45,20.45,0,0,1-4.86,2.64,13.72,13.72,0,0,1-4.65.88,10,10,0,0,1-4.29-.94,9.66,9.66,0,0,1-3.44-2.8,13.93,13.93,0,0,1-2.3-4.61A22.11,22.11,0,0,1,144.23,73.21Zm7.5,1.88a7.44,7.44,0,0,0,1.16,4.52A3.63,3.63,0,0,0,156,81.15a8,8,0,0,0,4.38-1.7,20.55,20.55,0,0,0,4.91-5.26,47.36,47.36,0,0,0,4.7-9,73.75,73.75,0,0,0,3.8-13l-1.09-.68a20.25,20.25,0,0,0-5.7,2,28.77,28.77,0,0,0-5,3.44,31,31,0,0,0-4.2,4.38,35.39,35.39,0,0,0-3.21,4.82,25.7,25.7,0,0,0-2.05,4.76A14.41,14.41,0,0,0,151.73,75.09Zm9.38-48.75a11.42,11.42,0,0,0,1,4.65A20.51,20.51,0,0,0,165,35.58a37.61,37.61,0,0,0,4.39,4.5A69.33,69.33,0,0,0,175,44.47q.5-4.06.79-8.57t.29-9.56a33.23,33.23,0,0,0-.44-5.85,14.52,14.52,0,0,0-1.19-3.88,5.18,5.18,0,0,0-1.75-2.15,3.86,3.86,0,0,0-2.13-.66,5.16,5.16,0,0,0-2.2.52,9.85,9.85,0,0,0-2.16,1.45,14.87,14.87,0,0,0-2,2.16,16.35,16.35,0,0,0-1.62,2.62,15.87,15.87,0,0,0-1.1,2.87A11.06,11.06,0,0,0,161.11,26.34Z" />
        <path id="H-2" data-name="H" class="cls-3"
            d="M237.22,43.74q-1,3.6-1.64,6.72a28.45,28.45,0,0,0-.61,5.41A5.12,5.12,0,0,0,235.8,59a3.23,3.23,0,0,0,2.77,1.12,4.82,4.82,0,0,0,1.76-.42,13.38,13.38,0,0,0,2.34-1.33,33,33,0,0,0,3-2.35c1.08-.95,2.29-2.1,3.61-3.42.06.11.18.39.36.82s.37.93.65,1.68.68,1.78,1.19,3.09A42.07,42.07,0,0,1,247,62.25a32.8,32.8,0,0,1-4.3,3,20.93,20.93,0,0,1-4,1.78,11.91,11.91,0,0,1-3.53.61,8.51,8.51,0,0,1-3.43-.69,7.82,7.82,0,0,1-2.74-2,9.78,9.78,0,0,1-1.83-3.24,13.17,13.17,0,0,1-.67-4.38,16.11,16.11,0,0,1,.18-2.14c.11-.86.28-1.83.51-2.93s.5-2.29.82-3.58.68-2.67,1.07-4.12c-2.62.27-5.13.53-7.53.76s-4.8.46-7.18.67c-.55,1.65-1.09,3.25-1.63,4.82s-1.05,3-1.55,4.43L209.82,59c-.43,1.14-.78,2.11-1.07,2.91a14.71,14.71,0,0,1-2.8,4.4,3.84,3.84,0,0,1-2.45,1.29,4.09,4.09,0,0,1-1.38-.24,4,4,0,0,1-1.2-.67,3.28,3.28,0,0,1-.83-1.06,3,3,0,0,1-.31-1.37,3.39,3.39,0,0,1,.12-.91q1.23-4.48,2.68-8.66t2.94-8.13a18.24,18.24,0,0,1-3.09-.25,9.85,9.85,0,0,1-2.74-.86,7.47,7.47,0,0,1-2.24-1.7A8.75,8.75,0,0,1,195.83,41c-.08-.35-.15-.66-.19-.93a4.65,4.65,0,0,1-.08-.82c0-.86.3-1.29.91-1.29a2,2,0,0,1,1.23.6,16.07,16.07,0,0,1,1.73,1.92c.92,0,1.83-.07,2.75-.09s1.91,0,3,0H208q1.06-2.73,2-5.26t1.77-5a25.38,25.38,0,0,0,.8-3.11,16.46,16.46,0,0,0,.29-3,10,10,0,0,0-.21-2.11,4.42,4.42,0,0,0-.67-1.64,3.2,3.2,0,0,0-1.2-1.05,3.86,3.86,0,0,0-1.82-.38,8.17,8.17,0,0,0-2,.29,14,14,0,0,0-2.57.95,26.29,26.29,0,0,0-3.06,1.73,41.18,41.18,0,0,0-3.59,2.65,5.15,5.15,0,0,1-1.24.79,2.72,2.72,0,0,1-1,.24q-.24,0-.36-.78a14.64,14.64,0,0,1-.11-1.92,6.2,6.2,0,0,1,.72-2.9,9.53,9.53,0,0,1,1.91-2.53,15.67,15.67,0,0,1,2.77-2.11,20.26,20.26,0,0,1,3.23-1.61,21.06,21.06,0,0,1,3.29-1,14.83,14.83,0,0,1,3-.35,13.71,13.71,0,0,1,3.92.56,8.82,8.82,0,0,1,3.3,1.79,8.57,8.57,0,0,1,2.26,3.19,12.33,12.33,0,0,1,.83,4.78,20.27,20.27,0,0,1-.31,3.22c-.2,1.27-.48,2.66-.83,4.17s-.77,3.13-1.25,4.84-1,3.45-1.53,5.23q3-.21,6.79-.41l7.59-.41q1.5-4.9,3.3-10.13c1.2-3.48,2.47-6.91,3.82-10.26a7.09,7.09,0,0,1,1.77-2.67,3.76,3.76,0,0,1,2.59-1,3.9,3.9,0,0,1,1.19.18,3,3,0,0,1,1,.54,2.53,2.53,0,0,1,.69.94,3.22,3.22,0,0,1,.25,1.33c0,.45,0,1-.09,1.57a7.65,7.65,0,0,1-.47,1.92c-.45,1.21-.92,2.5-1.43,3.88s-1,2.79-1.54,4.25-1,2.94-1.55,4.47-1,3-1.48,4.54l3.22-.22,2.08-.16.6,0h.51a5,5,0,0,1,1.42.17,2,2,0,0,1,.85.5,1.75,1.75,0,0,1,.43.76,3.86,3.86,0,0,1,.12,1,1.8,1.8,0,0,1-.27,1,1.9,1.9,0,0,1-.66.66,2.41,2.41,0,0,1-.83.35,5.64,5.64,0,0,1-.82.14l-1.17.13-.5.06-.19,0-.22,0-.62,0-1.35.12-2.06.2Z" />
        <path id="i-2" data-name="i" class="cls-3"
            d="M268,59.47a26.7,26.7,0,0,1-2.62,2.07,28.48,28.48,0,0,1-3.38,2,26.36,26.36,0,0,1-3.71,1.53,11.3,11.3,0,0,1-3.59.62,6.86,6.86,0,0,1-2.56-.42,4.34,4.34,0,0,1-1.68-1.19,4.66,4.66,0,0,1-.93-1.86,10.11,10.11,0,0,1-.28-2.42,25.86,25.86,0,0,1,.43-4.29q.42-2.45,1-5.07t1.3-5.23q.69-2.61,1.22-4.8a2.68,2.68,0,0,1,.82-1.31,5.38,5.38,0,0,1,1.39-.88,7.67,7.67,0,0,1,1.61-.49,7.85,7.85,0,0,1,1.51-.16,2.34,2.34,0,0,1,1.67.45,1.69,1.69,0,0,1,.44,1.22,9,9,0,0,1-.29,1.86c-.2.81-.44,1.72-.73,2.75s-.61,2.13-.94,3.31-.65,2.36-.94,3.54-.54,2.34-.73,3.46a17.58,17.58,0,0,0-.3,3,6,6,0,0,0,.3,2.1,1.15,1.15,0,0,0,1.2.78,4.83,4.83,0,0,0,2.34-.74,21.49,21.49,0,0,0,2.61-1.77c.88-.69,1.74-1.41,2.58-2.15s1.58-1.38,2.22-1.91ZM254.86,29.35a4.87,4.87,0,0,1,.29-1.52,4.81,4.81,0,0,1,1-1.6A5.27,5.27,0,0,1,257.86,25a6.51,6.51,0,0,1,2.74-.51,8,8,0,0,1,1.93.23,4.83,4.83,0,0,1,1.59.72,3.45,3.45,0,0,1,1.07,1.28,4.16,4.16,0,0,1,.39,1.87,6.07,6.07,0,0,1-.32,1.94,4.62,4.62,0,0,1-1,1.67,5.28,5.28,0,0,1-1.77,1.18,6.4,6.4,0,0,1-2.56.46,5.24,5.24,0,0,1-3.81-1.22A4.35,4.35,0,0,1,254.86,29.35Z" />
        <path id="p-2" data-name="p" class="cls-3"
            d="M277.83,60.5a23.06,23.06,0,0,0,5.39-.59,20.63,20.63,0,0,0,4.41-1.58A18.62,18.62,0,0,0,291.2,56a23,23,0,0,0,2.89-2.86l.32,6.71a15.43,15.43,0,0,1-2.27,2.21,16.56,16.56,0,0,1-2.92,1.88,18,18,0,0,1-3.32,1.29,12.91,12.91,0,0,1-3.44.48,2.85,2.85,0,0,1-.52-.06l-1.07-.2-2.18-.4c-.95-.16-2.23-.37-3.85-.6V65a48.7,48.7,0,0,1-.89,9.68,32.13,32.13,0,0,1-2.39,7.43,14.58,14.58,0,0,1-3.43,4.74,6.07,6.07,0,0,1-4,1.67,4.57,4.57,0,0,1-2.79-.82,5.68,5.68,0,0,1-1.77-2.21,11.72,11.72,0,0,1-.94-3.25,27.4,27.4,0,0,1-.27-3.94,10.87,10.87,0,0,1,.38-2.71,26.26,26.26,0,0,1,1-3.17c.43-1.1.91-2.22,1.45-3.36s1.09-2.26,1.66-3.33q2-3.75,4.54-7.73c.21-1.53.43-3.09.66-4.69s.51-3.16.85-4.66a30.92,30.92,0,0,1,1.29-4.28,12.59,12.59,0,0,1,2-3.51,9.16,9.16,0,0,1,2.91-2.38,8.93,8.93,0,0,1,4.1-.87,11.19,11.19,0,0,1,3.34.48,6.91,6.91,0,0,1,2.73,1.57,7.32,7.32,0,0,1,1.84,2.79,11.57,11.57,0,0,1,.68,4.21,12.74,12.74,0,0,1-.59,3.85,12.17,12.17,0,0,1-1.83,3.56,16.09,16.09,0,0,1-3.16,3.18,22,22,0,0,1-4.56,2.65ZM263.94,78.63a4.24,4.24,0,0,0,.1.76,5,5,0,0,0,.34,1.06,3.29,3.29,0,0,0,.62.93,1.19,1.19,0,0,0,.93.41.93.93,0,0,0,.82-.54,4.92,4.92,0,0,0,.53-1.45,12.8,12.8,0,0,0,.29-2q.09-1.14.15-2.34c0-.8.06-1.58.07-2.35s0-1.44.08-2c.06-1.05.1-2,.13-2.68s.05-1.34.07-1.83,0-1,.06-1.38a19.82,19.82,0,0,0-1.08,2.25c-.36.85-.69,1.73-1,2.65s-.6,1.83-.85,2.75-.47,1.77-.66,2.56-.33,1.48-.44,2.06A7.36,7.36,0,0,0,263.94,78.63Zm10.2-21.09a15,15,0,0,0,3-2,14.44,14.44,0,0,0,2.2-2.31,13.3,13.3,0,0,0,1.5-2.55,15.72,15.72,0,0,0,.94-2.7,8.61,8.61,0,0,0,.19-1.5,5.11,5.11,0,0,0-.17-1.63,3,3,0,0,0-.76-1.3,2.07,2.07,0,0,0-1.51-.55,3.16,3.16,0,0,0-1.91.61,5.38,5.38,0,0,0-1.42,1.62,10.44,10.44,0,0,0-1,2.43,25.43,25.43,0,0,0-.65,3c-.17,1.07-.28,2.19-.35,3.35S274.14,56.38,274.14,57.54Z" />
        <path id="s-2" data-name="s" class="cls-3"
            d="M290,54.46c1.09-.94,2-1.72,2.66-2.34s1.27-1.2,1.76-1.72a18.69,18.69,0,0,0,1.33-1.56L297.13,47l2-2.65q1.17-1.58,3-3.91a11.6,11.6,0,0,1,.85-1,6.79,6.79,0,0,1,1-.89,5.76,5.76,0,0,1,1.26-.65,4.65,4.65,0,0,1,1.54-.24,6.16,6.16,0,0,1,2.17.3,2.7,2.7,0,0,1,1.11.75,1.77,1.77,0,0,1,.41.92,7,7,0,0,1,.06.84,2.91,2.91,0,0,1-.56,1.55,15.93,15.93,0,0,1-1.23,1.64c-.45.53-.87,1-1.27,1.45a3.13,3.13,0,0,0-.69,1,9.4,9.4,0,0,0,.13,1.66,14.11,14.11,0,0,0,.35,1.46c.15.48.3,1,.46,1.53s.31,1.15.45,1.86A19.9,19.9,0,0,1,308.6,55c.09.92.14,2,.14,3.25A17.07,17.07,0,0,1,311,56.94l2.53-1.19c.88-.41,1.78-.86,2.71-1.36a22.7,22.7,0,0,0,2.8-1.8l0,6.56a26.65,26.65,0,0,1-4.21,2.63,40.25,40.25,0,0,1-5,2.17,37,37,0,0,1-5.3,1.48,25.78,25.78,0,0,1-5.08.54,14.9,14.9,0,0,1-3.22-.32,8.24,8.24,0,0,1-2.63-1,5.62,5.62,0,0,1-1.83-1.8,6,6,0,0,1-.85-2.7,5.74,5.74,0,0,1-.8.12l-.78,0c-.31,0-.6,0-.88,0a1.41,1.41,0,0,1-.7-.22,1.3,1.3,0,0,1-.47-.61,3.27,3.27,0,0,1-.18-1.22,2.47,2.47,0,0,1,.36-1.3,4.82,4.82,0,0,1,.82-1.07,8.54,8.54,0,0,1,.93-.82C289.57,54.78,289.8,54.6,290,54.46Zm3.75,3.75a1.17,1.17,0,0,1,.77.44l1,1a8,8,0,0,0,1.29,1,3.14,3.14,0,0,0,1.67.44,4,4,0,0,0,1.89-.38,3.11,3.11,0,0,0,1.19-1,3.9,3.9,0,0,0,.61-1.46,8.31,8.31,0,0,0,.18-1.75,12.76,12.76,0,0,0-.1-1.61c-.07-.54-.16-1.07-.27-1.57s-.22-1-.35-1.4-.24-.82-.33-1.13Z" />
        <path id="t-2" data-name="t" class="cls-3"
            d="M340.61,59.15q-2.81,1.64-5,2.87c-1.46.82-2.77,1.5-3.91,2a21.6,21.6,0,0,1-3.05,1.23,8.39,8.39,0,0,1-2.41.41,6.13,6.13,0,0,1-3.93-1.35,10.17,10.17,0,0,1-2.84-3.88,24.6,24.6,0,0,1-1.72-6.14,52.16,52.16,0,0,1-.57-8.11q0-1.75.15-3.75c.1-1.33.23-2.65.41-4-.59-.07-1-.15-1.36-.22l-1-.2c-.36-.07-.82-.14-1.37-.22s-1.37-.18-2.42-.29a2.75,2.75,0,0,1-1.09-.34,1.62,1.62,0,0,1-.55-.59,1.77,1.77,0,0,1-.21-.7q0-.36,0-.63a1,1,0,0,1,.57-.89,4.72,4.72,0,0,1,1.47-.46,13.07,13.07,0,0,1,2-.16c.72,0,1.4,0,2.05,0l1.76,0a6.93,6.93,0,0,0,1.07,0,67.35,67.35,0,0,1,2-7.67,44.37,44.37,0,0,1,2.72-6.59,18.55,18.55,0,0,1,3.3-4.63,5.35,5.35,0,0,1,3.75-1.74,4,4,0,0,1,2.3.7,6.27,6.27,0,0,1,1.77,1.88,9.6,9.6,0,0,1,1.13,2.74,13.41,13.41,0,0,1,.39,3.26,12,12,0,0,1-.41,3,22.32,22.32,0,0,1-1.11,3.25,33.53,33.53,0,0,1-1.66,3.35c-.63,1.14-1.3,2.26-2,3.37.17,0,.47,0,.88.05l1.42,0,1.74.07,1.82.08,1.64.05,1.26.06a1,1,0,0,1,.85.59,3.38,3.38,0,0,1,.26,1.41,2.39,2.39,0,0,1-.58,1.67,1.75,1.75,0,0,1-1.29.64H327.49c-.57.78-1.14,1.55-1.72,2.3s-1.11,1.43-1.59,2q-.12,1.81-.21,3.57c0,.51,0,1-.06,1.57l-.06,1.59c0,.53,0,1,0,1.53s0,.94,0,1.35a10.1,10.1,0,0,0,.3,2.66,4.64,4.64,0,0,0,.85,1.77,3.12,3.12,0,0,0,1.36,1,4.93,4.93,0,0,0,1.8.31,5.21,5.21,0,0,0,1.54-.3,16.48,16.48,0,0,0,2-.8c.73-.34,1.5-.75,2.32-1.22s1.61-1,2.4-1.53,1.55-1.15,2.27-1.76a22.16,22.16,0,0,0,2-1.89Zm-9.37-37.09a6.39,6.39,0,0,0-.05-.72,2.76,2.76,0,0,0-.19-.75,1.43,1.43,0,0,0-.45-.58,1.41,1.41,0,0,0-.87-.24q-.76,0-1.53,1.35a20.08,20.08,0,0,0-1.5,3.44q-.72,2.1-1.35,4.62t-1.15,4.89l.88.1.9.1c.59-1,1.2-2.07,1.83-3.23s1.21-2.31,1.72-3.43a33.28,33.28,0,0,0,1.26-3.15A7.94,7.94,0,0,0,331.24,22.06Z" />
        <path id="e-2" data-name="e" class="cls-3"
            d="M349.61,65.71a10.86,10.86,0,0,1-4.82-1A9.86,9.86,0,0,1,341.34,62a11.43,11.43,0,0,1-2.06-3.89,15.58,15.58,0,0,1-.69-4.65,20.67,20.67,0,0,1,1.3-7.06,18.33,18.33,0,0,1,1.66-3.35,13,13,0,0,1,2.33-2.81,10.75,10.75,0,0,1,3-1.94,9.07,9.07,0,0,1,3.67-.72,8.65,8.65,0,0,1,3,.53A7.57,7.57,0,0,1,356,39.62a6.75,6.75,0,0,1,1.62,2.3,7.53,7.53,0,0,1,.59,3,8.11,8.11,0,0,1-.9,3.63A13.16,13.16,0,0,1,354.88,52a17.66,17.66,0,0,1-3.77,2.87,20.05,20.05,0,0,1-4.73,2,9.15,9.15,0,0,0,.87,1.32,3.84,3.84,0,0,0,.86.82,2.8,2.8,0,0,0,.92.41,4.36,4.36,0,0,0,1,.12,11.12,11.12,0,0,0,3.71-.7A24.49,24.49,0,0,0,357.57,57a31.41,31.41,0,0,0,3.49-2.3,30.48,30.48,0,0,0,2.78-2.36l3.78,3.93A38.39,38.39,0,0,1,362.14,61c-.84.59-1.74,1.16-2.71,1.73a23.9,23.9,0,0,1-3,1.51,20.89,20.89,0,0,1-3.31,1A15.08,15.08,0,0,1,349.61,65.71Zm-3.9-13.77a5.84,5.84,0,0,0,2.3-.54A10.43,10.43,0,0,0,350.32,50a9.22,9.22,0,0,0,1.8-1.85,3.28,3.28,0,0,0,.74-1.93,4.28,4.28,0,0,0-.49-2.17,1.37,1.37,0,0,0-1.18-.85,4.65,4.65,0,0,0-2.16.47,4.78,4.78,0,0,0-1.49,1.21,6.59,6.59,0,0,0-1,1.7,11.55,11.55,0,0,0-.55,1.92,14.29,14.29,0,0,0-.25,1.88C345.73,51,345.71,51.51,345.71,51.94Z" />
        <path id="r-2" data-name="r" class="cls-3"
            d="M362.76,59.59c0-.86.05-1.86.15-3s.22-2.34.39-3.61.36-2.57.59-3.89.46-2.57.71-3.76.51-2.29.77-3.28a18.91,18.91,0,0,1,.76-2.46,5.32,5.32,0,0,1,.47-1,2,2,0,0,1,.54-.6,1.73,1.73,0,0,1,.76-.29,9.56,9.56,0,0,1,2.31,0,.9.9,0,0,1,.63.35,1.55,1.55,0,0,1,.25.81c0,.35.05.83.05,1.43v2.62c0,1,0,2,.06,3h.32c.39-.79.83-1.66,1.32-2.63a17.15,17.15,0,0,1,1.7-2.71,10,10,0,0,1,2.19-2.12,4.8,4.8,0,0,1,2.85-.86,3.07,3.07,0,0,1,1.08.19,2.57,2.57,0,0,1,.92.54,2.37,2.37,0,0,1,.63.86,2.7,2.7,0,0,1,.24,1.16,8.93,8.93,0,0,1-.15,1.39c-.1.6-.21,1.22-.32,1.88s-.23,1.28-.32,1.9a10,10,0,0,0-.15,1.54,6.72,6.72,0,0,0,.2,1.76,3.25,3.25,0,0,0,.55,1.12,1.72,1.72,0,0,0,.76.6,2.25,2.25,0,0,0,.89.18,6.93,6.93,0,0,0,2.73-.59,18.72,18.72,0,0,0,2.57-1.31,25.41,25.41,0,0,0,2.7-1.94l-.44,6.86-1.73,1.11A21.25,21.25,0,0,1,387.68,56a16.79,16.79,0,0,1-2.29.91,8.3,8.3,0,0,1-2.42.36,6.28,6.28,0,0,1-3.54-.89A6.59,6.59,0,0,1,377.29,54a11.77,11.77,0,0,1-1.17-3.26c-.26-1.2-.46-2.41-.62-3.64H375l-5.24,14.62a16.12,16.12,0,0,1-.78,1.88,6.31,6.31,0,0,1-.74,1.22,2.34,2.34,0,0,1-.82.66,2.4,2.4,0,0,1-1,.19,3.07,3.07,0,0,1-3.06-1.89,6.49,6.49,0,0,1-.53-2A18.6,18.6,0,0,1,362.76,59.59Z" />
        <path id="J-3" data-name="J" class="cls-4"
            d="M144.23,73.21a23.46,23.46,0,0,1,1.51-8.07A30.26,30.26,0,0,1,150,57.35a33,33,0,0,1,6.71-6.57,29.5,29.5,0,0,1,8.76-4.38,52.49,52.49,0,0,1-4.65-4.24,35.39,35.39,0,0,1-3.78-4.56,23,23,0,0,1-2.54-4.69,12.92,12.92,0,0,1-.92-4.7,23.87,23.87,0,0,1,2.47-10.68,21.55,21.55,0,0,1,2.74-4.16,19.31,19.31,0,0,1,3.4-3.16,15.28,15.28,0,0,1,3.8-2,11.7,11.7,0,0,1,4-.7,10.49,10.49,0,0,1,5.08,1.34,12.55,12.55,0,0,1,4.35,4.28,25,25,0,0,1,3.05,7.59A48,48,0,0,1,183.61,32c0,3.18-.11,6.21-.34,9.07s-.55,5.6-1,8.22c1.19.74,2.4,1.46,3.62,2.16s2.45,1.41,3.7,2.11l1,.56a12.8,12.8,0,0,1,1.11.69,6.72,6.72,0,0,1,.92.73,1,1,0,0,1,.38.66.87.87,0,0,1-.24.57,4.35,4.35,0,0,1-.59.53,5.63,5.63,0,0,1-.67.42L191,58a2.82,2.82,0,0,1-1.29.26,15.77,15.77,0,0,1-3.85-.64A39.77,39.77,0,0,1,181,55.84a70.55,70.55,0,0,1-3.09,9.91A56.83,56.83,0,0,1,174,73.83a39.78,39.78,0,0,1-4.53,6.22,30.37,30.37,0,0,1-4.83,4.41,20.45,20.45,0,0,1-4.86,2.64,13.72,13.72,0,0,1-4.65.88,10,10,0,0,1-4.29-.94,9.66,9.66,0,0,1-3.44-2.8,13.93,13.93,0,0,1-2.3-4.61A22.11,22.11,0,0,1,144.23,73.21Zm7.5,1.88a7.44,7.44,0,0,0,1.16,4.52A3.63,3.63,0,0,0,156,81.15a8,8,0,0,0,4.38-1.7,20.55,20.55,0,0,0,4.91-5.26,47.36,47.36,0,0,0,4.7-9,73.75,73.75,0,0,0,3.8-13l-1.09-.68a20.25,20.25,0,0,0-5.7,2,28.77,28.77,0,0,0-5,3.44,31,31,0,0,0-4.2,4.38,35.39,35.39,0,0,0-3.21,4.82,25.7,25.7,0,0,0-2.05,4.76A14.41,14.41,0,0,0,151.73,75.09Zm9.38-48.75a11.42,11.42,0,0,0,1,4.65A20.51,20.51,0,0,0,165,35.58a37.61,37.61,0,0,0,4.39,4.5A69.33,69.33,0,0,0,175,44.47q.5-4.06.79-8.57t.29-9.56a33.23,33.23,0,0,0-.44-5.85,14.52,14.52,0,0,0-1.19-3.88,5.18,5.18,0,0,0-1.75-2.15,3.86,3.86,0,0,0-2.13-.66,5.16,5.16,0,0,0-2.2.52,9.85,9.85,0,0,0-2.16,1.45,14.87,14.87,0,0,0-2,2.16,16.35,16.35,0,0,0-1.62,2.62,15.87,15.87,0,0,0-1.1,2.87A11.06,11.06,0,0,0,161.11,26.34Z" />
        <path id="H-3" data-name="H" class="cls-4"
            d="M237.22,43.74q-1,3.6-1.64,6.72a28.45,28.45,0,0,0-.61,5.41A5.12,5.12,0,0,0,235.8,59a3.23,3.23,0,0,0,2.77,1.12,4.82,4.82,0,0,0,1.76-.42,13.38,13.38,0,0,0,2.34-1.33,33,33,0,0,0,3-2.35c1.08-.95,2.29-2.1,3.61-3.42.06.11.18.39.36.82s.37.93.65,1.68.68,1.78,1.19,3.09A42.07,42.07,0,0,1,247,62.25a32.8,32.8,0,0,1-4.3,3,20.93,20.93,0,0,1-4,1.78,11.91,11.91,0,0,1-3.53.61,8.51,8.51,0,0,1-3.43-.69,7.82,7.82,0,0,1-2.74-2,9.78,9.78,0,0,1-1.83-3.24,13.17,13.17,0,0,1-.67-4.38,16.11,16.11,0,0,1,.18-2.14c.11-.86.28-1.83.51-2.93s.5-2.29.82-3.58.68-2.67,1.07-4.12c-2.62.27-5.13.53-7.53.76s-4.8.46-7.18.67c-.55,1.65-1.09,3.25-1.63,4.82s-1.05,3-1.55,4.43L209.82,59c-.43,1.14-.78,2.11-1.07,2.91a14.71,14.71,0,0,1-2.8,4.4,3.84,3.84,0,0,1-2.45,1.29,4.09,4.09,0,0,1-1.38-.24,4,4,0,0,1-1.2-.67,3.28,3.28,0,0,1-.83-1.06,3,3,0,0,1-.31-1.37,3.39,3.39,0,0,1,.12-.91q1.23-4.48,2.68-8.66t2.94-8.13a18.24,18.24,0,0,1-3.09-.25,9.85,9.85,0,0,1-2.74-.86,7.47,7.47,0,0,1-2.24-1.7A8.75,8.75,0,0,1,195.83,41c-.08-.35-.15-.66-.19-.93a4.65,4.65,0,0,1-.08-.82c0-.86.3-1.29.91-1.29a2,2,0,0,1,1.23.6,16.07,16.07,0,0,1,1.73,1.92c.92,0,1.83-.07,2.75-.09s1.91,0,3,0H208q1.06-2.73,2-5.26t1.77-5a25.38,25.38,0,0,0,.8-3.11,16.46,16.46,0,0,0,.29-3,10,10,0,0,0-.21-2.11,4.42,4.42,0,0,0-.67-1.64,3.2,3.2,0,0,0-1.2-1.05,3.86,3.86,0,0,0-1.82-.38,8.17,8.17,0,0,0-2,.29,14,14,0,0,0-2.57.95,26.29,26.29,0,0,0-3.06,1.73,41.18,41.18,0,0,0-3.59,2.65,5.15,5.15,0,0,1-1.24.79,2.72,2.72,0,0,1-1,.24q-.24,0-.36-.78a14.64,14.64,0,0,1-.11-1.92,6.2,6.2,0,0,1,.72-2.9,9.53,9.53,0,0,1,1.91-2.53,15.67,15.67,0,0,1,2.77-2.11,20.26,20.26,0,0,1,3.23-1.61,21.06,21.06,0,0,1,3.29-1,14.83,14.83,0,0,1,3-.35,13.71,13.71,0,0,1,3.92.56,8.82,8.82,0,0,1,3.3,1.79,8.57,8.57,0,0,1,2.26,3.19,12.33,12.33,0,0,1,.83,4.78,20.27,20.27,0,0,1-.31,3.22c-.2,1.27-.48,2.66-.83,4.17s-.77,3.13-1.25,4.84-1,3.45-1.53,5.23q3-.21,6.79-.41l7.59-.41q1.5-4.9,3.3-10.13c1.2-3.48,2.47-6.91,3.82-10.26a7.09,7.09,0,0,1,1.77-2.67,3.76,3.76,0,0,1,2.59-1,3.9,3.9,0,0,1,1.19.18,3,3,0,0,1,1,.54,2.53,2.53,0,0,1,.69.94,3.22,3.22,0,0,1,.25,1.33c0,.45,0,1-.09,1.57a7.65,7.65,0,0,1-.47,1.92c-.45,1.21-.92,2.5-1.43,3.88s-1,2.79-1.54,4.25-1,2.94-1.55,4.47-1,3-1.48,4.54l3.22-.22,2.08-.16.6,0h.51a5,5,0,0,1,1.42.17,2,2,0,0,1,.85.5,1.75,1.75,0,0,1,.43.76,3.86,3.86,0,0,1,.12,1,1.8,1.8,0,0,1-.27,1,1.9,1.9,0,0,1-.66.66,2.41,2.41,0,0,1-.83.35,5.64,5.64,0,0,1-.82.14l-1.17.13-.5.06-.19,0-.22,0-.62,0-1.35.12-2.06.2Z" />
        <path id="i-3" data-name="i" class="cls-4"
            d="M268,59.47a26.7,26.7,0,0,1-2.62,2.07,28.48,28.48,0,0,1-3.38,2,26.36,26.36,0,0,1-3.71,1.53,11.3,11.3,0,0,1-3.59.62,6.86,6.86,0,0,1-2.56-.42,4.34,4.34,0,0,1-1.68-1.19,4.66,4.66,0,0,1-.93-1.86,10.11,10.11,0,0,1-.28-2.42,25.86,25.86,0,0,1,.43-4.29q.42-2.45,1-5.07t1.3-5.23q.69-2.61,1.22-4.8a2.68,2.68,0,0,1,.82-1.31,5.38,5.38,0,0,1,1.39-.88,7.67,7.67,0,0,1,1.61-.49,7.85,7.85,0,0,1,1.51-.16,2.34,2.34,0,0,1,1.67.45,1.69,1.69,0,0,1,.44,1.22,9,9,0,0,1-.29,1.86c-.2.81-.44,1.72-.73,2.75s-.61,2.13-.94,3.31-.65,2.36-.94,3.54-.54,2.34-.73,3.46a17.58,17.58,0,0,0-.3,3,6,6,0,0,0,.3,2.1,1.15,1.15,0,0,0,1.2.78,4.83,4.83,0,0,0,2.34-.74,21.49,21.49,0,0,0,2.61-1.77c.88-.69,1.74-1.41,2.58-2.15s1.58-1.38,2.22-1.91ZM254.86,29.35a4.87,4.87,0,0,1,.29-1.52,4.81,4.81,0,0,1,1-1.6A5.27,5.27,0,0,1,257.86,25a6.51,6.51,0,0,1,2.74-.51,8,8,0,0,1,1.93.23,4.83,4.83,0,0,1,1.59.72,3.45,3.45,0,0,1,1.07,1.28,4.16,4.16,0,0,1,.39,1.87,6.07,6.07,0,0,1-.32,1.94,4.62,4.62,0,0,1-1,1.67,5.28,5.28,0,0,1-1.77,1.18,6.4,6.4,0,0,1-2.56.46,5.24,5.24,0,0,1-3.81-1.22A4.35,4.35,0,0,1,254.86,29.35Z" />
        <path id="p-3" data-name="p" class="cls-4"
            d="M277.83,60.5a23.06,23.06,0,0,0,5.39-.59,20.63,20.63,0,0,0,4.41-1.58A18.62,18.62,0,0,0,291.2,56a23,23,0,0,0,2.89-2.86l.32,6.71a15.43,15.43,0,0,1-2.27,2.21,16.56,16.56,0,0,1-2.92,1.88,18,18,0,0,1-3.32,1.29,12.91,12.91,0,0,1-3.44.48,2.85,2.85,0,0,1-.52-.06l-1.07-.2-2.18-.4c-.95-.16-2.23-.37-3.85-.6V65a48.7,48.7,0,0,1-.89,9.68,32.13,32.13,0,0,1-2.39,7.43,14.58,14.58,0,0,1-3.43,4.74,6.07,6.07,0,0,1-4,1.67,4.57,4.57,0,0,1-2.79-.82,5.68,5.68,0,0,1-1.77-2.21,11.72,11.72,0,0,1-.94-3.25,27.4,27.4,0,0,1-.27-3.94,10.87,10.87,0,0,1,.38-2.71,26.26,26.26,0,0,1,1-3.17c.43-1.1.91-2.22,1.45-3.36s1.09-2.26,1.66-3.33q2-3.75,4.54-7.73c.21-1.53.43-3.09.66-4.69s.51-3.16.85-4.66a30.92,30.92,0,0,1,1.29-4.28,12.59,12.59,0,0,1,2-3.51,9.16,9.16,0,0,1,2.91-2.38,8.93,8.93,0,0,1,4.1-.87,11.19,11.19,0,0,1,3.34.48,6.91,6.91,0,0,1,2.73,1.57,7.32,7.32,0,0,1,1.84,2.79,11.57,11.57,0,0,1,.68,4.21,12.74,12.74,0,0,1-.59,3.85,12.17,12.17,0,0,1-1.83,3.56,16.09,16.09,0,0,1-3.16,3.18,22,22,0,0,1-4.56,2.65ZM263.94,78.63a4.24,4.24,0,0,0,.1.76,5,5,0,0,0,.34,1.06,3.29,3.29,0,0,0,.62.93,1.19,1.19,0,0,0,.93.41.93.93,0,0,0,.82-.54,4.92,4.92,0,0,0,.53-1.45,12.8,12.8,0,0,0,.29-2q.09-1.14.15-2.34c0-.8.06-1.58.07-2.35s0-1.44.08-2c.06-1.05.1-2,.13-2.68s.05-1.34.07-1.83,0-1,.06-1.38a19.82,19.82,0,0,0-1.08,2.25c-.36.85-.69,1.73-1,2.65s-.6,1.83-.85,2.75-.47,1.77-.66,2.56-.33,1.48-.44,2.06A7.36,7.36,0,0,0,263.94,78.63Zm10.2-21.09a15,15,0,0,0,3-2,14.44,14.44,0,0,0,2.2-2.31,13.3,13.3,0,0,0,1.5-2.55,15.72,15.72,0,0,0,.94-2.7,8.61,8.61,0,0,0,.19-1.5,5.11,5.11,0,0,0-.17-1.63,3,3,0,0,0-.76-1.3,2.07,2.07,0,0,0-1.51-.55,3.16,3.16,0,0,0-1.91.61,5.38,5.38,0,0,0-1.42,1.62,10.44,10.44,0,0,0-1,2.43,25.43,25.43,0,0,0-.65,3c-.17,1.07-.28,2.19-.35,3.35S274.14,56.38,274.14,57.54Z" />
        <path id="s-3" data-name="s" class="cls-4"
            d="M290,54.46c1.09-.94,2-1.72,2.66-2.34s1.27-1.2,1.76-1.72a18.69,18.69,0,0,0,1.33-1.56L297.13,47l2-2.65q1.17-1.58,3-3.91a11.6,11.6,0,0,1,.85-1,6.79,6.79,0,0,1,1-.89,5.76,5.76,0,0,1,1.26-.65,4.65,4.65,0,0,1,1.54-.24,6.16,6.16,0,0,1,2.17.3,2.7,2.7,0,0,1,1.11.75,1.77,1.77,0,0,1,.41.92,7,7,0,0,1,.06.84,2.91,2.91,0,0,1-.56,1.55,15.93,15.93,0,0,1-1.23,1.64c-.45.53-.87,1-1.27,1.45a3.13,3.13,0,0,0-.69,1,9.4,9.4,0,0,0,.13,1.66,14.11,14.11,0,0,0,.35,1.46c.15.48.3,1,.46,1.53s.31,1.15.45,1.86A19.9,19.9,0,0,1,308.6,55c.09.92.14,2,.14,3.25A17.07,17.07,0,0,1,311,56.94l2.53-1.19c.88-.41,1.78-.86,2.71-1.36a22.7,22.7,0,0,0,2.8-1.8l0,6.56a26.65,26.65,0,0,1-4.21,2.63,40.25,40.25,0,0,1-5,2.17,37,37,0,0,1-5.3,1.48,25.78,25.78,0,0,1-5.08.54,14.9,14.9,0,0,1-3.22-.32,8.24,8.24,0,0,1-2.63-1,5.62,5.62,0,0,1-1.83-1.8,6,6,0,0,1-.85-2.7,5.74,5.74,0,0,1-.8.12l-.78,0c-.31,0-.6,0-.88,0a1.41,1.41,0,0,1-.7-.22,1.3,1.3,0,0,1-.47-.61,3.27,3.27,0,0,1-.18-1.22,2.47,2.47,0,0,1,.36-1.3,4.82,4.82,0,0,1,.82-1.07,8.54,8.54,0,0,1,.93-.82C289.57,54.78,289.8,54.6,290,54.46Zm3.75,3.75a1.17,1.17,0,0,1,.77.44l1,1a8,8,0,0,0,1.29,1,3.14,3.14,0,0,0,1.67.44,4,4,0,0,0,1.89-.38,3.11,3.11,0,0,0,1.19-1,3.9,3.9,0,0,0,.61-1.46,8.31,8.31,0,0,0,.18-1.75,12.76,12.76,0,0,0-.1-1.61c-.07-.54-.16-1.07-.27-1.57s-.22-1-.35-1.4-.24-.82-.33-1.13Z" />
        <path id="t-3" data-name="t" class="cls-4"
            d="M340.61,59.15q-2.81,1.64-5,2.87c-1.46.82-2.77,1.5-3.91,2a21.6,21.6,0,0,1-3.05,1.23,8.39,8.39,0,0,1-2.41.41,6.13,6.13,0,0,1-3.93-1.35,10.17,10.17,0,0,1-2.84-3.88,24.6,24.6,0,0,1-1.72-6.14,52.16,52.16,0,0,1-.57-8.11q0-1.75.15-3.75c.1-1.33.23-2.65.41-4-.59-.07-1-.15-1.36-.22l-1-.2c-.36-.07-.82-.14-1.37-.22s-1.37-.18-2.42-.29a2.75,2.75,0,0,1-1.09-.34,1.62,1.62,0,0,1-.55-.59,1.77,1.77,0,0,1-.21-.7q0-.36,0-.63a1,1,0,0,1,.57-.89,4.72,4.72,0,0,1,1.47-.46,13.07,13.07,0,0,1,2-.16c.72,0,1.4,0,2.05,0l1.76,0a6.93,6.93,0,0,0,1.07,0,67.35,67.35,0,0,1,2-7.67,44.37,44.37,0,0,1,2.72-6.59,18.55,18.55,0,0,1,3.3-4.63,5.35,5.35,0,0,1,3.75-1.74,4,4,0,0,1,2.3.7,6.27,6.27,0,0,1,1.77,1.88,9.6,9.6,0,0,1,1.13,2.74,13.41,13.41,0,0,1,.39,3.26,12,12,0,0,1-.41,3,22.32,22.32,0,0,1-1.11,3.25,33.53,33.53,0,0,1-1.66,3.35c-.63,1.14-1.3,2.26-2,3.37.17,0,.47,0,.88.05l1.42,0,1.74.07,1.82.08,1.64.05,1.26.06a1,1,0,0,1,.85.59,3.38,3.38,0,0,1,.26,1.41,2.39,2.39,0,0,1-.58,1.67,1.75,1.75,0,0,1-1.29.64H327.49c-.57.78-1.14,1.55-1.72,2.3s-1.11,1.43-1.59,2q-.12,1.81-.21,3.57c0,.51,0,1-.06,1.57l-.06,1.59c0,.53,0,1,0,1.53s0,.94,0,1.35a10.1,10.1,0,0,0,.3,2.66,4.64,4.64,0,0,0,.85,1.77,3.12,3.12,0,0,0,1.36,1,4.93,4.93,0,0,0,1.8.31,5.21,5.21,0,0,0,1.54-.3,16.48,16.48,0,0,0,2-.8c.73-.34,1.5-.75,2.32-1.22s1.61-1,2.4-1.53,1.55-1.15,2.27-1.76a22.16,22.16,0,0,0,2-1.89Zm-9.37-37.09a6.39,6.39,0,0,0-.05-.72,2.76,2.76,0,0,0-.19-.75,1.43,1.43,0,0,0-.45-.58,1.41,1.41,0,0,0-.87-.24q-.76,0-1.53,1.35a20.08,20.08,0,0,0-1.5,3.44q-.72,2.1-1.35,4.62t-1.15,4.89l.88.1.9.1c.59-1,1.2-2.07,1.83-3.23s1.21-2.31,1.72-3.43a33.28,33.28,0,0,0,1.26-3.15A7.94,7.94,0,0,0,331.24,22.06Z" />
        <path id="e-3" data-name="e" class="cls-4"
            d="M349.61,65.71a10.86,10.86,0,0,1-4.82-1A9.86,9.86,0,0,1,341.34,62a11.43,11.43,0,0,1-2.06-3.89,15.58,15.58,0,0,1-.69-4.65,20.67,20.67,0,0,1,1.3-7.06,18.33,18.33,0,0,1,1.66-3.35,13,13,0,0,1,2.33-2.81,10.75,10.75,0,0,1,3-1.94,9.07,9.07,0,0,1,3.67-.72,8.65,8.65,0,0,1,3,.53A7.57,7.57,0,0,1,356,39.62a6.75,6.75,0,0,1,1.62,2.3,7.53,7.53,0,0,1,.59,3,8.11,8.11,0,0,1-.9,3.63A13.16,13.16,0,0,1,354.88,52a17.66,17.66,0,0,1-3.77,2.87,20.05,20.05,0,0,1-4.73,2,9.15,9.15,0,0,0,.87,1.32,3.84,3.84,0,0,0,.86.82,2.8,2.8,0,0,0,.92.41,4.36,4.36,0,0,0,1,.12,11.12,11.12,0,0,0,3.71-.7A24.49,24.49,0,0,0,357.57,57a31.41,31.41,0,0,0,3.49-2.3,30.48,30.48,0,0,0,2.78-2.36l3.78,3.93A38.39,38.39,0,0,1,362.14,61c-.84.59-1.74,1.16-2.71,1.73a23.9,23.9,0,0,1-3,1.51,20.89,20.89,0,0,1-3.31,1A15.08,15.08,0,0,1,349.61,65.71Zm-3.9-13.77a5.84,5.84,0,0,0,2.3-.54A10.43,10.43,0,0,0,350.32,50a9.22,9.22,0,0,0,1.8-1.85,3.28,3.28,0,0,0,.74-1.93,4.28,4.28,0,0,0-.49-2.17,1.37,1.37,0,0,0-1.18-.85,4.65,4.65,0,0,0-2.16.47,4.78,4.78,0,0,0-1.49,1.21,6.59,6.59,0,0,0-1,1.7,11.55,11.55,0,0,0-.55,1.92,14.29,14.29,0,0,0-.25,1.88C345.73,51,345.71,51.51,345.71,51.94Z" />
        <path id="r-3" data-name="r" class="cls-4"
            d="M362.76,59.59c0-.86.05-1.86.15-3s.22-2.34.39-3.61.36-2.57.59-3.89.46-2.57.71-3.76.51-2.29.77-3.28a18.91,18.91,0,0,1,.76-2.46,5.32,5.32,0,0,1,.47-1,2,2,0,0,1,.54-.6,1.73,1.73,0,0,1,.76-.29,9.56,9.56,0,0,1,2.31,0,.9.9,0,0,1,.63.35,1.55,1.55,0,0,1,.25.81c0,.35.05.83.05,1.43v2.62c0,1,0,2,.06,3h.32c.39-.79.83-1.66,1.32-2.63a17.15,17.15,0,0,1,1.7-2.71,10,10,0,0,1,2.19-2.12,4.8,4.8,0,0,1,2.85-.86,3.07,3.07,0,0,1,1.08.19,2.57,2.57,0,0,1,.92.54,2.37,2.37,0,0,1,.63.86,2.7,2.7,0,0,1,.24,1.16,8.93,8.93,0,0,1-.15,1.39c-.1.6-.21,1.22-.32,1.88s-.23,1.28-.32,1.9a10,10,0,0,0-.15,1.54,6.72,6.72,0,0,0,.2,1.76,3.25,3.25,0,0,0,.55,1.12,1.72,1.72,0,0,0,.76.6,2.25,2.25,0,0,0,.89.18,6.93,6.93,0,0,0,2.73-.59,18.72,18.72,0,0,0,2.57-1.31,25.41,25.41,0,0,0,2.7-1.94l-.44,6.86-1.73,1.11A21.25,21.25,0,0,1,387.68,56a16.79,16.79,0,0,1-2.29.91,8.3,8.3,0,0,1-2.42.36,6.28,6.28,0,0,1-3.54-.89A6.59,6.59,0,0,1,377.29,54a11.77,11.77,0,0,1-1.17-3.26c-.26-1.2-.46-2.41-.62-3.64H375l-5.24,14.62a16.12,16.12,0,0,1-.78,1.88,6.31,6.31,0,0,1-.74,1.22,2.34,2.34,0,0,1-.82.66,2.4,2.4,0,0,1-1,.19,3.07,3.07,0,0,1-3.06-1.89,6.49,6.49,0,0,1-.53-2A18.6,18.6,0,0,1,362.76,59.59Z" />
        <path id="J-4" data-name="J" class="cls-3"
            d="M144.23,73.21a23.46,23.46,0,0,1,1.51-8.07A30.26,30.26,0,0,1,150,57.35a33,33,0,0,1,6.71-6.57,29.5,29.5,0,0,1,8.76-4.38,52.49,52.49,0,0,1-4.65-4.24,35.39,35.39,0,0,1-3.78-4.56,23,23,0,0,1-2.54-4.69,12.92,12.92,0,0,1-.92-4.7,23.87,23.87,0,0,1,2.47-10.68,21.55,21.55,0,0,1,2.74-4.16,19.31,19.31,0,0,1,3.4-3.16,15.28,15.28,0,0,1,3.8-2,11.7,11.7,0,0,1,4-.7,10.49,10.49,0,0,1,5.08,1.34,12.55,12.55,0,0,1,4.35,4.28,25,25,0,0,1,3.05,7.59A48,48,0,0,1,183.61,32c0,3.18-.11,6.21-.34,9.07s-.55,5.6-1,8.22c1.19.74,2.4,1.46,3.62,2.16s2.45,1.41,3.7,2.11l1,.56a12.8,12.8,0,0,1,1.11.69,6.72,6.72,0,0,1,.92.73,1,1,0,0,1,.38.66.87.87,0,0,1-.24.57,4.35,4.35,0,0,1-.59.53,5.63,5.63,0,0,1-.67.42L191,58a2.82,2.82,0,0,1-1.29.26,15.77,15.77,0,0,1-3.85-.64A39.77,39.77,0,0,1,181,55.84a70.55,70.55,0,0,1-3.09,9.91A56.83,56.83,0,0,1,174,73.83a39.78,39.78,0,0,1-4.53,6.22,30.37,30.37,0,0,1-4.83,4.41,20.45,20.45,0,0,1-4.86,2.64,13.72,13.72,0,0,1-4.65.88,10,10,0,0,1-4.29-.94,9.66,9.66,0,0,1-3.44-2.8,13.93,13.93,0,0,1-2.3-4.61A22.11,22.11,0,0,1,144.23,73.21Zm7.5,1.88a7.44,7.44,0,0,0,1.16,4.52A3.63,3.63,0,0,0,156,81.15a8,8,0,0,0,4.38-1.7,20.55,20.55,0,0,0,4.91-5.26,47.36,47.36,0,0,0,4.7-9,73.75,73.75,0,0,0,3.8-13l-1.09-.68a20.25,20.25,0,0,0-5.7,2,28.77,28.77,0,0,0-5,3.44,31,31,0,0,0-4.2,4.38,35.39,35.39,0,0,0-3.21,4.82,25.7,25.7,0,0,0-2.05,4.76A14.41,14.41,0,0,0,151.73,75.09Zm9.38-48.75a11.42,11.42,0,0,0,1,4.65A20.51,20.51,0,0,0,165,35.58a37.61,37.61,0,0,0,4.39,4.5A69.33,69.33,0,0,0,175,44.47q.5-4.06.79-8.57t.29-9.56a33.23,33.23,0,0,0-.44-5.85,14.52,14.52,0,0,0-1.19-3.88,5.18,5.18,0,0,0-1.75-2.15,3.86,3.86,0,0,0-2.13-.66,5.16,5.16,0,0,0-2.2.52,9.85,9.85,0,0,0-2.16,1.45,14.87,14.87,0,0,0-2,2.16,16.35,16.35,0,0,0-1.62,2.62,15.87,15.87,0,0,0-1.1,2.87A11.06,11.06,0,0,0,161.11,26.34Z" />
        <path id="H-4" data-name="H" class="cls-3"
            d="M237.22,43.74q-1,3.6-1.64,6.72a28.45,28.45,0,0,0-.61,5.41A5.12,5.12,0,0,0,235.8,59a3.23,3.23,0,0,0,2.77,1.12,4.82,4.82,0,0,0,1.76-.42,13.38,13.38,0,0,0,2.34-1.33,33,33,0,0,0,3-2.35c1.08-.95,2.29-2.1,3.61-3.42.06.11.18.39.36.82s.37.93.65,1.68.68,1.78,1.19,3.09A42.07,42.07,0,0,1,247,62.25a32.8,32.8,0,0,1-4.3,3,20.93,20.93,0,0,1-4,1.78,11.91,11.91,0,0,1-3.53.61,8.51,8.51,0,0,1-3.43-.69,7.82,7.82,0,0,1-2.74-2,9.78,9.78,0,0,1-1.83-3.24,13.17,13.17,0,0,1-.67-4.38,16.11,16.11,0,0,1,.18-2.14c.11-.86.28-1.83.51-2.93s.5-2.29.82-3.58.68-2.67,1.07-4.12c-2.62.27-5.13.53-7.53.76s-4.8.46-7.18.67c-.55,1.65-1.09,3.25-1.63,4.82s-1.05,3-1.55,4.43L209.82,59c-.43,1.14-.78,2.11-1.07,2.91a14.71,14.71,0,0,1-2.8,4.4,3.84,3.84,0,0,1-2.45,1.29,4.09,4.09,0,0,1-1.38-.24,4,4,0,0,1-1.2-.67,3.28,3.28,0,0,1-.83-1.06,3,3,0,0,1-.31-1.37,3.39,3.39,0,0,1,.12-.91q1.23-4.48,2.68-8.66t2.94-8.13a18.24,18.24,0,0,1-3.09-.25,9.85,9.85,0,0,1-2.74-.86,7.47,7.47,0,0,1-2.24-1.7A8.75,8.75,0,0,1,195.83,41c-.08-.35-.15-.66-.19-.93a4.65,4.65,0,0,1-.08-.82c0-.86.3-1.29.91-1.29a2,2,0,0,1,1.23.6,16.07,16.07,0,0,1,1.73,1.92c.92,0,1.83-.07,2.75-.09s1.91,0,3,0H208q1.06-2.73,2-5.26t1.77-5a25.38,25.38,0,0,0,.8-3.11,16.46,16.46,0,0,0,.29-3,10,10,0,0,0-.21-2.11,4.42,4.42,0,0,0-.67-1.64,3.2,3.2,0,0,0-1.2-1.05,3.86,3.86,0,0,0-1.82-.38,8.17,8.17,0,0,0-2,.29,14,14,0,0,0-2.57.95,26.29,26.29,0,0,0-3.06,1.73,41.18,41.18,0,0,0-3.59,2.65,5.15,5.15,0,0,1-1.24.79,2.72,2.72,0,0,1-1,.24q-.24,0-.36-.78a14.64,14.64,0,0,1-.11-1.92,6.2,6.2,0,0,1,.72-2.9,9.53,9.53,0,0,1,1.91-2.53,15.67,15.67,0,0,1,2.77-2.11,20.26,20.26,0,0,1,3.23-1.61,21.06,21.06,0,0,1,3.29-1,14.83,14.83,0,0,1,3-.35,13.71,13.71,0,0,1,3.92.56,8.82,8.82,0,0,1,3.3,1.79,8.57,8.57,0,0,1,2.26,3.19,12.33,12.33,0,0,1,.83,4.78,20.27,20.27,0,0,1-.31,3.22c-.2,1.27-.48,2.66-.83,4.17s-.77,3.13-1.25,4.84-1,3.45-1.53,5.23q3-.21,6.79-.41l7.59-.41q1.5-4.9,3.3-10.13c1.2-3.48,2.47-6.91,3.82-10.26a7.09,7.09,0,0,1,1.77-2.67,3.76,3.76,0,0,1,2.59-1,3.9,3.9,0,0,1,1.19.18,3,3,0,0,1,1,.54,2.53,2.53,0,0,1,.69.94,3.22,3.22,0,0,1,.25,1.33c0,.45,0,1-.09,1.57a7.65,7.65,0,0,1-.47,1.92c-.45,1.21-.92,2.5-1.43,3.88s-1,2.79-1.54,4.25-1,2.94-1.55,4.47-1,3-1.48,4.54l3.22-.22,2.08-.16.6,0h.51a5,5,0,0,1,1.42.17,2,2,0,0,1,.85.5,1.75,1.75,0,0,1,.43.76,3.86,3.86,0,0,1,.12,1,1.8,1.8,0,0,1-.27,1,1.9,1.9,0,0,1-.66.66,2.41,2.41,0,0,1-.83.35,5.64,5.64,0,0,1-.82.14l-1.17.13-.5.06-.19,0-.22,0-.62,0-1.35.12-2.06.2Z" />
        <path id="i-4" data-name="i" class="cls-3"
            d="M268,59.47a26.7,26.7,0,0,1-2.62,2.07,28.48,28.48,0,0,1-3.38,2,26.36,26.36,0,0,1-3.71,1.53,11.3,11.3,0,0,1-3.59.62,6.86,6.86,0,0,1-2.56-.42,4.34,4.34,0,0,1-1.68-1.19,4.66,4.66,0,0,1-.93-1.86,10.11,10.11,0,0,1-.28-2.42,25.86,25.86,0,0,1,.43-4.29q.42-2.45,1-5.07t1.3-5.23q.69-2.61,1.22-4.8a2.68,2.68,0,0,1,.82-1.31,5.38,5.38,0,0,1,1.39-.88,7.67,7.67,0,0,1,1.61-.49,7.85,7.85,0,0,1,1.51-.16,2.34,2.34,0,0,1,1.67.45,1.69,1.69,0,0,1,.44,1.22,9,9,0,0,1-.29,1.86c-.2.81-.44,1.72-.73,2.75s-.61,2.13-.94,3.31-.65,2.36-.94,3.54-.54,2.34-.73,3.46a17.58,17.58,0,0,0-.3,3,6,6,0,0,0,.3,2.1,1.15,1.15,0,0,0,1.2.78,4.83,4.83,0,0,0,2.34-.74,21.49,21.49,0,0,0,2.61-1.77c.88-.69,1.74-1.41,2.58-2.15s1.58-1.38,2.22-1.91ZM254.86,29.35a4.87,4.87,0,0,1,.29-1.52,4.81,4.81,0,0,1,1-1.6A5.27,5.27,0,0,1,257.86,25a6.51,6.51,0,0,1,2.74-.51,8,8,0,0,1,1.93.23,4.83,4.83,0,0,1,1.59.72,3.45,3.45,0,0,1,1.07,1.28,4.16,4.16,0,0,1,.39,1.87,6.07,6.07,0,0,1-.32,1.94,4.62,4.62,0,0,1-1,1.67,5.28,5.28,0,0,1-1.77,1.18,6.4,6.4,0,0,1-2.56.46,5.24,5.24,0,0,1-3.81-1.22A4.35,4.35,0,0,1,254.86,29.35Z" />
        <path id="p-4" data-name="p" class="cls-3"
            d="M277.83,60.5a23.06,23.06,0,0,0,5.39-.59,20.63,20.63,0,0,0,4.41-1.58A18.62,18.62,0,0,0,291.2,56a23,23,0,0,0,2.89-2.86l.32,6.71a15.43,15.43,0,0,1-2.27,2.21,16.56,16.56,0,0,1-2.92,1.88,18,18,0,0,1-3.32,1.29,12.91,12.91,0,0,1-3.44.48,2.85,2.85,0,0,1-.52-.06l-1.07-.2-2.18-.4c-.95-.16-2.23-.37-3.85-.6V65a48.7,48.7,0,0,1-.89,9.68,32.13,32.13,0,0,1-2.39,7.43,14.58,14.58,0,0,1-3.43,4.74,6.07,6.07,0,0,1-4,1.67,4.57,4.57,0,0,1-2.79-.82,5.68,5.68,0,0,1-1.77-2.21,11.72,11.72,0,0,1-.94-3.25,27.4,27.4,0,0,1-.27-3.94,10.87,10.87,0,0,1,.38-2.71,26.26,26.26,0,0,1,1-3.17c.43-1.1.91-2.22,1.45-3.36s1.09-2.26,1.66-3.33q2-3.75,4.54-7.73c.21-1.53.43-3.09.66-4.69s.51-3.16.85-4.66a30.92,30.92,0,0,1,1.29-4.28,12.59,12.59,0,0,1,2-3.51,9.16,9.16,0,0,1,2.91-2.38,8.93,8.93,0,0,1,4.1-.87,11.19,11.19,0,0,1,3.34.48,6.91,6.91,0,0,1,2.73,1.57,7.32,7.32,0,0,1,1.84,2.79,11.57,11.57,0,0,1,.68,4.21,12.74,12.74,0,0,1-.59,3.85,12.17,12.17,0,0,1-1.83,3.56,16.09,16.09,0,0,1-3.16,3.18,22,22,0,0,1-4.56,2.65ZM263.94,78.63a4.24,4.24,0,0,0,.1.76,5,5,0,0,0,.34,1.06,3.29,3.29,0,0,0,.62.93,1.19,1.19,0,0,0,.93.41.93.93,0,0,0,.82-.54,4.92,4.92,0,0,0,.53-1.45,12.8,12.8,0,0,0,.29-2q.09-1.14.15-2.34c0-.8.06-1.58.07-2.35s0-1.44.08-2c.06-1.05.1-2,.13-2.68s.05-1.34.07-1.83,0-1,.06-1.38a19.82,19.82,0,0,0-1.08,2.25c-.36.85-.69,1.73-1,2.65s-.6,1.83-.85,2.75-.47,1.77-.66,2.56-.33,1.48-.44,2.06A7.36,7.36,0,0,0,263.94,78.63Zm10.2-21.09a15,15,0,0,0,3-2,14.44,14.44,0,0,0,2.2-2.31,13.3,13.3,0,0,0,1.5-2.55,15.72,15.72,0,0,0,.94-2.7,8.61,8.61,0,0,0,.19-1.5,5.11,5.11,0,0,0-.17-1.63,3,3,0,0,0-.76-1.3,2.07,2.07,0,0,0-1.51-.55,3.16,3.16,0,0,0-1.91.61,5.38,5.38,0,0,0-1.42,1.62,10.44,10.44,0,0,0-1,2.43,25.43,25.43,0,0,0-.65,3c-.17,1.07-.28,2.19-.35,3.35S274.14,56.38,274.14,57.54Z" />
        <path id="s-4" data-name="s" class="cls-3"
            d="M290,54.46c1.09-.94,2-1.72,2.66-2.34s1.27-1.2,1.76-1.72a18.69,18.69,0,0,0,1.33-1.56L297.13,47l2-2.65q1.17-1.58,3-3.91a11.6,11.6,0,0,1,.85-1,6.79,6.79,0,0,1,1-.89,5.76,5.76,0,0,1,1.26-.65,4.65,4.65,0,0,1,1.54-.24,6.16,6.16,0,0,1,2.17.3,2.7,2.7,0,0,1,1.11.75,1.77,1.77,0,0,1,.41.92,7,7,0,0,1,.06.84,2.91,2.91,0,0,1-.56,1.55,15.93,15.93,0,0,1-1.23,1.64c-.45.53-.87,1-1.27,1.45a3.13,3.13,0,0,0-.69,1,9.4,9.4,0,0,0,.13,1.66,14.11,14.11,0,0,0,.35,1.46c.15.48.3,1,.46,1.53s.31,1.15.45,1.86A19.9,19.9,0,0,1,308.6,55c.09.92.14,2,.14,3.25A17.07,17.07,0,0,1,311,56.94l2.53-1.19c.88-.41,1.78-.86,2.71-1.36a22.7,22.7,0,0,0,2.8-1.8l0,6.56a26.65,26.65,0,0,1-4.21,2.63,40.25,40.25,0,0,1-5,2.17,37,37,0,0,1-5.3,1.48,25.78,25.78,0,0,1-5.08.54,14.9,14.9,0,0,1-3.22-.32,8.24,8.24,0,0,1-2.63-1,5.62,5.62,0,0,1-1.83-1.8,6,6,0,0,1-.85-2.7,5.74,5.74,0,0,1-.8.12l-.78,0c-.31,0-.6,0-.88,0a1.41,1.41,0,0,1-.7-.22,1.3,1.3,0,0,1-.47-.61,3.27,3.27,0,0,1-.18-1.22,2.47,2.47,0,0,1,.36-1.3,4.82,4.82,0,0,1,.82-1.07,8.54,8.54,0,0,1,.93-.82C289.57,54.78,289.8,54.6,290,54.46Zm3.75,3.75a1.17,1.17,0,0,1,.77.44l1,1a8,8,0,0,0,1.29,1,3.14,3.14,0,0,0,1.67.44,4,4,0,0,0,1.89-.38,3.11,3.11,0,0,0,1.19-1,3.9,3.9,0,0,0,.61-1.46,8.31,8.31,0,0,0,.18-1.75,12.76,12.76,0,0,0-.1-1.61c-.07-.54-.16-1.07-.27-1.57s-.22-1-.35-1.4-.24-.82-.33-1.13Z" />
        <path id="t-4" data-name="t" class="cls-3"
            d="M340.61,59.15q-2.81,1.64-5,2.87c-1.46.82-2.77,1.5-3.91,2a21.6,21.6,0,0,1-3.05,1.23,8.39,8.39,0,0,1-2.41.41,6.13,6.13,0,0,1-3.93-1.35,10.17,10.17,0,0,1-2.84-3.88,24.6,24.6,0,0,1-1.72-6.14,52.16,52.16,0,0,1-.57-8.11q0-1.75.15-3.75c.1-1.33.23-2.65.41-4-.59-.07-1-.15-1.36-.22l-1-.2c-.36-.07-.82-.14-1.37-.22s-1.37-.18-2.42-.29a2.75,2.75,0,0,1-1.09-.34,1.62,1.62,0,0,1-.55-.59,1.77,1.77,0,0,1-.21-.7q0-.36,0-.63a1,1,0,0,1,.57-.89,4.72,4.72,0,0,1,1.47-.46,13.07,13.07,0,0,1,2-.16c.72,0,1.4,0,2.05,0l1.76,0a6.93,6.93,0,0,0,1.07,0,67.35,67.35,0,0,1,2-7.67,44.37,44.37,0,0,1,2.72-6.59,18.55,18.55,0,0,1,3.3-4.63,5.35,5.35,0,0,1,3.75-1.74,4,4,0,0,1,2.3.7,6.27,6.27,0,0,1,1.77,1.88,9.6,9.6,0,0,1,1.13,2.74,13.41,13.41,0,0,1,.39,3.26,12,12,0,0,1-.41,3,22.32,22.32,0,0,1-1.11,3.25,33.53,33.53,0,0,1-1.66,3.35c-.63,1.14-1.3,2.26-2,3.37.17,0,.47,0,.88.05l1.42,0,1.74.07,1.82.08,1.64.05,1.26.06a1,1,0,0,1,.85.59,3.38,3.38,0,0,1,.26,1.41,2.39,2.39,0,0,1-.58,1.67,1.75,1.75,0,0,1-1.29.64H327.49c-.57.78-1.14,1.55-1.72,2.3s-1.11,1.43-1.59,2q-.12,1.81-.21,3.57c0,.51,0,1-.06,1.57l-.06,1.59c0,.53,0,1,0,1.53s0,.94,0,1.35a10.1,10.1,0,0,0,.3,2.66,4.64,4.64,0,0,0,.85,1.77,3.12,3.12,0,0,0,1.36,1,4.93,4.93,0,0,0,1.8.31,5.21,5.21,0,0,0,1.54-.3,16.48,16.48,0,0,0,2-.8c.73-.34,1.5-.75,2.32-1.22s1.61-1,2.4-1.53,1.55-1.15,2.27-1.76a22.16,22.16,0,0,0,2-1.89Zm-9.37-37.09a6.39,6.39,0,0,0-.05-.72,2.76,2.76,0,0,0-.19-.75,1.43,1.43,0,0,0-.45-.58,1.41,1.41,0,0,0-.87-.24q-.76,0-1.53,1.35a20.08,20.08,0,0,0-1.5,3.44q-.72,2.1-1.35,4.62t-1.15,4.89l.88.1.9.1c.59-1,1.2-2.07,1.83-3.23s1.21-2.31,1.72-3.43a33.28,33.28,0,0,0,1.26-3.15A7.94,7.94,0,0,0,331.24,22.06Z" />
        <path id="e-4" data-name="e" class="cls-3"
            d="M349.61,65.71a10.86,10.86,0,0,1-4.82-1A9.86,9.86,0,0,1,341.34,62a11.43,11.43,0,0,1-2.06-3.89,15.58,15.58,0,0,1-.69-4.65,20.67,20.67,0,0,1,1.3-7.06,18.33,18.33,0,0,1,1.66-3.35,13,13,0,0,1,2.33-2.81,10.75,10.75,0,0,1,3-1.94,9.07,9.07,0,0,1,3.67-.72,8.65,8.65,0,0,1,3,.53A7.57,7.57,0,0,1,356,39.62a6.75,6.75,0,0,1,1.62,2.3,7.53,7.53,0,0,1,.59,3,8.11,8.11,0,0,1-.9,3.63A13.16,13.16,0,0,1,354.88,52a17.66,17.66,0,0,1-3.77,2.87,20.05,20.05,0,0,1-4.73,2,9.15,9.15,0,0,0,.87,1.32,3.84,3.84,0,0,0,.86.82,2.8,2.8,0,0,0,.92.41,4.36,4.36,0,0,0,1,.12,11.12,11.12,0,0,0,3.71-.7A24.49,24.49,0,0,0,357.57,57a31.41,31.41,0,0,0,3.49-2.3,30.48,30.48,0,0,0,2.78-2.36l3.78,3.93A38.39,38.39,0,0,1,362.14,61c-.84.59-1.74,1.16-2.71,1.73a23.9,23.9,0,0,1-3,1.51,20.89,20.89,0,0,1-3.31,1A15.08,15.08,0,0,1,349.61,65.71Zm-3.9-13.77a5.84,5.84,0,0,0,2.3-.54A10.43,10.43,0,0,0,350.32,50a9.22,9.22,0,0,0,1.8-1.85,3.28,3.28,0,0,0,.74-1.93,4.28,4.28,0,0,0-.49-2.17,1.37,1.37,0,0,0-1.18-.85,4.65,4.65,0,0,0-2.16.47,4.78,4.78,0,0,0-1.49,1.21,6.59,6.59,0,0,0-1,1.7,11.55,11.55,0,0,0-.55,1.92,14.29,14.29,0,0,0-.25,1.88C345.73,51,345.71,51.51,345.71,51.94Z" />
        <path id="r-4" data-name="r" class="cls-3"
            d="M362.76,59.59c0-.86.05-1.86.15-3s.22-2.34.39-3.61.36-2.57.59-3.89.46-2.57.71-3.76.51-2.29.77-3.28a18.91,18.91,0,0,1,.76-2.46,5.32,5.32,0,0,1,.47-1,2,2,0,0,1,.54-.6,1.73,1.73,0,0,1,.76-.29,9.56,9.56,0,0,1,2.31,0,.9.9,0,0,1,.63.35,1.55,1.55,0,0,1,.25.81c0,.35.05.83.05,1.43v2.62c0,1,0,2,.06,3h.32c.39-.79.83-1.66,1.32-2.63a17.15,17.15,0,0,1,1.7-2.71,10,10,0,0,1,2.19-2.12,4.8,4.8,0,0,1,2.85-.86,3.07,3.07,0,0,1,1.08.19,2.57,2.57,0,0,1,.92.54,2.37,2.37,0,0,1,.63.86,2.7,2.7,0,0,1,.24,1.16,8.93,8.93,0,0,1-.15,1.39c-.1.6-.21,1.22-.32,1.88s-.23,1.28-.32,1.9a10,10,0,0,0-.15,1.54,6.72,6.72,0,0,0,.2,1.76,3.25,3.25,0,0,0,.55,1.12,1.72,1.72,0,0,0,.76.6,2.25,2.25,0,0,0,.89.18,6.93,6.93,0,0,0,2.73-.59,18.72,18.72,0,0,0,2.57-1.31,25.41,25.41,0,0,0,2.7-1.94l-.44,6.86-1.73,1.11A21.25,21.25,0,0,1,387.68,56a16.79,16.79,0,0,1-2.29.91,8.3,8.3,0,0,1-2.42.36,6.28,6.28,0,0,1-3.54-.89A6.59,6.59,0,0,1,377.29,54a11.77,11.77,0,0,1-1.17-3.26c-.26-1.2-.46-2.41-.62-3.64H375l-5.24,14.62a16.12,16.12,0,0,1-.78,1.88,6.31,6.31,0,0,1-.74,1.22,2.34,2.34,0,0,1-.82.66,2.4,2.4,0,0,1-1,.19,3.07,3.07,0,0,1-3.06-1.89,6.49,6.49,0,0,1-.53-2A18.6,18.6,0,0,1,362.76,59.59Z" />
    </g>
</svg>