<svg id="Logo_JHipster_V2" data-name="Logo JHipster V2" xmlns="http://www.w3.org/2000/svg"
    xmlns:xlink="http://www.w3.org/1999/xlink" viewBox="0 0 408 96">
    <defs>
        <style>
            .cls-1 {
                fill: url(#Dégradé_sans_nom_22);
            }

            .cls-2 {
                fill: url(#Dégradé_sans_nom_58);
            }

            .cls-3 {
                fill: #343333;
            }

            .cls-4 {
                fill: #fff;
            }
        </style>
        <linearGradient id="Dégradé_sans_nom_22" x1="8.14" y1="48" x2="128.14" y2="48" gradientUnits="userSpaceOnUse">
            <stop offset="0" stop-color="#3474ab" />
            <stop offset="0.5" stop-color="#2a5d89" />
            <stop offset="0.5" stop-color="#2b5f8c" />
            <stop offset="0.5" stop-color="#346fa2" />
            <stop offset="0.51" stop-color="#3a7ab3" />
            <stop offset="0.52" stop-color="#3f83be" />
            <stop offset="0.53" stop-color="#4188c5" />
            <stop offset="0.55" stop-color="#4289c7" />
        </linearGradient>
        <linearGradient id="Dégradé_sans_nom_58" x1="7.64" y1="47.85" x2="128.64" y2="47.85"
            gradientUnits="userSpaceOnUse">
            <stop offset="0" stop-color="#2e608b" />
            <stop offset="0.01" stop-color="#457298" />
            <stop offset="0.02" stop-color="#7093b0" />
            <stop offset="0.04" stop-color="#97b0c5" />
            <stop offset="0.05" stop-color="#b7c8d7" />
            <stop offset="0.07" stop-color="#d1dce6" />
            <stop offset="0.09" stop-color="#e6ecf1" />
            <stop offset="0.11" stop-color="#f4f7f9" />
            <stop offset="0.14" stop-color="#fcfdfe" />
            <stop offset="0.19" stop-color="#fff" />
            <stop offset="0.2" stop-color="#f6f9fb" />
            <stop offset="0.26" stop-color="#bcd1e3" />
            <stop offset="0.32" stop-color="#8bb0cf" />
            <stop offset="0.37" stop-color="#6596bf" />
            <stop offset="0.42" stop-color="#4a83b4" />
            <stop offset="0.47" stop-color="#3a78ad" />
            <stop offset="0.5" stop-color="#3474ab" />
            <stop offset="0.53" stop-color="#3d7aaf" />
            <stop offset="0.57" stop-color="#558bb9" />
            <stop offset="0.62" stop-color="#7da6c9" />
            <stop offset="0.69" stop-color="#b4cce0" />
            <stop offset="0.76" stop-color="#fafbfd" />
            <stop offset="0.76" stop-color="#fff" />
            <stop offset="0.82" stop-color="#fcfdfe" />
            <stop offset="0.85" stop-color="#f4f7f9" />
            <stop offset="0.88" stop-color="#e6ecf1" />
            <stop offset="0.91" stop-color="#d1dce6" />
            <stop offset="0.93" stop-color="#b7c8d7" />
            <stop offset="0.95" stop-color="#97b0c5" />
            <stop offset="0.97" stop-color="#7093b0" />
            <stop offset="0.99" stop-color="#457298" />
            <stop offset="1" stop-color="#2e608b" />
        </linearGradient>
    </defs>
    <g id="Logo-Bowtie">
        <path class="cls-1"
            d="M68.63,51.12l-.51-.32c-13.94,8.81-38.5,23-49.51,20.86C2.08,68.41,9,51.44,13.57,31.13,18,11.52,67.93,39,68.41,38.76c18-9.24,50.43-23.45,54.25-7.7,5.2,21.4,11,37.67-4.79,40.73C107,73.9,82.61,59.94,68.63,51.12Z" />
        <path class="cls-2"
            d="M68.63,51.12l-.51-.32h0c-5.68,3.6-11.47,7.06-17.39,10.26a133.79,133.79,0,0,1-18.32,8.45A41.85,41.85,0,0,1,22.6,71.9a14.08,14.08,0,0,1-5.05-.34,14.88,14.88,0,0,1-4.68-1.94,9.87,9.87,0,0,1-3.43-3.74A13.76,13.76,0,0,1,8.06,61a37.59,37.59,0,0,1,.66-10.1c1.2-6.65,3-13.13,4.48-19.7a8.9,8.9,0,0,1,2.42-4.57,10.09,10.09,0,0,1,4.58-2.43,26.67,26.67,0,0,1,10.19-.05,96.15,96.15,0,0,1,19.42,5.75c6.27,2.47,12.4,5.37,18.43,8.29l.24.09c.09,0-.18,0-.29,0l.06,0,.14-.07.56-.29,1.13-.57,2.26-1.12q2.28-1.11,4.57-2.18c3.06-1.42,6.14-2.78,9.27-4s6.3-2.43,9.53-3.45a70.19,70.19,0,0,1,9.85-2.45,26.66,26.66,0,0,1,10.19,0,10.28,10.28,0,0,1,4.63,2.3A8.85,8.85,0,0,1,123,30.87c1.55,6.55,3.34,13.05,4.55,19.69a40.69,40.69,0,0,1,.76,10.1,14.08,14.08,0,0,1-1.19,4.94,10.07,10.07,0,0,1-3.2,3.94,14.24,14.24,0,0,1-4.64,2.07l-1.24.28c-.41.07-.84.12-1.26.17a17.94,17.94,0,0,1-2.54,0,40.06,40.06,0,0,1-9.83-2.3A131.94,131.94,0,0,1,86,61.36C80.1,58.17,74.32,54.72,68.63,51.12Zm0,0c5.7,3.58,11.5,7,17.43,10.18a133.51,133.51,0,0,0,18.36,8.33,39,39,0,0,0,9.8,2.21,14.25,14.25,0,0,0,5-.49,13.77,13.77,0,0,0,4.52-2.07,9.62,9.62,0,0,0,3.06-3.83,14,14,0,0,0,1.12-4.82,40.39,40.39,0,0,0-.85-10c-1.26-6.59-3.11-13.08-4.72-19.61a8.16,8.16,0,0,0-2.41-4.11,9.44,9.44,0,0,0-4.32-2.09,26.23,26.23,0,0,0-9.87.12A68.12,68.12,0,0,0,96,27.41c-3.19,1-6.34,2.19-9.45,3.46s-6.17,2.63-9.21,4.05c-1.52.72-3,1.45-4.54,2.19l-2.26,1.13-1.12.57-.56.29-.14.07-.09,0a.69.69,0,0,1-.44,0l-.34-.14c-6.08-3-12.12-5.85-18.37-8.33A94.93,94.93,0,0,0,30.26,25a26.42,26.42,0,0,0-9.87,0,9.38,9.38,0,0,0-4.27,2.19,8.29,8.29,0,0,0-2.25,4.21c-1.51,6.56-3.4,13-4.65,19.63a36.4,36.4,0,0,0-.75,10,13.32,13.32,0,0,0,1.29,4.77A9.6,9.6,0,0,0,13,69.36a15,15,0,0,0,4.58,1.94,14.26,14.26,0,0,0,5,.38,40.26,40.26,0,0,0,9.78-2.31A135.25,135.25,0,0,0,50.7,61c5.93-3.19,11.72-6.62,17.42-10.2h0Z" />
    </g>
    <path id="J"
        d="M144.23,73.21a23.46,23.46,0,0,1,1.51-8.07A30.26,30.26,0,0,1,150,57.35a33,33,0,0,1,6.71-6.57,29.5,29.5,0,0,1,8.76-4.38,52.49,52.49,0,0,1-4.65-4.24,35.39,35.39,0,0,1-3.78-4.56,23,23,0,0,1-2.54-4.69,12.92,12.92,0,0,1-.92-4.7,23.87,23.87,0,0,1,2.47-10.68,21.55,21.55,0,0,1,2.74-4.16,19.31,19.31,0,0,1,3.4-3.16,15.28,15.28,0,0,1,3.8-2,11.7,11.7,0,0,1,4-.7,10.49,10.49,0,0,1,5.08,1.34,12.55,12.55,0,0,1,4.35,4.28,25,25,0,0,1,3.05,7.59A48,48,0,0,1,183.61,32c0,3.18-.11,6.21-.34,9.07s-.55,5.6-1,8.22c1.19.74,2.4,1.46,3.62,2.16s2.45,1.41,3.7,2.11l1,.56a12.8,12.8,0,0,1,1.11.69,6.72,6.72,0,0,1,.92.73,1,1,0,0,1,.38.66.87.87,0,0,1-.24.57,4.35,4.35,0,0,1-.59.53,5.63,5.63,0,0,1-.67.42L191,58a2.82,2.82,0,0,1-1.29.26,15.77,15.77,0,0,1-3.85-.64A39.77,39.77,0,0,1,181,55.84a70.55,70.55,0,0,1-3.09,9.91A56.83,56.83,0,0,1,174,73.83a39.78,39.78,0,0,1-4.53,6.22,30.37,30.37,0,0,1-4.83,4.41,20.45,20.45,0,0,1-4.86,2.64,13.72,13.72,0,0,1-4.65.88,10,10,0,0,1-4.29-.94,9.66,9.66,0,0,1-3.44-2.8,13.93,13.93,0,0,1-2.3-4.61A22.11,22.11,0,0,1,144.23,73.21Zm7.5,1.88a7.44,7.44,0,0,0,1.16,4.52A3.63,3.63,0,0,0,156,81.15a8,8,0,0,0,4.38-1.7,20.55,20.55,0,0,0,4.91-5.26,47.36,47.36,0,0,0,4.7-9,73.75,73.75,0,0,0,3.8-13l-1.09-.68a20.25,20.25,0,0,0-5.7,2,28.77,28.77,0,0,0-5,3.44,31,31,0,0,0-4.2,4.38,35.39,35.39,0,0,0-3.21,4.82,25.7,25.7,0,0,0-2.05,4.76A14.41,14.41,0,0,0,151.73,75.09Zm9.38-48.75a11.42,11.42,0,0,0,1,4.65A20.51,20.51,0,0,0,165,35.58a37.61,37.61,0,0,0,4.39,4.5A69.33,69.33,0,0,0,175,44.47q.5-4.06.79-8.57t.29-9.56a33.23,33.23,0,0,0-.44-5.85,14.52,14.52,0,0,0-1.19-3.88,5.18,5.18,0,0,0-1.75-2.15,3.86,3.86,0,0,0-2.13-.66,5.16,5.16,0,0,0-2.2.52,9.85,9.85,0,0,0-2.16,1.45,14.87,14.87,0,0,0-2,2.16,16.35,16.35,0,0,0-1.62,2.62,15.87,15.87,0,0,0-1.1,2.87A11.06,11.06,0,0,0,161.11,26.34Z" />
    <path id="H"
        d="M237.22,43.74q-1,3.6-1.64,6.72a28.45,28.45,0,0,0-.61,5.41A5.12,5.12,0,0,0,235.8,59a3.23,3.23,0,0,0,2.77,1.12,4.82,4.82,0,0,0,1.76-.42,13.38,13.38,0,0,0,2.34-1.33,33,33,0,0,0,3-2.35c1.08-.95,2.29-2.1,3.61-3.42.06.11.18.39.36.82s.37.93.65,1.68.68,1.78,1.19,3.09A42.07,42.07,0,0,1,247,62.25a32.8,32.8,0,0,1-4.3,3,20.93,20.93,0,0,1-4,1.78,11.91,11.91,0,0,1-3.53.61,8.51,8.51,0,0,1-3.43-.69,7.82,7.82,0,0,1-2.74-2,9.78,9.78,0,0,1-1.83-3.24,13.17,13.17,0,0,1-.67-4.38,16.11,16.11,0,0,1,.18-2.14c.11-.86.28-1.83.51-2.93s.5-2.29.82-3.58.68-2.67,1.07-4.12c-2.62.27-5.13.53-7.53.76s-4.8.46-7.18.67c-.55,1.65-1.09,3.25-1.63,4.82s-1.05,3-1.55,4.43L209.82,59c-.43,1.14-.78,2.11-1.07,2.91a14.71,14.71,0,0,1-2.8,4.4,3.84,3.84,0,0,1-2.45,1.29,4.09,4.09,0,0,1-1.38-.24,4,4,0,0,1-1.2-.67,3.28,3.28,0,0,1-.83-1.06,3,3,0,0,1-.31-1.37,3.39,3.39,0,0,1,.12-.91q1.23-4.48,2.68-8.66t2.94-8.13a18.24,18.24,0,0,1-3.09-.25,9.85,9.85,0,0,1-2.74-.86,7.47,7.47,0,0,1-2.24-1.7A8.75,8.75,0,0,1,195.83,41c-.08-.35-.15-.66-.19-.93a4.65,4.65,0,0,1-.08-.82c0-.86.3-1.29.91-1.29a2,2,0,0,1,1.23.6,16.07,16.07,0,0,1,1.73,1.92c.92,0,1.83-.07,2.75-.09s1.91,0,3,0H208q1.06-2.73,2-5.26t1.77-5a25.38,25.38,0,0,0,.8-3.11,16.46,16.46,0,0,0,.29-3,10,10,0,0,0-.21-2.11,4.42,4.42,0,0,0-.67-1.64,3.2,3.2,0,0,0-1.2-1.05,3.86,3.86,0,0,0-1.82-.38,8.17,8.17,0,0,0-2,.29,14,14,0,0,0-2.57.95,26.29,26.29,0,0,0-3.06,1.73,41.18,41.18,0,0,0-3.59,2.65,5.15,5.15,0,0,1-1.24.79,2.72,2.72,0,0,1-1,.24q-.24,0-.36-.78a14.64,14.64,0,0,1-.11-1.92,6.2,6.2,0,0,1,.72-2.9,9.53,9.53,0,0,1,1.91-2.53,15.67,15.67,0,0,1,2.77-2.11,20.26,20.26,0,0,1,3.23-1.61,21.06,21.06,0,0,1,3.29-1,14.83,14.83,0,0,1,3-.35,13.71,13.71,0,0,1,3.92.56,8.82,8.82,0,0,1,3.3,1.79,8.57,8.57,0,0,1,2.26,3.19,12.33,12.33,0,0,1,.83,4.78,20.27,20.27,0,0,1-.31,3.22c-.2,1.27-.48,2.66-.83,4.17s-.77,3.13-1.25,4.84-1,3.45-1.53,5.23q3-.21,6.79-.41l7.59-.41q1.5-4.9,3.3-10.13c1.2-3.48,2.47-6.91,3.82-10.26a7.09,7.09,0,0,1,1.77-2.67,3.76,3.76,0,0,1,2.59-1,3.9,3.9,0,0,1,1.19.18,3,3,0,0,1,1,.54,2.53,2.53,0,0,1,.69.94,3.22,3.22,0,0,1,.25,1.33c0,.45,0,1-.09,1.57a7.65,7.65,0,0,1-.47,1.92c-.45,1.21-.92,2.5-1.43,3.88s-1,2.79-1.54,4.25-1,2.94-1.55,4.47-1,3-1.48,4.54l3.22-.22,2.08-.16.6,0h.51a5,5,0,0,1,1.42.17,2,2,0,0,1,.85.5,1.75,1.75,0,0,1,.43.76,3.86,3.86,0,0,1,.12,1,1.8,1.8,0,0,1-.27,1,1.9,1.9,0,0,1-.66.66,2.41,2.41,0,0,1-.83.35,5.64,5.64,0,0,1-.82.14l-1.17.13-.5.06-.19,0-.22,0-.62,0-1.35.12-2.06.2Z" />
    <path id="i"
        d="M268,59.47a26.7,26.7,0,0,1-2.62,2.07,28.48,28.48,0,0,1-3.38,2,26.36,26.36,0,0,1-3.71,1.53,11.3,11.3,0,0,1-3.59.62,6.86,6.86,0,0,1-2.56-.42,4.34,4.34,0,0,1-1.68-1.19,4.66,4.66,0,0,1-.93-1.86,10.11,10.11,0,0,1-.28-2.42,25.86,25.86,0,0,1,.43-4.29q.42-2.45,1-5.07t1.3-5.23q.69-2.61,1.22-4.8a2.68,2.68,0,0,1,.82-1.31,5.38,5.38,0,0,1,1.39-.88,7.67,7.67,0,0,1,1.61-.49,7.85,7.85,0,0,1,1.51-.16,2.34,2.34,0,0,1,1.67.45,1.69,1.69,0,0,1,.44,1.22,9,9,0,0,1-.29,1.86c-.2.81-.44,1.72-.73,2.75s-.61,2.13-.94,3.31-.65,2.36-.94,3.54-.54,2.34-.73,3.46a17.58,17.58,0,0,0-.3,3,6,6,0,0,0,.3,2.1,1.15,1.15,0,0,0,1.2.78,4.83,4.83,0,0,0,2.34-.74,21.49,21.49,0,0,0,2.61-1.77c.88-.69,1.74-1.41,2.58-2.15s1.58-1.38,2.22-1.91ZM254.86,29.35a4.87,4.87,0,0,1,.29-1.52,4.81,4.81,0,0,1,1-1.6A5.27,5.27,0,0,1,257.86,25a6.51,6.51,0,0,1,2.74-.51,8,8,0,0,1,1.93.23,4.83,4.83,0,0,1,1.59.72,3.45,3.45,0,0,1,1.07,1.28,4.16,4.16,0,0,1,.39,1.87,6.07,6.07,0,0,1-.32,1.94,4.62,4.62,0,0,1-1,1.67,5.28,5.28,0,0,1-1.77,1.18,6.4,6.4,0,0,1-2.56.46,5.24,5.24,0,0,1-3.81-1.22A4.35,4.35,0,0,1,254.86,29.35Z" />
    <path id="p"
        d="M277.83,60.5a23.06,23.06,0,0,0,5.39-.59,20.63,20.63,0,0,0,4.41-1.58A18.62,18.62,0,0,0,291.2,56a23,23,0,0,0,2.89-2.86l.32,6.71a15.43,15.43,0,0,1-2.27,2.21,16.56,16.56,0,0,1-2.92,1.88,18,18,0,0,1-3.32,1.29,12.91,12.91,0,0,1-3.44.48,2.85,2.85,0,0,1-.52-.06l-1.07-.2-2.18-.4c-.95-.16-2.23-.37-3.85-.6V65a48.7,48.7,0,0,1-.89,9.68,32.13,32.13,0,0,1-2.39,7.43,14.58,14.58,0,0,1-3.43,4.74,6.07,6.07,0,0,1-4,1.67,4.57,4.57,0,0,1-2.79-.82,5.68,5.68,0,0,1-1.77-2.21,11.72,11.72,0,0,1-.94-3.25,27.4,27.4,0,0,1-.27-3.94,10.87,10.87,0,0,1,.38-2.71,26.26,26.26,0,0,1,1-3.17c.43-1.1.91-2.22,1.45-3.36s1.09-2.26,1.66-3.33q2-3.75,4.54-7.73c.21-1.53.43-3.09.66-4.69s.51-3.16.85-4.66a30.92,30.92,0,0,1,1.29-4.28,12.59,12.59,0,0,1,2-3.51,9.16,9.16,0,0,1,2.91-2.38,8.93,8.93,0,0,1,4.1-.87,11.19,11.19,0,0,1,3.34.48,6.91,6.91,0,0,1,2.73,1.57,7.32,7.32,0,0,1,1.84,2.79,11.57,11.57,0,0,1,.68,4.21,12.74,12.74,0,0,1-.59,3.85,12.17,12.17,0,0,1-1.83,3.56,16.09,16.09,0,0,1-3.16,3.18,22,22,0,0,1-4.56,2.65ZM263.94,78.63a4.24,4.24,0,0,0,.1.76,5,5,0,0,0,.34,1.06,3.29,3.29,0,0,0,.62.93,1.19,1.19,0,0,0,.93.41.93.93,0,0,0,.82-.54,4.92,4.92,0,0,0,.53-1.45,12.8,12.8,0,0,0,.29-2q.09-1.14.15-2.34c0-.8.06-1.58.07-2.35s0-1.44.08-2c.06-1.05.1-2,.13-2.68s.05-1.34.07-1.83,0-1,.06-1.38a19.82,19.82,0,0,0-1.08,2.25c-.36.85-.69,1.73-1,2.65s-.6,1.83-.85,2.75-.47,1.77-.66,2.56-.33,1.48-.44,2.06A7.36,7.36,0,0,0,263.94,78.63Zm10.2-21.09a15,15,0,0,0,3-2,14.44,14.44,0,0,0,2.2-2.31,13.3,13.3,0,0,0,1.5-2.55,15.72,15.72,0,0,0,.94-2.7,8.61,8.61,0,0,0,.19-1.5,5.11,5.11,0,0,0-.17-1.63,3,3,0,0,0-.76-1.3,2.07,2.07,0,0,0-1.51-.55,3.16,3.16,0,0,0-1.91.61,5.38,5.38,0,0,0-1.42,1.62,10.44,10.44,0,0,0-1,2.43,25.43,25.43,0,0,0-.65,3c-.17,1.07-.28,2.19-.35,3.35S274.14,56.38,274.14,57.54Z" />
    <path id="s"
        d="M290,54.46c1.09-.94,2-1.72,2.66-2.34s1.27-1.2,1.76-1.72a18.69,18.69,0,0,0,1.33-1.56L297.13,47l2-2.65q1.17-1.58,3-3.91a11.6,11.6,0,0,1,.85-1,6.79,6.79,0,0,1,1-.89,5.76,5.76,0,0,1,1.26-.65,4.65,4.65,0,0,1,1.54-.24,6.16,6.16,0,0,1,2.17.3,2.7,2.7,0,0,1,1.11.75,1.77,1.77,0,0,1,.41.92,7,7,0,0,1,.06.84,2.91,2.91,0,0,1-.56,1.55,15.93,15.93,0,0,1-1.23,1.64c-.45.53-.87,1-1.27,1.45a3.13,3.13,0,0,0-.69,1,9.4,9.4,0,0,0,.13,1.66,14.11,14.11,0,0,0,.35,1.46c.15.48.3,1,.46,1.53s.31,1.15.45,1.86A19.9,19.9,0,0,1,308.6,55c.09.92.14,2,.14,3.25A17.07,17.07,0,0,1,311,56.94l2.53-1.19c.88-.41,1.78-.86,2.71-1.36a22.7,22.7,0,0,0,2.8-1.8l0,6.56a26.65,26.65,0,0,1-4.21,2.63,40.25,40.25,0,0,1-5,2.17,37,37,0,0,1-5.3,1.48,25.78,25.78,0,0,1-5.08.54,14.9,14.9,0,0,1-3.22-.32,8.24,8.24,0,0,1-2.63-1,5.62,5.62,0,0,1-1.83-1.8,6,6,0,0,1-.85-2.7,5.74,5.74,0,0,1-.8.12l-.78,0c-.31,0-.6,0-.88,0a1.41,1.41,0,0,1-.7-.22,1.3,1.3,0,0,1-.47-.61,3.27,3.27,0,0,1-.18-1.22,2.47,2.47,0,0,1,.36-1.3,4.82,4.82,0,0,1,.82-1.07,8.54,8.54,0,0,1,.93-.82C289.57,54.78,289.8,54.6,290,54.46Zm3.75,3.75a1.17,1.17,0,0,1,.77.44l1,1a8,8,0,0,0,1.29,1,3.14,3.14,0,0,0,1.67.44,4,4,0,0,0,1.89-.38,3.11,3.11,0,0,0,1.19-1,3.9,3.9,0,0,0,.61-1.46,8.31,8.31,0,0,0,.18-1.75,12.76,12.76,0,0,0-.1-1.61c-.07-.54-.16-1.07-.27-1.57s-.22-1-.35-1.4-.24-.82-.33-1.13Z" />
    <path id="t"
        d="M340.61,59.15q-2.81,1.64-5,2.87c-1.46.82-2.77,1.5-3.91,2a21.6,21.6,0,0,1-3.05,1.23,8.39,8.39,0,0,1-2.41.41,6.13,6.13,0,0,1-3.93-1.35,10.17,10.17,0,0,1-2.84-3.88,24.6,24.6,0,0,1-1.72-6.14,52.16,52.16,0,0,1-.57-8.11q0-1.75.15-3.75c.1-1.33.23-2.65.41-4-.59-.07-1-.15-1.36-.22l-1-.2c-.36-.07-.82-.14-1.37-.22s-1.37-.18-2.42-.29a2.75,2.75,0,0,1-1.09-.34,1.62,1.62,0,0,1-.55-.59,1.77,1.77,0,0,1-.21-.7q0-.36,0-.63a1,1,0,0,1,.57-.89,4.72,4.72,0,0,1,1.47-.46,13.07,13.07,0,0,1,2-.16c.72,0,1.4,0,2.05,0l1.76,0a6.93,6.93,0,0,0,1.07,0,67.35,67.35,0,0,1,2-7.67,44.37,44.37,0,0,1,2.72-6.59,18.55,18.55,0,0,1,3.3-4.63,5.35,5.35,0,0,1,3.75-1.74,4,4,0,0,1,2.3.7,6.27,6.27,0,0,1,1.77,1.88,9.6,9.6,0,0,1,1.13,2.74,13.41,13.41,0,0,1,.39,3.26,12,12,0,0,1-.41,3,22.32,22.32,0,0,1-1.11,3.25,33.53,33.53,0,0,1-1.66,3.35c-.63,1.14-1.3,2.26-2,3.37.17,0,.47,0,.88.05l1.42,0,1.74.07,1.82.08,1.64.05,1.26.06a1,1,0,0,1,.85.59,3.38,3.38,0,0,1,.26,1.41,2.39,2.39,0,0,1-.58,1.67,1.75,1.75,0,0,1-1.29.64H327.49c-.57.78-1.14,1.55-1.72,2.3s-1.11,1.43-1.59,2q-.12,1.81-.21,3.57c0,.51,0,1-.06,1.57l-.06,1.59c0,.53,0,1,0,1.53s0,.94,0,1.35a10.1,10.1,0,0,0,.3,2.66,4.64,4.64,0,0,0,.85,1.77,3.12,3.12,0,0,0,1.36,1,4.93,4.93,0,0,0,1.8.31,5.21,5.21,0,0,0,1.54-.3,16.48,16.48,0,0,0,2-.8c.73-.34,1.5-.75,2.32-1.22s1.61-1,2.4-1.53,1.55-1.15,2.27-1.76a22.16,22.16,0,0,0,2-1.89Zm-9.37-37.09a6.39,6.39,0,0,0-.05-.72,2.76,2.76,0,0,0-.19-.75,1.43,1.43,0,0,0-.45-.58,1.41,1.41,0,0,0-.87-.24q-.76,0-1.53,1.35a20.08,20.08,0,0,0-1.5,3.44q-.72,2.1-1.35,4.62t-1.15,4.89l.88.1.9.1c.59-1,1.2-2.07,1.83-3.23s1.21-2.31,1.72-3.43a33.28,33.28,0,0,0,1.26-3.15A7.94,7.94,0,0,0,331.24,22.06Z" />
    <path id="e"
        d="M349.61,65.71a10.86,10.86,0,0,1-4.82-1A9.86,9.86,0,0,1,341.34,62a11.43,11.43,0,0,1-2.06-3.89,15.58,15.58,0,0,1-.69-4.65,20.67,20.67,0,0,1,1.3-7.06,18.33,18.33,0,0,1,1.66-3.35,13,13,0,0,1,2.33-2.81,10.75,10.75,0,0,1,3-1.94,9.07,9.07,0,0,1,3.67-.72,8.65,8.65,0,0,1,3,.53A7.57,7.57,0,0,1,356,39.62a6.75,6.75,0,0,1,1.62,2.3,7.53,7.53,0,0,1,.59,3,8.11,8.11,0,0,1-.9,3.63A13.16,13.16,0,0,1,354.88,52a17.66,17.66,0,0,1-3.77,2.87,20.05,20.05,0,0,1-4.73,2,9.15,9.15,0,0,0,.87,1.32,3.84,3.84,0,0,0,.86.82,2.8,2.8,0,0,0,.92.41,4.36,4.36,0,0,0,1,.12,11.12,11.12,0,0,0,3.71-.7A24.49,24.49,0,0,0,357.57,57a31.41,31.41,0,0,0,3.49-2.3,30.48,30.48,0,0,0,2.78-2.36l3.78,3.93A38.39,38.39,0,0,1,362.14,61c-.84.59-1.74,1.16-2.71,1.73a23.9,23.9,0,0,1-3,1.51,20.89,20.89,0,0,1-3.31,1A15.08,15.08,0,0,1,349.61,65.71Zm-3.9-13.77a5.84,5.84,0,0,0,2.3-.54A10.43,10.43,0,0,0,350.32,50a9.22,9.22,0,0,0,1.8-1.85,3.28,3.28,0,0,0,.74-1.93,4.28,4.28,0,0,0-.49-2.17,1.37,1.37,0,0,0-1.18-.85,4.65,4.65,0,0,0-2.16.47,4.78,4.78,0,0,0-1.49,1.21,6.59,6.59,0,0,0-1,1.7,11.55,11.55,0,0,0-.55,1.92,14.29,14.29,0,0,0-.25,1.88C345.73,51,345.71,51.51,345.71,51.94Z" />
    <path id="r"
        d="M362.76,59.59c0-.86.05-1.86.15-3s.22-2.34.39-3.61.36-2.57.59-3.89.46-2.57.71-3.76.51-2.29.77-3.28a18.91,18.91,0,0,1,.76-2.46,5.32,5.32,0,0,1,.47-1,2,2,0,0,1,.54-.6,1.73,1.73,0,0,1,.76-.29,9.56,9.56,0,0,1,2.31,0,.9.9,0,0,1,.63.35,1.55,1.55,0,0,1,.25.81c0,.35.05.83.05,1.43v2.62c0,1,0,2,.06,3h.32c.39-.79.83-1.66,1.32-2.63a17.15,17.15,0,0,1,1.7-2.71,10,10,0,0,1,2.19-2.12,4.8,4.8,0,0,1,2.85-.86,3.07,3.07,0,0,1,1.08.19,2.57,2.57,0,0,1,.92.54,2.37,2.37,0,0,1,.63.86,2.7,2.7,0,0,1,.24,1.16,8.93,8.93,0,0,1-.15,1.39c-.1.6-.21,1.22-.32,1.88s-.23,1.28-.32,1.9a10,10,0,0,0-.15,1.54,6.72,6.72,0,0,0,.2,1.76,3.25,3.25,0,0,0,.55,1.12,1.72,1.72,0,0,0,.76.6,2.25,2.25,0,0,0,.89.18,6.93,6.93,0,0,0,2.73-.59,18.72,18.72,0,0,0,2.57-1.31,25.41,25.41,0,0,0,2.7-1.94l-.44,6.86-1.73,1.11A21.25,21.25,0,0,1,387.68,56a16.79,16.79,0,0,1-2.29.91,8.3,8.3,0,0,1-2.42.36,6.28,6.28,0,0,1-3.54-.89A6.59,6.59,0,0,1,377.29,54a11.77,11.77,0,0,1-1.17-3.26c-.26-1.2-.46-2.41-.62-3.64H375l-5.24,14.62a16.12,16.12,0,0,1-.78,1.88,6.31,6.31,0,0,1-.74,1.22,2.34,2.34,0,0,1-.82.66,2.4,2.4,0,0,1-1,.19,3.07,3.07,0,0,1-3.06-1.89,6.49,6.49,0,0,1-.53-2A18.6,18.6,0,0,1,362.76,59.59Z" />
    <path id="J-2" data-name="J" class="cls-3"
        d="M144.23,73.21a23.46,23.46,0,0,1,1.51-8.07A30.26,30.26,0,0,1,150,57.35a33,33,0,0,1,6.71-6.57,29.5,29.5,0,0,1,8.76-4.38,52.49,52.49,0,0,1-4.65-4.24,35.39,35.39,0,0,1-3.78-4.56,23,23,0,0,1-2.54-4.69,12.92,12.92,0,0,1-.92-4.7,23.87,23.87,0,0,1,2.47-10.68,21.55,21.55,0,0,1,2.74-4.16,19.31,19.31,0,0,1,3.4-3.16,15.28,15.28,0,0,1,3.8-2,11.7,11.7,0,0,1,4-.7,10.49,10.49,0,0,1,5.08,1.34,12.55,12.55,0,0,1,4.35,4.28,25,25,0,0,1,3.05,7.59A48,48,0,0,1,183.61,32c0,3.18-.11,6.21-.34,9.07s-.55,5.6-1,8.22c1.19.74,2.4,1.46,3.62,2.16s2.45,1.41,3.7,2.11l1,.56a12.8,12.8,0,0,1,1.11.69,6.72,6.72,0,0,1,.92.73,1,1,0,0,1,.38.66.87.87,0,0,1-.24.57,4.35,4.35,0,0,1-.59.53,5.63,5.63,0,0,1-.67.42L191,58a2.82,2.82,0,0,1-1.29.26,15.77,15.77,0,0,1-3.85-.64A39.77,39.77,0,0,1,181,55.84a70.55,70.55,0,0,1-3.09,9.91A56.83,56.83,0,0,1,174,73.83a39.78,39.78,0,0,1-4.53,6.22,30.37,30.37,0,0,1-4.83,4.41,20.45,20.45,0,0,1-4.86,2.64,13.72,13.72,0,0,1-4.65.88,10,10,0,0,1-4.29-.94,9.66,9.66,0,0,1-3.44-2.8,13.93,13.93,0,0,1-2.3-4.61A22.11,22.11,0,0,1,144.23,73.21Zm7.5,1.88a7.44,7.44,0,0,0,1.16,4.52A3.63,3.63,0,0,0,156,81.15a8,8,0,0,0,4.38-1.7,20.55,20.55,0,0,0,4.91-5.26,47.36,47.36,0,0,0,4.7-9,73.75,73.75,0,0,0,3.8-13l-1.09-.68a20.25,20.25,0,0,0-5.7,2,28.77,28.77,0,0,0-5,3.44,31,31,0,0,0-4.2,4.38,35.39,35.39,0,0,0-3.21,4.82,25.7,25.7,0,0,0-2.05,4.76A14.41,14.41,0,0,0,151.73,75.09Zm9.38-48.75a11.42,11.42,0,0,0,1,4.65A20.51,20.51,0,0,0,165,35.58a37.61,37.61,0,0,0,4.39,4.5A69.33,69.33,0,0,0,175,44.47q.5-4.06.79-8.57t.29-9.56a33.23,33.23,0,0,0-.44-5.85,14.52,14.52,0,0,0-1.19-3.88,5.18,5.18,0,0,0-1.75-2.15,3.86,3.86,0,0,0-2.13-.66,5.16,5.16,0,0,0-2.2.52,9.85,9.85,0,0,0-2.16,1.45,14.87,14.87,0,0,0-2,2.16,16.35,16.35,0,0,0-1.62,2.62,15.87,15.87,0,0,0-1.1,2.87A11.06,11.06,0,0,0,161.11,26.34Z" />
    <path id="H-2" data-name="H" class="cls-3"
        d="M237.22,43.74q-1,3.6-1.64,6.72a28.45,28.45,0,0,0-.61,5.41A5.12,5.12,0,0,0,235.8,59a3.23,3.23,0,0,0,2.77,1.12,4.82,4.82,0,0,0,1.76-.42,13.38,13.38,0,0,0,2.34-1.33,33,33,0,0,0,3-2.35c1.08-.95,2.29-2.1,3.61-3.42.06.11.18.39.36.82s.37.93.65,1.68.68,1.78,1.19,3.09A42.07,42.07,0,0,1,247,62.25a32.8,32.8,0,0,1-4.3,3,20.93,20.93,0,0,1-4,1.78,11.91,11.91,0,0,1-3.53.61,8.51,8.51,0,0,1-3.43-.69,7.82,7.82,0,0,1-2.74-2,9.78,9.78,0,0,1-1.83-3.24,13.17,13.17,0,0,1-.67-4.38,16.11,16.11,0,0,1,.18-2.14c.11-.86.28-1.83.51-2.93s.5-2.29.82-3.58.68-2.67,1.07-4.12c-2.62.27-5.13.53-7.53.76s-4.8.46-7.18.67c-.55,1.65-1.09,3.25-1.63,4.82s-1.05,3-1.55,4.43L209.82,59c-.43,1.14-.78,2.11-1.07,2.91a14.71,14.71,0,0,1-2.8,4.4,3.84,3.84,0,0,1-2.45,1.29,4.09,4.09,0,0,1-1.38-.24,4,4,0,0,1-1.2-.67,3.28,3.28,0,0,1-.83-1.06,3,3,0,0,1-.31-1.37,3.39,3.39,0,0,1,.12-.91q1.23-4.48,2.68-8.66t2.94-8.13a18.24,18.24,0,0,1-3.09-.25,9.85,9.85,0,0,1-2.74-.86,7.47,7.47,0,0,1-2.24-1.7A8.75,8.75,0,0,1,195.83,41c-.08-.35-.15-.66-.19-.93a4.65,4.65,0,0,1-.08-.82c0-.86.3-1.29.91-1.29a2,2,0,0,1,1.23.6,16.07,16.07,0,0,1,1.73,1.92c.92,0,1.83-.07,2.75-.09s1.91,0,3,0H208q1.06-2.73,2-5.26t1.77-5a25.38,25.38,0,0,0,.8-3.11,16.46,16.46,0,0,0,.29-3,10,10,0,0,0-.21-2.11,4.42,4.42,0,0,0-.67-1.64,3.2,3.2,0,0,0-1.2-1.05,3.86,3.86,0,0,0-1.82-.38,8.17,8.17,0,0,0-2,.29,14,14,0,0,0-2.57.95,26.29,26.29,0,0,0-3.06,1.73,41.18,41.18,0,0,0-3.59,2.65,5.15,5.15,0,0,1-1.24.79,2.72,2.72,0,0,1-1,.24q-.24,0-.36-.78a14.64,14.64,0,0,1-.11-1.92,6.2,6.2,0,0,1,.72-2.9,9.53,9.53,0,0,1,1.91-2.53,15.67,15.67,0,0,1,2.77-2.11,20.26,20.26,0,0,1,3.23-1.61,21.06,21.06,0,0,1,3.29-1,14.83,14.83,0,0,1,3-.35,13.71,13.71,0,0,1,3.92.56,8.82,8.82,0,0,1,3.3,1.79,8.57,8.57,0,0,1,2.26,3.19,12.33,12.33,0,0,1,.83,4.78,20.27,20.27,0,0,1-.31,3.22c-.2,1.27-.48,2.66-.83,4.17s-.77,3.13-1.25,4.84-1,3.45-1.53,5.23q3-.21,6.79-.41l7.59-.41q1.5-4.9,3.3-10.13c1.2-3.48,2.47-6.91,3.82-10.26a7.09,7.09,0,0,1,1.77-2.67,3.76,3.76,0,0,1,2.59-1,3.9,3.9,0,0,1,1.19.18,3,3,0,0,1,1,.54,2.53,2.53,0,0,1,.69.94,3.22,3.22,0,0,1,.25,1.33c0,.45,0,1-.09,1.57a7.65,7.65,0,0,1-.47,1.92c-.45,1.21-.92,2.5-1.43,3.88s-1,2.79-1.54,4.25-1,2.94-1.55,4.47-1,3-1.48,4.54l3.22-.22,2.08-.16.6,0h.51a5,5,0,0,1,1.42.17,2,2,0,0,1,.85.5,1.75,1.75,0,0,1,.43.76,3.86,3.86,0,0,1,.12,1,1.8,1.8,0,0,1-.27,1,1.9,1.9,0,0,1-.66.66,2.41,2.41,0,0,1-.83.35,5.64,5.64,0,0,1-.82.14l-1.17.13-.5.06-.19,0-.22,0-.62,0-1.35.12-2.06.2Z" />
    <path id="i-2" data-name="i" class="cls-3"
        d="M268,59.47a26.7,26.7,0,0,1-2.62,2.07,28.48,28.48,0,0,1-3.38,2,26.36,26.36,0,0,1-3.71,1.53,11.3,11.3,0,0,1-3.59.62,6.86,6.86,0,0,1-2.56-.42,4.34,4.34,0,0,1-1.68-1.19,4.66,4.66,0,0,1-.93-1.86,10.11,10.11,0,0,1-.28-2.42,25.86,25.86,0,0,1,.43-4.29q.42-2.45,1-5.07t1.3-5.23q.69-2.61,1.22-4.8a2.68,2.68,0,0,1,.82-1.31,5.38,5.38,0,0,1,1.39-.88,7.67,7.67,0,0,1,1.61-.49,7.85,7.85,0,0,1,1.51-.16,2.34,2.34,0,0,1,1.67.45,1.69,1.69,0,0,1,.44,1.22,9,9,0,0,1-.29,1.86c-.2.81-.44,1.72-.73,2.75s-.61,2.13-.94,3.31-.65,2.36-.94,3.54-.54,2.34-.73,3.46a17.58,17.58,0,0,0-.3,3,6,6,0,0,0,.3,2.1,1.15,1.15,0,0,0,1.2.78,4.83,4.83,0,0,0,2.34-.74,21.49,21.49,0,0,0,2.61-1.77c.88-.69,1.74-1.41,2.58-2.15s1.58-1.38,2.22-1.91ZM254.86,29.35a4.87,4.87,0,0,1,.29-1.52,4.81,4.81,0,0,1,1-1.6A5.27,5.27,0,0,1,257.86,25a6.51,6.51,0,0,1,2.74-.51,8,8,0,0,1,1.93.23,4.83,4.83,0,0,1,1.59.72,3.45,3.45,0,0,1,1.07,1.28,4.16,4.16,0,0,1,.39,1.87,6.07,6.07,0,0,1-.32,1.94,4.62,4.62,0,0,1-1,1.67,5.28,5.28,0,0,1-1.77,1.18,6.4,6.4,0,0,1-2.56.46,5.24,5.24,0,0,1-3.81-1.22A4.35,4.35,0,0,1,254.86,29.35Z" />
    <path id="p-2" data-name="p" class="cls-3"
        d="M277.83,60.5a23.06,23.06,0,0,0,5.39-.59,20.63,20.63,0,0,0,4.41-1.58A18.62,18.62,0,0,0,291.2,56a23,23,0,0,0,2.89-2.86l.32,6.71a15.43,15.43,0,0,1-2.27,2.21,16.56,16.56,0,0,1-2.92,1.88,18,18,0,0,1-3.32,1.29,12.91,12.91,0,0,1-3.44.48,2.85,2.85,0,0,1-.52-.06l-1.07-.2-2.18-.4c-.95-.16-2.23-.37-3.85-.6V65a48.7,48.7,0,0,1-.89,9.68,32.13,32.13,0,0,1-2.39,7.43,14.58,14.58,0,0,1-3.43,4.74,6.07,6.07,0,0,1-4,1.67,4.57,4.57,0,0,1-2.79-.82,5.68,5.68,0,0,1-1.77-2.21,11.72,11.72,0,0,1-.94-3.25,27.4,27.4,0,0,1-.27-3.94,10.87,10.87,0,0,1,.38-2.71,26.26,26.26,0,0,1,1-3.17c.43-1.1.91-2.22,1.45-3.36s1.09-2.26,1.66-3.33q2-3.75,4.54-7.73c.21-1.53.43-3.09.66-4.69s.51-3.16.85-4.66a30.92,30.92,0,0,1,1.29-4.28,12.59,12.59,0,0,1,2-3.51,9.16,9.16,0,0,1,2.91-2.38,8.93,8.93,0,0,1,4.1-.87,11.19,11.19,0,0,1,3.34.48,6.91,6.91,0,0,1,2.73,1.57,7.32,7.32,0,0,1,1.84,2.79,11.57,11.57,0,0,1,.68,4.21,12.74,12.74,0,0,1-.59,3.85,12.17,12.17,0,0,1-1.83,3.56,16.09,16.09,0,0,1-3.16,3.18,22,22,0,0,1-4.56,2.65ZM263.94,78.63a4.24,4.24,0,0,0,.1.76,5,5,0,0,0,.34,1.06,3.29,3.29,0,0,0,.62.93,1.19,1.19,0,0,0,.93.41.93.93,0,0,0,.82-.54,4.92,4.92,0,0,0,.53-1.45,12.8,12.8,0,0,0,.29-2q.09-1.14.15-2.34c0-.8.06-1.58.07-2.35s0-1.44.08-2c.06-1.05.1-2,.13-2.68s.05-1.34.07-1.83,0-1,.06-1.38a19.82,19.82,0,0,0-1.08,2.25c-.36.85-.69,1.73-1,2.65s-.6,1.83-.85,2.75-.47,1.77-.66,2.56-.33,1.48-.44,2.06A7.36,7.36,0,0,0,263.94,78.63Zm10.2-21.09a15,15,0,0,0,3-2,14.44,14.44,0,0,0,2.2-2.31,13.3,13.3,0,0,0,1.5-2.55,15.72,15.72,0,0,0,.94-2.7,8.61,8.61,0,0,0,.19-1.5,5.11,5.11,0,0,0-.17-1.63,3,3,0,0,0-.76-1.3,2.07,2.07,0,0,0-1.51-.55,3.16,3.16,0,0,0-1.91.61,5.38,5.38,0,0,0-1.42,1.62,10.44,10.44,0,0,0-1,2.43,25.43,25.43,0,0,0-.65,3c-.17,1.07-.28,2.19-.35,3.35S274.14,56.38,274.14,57.54Z" />
    <path id="s-2" data-name="s" class="cls-3"
        d="M290,54.46c1.09-.94,2-1.72,2.66-2.34s1.27-1.2,1.76-1.72a18.69,18.69,0,0,0,1.33-1.56L297.13,47l2-2.65q1.17-1.58,3-3.91a11.6,11.6,0,0,1,.85-1,6.79,6.79,0,0,1,1-.89,5.76,5.76,0,0,1,1.26-.65,4.65,4.65,0,0,1,1.54-.24,6.16,6.16,0,0,1,2.17.3,2.7,2.7,0,0,1,1.11.75,1.77,1.77,0,0,1,.41.92,7,7,0,0,1,.06.84,2.91,2.91,0,0,1-.56,1.55,15.93,15.93,0,0,1-1.23,1.64c-.45.53-.87,1-1.27,1.45a3.13,3.13,0,0,0-.69,1,9.4,9.4,0,0,0,.13,1.66,14.11,14.11,0,0,0,.35,1.46c.15.48.3,1,.46,1.53s.31,1.15.45,1.86A19.9,19.9,0,0,1,308.6,55c.09.92.14,2,.14,3.25A17.07,17.07,0,0,1,311,56.94l2.53-1.19c.88-.41,1.78-.86,2.71-1.36a22.7,22.7,0,0,0,2.8-1.8l0,6.56a26.65,26.65,0,0,1-4.21,2.63,40.25,40.25,0,0,1-5,2.17,37,37,0,0,1-5.3,1.48,25.78,25.78,0,0,1-5.08.54,14.9,14.9,0,0,1-3.22-.32,8.24,8.24,0,0,1-2.63-1,5.62,5.62,0,0,1-1.83-1.8,6,6,0,0,1-.85-2.7,5.74,5.74,0,0,1-.8.12l-.78,0c-.31,0-.6,0-.88,0a1.41,1.41,0,0,1-.7-.22,1.3,1.3,0,0,1-.47-.61,3.27,3.27,0,0,1-.18-1.22,2.47,2.47,0,0,1,.36-1.3,4.82,4.82,0,0,1,.82-1.07,8.54,8.54,0,0,1,.93-.82C289.57,54.78,289.8,54.6,290,54.46Zm3.75,3.75a1.17,1.17,0,0,1,.77.44l1,1a8,8,0,0,0,1.29,1,3.14,3.14,0,0,0,1.67.44,4,4,0,0,0,1.89-.38,3.11,3.11,0,0,0,1.19-1,3.9,3.9,0,0,0,.61-1.46,8.31,8.31,0,0,0,.18-1.75,12.76,12.76,0,0,0-.1-1.61c-.07-.54-.16-1.07-.27-1.57s-.22-1-.35-1.4-.24-.82-.33-1.13Z" />
    <path id="t-2" data-name="t" class="cls-3"
        d="M340.61,59.15q-2.81,1.64-5,2.87c-1.46.82-2.77,1.5-3.91,2a21.6,21.6,0,0,1-3.05,1.23,8.39,8.39,0,0,1-2.41.41,6.13,6.13,0,0,1-3.93-1.35,10.17,10.17,0,0,1-2.84-3.88,24.6,24.6,0,0,1-1.72-6.14,52.16,52.16,0,0,1-.57-8.11q0-1.75.15-3.75c.1-1.33.23-2.65.41-4-.59-.07-1-.15-1.36-.22l-1-.2c-.36-.07-.82-.14-1.37-.22s-1.37-.18-2.42-.29a2.75,2.75,0,0,1-1.09-.34,1.62,1.62,0,0,1-.55-.59,1.77,1.77,0,0,1-.21-.7q0-.36,0-.63a1,1,0,0,1,.57-.89,4.72,4.72,0,0,1,1.47-.46,13.07,13.07,0,0,1,2-.16c.72,0,1.4,0,2.05,0l1.76,0a6.93,6.93,0,0,0,1.07,0,67.35,67.35,0,0,1,2-7.67,44.37,44.37,0,0,1,2.72-6.59,18.55,18.55,0,0,1,3.3-4.63,5.35,5.35,0,0,1,3.75-1.74,4,4,0,0,1,2.3.7,6.27,6.27,0,0,1,1.77,1.88,9.6,9.6,0,0,1,1.13,2.74,13.41,13.41,0,0,1,.39,3.26,12,12,0,0,1-.41,3,22.32,22.32,0,0,1-1.11,3.25,33.53,33.53,0,0,1-1.66,3.35c-.63,1.14-1.3,2.26-2,3.37.17,0,.47,0,.88.05l1.42,0,1.74.07,1.82.08,1.64.05,1.26.06a1,1,0,0,1,.85.59,3.38,3.38,0,0,1,.26,1.41,2.39,2.39,0,0,1-.58,1.67,1.75,1.75,0,0,1-1.29.64H327.49c-.57.78-1.14,1.55-1.72,2.3s-1.11,1.43-1.59,2q-.12,1.81-.21,3.57c0,.51,0,1-.06,1.57l-.06,1.59c0,.53,0,1,0,1.53s0,.94,0,1.35a10.1,10.1,0,0,0,.3,2.66,4.64,4.64,0,0,0,.85,1.77,3.12,3.12,0,0,0,1.36,1,4.93,4.93,0,0,0,1.8.31,5.21,5.21,0,0,0,1.54-.3,16.48,16.48,0,0,0,2-.8c.73-.34,1.5-.75,2.32-1.22s1.61-1,2.4-1.53,1.55-1.15,2.27-1.76a22.16,22.16,0,0,0,2-1.89Zm-9.37-37.09a6.39,6.39,0,0,0-.05-.72,2.76,2.76,0,0,0-.19-.75,1.43,1.43,0,0,0-.45-.58,1.41,1.41,0,0,0-.87-.24q-.76,0-1.53,1.35a20.08,20.08,0,0,0-1.5,3.44q-.72,2.1-1.35,4.62t-1.15,4.89l.88.1.9.1c.59-1,1.2-2.07,1.83-3.23s1.21-2.31,1.72-3.43a33.28,33.28,0,0,0,1.26-3.15A7.94,7.94,0,0,0,331.24,22.06Z" />
    <path id="e-2" data-name="e" class="cls-3"
        d="M349.61,65.71a10.86,10.86,0,0,1-4.82-1A9.86,9.86,0,0,1,341.34,62a11.43,11.43,0,0,1-2.06-3.89,15.58,15.58,0,0,1-.69-4.65,20.67,20.67,0,0,1,1.3-7.06,18.33,18.33,0,0,1,1.66-3.35,13,13,0,0,1,2.33-2.81,10.75,10.75,0,0,1,3-1.94,9.07,9.07,0,0,1,3.67-.72,8.65,8.65,0,0,1,3,.53A7.57,7.57,0,0,1,356,39.62a6.75,6.75,0,0,1,1.62,2.3,7.53,7.53,0,0,1,.59,3,8.11,8.11,0,0,1-.9,3.63A13.16,13.16,0,0,1,354.88,52a17.66,17.66,0,0,1-3.77,2.87,20.05,20.05,0,0,1-4.73,2,9.15,9.15,0,0,0,.87,1.32,3.84,3.84,0,0,0,.86.82,2.8,2.8,0,0,0,.92.41,4.36,4.36,0,0,0,1,.12,11.12,11.12,0,0,0,3.71-.7A24.49,24.49,0,0,0,357.57,57a31.41,31.41,0,0,0,3.49-2.3,30.48,30.48,0,0,0,2.78-2.36l3.78,3.93A38.39,38.39,0,0,1,362.14,61c-.84.59-1.74,1.16-2.71,1.73a23.9,23.9,0,0,1-3,1.51,20.89,20.89,0,0,1-3.31,1A15.08,15.08,0,0,1,349.61,65.71Zm-3.9-13.77a5.84,5.84,0,0,0,2.3-.54A10.43,10.43,0,0,0,350.32,50a9.22,9.22,0,0,0,1.8-1.85,3.28,3.28,0,0,0,.74-1.93,4.28,4.28,0,0,0-.49-2.17,1.37,1.37,0,0,0-1.18-.85,4.65,4.65,0,0,0-2.16.47,4.78,4.78,0,0,0-1.49,1.21,6.59,6.59,0,0,0-1,1.7,11.55,11.55,0,0,0-.55,1.92,14.29,14.29,0,0,0-.25,1.88C345.73,51,345.71,51.51,345.71,51.94Z" />
    <path id="r-2" data-name="r" class="cls-3"
        d="M362.76,59.59c0-.86.05-1.86.15-3s.22-2.34.39-3.61.36-2.57.59-3.89.46-2.57.71-3.76.51-2.29.77-3.28a18.91,18.91,0,0,1,.76-2.46,5.32,5.32,0,0,1,.47-1,2,2,0,0,1,.54-.6,1.73,1.73,0,0,1,.76-.29,9.56,9.56,0,0,1,2.31,0,.9.9,0,0,1,.63.35,1.55,1.55,0,0,1,.25.81c0,.35.05.83.05,1.43v2.62c0,1,0,2,.06,3h.32c.39-.79.83-1.66,1.32-2.63a17.15,17.15,0,0,1,1.7-2.71,10,10,0,0,1,2.19-2.12,4.8,4.8,0,0,1,2.85-.86,3.07,3.07,0,0,1,1.08.19,2.57,2.57,0,0,1,.92.54,2.37,2.37,0,0,1,.63.86,2.7,2.7,0,0,1,.24,1.16,8.93,8.93,0,0,1-.15,1.39c-.1.6-.21,1.22-.32,1.88s-.23,1.28-.32,1.9a10,10,0,0,0-.15,1.54,6.72,6.72,0,0,0,.2,1.76,3.25,3.25,0,0,0,.55,1.12,1.72,1.72,0,0,0,.76.6,2.25,2.25,0,0,0,.89.18,6.93,6.93,0,0,0,2.73-.59,18.72,18.72,0,0,0,2.57-1.31,25.41,25.41,0,0,0,2.7-1.94l-.44,6.86-1.73,1.11A21.25,21.25,0,0,1,387.68,56a16.79,16.79,0,0,1-2.29.91,8.3,8.3,0,0,1-2.42.36,6.28,6.28,0,0,1-3.54-.89A6.59,6.59,0,0,1,377.29,54a11.77,11.77,0,0,1-1.17-3.26c-.26-1.2-.46-2.41-.62-3.64H375l-5.24,14.62a16.12,16.12,0,0,1-.78,1.88,6.31,6.31,0,0,1-.74,1.22,2.34,2.34,0,0,1-.82.66,2.4,2.4,0,0,1-1,.19,3.07,3.07,0,0,1-3.06-1.89,6.49,6.49,0,0,1-.53-2A18.6,18.6,0,0,1,362.76,59.59Z" />
    <path class="cls-4"
        d="M144.13,73.21c.27-12.3,9.78-23.41,21.29-27.09l-.1.51a43.88,43.88,0,0,1-8.74-9,17.62,17.62,0,0,1-3.47-8.84,23.73,23.73,0,0,1,4.61-15c8.14-10.63,20.85-8.92,24.78,4.26a45.55,45.55,0,0,1,1.89,15.66,126.52,126.52,0,0,1-1.16,15.68l-.43-1c3.23,2,6.72,3.68,9.89,5.84,2,1.29,1.59,2.89-.29,4a4.57,4.57,0,0,1-2.85.93,26.61,26.61,0,0,1-9-2.46l1.4-.71a64.26,64.26,0,0,1-5.66,15.32c-3.8,7.13-9.51,14.14-17.55,16.49-9.83,2.64-15-5.84-14.66-14.67Zm.2,0c-.06,13.73,10.42,18.89,21,9.93,8.06-7,12.21-17.37,14.69-27.54a1,1,0,0,1,1.39-.7c2.83,1.11,5.74,2.35,8.78,2.23a1.61,1.61,0,0,0,.49-.19A5.08,5.08,0,0,0,192,56s0,0,0,.05a.6.6,0,0,0,0,.26A9.5,9.5,0,0,0,190.21,55c-2.82-1.65-5.63-3.24-8.42-5a.92.92,0,0,1-.44-1,112.55,112.55,0,0,0,1.21-12.3,65.7,65.7,0,0,0-.19-12.31c-.8-7.38-4.88-17.43-13.83-16.23-9.2,1.52-14.71,11.69-14.41,20.49.6,7.28,6.3,12.88,11.56,17.44a.29.29,0,0,1-.1.5,29.08,29.08,0,0,0-8.14,3.85c-7.42,5.06-13,13.52-13.12,22.68Z" />
    <path class="cls-4"
        d="M151.83,75.09c-.22,4.13,2.42,7.42,6.63,5.17,3.21-1.69,5.4-4.75,7.28-7.81a63.11,63.11,0,0,0,7.12-20.51l.41.93-1.1-.65.66.12a21.06,21.06,0,0,0-7.3,3.19c-6.14,4.13-13.19,11.85-13.7,19.56Zm-.2,0c.74-11.29,9.52-22.4,20.85-24.54.52-.17,1.31.6,1.73.81a.89.89,0,0,1,.4.94c-2.1,8.94-5.08,18.21-11.39,25.13-4.39,4.81-11.56,6.2-11.59-2.34Z" />
    <path class="cls-4"
        d="M161.21,26.34c-.06,4,2.39,7.49,5.06,10.25a61,61,0,0,0,9.09,7.4l-.92.41c.29-6,2.76-26-2.54-29.27-1.33-.83-3.25-.19-4.83.92a13.92,13.92,0,0,0-5.86,10.29Zm-.2,0a16.42,16.42,0,0,1,5.12-11.46c2.9-2.87,7.36-2.81,9.23,1.18,2.39,5,1.55,10.63,1.36,15.94-.08,4.21-.7,8.37-1.11,12.54a.58.58,0,0,1-.92.41,50.39,50.39,0,0,1-8.87-8c-2.5-3-4.76-6.62-4.81-10.66Z" />
    <path class="cls-4"
        d="M237.29,43.81c-.84,3.75-2.12,7.85-2.17,11.7-.25,5.74,4.73,5.15,8,2.22l2.33-1.87c.52-.46,3-2.93,3.6-3.44a.24.24,0,0,1,.34,0c.47.94.8,1.92,1.19,2.88l1.09,2.79a.26.26,0,0,1-.06.28c-4.93,5.07-13.51,12.37-20.92,8.42-7.65-5-3.75-15.23-2.08-22.4l.51.59q-7.35.8-14.71,1.49l.45-.36c-.89,2.68-1.78,5.35-2.72,8-1.53,3.93-2.42,8.13-4.93,11.61-1,1.17-2,2.32-3.72,2.44a4.08,4.08,0,0,1-4-5.58c1.41-4.88,3.6-11.48,5.42-16.31l.64.93A13.92,13.92,0,0,1,199.35,46a8.23,8.23,0,0,1-4.43-5.87c-.17-1-.21-2.56,1.09-2.93,1.92-.33,3,1.62,4,2.73l-.62-.29c2.45-.12,6.06-.13,8.55-.14l-.72.5c1.4-3.77,2.93-7.55,4-11.34,1.92-7,.43-11.58-7.41-7.36A36.7,36.7,0,0,0,199,24.66c-1.44,1.22-4.65,3.3-4.89,0-1-5.49,3.26-9.21,7.75-11.35,8.34-4.24,19.4-2,19.34,9-.26,6.25-2.31,12.09-4,18l-1-1.29q7.22-.4,14.4-.74l-.82.65,2.14-6.46c.6-1.89,1.55-4.59,2.27-6.42l2.41-6.37a11.22,11.22,0,0,1,1.6-3.21c1.88-3,7.5-2.78,7.74,1.27.2,3-1.31,5.73-2.26,8.39q-2.4,6.33-4.54,12.76l-.46-.59,5.65-.31c1.35-.14,3.58.09,3.82,1.87.57,3.21-2.2,3.27-4.52,3.46-2.1.16-4.27.35-6.32.46Zm-.13-.15c2.18-.25,4.24-.47,6.36-.7,1.38-.27,3.59-.07,4.06-1.68.38-2.3-1.18-2.78-3.22-2.54l-5.64.5a.45.45,0,0,1-.46-.59c1.32-4.34,2.77-8.63,4.28-12.9.52-1.73,1.88-4.55,2-6.29,0-1,.22-2-.4-2.78-1.23-1.35-3.7-.84-4.71.75a10,10,0,0,0-1.35,2.86l-2.32,6.35c-.68,1.81-1.6,4.52-2.17,6.41L231.5,39.5a.93.93,0,0,1-.82.64q-7.2.42-14.37.9a1,1,0,0,1-1-1.29c1.61-5.72,3.6-11.45,3.88-17.39.15-9.47-9.54-10.82-16.48-7.27-3.16,1.58-6.84,4-6.81,7.9l.08,1.4a2.1,2.1,0,0,0,.08.51s0,0-.08-.12a.85.85,0,0,0-.3-.19.81.81,0,0,0-.27-.05,1.06,1.06,0,0,0,.24,0,6.23,6.23,0,0,0,2.19-1.33c3.41-2.5,6.85-5.16,11.38-5.23,5.54.31,4.83,7.45,3.63,11.16-1.16,4-2.71,7.69-4.15,11.47a.77.77,0,0,1-.73.5H203.7c-1.42,0-2.83,0-4.25.09a.76.76,0,0,1-.61-.28c-.67-.72-1.57-2.17-2.44-2.25a2.72,2.72,0,0,0,0,1.25l.18.9a9.2,9.2,0,0,0,1.32,2.29c1.87,2.24,4.82,2.71,7.66,2.74a.7.7,0,0,1,.65.93c-1.65,4.41-3.9,10.75-5.19,15.21-.32,1.06-.92,2.39-.29,3.42A3.19,3.19,0,0,0,203.5,67c2.41-.4,3.76-3.46,4.7-5.28,2-5.28,3.88-10.56,5.67-15.9a.53.53,0,0,1,.45-.36c4.91-.43,9.81-.9,14.71-1.38a.48.48,0,0,1,.51.59c-.49,1.91-1,3.81-1.47,5.73-.85,3.71-1.83,7.74-.43,11.42a7.94,7.94,0,0,0,8.92,5.36c5.8-1,10.63-5,14.68-9.13l-.06.28c-.69-1.67-1.44-4-2.16-5.59l.38.07-2.92,2.74c-.79.8-2.23,1.85-3.11,2.56-3.55,3.11-8.85,3.47-8.55-2.56.08-3.9,1.43-8,2.34-11.84Z" />
    <path class="cls-4"
        d="M268.05,59.51c-4,3.52-12.45,9.13-17.59,5.26-3.33-3.47-1.17-9.47-.57-13.62.78-3.59,1.67-7.14,2.5-10.68.4-2.15,2.86-3.32,4.82-3.59a5,5,0,0,1,3.29.27c1.23.84,1.12,2.32.9,3.45-.4,1.87-.87,3.63-1.35,5.39-.93,4.17-2.79,8.59-2.23,12.84.12.36.06.25.2.34,1.9.1,3.77-1.56,5.32-2.65s2.9-2.23,4.35-3.38a.46.46,0,0,1,.73.38c-.12,2-.22,4.06-.37,6Zm-.19-.08-.37-5.91.76.36c-2.21,1.84-10,10.73-12.21,5.49-.79-3,.1-5.8.63-8.61.85-3.58,2-7.11,2.91-10.51.1-.57.28-1.27-.05-1.61-1.58-.57-5.31.24-5.66,2.21-.93,3.54-1.91,7-2.76,10.57-.64,3.77-2.85,9.52-.07,12.72,4.65,3.63,13-1.62,16.82-4.71Z" />
    <path class="cls-4"
        d="M254.76,29.35c.18-4.71,5.85-6.79,9.66-4.52,3.51,2.39,2,8.4-1.83,9.59s-8.21-.7-7.83-5.07Zm.2,0c.09,3,2.62,3.81,5.26,3.45,2.28-.14,4.4-1.5,4.55-4a3.11,3.11,0,0,0-1.08-2.94c-2.93-2-8.78-.84-8.73,3.45Z" />
    <path class="cls-4"
        d="M277.89,60.42a20.4,20.4,0,0,0,16-7.46.28.28,0,0,1,.48.17l.39,6.7a.41.41,0,0,1-.08.24,17,17,0,0,1-11.89,6.1c-2.77-.25-5.27-.87-8-1.19l.61-.53c0,7.77-.91,17.15-6.8,22.93A6.6,6.6,0,0,1,262.34,89c-3.77-1.22-4.55-5.71-4.77-9.09-.41-5.53,2.54-10.71,4.93-15.49l4-7-.15.4c1-6,1.19-12.72,5.12-17.7,4.15-5.27,14.34-4.5,16.38,2.31,2.37,8-2.84,14.87-10.19,17.55l.07-.14c.05.18.08.37.12.57Zm-.12.16c0-.22-.37-.66-.17-.81a20.9,20.9,0,0,0,5.84-4.09c4.7-4.26,5.8-14.92-1.52-16.92C270,36.08,269.85,50.5,268.25,58.52c-2.37,4-5.89,9.61-7.53,13.89-.9,2.41-1.79,4.8-1.52,7.41.1,3.33,1,8.29,5.28,7.94,8-1.47,9.93-16.51,9.83-23.32a.52.52,0,0,1,.61-.51c2.57.34,5.32,1,7.84,1.31a16.2,16.2,0,0,0,11.39-5.6l-.08.23-.26-6.71.49.16a20.54,20.54,0,0,1-16.53,7.26Z" />
    <path class="cls-4"
        d="M264,78.63c.12,1.08.52,2.93,1.85,3,.81-.08.89-1.26,1-1.92.13-1.27.2-2.64.22-3.93,0-3.16.06-7.55,0-10.69l1.77.53c-.93,2.07-1.74,4.24-2.59,6.37A28.3,28.3,0,0,0,264,78.63Zm-.2,0c.4-4.19.62-8.52,2.6-12.33.51-.8.87-2.62,2.16-2a1,1,0,0,1,.48.9l-.45,5.33c-.21,2.58-.34,6.87-1,9.35-1.15,4-3.56,1.76-3.81-1.22Z" />
    <path class="cls-4"
        d="M274.19,57.45c.07-.12.27-.21.38-.28a13.59,13.59,0,0,0,6.69-10c.33-2-.56-3.94-2.52-3.11a4.89,4.89,0,0,0-2.14,2.85,82.39,82.39,0,0,0-2.41,10.55Zm-.11.17a24.69,24.69,0,0,1,0-9.19A9.17,9.17,0,0,1,275.92,44c3.15-3.62,7.72-1.36,6.63,3.4a13.83,13.83,0,0,1-8.47,10.27Z" />
    <path class="cls-4"
        d="M289.89,54.38c4.91-3.77,8.14-9,11.81-13.89a7.51,7.51,0,0,1,3.58-3.08c2.06-.64,5.6-.35,5.81,2.36l0,.61c-.13,1.85-1.46,2.9-2.43,4.23a12,12,0,0,0-1.26,1.57l0-.16.13,1.45c.16.84.54,2.08.8,2.91a29.94,29.94,0,0,1,1.08,7.83l-1.14-.61c1.71-1.05,3.51-1.92,5.3-2.79a27.18,27.18,0,0,0,4.89-2.93.89.89,0,0,1,1.23.16.9.9,0,0,1,.18.54l.12,6.56a1,1,0,0,1-.38.78c-6.17,4.82-20.94,10.41-27.5,4.26a6.11,6.11,0,0,1-1.59-4l.45.33c-1.24.06-3.1.46-3.82-.78-1-2.31,1-4.15,2.68-5.35Zm.13.16c-1.2,1-2.82,2.1-2.68,3.85,0,.82.35,1.61,1.12,1.6a9.58,9.58,0,0,0,2.41-.22.38.38,0,0,1,.46.32A5.21,5.21,0,0,0,293,63.4c5.92,4.63,20.12-1,25.53-5l-.37.77.06-6.56,1.41.7a29,29,0,0,1-5.27,3c-1.77.82-3.54,1.63-5.22,2.6a.75.75,0,0,1-1.09-.64l-.09-3a26.79,26.79,0,0,0-.77-4.44,15.55,15.55,0,0,1-.86-4.87,7.5,7.5,0,0,1,1.55-2c.81-1,2.13-2.22,2.26-3.46,0-.69,0-1.25-.57-1.66a5,5,0,0,0-4-.53,7,7,0,0,0-3.34,2.68l-2.91,3.54c-.52.67-3.05,3.93-3.53,4.52a46.11,46.11,0,0,1-5.75,5.6Z" />
    <path class="cls-4"
        d="M293.8,58.17c-.08-.12,0,0,.07-.05.63.16,1.26,1,1.76,1.33a3.84,3.84,0,0,0,3.9,1c3.56-1.31,1.68-6.75.75-9.41l1.66.41c-2.44,2.7-5.2,4.18-8.14,6.75Zm-.19.08c2-2.6,4.43-6.08,6.92-8.25A1,1,0,0,1,302,50a16.74,16.74,0,0,1,.92,7.55,4.16,4.16,0,0,1-5.64,3.65,7.74,7.74,0,0,1-2.73-2.28,1.86,1.86,0,0,0-.71-.6c-.05,0,0,0-.21-.08Z" />
    <path class="cls-4"
        d="M340.7,59.2c-1.69,1-6.05,3.57-7.76,4.41-16.29,10-17.16-14.84-15.71-25.15l.43.56c-.81-.12-1.62-.25-2.38-.41-1.11-.19-2.37-.33-3.51-.45a4.49,4.49,0,0,1-1.32-.3,2.2,2.2,0,0,1-1.3-1.85l0-.64a1.62,1.62,0,0,1,.9-1.46c2.21-1,5-.61,7.36-.65l1.06,0-.49.49c1.08-6.21,6.8-27,16-19.78,3.69,3.76,3.39,9.76,1.42,14.29-.67,1.4-1.38,3-2.16,4.35l-1.61,2.76-.72-1.51c1.82.08,7.17.22,8.92.33,1.42.13,2,2,1.88,3a3.37,3.37,0,0,1-1.55,2.93c-.65.54-2.12.38-2.92.4H334l-6.46,0,.79-.4c-1.1,1.46-2.23,2.91-3.39,4.33l.2-.51c-.2,2.69-.36,5.41-.45,8.11-.35,4.29.73,8,5.7,5.94a30.39,30.39,0,0,0,10.06-6.52.33.33,0,0,1,.55.26l-.25,7.55Zm-.18-.1-.24-7.45.58.22a29.71,29.71,0,0,1-11.05,7.6c-5.59,1.66-7.14-3-6.82-7.54,0-2.74.13-5.46.27-8.19a.86.86,0,0,1,.2-.52c1.11-1.42,2.18-2.87,3.23-4.34a1,1,0,0,1,.8-.4l9.69,0h1.57a.62.62,0,0,0,.26-.09c.67-.32.66-1.7.39-2.19,0,0,.07.05.06,0-1.54-.08-7.19-.32-8.83-.4a1,1,0,0,1-.9-1,1,1,0,0,1,.18-.51c.52-.91,1.93-3.09,2.36-4a22.61,22.61,0,0,0,2.67-7c.8-4-1.79-11.67-6.91-8.47-2.42,1.78-3.9,4.6-5.16,7.33A59.46,59.46,0,0,0,319.16,34a.53.53,0,0,1-.49.49c-2.61.22-5.64-.48-8.13.47-.25.16-.3.2-.3.44a2.59,2.59,0,0,0,.12,1,1,1,0,0,0,.54.54c1.28.39,3.15.42,4.58.74.79.17,1.56.3,2.32.43a.52.52,0,0,1,.43.56c-1.51,9.84-1.37,34.18,14.55,24.71,1.69-.81,6.06-3.26,7.74-4.2Z" />
    <path class="cls-4"
        d="M331.14,22.06c.06-1.11-.39-2.56-1.77-2.06a2.12,2.12,0,0,0-.72.79c-1.41,2.73-2,5.89-2.74,8.85L325,34.26l-.74-1.06,1.79.12-.94.47c1-2,2.05-3.91,3.21-5.79s2.6-3.74,2.82-5.94Zm.2,0a12.71,12.71,0,0,1-.56,3.36,25.82,25.82,0,0,1-4.06,9.4.92.92,0,0,1-.91.41L324,34.94a.85.85,0,0,1-.74-1.06l1.26-4.57c1-3,1.7-6.21,3.7-8.81a1.71,1.71,0,0,1,2.25-.65c.75.48.78,1.42.84,2.21Z" />
    <path class="cls-4"
        d="M349.61,65.81c-14.2,0-14.24-20.93-4.42-27.23,5.56-3.74,14.18-.63,13.79,6.72-.51,6.41-6.63,10.76-12.34,12.45l.57-1.38c.64.89,1.07,1.87,2.12,2.05a10.44,10.44,0,0,0,5.6-1.21,32.87,32.87,0,0,0,8.25-5.51l.08-.06a.93.93,0,0,1,1.26.08c1.25,1.35,2.48,2.72,3.71,4.08a.77.77,0,0,1,0,1.06,41.06,41.06,0,0,1-4.06,3.4c-4.26,3-9.2,5.58-14.52,5.55Zm0-.2c7-.19,12.9-4.92,17.44-9.85v1.09c-1.3-1.26-2.61-2.53-3.89-3.81l1.34,0c-3.95,3.58-8.5,7-14.06,7.44a4.76,4.76,0,0,1-3.08-.86,8.59,8.59,0,0,1-1.81-2.34.9.9,0,0,1,.23-1.24c4.09-1.17,8.17-3.33,10.45-7.06,2.33-3.38,1.44-8.55-2.57-10.13-15.29-5.38-21.81,26.86-4.05,26.74Z" />
    <path class="cls-4"
        d="M345.78,51.87a9.17,9.17,0,0,0,5.08-3,4.54,4.54,0,0,0,1.33-2.37c0-.88-.21-2.18-.95-2.43-3.85.32-4.41,4.68-5.46,7.81Zm-.14.14c-.84-3.15-.43-7.73,3-9.25,1.26-.47,3-.79,4,.31a4.4,4.4,0,0,1,.06,5.27c-1.74,2.09-4.22,3.78-7.06,3.67Z" />
    <path class="cls-4"
        d="M362.66,59.59A87.9,87.9,0,0,1,363.78,49a73.73,73.73,0,0,1,2.05-9.41c.36-1.11,1-2.32,2.37-2.27.92,0,2.15-.3,2.92.42a2.85,2.85,0,0,1,.41,1.78c.08,2.15.09,4.26.18,6.4l-.51-.5h.32l-.46.29c1.7-3.4,3.59-8.11,7.92-8.69a3.52,3.52,0,0,1,4.11,3c.28,2.4-2.43,9.19.6,10a7.77,7.77,0,0,0,4-1.18,22,22,0,0,0,3.7-2.55.87.87,0,0,1,1.42.73l-.36,6.86a1,1,0,0,1-.43.73c-.83.54-1.6,1.1-2.52,1.6a13.64,13.64,0,0,1-5.87,2.16c-6.92.47-8.43-5.44-9-11l.94.82H375l.89-.63c-1.73,4.56-3.57,9.06-5.38,13.59-.79,1.66-1.21,3.81-3,4.74a3.46,3.46,0,0,1-3.61-.87c-1.31-1.47-1.17-3.52-1.27-5.32Zm.2,0a15.12,15.12,0,0,0,.46,3.57,3,3,0,0,0,4,2.11c1.45-.94,1.73-3,2.33-4.55,1.49-4.63,2.93-9.29,4.49-13.9a.91.91,0,0,1,.88-.62c.62-.07,1.26,0,1.4.75V47l.53,2.81c.45,3.53,2.55,6.85,6.49,6.4a11.93,11.93,0,0,0,5-1.81c.82-.41,1.64-1,2.46-1.49l-.43.74.52-6.85,1.42.72c-2.67,2-5.37,4-9,3.91-4.85-1.25-1.67-8.07-1.71-11.36-.2-2.22-3.12-2.25-4.59-1.22-2.56,1.66-3.82,4.61-5.21,7.28-.14.3-.5.28-.77.27a.5.5,0,0,1-.51-.49c0-1.43,0-2.87,0-4.29a29,29,0,0,0-.05-3.1c-.07-.28-.15-.4-.38-.48-1.1-.06-2.87-.49-3.46.79a21.38,21.38,0,0,0-1.38,3.94,77.58,77.58,0,0,0-2.56,16.8Z" />
    <path id="J-3" data-name="J" class="cls-3"
        d="M144.23,73.21a23.46,23.46,0,0,1,1.51-8.07A30.26,30.26,0,0,1,150,57.35a33,33,0,0,1,6.71-6.57,29.5,29.5,0,0,1,8.76-4.38,52.49,52.49,0,0,1-4.65-4.24,35.39,35.39,0,0,1-3.78-4.56,23,23,0,0,1-2.54-4.69,12.92,12.92,0,0,1-.92-4.7,23.87,23.87,0,0,1,2.47-10.68,21.55,21.55,0,0,1,2.74-4.16,19.31,19.31,0,0,1,3.4-3.16,15.28,15.28,0,0,1,3.8-2,11.7,11.7,0,0,1,4-.7,10.49,10.49,0,0,1,5.08,1.34,12.55,12.55,0,0,1,4.35,4.28,25,25,0,0,1,3.05,7.59A48,48,0,0,1,183.61,32c0,3.18-.11,6.21-.34,9.07s-.55,5.6-1,8.22c1.19.74,2.4,1.46,3.62,2.16s2.45,1.41,3.7,2.11l1,.56a12.8,12.8,0,0,1,1.11.69,6.72,6.72,0,0,1,.92.73,1,1,0,0,1,.38.66.87.87,0,0,1-.24.57,4.35,4.35,0,0,1-.59.53,5.63,5.63,0,0,1-.67.42L191,58a2.82,2.82,0,0,1-1.29.26,15.77,15.77,0,0,1-3.85-.64A39.77,39.77,0,0,1,181,55.84a70.55,70.55,0,0,1-3.09,9.91A56.83,56.83,0,0,1,174,73.83a39.78,39.78,0,0,1-4.53,6.22,30.37,30.37,0,0,1-4.83,4.41,20.45,20.45,0,0,1-4.86,2.64,13.72,13.72,0,0,1-4.65.88,10,10,0,0,1-4.29-.94,9.66,9.66,0,0,1-3.44-2.8,13.93,13.93,0,0,1-2.3-4.61A22.11,22.11,0,0,1,144.23,73.21Zm7.5,1.88a7.44,7.44,0,0,0,1.16,4.52A3.63,3.63,0,0,0,156,81.15a8,8,0,0,0,4.38-1.7,20.55,20.55,0,0,0,4.91-5.26,47.36,47.36,0,0,0,4.7-9,73.75,73.75,0,0,0,3.8-13l-1.09-.68a20.25,20.25,0,0,0-5.7,2,28.77,28.77,0,0,0-5,3.44,31,31,0,0,0-4.2,4.38,35.39,35.39,0,0,0-3.21,4.82,25.7,25.7,0,0,0-2.05,4.76A14.41,14.41,0,0,0,151.73,75.09Zm9.38-48.75a11.42,11.42,0,0,0,1,4.65A20.51,20.51,0,0,0,165,35.58a37.61,37.61,0,0,0,4.39,4.5A69.33,69.33,0,0,0,175,44.47q.5-4.06.79-8.57t.29-9.56a33.23,33.23,0,0,0-.44-5.85,14.52,14.52,0,0,0-1.19-3.88,5.18,5.18,0,0,0-1.75-2.15,3.86,3.86,0,0,0-2.13-.66,5.16,5.16,0,0,0-2.2.52,9.85,9.85,0,0,0-2.16,1.45,14.87,14.87,0,0,0-2,2.16,16.35,16.35,0,0,0-1.62,2.62,15.87,15.87,0,0,0-1.1,2.87A11.06,11.06,0,0,0,161.11,26.34Z" />
    <path id="H-3" data-name="H" class="cls-3"
        d="M237.22,43.74q-1,3.6-1.64,6.72a28.45,28.45,0,0,0-.61,5.41A5.12,5.12,0,0,0,235.8,59a3.23,3.23,0,0,0,2.77,1.12,4.82,4.82,0,0,0,1.76-.42,13.38,13.38,0,0,0,2.34-1.33,33,33,0,0,0,3-2.35c1.08-.95,2.29-2.1,3.61-3.42.06.11.18.39.36.82s.37.93.65,1.68.68,1.78,1.19,3.09A42.07,42.07,0,0,1,247,62.25a32.8,32.8,0,0,1-4.3,3,20.93,20.93,0,0,1-4,1.78,11.91,11.91,0,0,1-3.53.61,8.51,8.51,0,0,1-3.43-.69,7.82,7.82,0,0,1-2.74-2,9.78,9.78,0,0,1-1.83-3.24,13.17,13.17,0,0,1-.67-4.38,16.11,16.11,0,0,1,.18-2.14c.11-.86.28-1.83.51-2.93s.5-2.29.82-3.58.68-2.67,1.07-4.12c-2.62.27-5.13.53-7.53.76s-4.8.46-7.18.67c-.55,1.65-1.09,3.25-1.63,4.82s-1.05,3-1.55,4.43L209.82,59c-.43,1.14-.78,2.11-1.07,2.91a14.71,14.71,0,0,1-2.8,4.4,3.84,3.84,0,0,1-2.45,1.29,4.09,4.09,0,0,1-1.38-.24,4,4,0,0,1-1.2-.67,3.28,3.28,0,0,1-.83-1.06,3,3,0,0,1-.31-1.37,3.39,3.39,0,0,1,.12-.91q1.23-4.48,2.68-8.66t2.94-8.13a18.24,18.24,0,0,1-3.09-.25,9.85,9.85,0,0,1-2.74-.86,7.47,7.47,0,0,1-2.24-1.7A8.75,8.75,0,0,1,195.83,41c-.08-.35-.15-.66-.19-.93a4.65,4.65,0,0,1-.08-.82c0-.86.3-1.29.91-1.29a2,2,0,0,1,1.23.6,16.07,16.07,0,0,1,1.73,1.92c.92,0,1.83-.07,2.75-.09s1.91,0,3,0H208q1.06-2.73,2-5.26t1.77-5a25.38,25.38,0,0,0,.8-3.11,16.46,16.46,0,0,0,.29-3,10,10,0,0,0-.21-2.11,4.42,4.42,0,0,0-.67-1.64,3.2,3.2,0,0,0-1.2-1.05,3.86,3.86,0,0,0-1.82-.38,8.17,8.17,0,0,0-2,.29,14,14,0,0,0-2.57.95,26.29,26.29,0,0,0-3.06,1.73,41.18,41.18,0,0,0-3.59,2.65,5.15,5.15,0,0,1-1.24.79,2.72,2.72,0,0,1-1,.24q-.24,0-.36-.78a14.64,14.64,0,0,1-.11-1.92,6.2,6.2,0,0,1,.72-2.9,9.53,9.53,0,0,1,1.91-2.53,15.67,15.67,0,0,1,2.77-2.11,20.26,20.26,0,0,1,3.23-1.61,21.06,21.06,0,0,1,3.29-1,14.83,14.83,0,0,1,3-.35,13.71,13.71,0,0,1,3.92.56,8.82,8.82,0,0,1,3.3,1.79,8.57,8.57,0,0,1,2.26,3.19,12.33,12.33,0,0,1,.83,4.78,20.27,20.27,0,0,1-.31,3.22c-.2,1.27-.48,2.66-.83,4.17s-.77,3.13-1.25,4.84-1,3.45-1.53,5.23q3-.21,6.79-.41l7.59-.41q1.5-4.9,3.3-10.13c1.2-3.48,2.47-6.91,3.82-10.26a7.09,7.09,0,0,1,1.77-2.67,3.76,3.76,0,0,1,2.59-1,3.9,3.9,0,0,1,1.19.18,3,3,0,0,1,1,.54,2.53,2.53,0,0,1,.69.94,3.22,3.22,0,0,1,.25,1.33c0,.45,0,1-.09,1.57a7.65,7.65,0,0,1-.47,1.92c-.45,1.21-.92,2.5-1.43,3.88s-1,2.79-1.54,4.25-1,2.94-1.55,4.47-1,3-1.48,4.54l3.22-.22,2.08-.16.6,0h.51a5,5,0,0,1,1.42.17,2,2,0,0,1,.85.5,1.75,1.75,0,0,1,.43.76,3.86,3.86,0,0,1,.12,1,1.8,1.8,0,0,1-.27,1,1.9,1.9,0,0,1-.66.66,2.41,2.41,0,0,1-.83.35,5.64,5.64,0,0,1-.82.14l-1.17.13-.5.06-.19,0-.22,0-.62,0-1.35.12-2.06.2Z" />
    <path id="i-3" data-name="i" class="cls-3"
        d="M268,59.47a26.7,26.7,0,0,1-2.62,2.07,28.48,28.48,0,0,1-3.38,2,26.36,26.36,0,0,1-3.71,1.53,11.3,11.3,0,0,1-3.59.62,6.86,6.86,0,0,1-2.56-.42,4.34,4.34,0,0,1-1.68-1.19,4.66,4.66,0,0,1-.93-1.86,10.11,10.11,0,0,1-.28-2.42,25.86,25.86,0,0,1,.43-4.29q.42-2.45,1-5.07t1.3-5.23q.69-2.61,1.22-4.8a2.68,2.68,0,0,1,.82-1.31,5.38,5.38,0,0,1,1.39-.88,7.67,7.67,0,0,1,1.61-.49,7.85,7.85,0,0,1,1.51-.16,2.34,2.34,0,0,1,1.67.45,1.69,1.69,0,0,1,.44,1.22,9,9,0,0,1-.29,1.86c-.2.81-.44,1.72-.73,2.75s-.61,2.13-.94,3.31-.65,2.36-.94,3.54-.54,2.34-.73,3.46a17.58,17.58,0,0,0-.3,3,6,6,0,0,0,.3,2.1,1.15,1.15,0,0,0,1.2.78,4.83,4.83,0,0,0,2.34-.74,21.49,21.49,0,0,0,2.61-1.77c.88-.69,1.74-1.41,2.58-2.15s1.58-1.38,2.22-1.91ZM254.86,29.35a4.87,4.87,0,0,1,.29-1.52,4.81,4.81,0,0,1,1-1.6A5.27,5.27,0,0,1,257.86,25a6.51,6.51,0,0,1,2.74-.51,8,8,0,0,1,1.93.23,4.83,4.83,0,0,1,1.59.72,3.45,3.45,0,0,1,1.07,1.28,4.16,4.16,0,0,1,.39,1.87,6.07,6.07,0,0,1-.32,1.94,4.62,4.62,0,0,1-1,1.67,5.28,5.28,0,0,1-1.77,1.18,6.4,6.4,0,0,1-2.56.46,5.24,5.24,0,0,1-3.81-1.22A4.35,4.35,0,0,1,254.86,29.35Z" />
    <path id="p-3" data-name="p" class="cls-3"
        d="M277.83,60.5a23.06,23.06,0,0,0,5.39-.59,20.63,20.63,0,0,0,4.41-1.58A18.62,18.62,0,0,0,291.2,56a23,23,0,0,0,2.89-2.86l.32,6.71a15.43,15.43,0,0,1-2.27,2.21,16.56,16.56,0,0,1-2.92,1.88,18,18,0,0,1-3.32,1.29,12.91,12.91,0,0,1-3.44.48,2.85,2.85,0,0,1-.52-.06l-1.07-.2-2.18-.4c-.95-.16-2.23-.37-3.85-.6V65a48.7,48.7,0,0,1-.89,9.68,32.13,32.13,0,0,1-2.39,7.43,14.58,14.58,0,0,1-3.43,4.74,6.07,6.07,0,0,1-4,1.67,4.57,4.57,0,0,1-2.79-.82,5.68,5.68,0,0,1-1.77-2.21,11.72,11.72,0,0,1-.94-3.25,27.4,27.4,0,0,1-.27-3.94,10.87,10.87,0,0,1,.38-2.71,26.26,26.26,0,0,1,1-3.17c.43-1.1.91-2.22,1.45-3.36s1.09-2.26,1.66-3.33q2-3.75,4.54-7.73c.21-1.53.43-3.09.66-4.69s.51-3.16.85-4.66a30.92,30.92,0,0,1,1.29-4.28,12.59,12.59,0,0,1,2-3.51,9.16,9.16,0,0,1,2.91-2.38,8.93,8.93,0,0,1,4.1-.87,11.19,11.19,0,0,1,3.34.48,6.91,6.91,0,0,1,2.73,1.57,7.32,7.32,0,0,1,1.84,2.79,11.57,11.57,0,0,1,.68,4.21,12.74,12.74,0,0,1-.59,3.85,12.17,12.17,0,0,1-1.83,3.56,16.09,16.09,0,0,1-3.16,3.18,22,22,0,0,1-4.56,2.65ZM263.94,78.63a4.24,4.24,0,0,0,.1.76,5,5,0,0,0,.34,1.06,3.29,3.29,0,0,0,.62.93,1.19,1.19,0,0,0,.93.41.93.93,0,0,0,.82-.54,4.92,4.92,0,0,0,.53-1.45,12.8,12.8,0,0,0,.29-2q.09-1.14.15-2.34c0-.8.06-1.58.07-2.35s0-1.44.08-2c.06-1.05.1-2,.13-2.68s.05-1.34.07-1.83,0-1,.06-1.38a19.82,19.82,0,0,0-1.08,2.25c-.36.85-.69,1.73-1,2.65s-.6,1.83-.85,2.75-.47,1.77-.66,2.56-.33,1.48-.44,2.06A7.36,7.36,0,0,0,263.94,78.63Zm10.2-21.09a15,15,0,0,0,3-2,14.44,14.44,0,0,0,2.2-2.31,13.3,13.3,0,0,0,1.5-2.55,15.72,15.72,0,0,0,.94-2.7,8.61,8.61,0,0,0,.19-1.5,5.11,5.11,0,0,0-.17-1.63,3,3,0,0,0-.76-1.3,2.07,2.07,0,0,0-1.51-.55,3.16,3.16,0,0,0-1.91.61,5.38,5.38,0,0,0-1.42,1.62,10.44,10.44,0,0,0-1,2.43,25.43,25.43,0,0,0-.65,3c-.17,1.07-.28,2.19-.35,3.35S274.14,56.38,274.14,57.54Z" />
    <path id="s-3" data-name="s" class="cls-3"
        d="M290,54.46c1.09-.94,2-1.72,2.66-2.34s1.27-1.2,1.76-1.72a18.69,18.69,0,0,0,1.33-1.56L297.13,47l2-2.65q1.17-1.58,3-3.91a11.6,11.6,0,0,1,.85-1,6.79,6.79,0,0,1,1-.89,5.76,5.76,0,0,1,1.26-.65,4.65,4.65,0,0,1,1.54-.24,6.16,6.16,0,0,1,2.17.3,2.7,2.7,0,0,1,1.11.75,1.77,1.77,0,0,1,.41.92,7,7,0,0,1,.06.84,2.91,2.91,0,0,1-.56,1.55,15.93,15.93,0,0,1-1.23,1.64c-.45.53-.87,1-1.27,1.45a3.13,3.13,0,0,0-.69,1,9.4,9.4,0,0,0,.13,1.66,14.11,14.11,0,0,0,.35,1.46c.15.48.3,1,.46,1.53s.31,1.15.45,1.86A19.9,19.9,0,0,1,308.6,55c.09.92.14,2,.14,3.25A17.07,17.07,0,0,1,311,56.94l2.53-1.19c.88-.41,1.78-.86,2.71-1.36a22.7,22.7,0,0,0,2.8-1.8l0,6.56a26.65,26.65,0,0,1-4.21,2.63,40.25,40.25,0,0,1-5,2.17,37,37,0,0,1-5.3,1.48,25.78,25.78,0,0,1-5.08.54,14.9,14.9,0,0,1-3.22-.32,8.24,8.24,0,0,1-2.63-1,5.62,5.62,0,0,1-1.83-1.8,6,6,0,0,1-.85-2.7,5.74,5.74,0,0,1-.8.12l-.78,0c-.31,0-.6,0-.88,0a1.41,1.41,0,0,1-.7-.22,1.3,1.3,0,0,1-.47-.61,3.27,3.27,0,0,1-.18-1.22,2.47,2.47,0,0,1,.36-1.3,4.82,4.82,0,0,1,.82-1.07,8.54,8.54,0,0,1,.93-.82C289.57,54.78,289.8,54.6,290,54.46Zm3.75,3.75a1.17,1.17,0,0,1,.77.44l1,1a8,8,0,0,0,1.29,1,3.14,3.14,0,0,0,1.67.44,4,4,0,0,0,1.89-.38,3.11,3.11,0,0,0,1.19-1,3.9,3.9,0,0,0,.61-1.46,8.31,8.31,0,0,0,.18-1.75,12.76,12.76,0,0,0-.1-1.61c-.07-.54-.16-1.07-.27-1.57s-.22-1-.35-1.4-.24-.82-.33-1.13Z" />
    <path id="t-3" data-name="t" class="cls-3"
        d="M340.61,59.15q-2.81,1.64-5,2.87c-1.46.82-2.77,1.5-3.91,2a21.6,21.6,0,0,1-3.05,1.23,8.39,8.39,0,0,1-2.41.41,6.13,6.13,0,0,1-3.93-1.35,10.17,10.17,0,0,1-2.84-3.88,24.6,24.6,0,0,1-1.72-6.14,52.16,52.16,0,0,1-.57-8.11q0-1.75.15-3.75c.1-1.33.23-2.65.41-4-.59-.07-1-.15-1.36-.22l-1-.2c-.36-.07-.82-.14-1.37-.22s-1.37-.18-2.42-.29a2.75,2.75,0,0,1-1.09-.34,1.62,1.62,0,0,1-.55-.59,1.77,1.77,0,0,1-.21-.7q0-.36,0-.63a1,1,0,0,1,.57-.89,4.72,4.72,0,0,1,1.47-.46,13.07,13.07,0,0,1,2-.16c.72,0,1.4,0,2.05,0l1.76,0a6.93,6.93,0,0,0,1.07,0,67.35,67.35,0,0,1,2-7.67,44.37,44.37,0,0,1,2.72-6.59,18.55,18.55,0,0,1,3.3-4.63,5.35,5.35,0,0,1,3.75-1.74,4,4,0,0,1,2.3.7,6.27,6.27,0,0,1,1.77,1.88,9.6,9.6,0,0,1,1.13,2.74,13.41,13.41,0,0,1,.39,3.26,12,12,0,0,1-.41,3,22.32,22.32,0,0,1-1.11,3.25,33.53,33.53,0,0,1-1.66,3.35c-.63,1.14-1.3,2.26-2,3.37.17,0,.47,0,.88.05l1.42,0,1.74.07,1.82.08,1.64.05,1.26.06a1,1,0,0,1,.85.59,3.38,3.38,0,0,1,.26,1.41,2.39,2.39,0,0,1-.58,1.67,1.75,1.75,0,0,1-1.29.64H327.49c-.57.78-1.14,1.55-1.72,2.3s-1.11,1.43-1.59,2q-.12,1.81-.21,3.57c0,.51,0,1-.06,1.57l-.06,1.59c0,.53,0,1,0,1.53s0,.94,0,1.35a10.1,10.1,0,0,0,.3,2.66,4.64,4.64,0,0,0,.85,1.77,3.12,3.12,0,0,0,1.36,1,4.93,4.93,0,0,0,1.8.31,5.21,5.21,0,0,0,1.54-.3,16.48,16.48,0,0,0,2-.8c.73-.34,1.5-.75,2.32-1.22s1.61-1,2.4-1.53,1.55-1.15,2.27-1.76a22.16,22.16,0,0,0,2-1.89Zm-9.37-37.09a6.39,6.39,0,0,0-.05-.72,2.76,2.76,0,0,0-.19-.75,1.43,1.43,0,0,0-.45-.58,1.41,1.41,0,0,0-.87-.24q-.76,0-1.53,1.35a20.08,20.08,0,0,0-1.5,3.44q-.72,2.1-1.35,4.62t-1.15,4.89l.88.1.9.1c.59-1,1.2-2.07,1.83-3.23s1.21-2.31,1.72-3.43a33.28,33.28,0,0,0,1.26-3.15A7.94,7.94,0,0,0,331.24,22.06Z" />
    <path id="e-3" data-name="e" class="cls-3"
        d="M349.61,65.71a10.86,10.86,0,0,1-4.82-1A9.86,9.86,0,0,1,341.34,62a11.43,11.43,0,0,1-2.06-3.89,15.58,15.58,0,0,1-.69-4.65,20.67,20.67,0,0,1,1.3-7.06,18.33,18.33,0,0,1,1.66-3.35,13,13,0,0,1,2.33-2.81,10.75,10.75,0,0,1,3-1.94,9.07,9.07,0,0,1,3.67-.72,8.65,8.65,0,0,1,3,.53A7.57,7.57,0,0,1,356,39.62a6.75,6.75,0,0,1,1.62,2.3,7.53,7.53,0,0,1,.59,3,8.11,8.11,0,0,1-.9,3.63A13.16,13.16,0,0,1,354.88,52a17.66,17.66,0,0,1-3.77,2.87,20.05,20.05,0,0,1-4.73,2,9.15,9.15,0,0,0,.87,1.32,3.84,3.84,0,0,0,.86.82,2.8,2.8,0,0,0,.92.41,4.36,4.36,0,0,0,1,.12,11.12,11.12,0,0,0,3.71-.7A24.49,24.49,0,0,0,357.57,57a31.41,31.41,0,0,0,3.49-2.3,30.48,30.48,0,0,0,2.78-2.36l3.78,3.93A38.39,38.39,0,0,1,362.14,61c-.84.59-1.74,1.16-2.71,1.73a23.9,23.9,0,0,1-3,1.51,20.89,20.89,0,0,1-3.31,1A15.08,15.08,0,0,1,349.61,65.71Zm-3.9-13.77a5.84,5.84,0,0,0,2.3-.54A10.43,10.43,0,0,0,350.32,50a9.22,9.22,0,0,0,1.8-1.85,3.28,3.28,0,0,0,.74-1.93,4.28,4.28,0,0,0-.49-2.17,1.37,1.37,0,0,0-1.18-.85,4.65,4.65,0,0,0-2.16.47,4.78,4.78,0,0,0-1.49,1.21,6.59,6.59,0,0,0-1,1.7,11.55,11.55,0,0,0-.55,1.92,14.29,14.29,0,0,0-.25,1.88C345.73,51,345.71,51.51,345.71,51.94Z" />
    <path id="r-3" data-name="r" class="cls-3"
        d="M362.76,59.59c0-.86.05-1.86.15-3s.22-2.34.39-3.61.36-2.57.59-3.89.46-2.57.71-3.76.51-2.29.77-3.28a18.91,18.91,0,0,1,.76-2.46,5.32,5.32,0,0,1,.47-1,2,2,0,0,1,.54-.6,1.73,1.73,0,0,1,.76-.29,9.56,9.56,0,0,1,2.31,0,.9.9,0,0,1,.63.35,1.55,1.55,0,0,1,.25.81c0,.35.05.83.05,1.43v2.62c0,1,0,2,.06,3h.32c.39-.79.83-1.66,1.32-2.63a17.15,17.15,0,0,1,1.7-2.71,10,10,0,0,1,2.19-2.12,4.8,4.8,0,0,1,2.85-.86,3.07,3.07,0,0,1,1.08.19,2.57,2.57,0,0,1,.92.54,2.37,2.37,0,0,1,.63.86,2.7,2.7,0,0,1,.24,1.16,8.93,8.93,0,0,1-.15,1.39c-.1.6-.21,1.22-.32,1.88s-.23,1.28-.32,1.9a10,10,0,0,0-.15,1.54,6.72,6.72,0,0,0,.2,1.76,3.25,3.25,0,0,0,.55,1.12,1.72,1.72,0,0,0,.76.6,2.25,2.25,0,0,0,.89.18,6.93,6.93,0,0,0,2.73-.59,18.72,18.72,0,0,0,2.57-1.31,25.41,25.41,0,0,0,2.7-1.94l-.44,6.86-1.73,1.11A21.25,21.25,0,0,1,387.68,56a16.79,16.79,0,0,1-2.29.91,8.3,8.3,0,0,1-2.42.36,6.28,6.28,0,0,1-3.54-.89A6.59,6.59,0,0,1,377.29,54a11.77,11.77,0,0,1-1.17-3.26c-.26-1.2-.46-2.41-.62-3.64H375l-5.24,14.62a16.12,16.12,0,0,1-.78,1.88,6.31,6.31,0,0,1-.74,1.22,2.34,2.34,0,0,1-.82.66,2.4,2.4,0,0,1-1,.19,3.07,3.07,0,0,1-3.06-1.89,6.49,6.49,0,0,1-.53-2A18.6,18.6,0,0,1,362.76,59.59Z" />
</svg>