<svg xmlns="http://www.w3.org/2000/svg" xmlns:xlink="http://www.w3.org/1999/xlink" viewBox="0 0 136 64">
    <defs>
        <style>
            .cls-1 {
                isolation: isolate;
            }

            .cls-2 {
                fill: url(#Dégradé_sans_nom_387);
            }

            .cls-3 {
                mix-blend-mode: lighten;
            }

            .cls-4 {
                fill: url(#Dégradé_sans_nom_400);
            }

            .cls-5,
            .cls-6,
            .cls-8 {
                font-size: 60px;
                font-family: Pacifico-Regular, Pacifico;
                letter-spacing: 0em;
            }

            .cls-6 {
                fill: #343333;
            }

            .cls-7 {
                mix-blend-mode: color-dodge;
            }

            .cls-8 {
                fill: none;
                stroke: #d9e7f4;
                stroke-width: 2px;
            }
        </style>
        <linearGradient id="Dégradé_sans_nom_387" x1="8.14" y1="32" x2="128.14" y2="32" gradientUnits="userSpaceOnUse">
            <stop offset="0" stop-color="#3474ab" />
            <stop offset="0.5" stop-color="#2a5d89" />
            <stop offset="0.5" stop-color="#2b5f8c" />
            <stop offset="0.51" stop-color="#346fa2" />
            <stop offset="0.51" stop-color="#3a7ab3" />
            <stop offset="0.52" stop-color="#3f83be" />
            <stop offset="0.53" stop-color="#4188c5" />
            <stop offset="0.55" stop-color="#4289c7" />
        </linearGradient>
        <linearGradient id="Dégradé_sans_nom_400" x1="7.15" y1="32" x2="129.15" y2="32" gradientUnits="userSpaceOnUse">
            <stop offset="0" stop-color="#2e608b" />
            <stop offset="0.03" stop-color="#2f6492" />
            <stop offset="0.1" stop-color="#326da0" />
            <stop offset="0.2" stop-color="#3472a8" />
            <stop offset="0.35" stop-color="#3474ab" />
            <stop offset="0.38" stop-color="#3d7aaf" />
            <stop offset="0.42" stop-color="#558bb9" />
            <stop offset="0.47" stop-color="#7da6c9" />
            <stop offset="0.5" stop-color="#99bad5" />
            <stop offset="0.52" stop-color="#8bb2d3" />
            <stop offset="0.6" stop-color="#639ccc" />
            <stop offset="0.66" stop-color="#4b8ec8" />
            <stop offset="0.7" stop-color="#4289c7" />
            <stop offset="0.81" stop-color="#4187c4" />
            <stop offset="0.87" stop-color="#3e82bc" />
            <stop offset="0.93" stop-color="#3a78ae" />
            <stop offset="0.97" stop-color="#336a9a" />
            <stop offset="1" stop-color="#2e608b" />
        </linearGradient>
    </defs>
    <g class="cls-1">
        <g id="Logo_JHipster" data-name="Logo JHipster">
            <g id="Logo">
                <g id="layer1">
                    <g id="v2-bowtie-full">
                        <path class="cls-2"
                            d="M68.63,35.12l-.51-.32c-13.94,8.81-38.5,23-49.51,20.86C2.08,52.41,9,35.44,13.57,15.13,18-4.48,67.93,23,68.41,22.76c18-9.24,50.43-23.45,54.25-7.7,5.2,21.4,11,37.67-4.79,40.73C107,57.9,82.61,43.94,68.63,35.12Z" />
                        <g class="cls-3">
                            <path class="cls-4"
                                d="M111.39,8c5.79,0,10,2,11.27,7.06,5.2,21.4,11,37.67-4.79,40.73a13.36,13.36,0,0,1-2.44.21c-11.79,0-33.78-12.67-46.8-20.88l-.51-.32C55.12,43,32.87,55.87,21,55.87a12.89,12.89,0,0,1-2.39-.21C2.08,52.41,9,35.44,13.57,15.13,14.74,10,19.06,8.07,24.8,8.07c16,0,42.92,14.69,43.6,14.69h0C80.56,16.52,99.32,8,111.39,8m0-1h0c-11.86,0-29.87,7.93-43,14.67l-2-1C59.43,17.35,38.28,7.07,24.8,7.07c-6.92,0-11,2.64-12.21,7.84-.61,2.7-1.27,5.36-1.9,7.92C7.76,34.66,5.23,44.88,9.19,51.11,11,54,14,55.78,18.41,56.65a14.13,14.13,0,0,0,2.59.22c12.06,0,34.47-12.93,47.12-20.89,15.21,9.59,35.76,21,47.31,21a14.39,14.39,0,0,0,2.63-.23c4.27-.83,7.22-2.6,9-5.43,4.09-6.43,1.41-17.1-2-30.61-.48-1.91-1-3.89-1.47-5.9C122.37,9.63,118.26,7,111.39,7Z" />
                        </g>
                    </g>
                </g>
            </g>
            <g id="Jhipster-Title"><text class="cls-5" transform="translate(128.08 48.2)">JHipster</text><text
                    class="cls-6" transform="translate(128.08 48.2)">JHipster</text>
                <g class="cls-7"><text class="cls-8" transform="translate(128.08 48.2)">JHipster</text></g><text
                    class="cls-6" transform="translate(128.08 48.2)">JHipster</text>
            </g>
        </g>
    </g>
</svg>